%TF.GenerationSoftware,KiCad,Pcbnew,8.0.8*%
%TF.CreationDate,2025-02-16T23:15:15+09:00*%
%TF.ProjectId,macro,6d616372-6f2e-46b6-9963-61645f706362,rev?*%
%TF.SameCoordinates,Original*%
%TF.FileFunction,Legend,Top*%
%TF.FilePolarity,Positive*%
%FSLAX46Y46*%
G04 Gerber Fmt 4.6, Leading zero omitted, Abs format (unit mm)*
G04 Created by KiCad (PCBNEW 8.0.8) date 2025-02-16 23:15:15*
%MOMM*%
%LPD*%
G01*
G04 APERTURE LIST*
%ADD10C,0.150000*%
G04 APERTURE END LIST*
D10*
X36833332Y-88254819D02*
X36499999Y-87778628D01*
X36261904Y-88254819D02*
X36261904Y-87254819D01*
X36261904Y-87254819D02*
X36642856Y-87254819D01*
X36642856Y-87254819D02*
X36738094Y-87302438D01*
X36738094Y-87302438D02*
X36785713Y-87350057D01*
X36785713Y-87350057D02*
X36833332Y-87445295D01*
X36833332Y-87445295D02*
X36833332Y-87588152D01*
X36833332Y-87588152D02*
X36785713Y-87683390D01*
X36785713Y-87683390D02*
X36738094Y-87731009D01*
X36738094Y-87731009D02*
X36642856Y-87778628D01*
X36642856Y-87778628D02*
X36261904Y-87778628D01*
X37642856Y-88207200D02*
X37547618Y-88254819D01*
X37547618Y-88254819D02*
X37357142Y-88254819D01*
X37357142Y-88254819D02*
X37261904Y-88207200D01*
X37261904Y-88207200D02*
X37214285Y-88111961D01*
X37214285Y-88111961D02*
X37214285Y-87731009D01*
X37214285Y-87731009D02*
X37261904Y-87635771D01*
X37261904Y-87635771D02*
X37357142Y-87588152D01*
X37357142Y-87588152D02*
X37547618Y-87588152D01*
X37547618Y-87588152D02*
X37642856Y-87635771D01*
X37642856Y-87635771D02*
X37690475Y-87731009D01*
X37690475Y-87731009D02*
X37690475Y-87826247D01*
X37690475Y-87826247D02*
X37214285Y-87921485D01*
X37976190Y-87588152D02*
X38357142Y-87588152D01*
X38119047Y-88254819D02*
X38119047Y-87397676D01*
X38119047Y-87397676D02*
X38166666Y-87302438D01*
X38166666Y-87302438D02*
X38261904Y-87254819D01*
X38261904Y-87254819D02*
X38357142Y-87254819D01*
X38833333Y-87254819D02*
X38833333Y-87492914D01*
X38595238Y-87397676D02*
X38833333Y-87492914D01*
X38833333Y-87492914D02*
X39071428Y-87397676D01*
X38690476Y-87683390D02*
X38833333Y-87492914D01*
X38833333Y-87492914D02*
X38976190Y-87683390D01*
X39595238Y-87254819D02*
X39595238Y-87492914D01*
X39357143Y-87397676D02*
X39595238Y-87492914D01*
X39595238Y-87492914D02*
X39833333Y-87397676D01*
X39452381Y-87683390D02*
X39595238Y-87492914D01*
X39595238Y-87492914D02*
X39738095Y-87683390D01*
X130833332Y-88254819D02*
X130499999Y-87778628D01*
X130261904Y-88254819D02*
X130261904Y-87254819D01*
X130261904Y-87254819D02*
X130642856Y-87254819D01*
X130642856Y-87254819D02*
X130738094Y-87302438D01*
X130738094Y-87302438D02*
X130785713Y-87350057D01*
X130785713Y-87350057D02*
X130833332Y-87445295D01*
X130833332Y-87445295D02*
X130833332Y-87588152D01*
X130833332Y-87588152D02*
X130785713Y-87683390D01*
X130785713Y-87683390D02*
X130738094Y-87731009D01*
X130738094Y-87731009D02*
X130642856Y-87778628D01*
X130642856Y-87778628D02*
X130261904Y-87778628D01*
X131642856Y-88207200D02*
X131547618Y-88254819D01*
X131547618Y-88254819D02*
X131357142Y-88254819D01*
X131357142Y-88254819D02*
X131261904Y-88207200D01*
X131261904Y-88207200D02*
X131214285Y-88111961D01*
X131214285Y-88111961D02*
X131214285Y-87731009D01*
X131214285Y-87731009D02*
X131261904Y-87635771D01*
X131261904Y-87635771D02*
X131357142Y-87588152D01*
X131357142Y-87588152D02*
X131547618Y-87588152D01*
X131547618Y-87588152D02*
X131642856Y-87635771D01*
X131642856Y-87635771D02*
X131690475Y-87731009D01*
X131690475Y-87731009D02*
X131690475Y-87826247D01*
X131690475Y-87826247D02*
X131214285Y-87921485D01*
X131976190Y-87588152D02*
X132357142Y-87588152D01*
X132119047Y-88254819D02*
X132119047Y-87397676D01*
X132119047Y-87397676D02*
X132166666Y-87302438D01*
X132166666Y-87302438D02*
X132261904Y-87254819D01*
X132261904Y-87254819D02*
X132357142Y-87254819D01*
X132833333Y-87254819D02*
X132833333Y-87492914D01*
X132595238Y-87397676D02*
X132833333Y-87492914D01*
X132833333Y-87492914D02*
X133071428Y-87397676D01*
X132690476Y-87683390D02*
X132833333Y-87492914D01*
X132833333Y-87492914D02*
X132976190Y-87683390D01*
X133595238Y-87254819D02*
X133595238Y-87492914D01*
X133357143Y-87397676D02*
X133595238Y-87492914D01*
X133595238Y-87492914D02*
X133833333Y-87397676D01*
X133452381Y-87683390D02*
X133595238Y-87492914D01*
X133595238Y-87492914D02*
X133738095Y-87683390D01*
X130833332Y-40254819D02*
X130499999Y-39778628D01*
X130261904Y-40254819D02*
X130261904Y-39254819D01*
X130261904Y-39254819D02*
X130642856Y-39254819D01*
X130642856Y-39254819D02*
X130738094Y-39302438D01*
X130738094Y-39302438D02*
X130785713Y-39350057D01*
X130785713Y-39350057D02*
X130833332Y-39445295D01*
X130833332Y-39445295D02*
X130833332Y-39588152D01*
X130833332Y-39588152D02*
X130785713Y-39683390D01*
X130785713Y-39683390D02*
X130738094Y-39731009D01*
X130738094Y-39731009D02*
X130642856Y-39778628D01*
X130642856Y-39778628D02*
X130261904Y-39778628D01*
X131642856Y-40207200D02*
X131547618Y-40254819D01*
X131547618Y-40254819D02*
X131357142Y-40254819D01*
X131357142Y-40254819D02*
X131261904Y-40207200D01*
X131261904Y-40207200D02*
X131214285Y-40111961D01*
X131214285Y-40111961D02*
X131214285Y-39731009D01*
X131214285Y-39731009D02*
X131261904Y-39635771D01*
X131261904Y-39635771D02*
X131357142Y-39588152D01*
X131357142Y-39588152D02*
X131547618Y-39588152D01*
X131547618Y-39588152D02*
X131642856Y-39635771D01*
X131642856Y-39635771D02*
X131690475Y-39731009D01*
X131690475Y-39731009D02*
X131690475Y-39826247D01*
X131690475Y-39826247D02*
X131214285Y-39921485D01*
X131976190Y-39588152D02*
X132357142Y-39588152D01*
X132119047Y-40254819D02*
X132119047Y-39397676D01*
X132119047Y-39397676D02*
X132166666Y-39302438D01*
X132166666Y-39302438D02*
X132261904Y-39254819D01*
X132261904Y-39254819D02*
X132357142Y-39254819D01*
X132833333Y-39254819D02*
X132833333Y-39492914D01*
X132595238Y-39397676D02*
X132833333Y-39492914D01*
X132833333Y-39492914D02*
X133071428Y-39397676D01*
X132690476Y-39683390D02*
X132833333Y-39492914D01*
X132833333Y-39492914D02*
X132976190Y-39683390D01*
X133595238Y-39254819D02*
X133595238Y-39492914D01*
X133357143Y-39397676D02*
X133595238Y-39492914D01*
X133595238Y-39492914D02*
X133833333Y-39397676D01*
X133452381Y-39683390D02*
X133595238Y-39492914D01*
X133595238Y-39492914D02*
X133738095Y-39683390D01*
X36833332Y-40254819D02*
X36499999Y-39778628D01*
X36261904Y-40254819D02*
X36261904Y-39254819D01*
X36261904Y-39254819D02*
X36642856Y-39254819D01*
X36642856Y-39254819D02*
X36738094Y-39302438D01*
X36738094Y-39302438D02*
X36785713Y-39350057D01*
X36785713Y-39350057D02*
X36833332Y-39445295D01*
X36833332Y-39445295D02*
X36833332Y-39588152D01*
X36833332Y-39588152D02*
X36785713Y-39683390D01*
X36785713Y-39683390D02*
X36738094Y-39731009D01*
X36738094Y-39731009D02*
X36642856Y-39778628D01*
X36642856Y-39778628D02*
X36261904Y-39778628D01*
X37642856Y-40207200D02*
X37547618Y-40254819D01*
X37547618Y-40254819D02*
X37357142Y-40254819D01*
X37357142Y-40254819D02*
X37261904Y-40207200D01*
X37261904Y-40207200D02*
X37214285Y-40111961D01*
X37214285Y-40111961D02*
X37214285Y-39731009D01*
X37214285Y-39731009D02*
X37261904Y-39635771D01*
X37261904Y-39635771D02*
X37357142Y-39588152D01*
X37357142Y-39588152D02*
X37547618Y-39588152D01*
X37547618Y-39588152D02*
X37642856Y-39635771D01*
X37642856Y-39635771D02*
X37690475Y-39731009D01*
X37690475Y-39731009D02*
X37690475Y-39826247D01*
X37690475Y-39826247D02*
X37214285Y-39921485D01*
X37976190Y-39588152D02*
X38357142Y-39588152D01*
X38119047Y-40254819D02*
X38119047Y-39397676D01*
X38119047Y-39397676D02*
X38166666Y-39302438D01*
X38166666Y-39302438D02*
X38261904Y-39254819D01*
X38261904Y-39254819D02*
X38357142Y-39254819D01*
X38833333Y-39254819D02*
X38833333Y-39492914D01*
X38595238Y-39397676D02*
X38833333Y-39492914D01*
X38833333Y-39492914D02*
X39071428Y-39397676D01*
X38690476Y-39683390D02*
X38833333Y-39492914D01*
X38833333Y-39492914D02*
X38976190Y-39683390D01*
X39595238Y-39254819D02*
X39595238Y-39492914D01*
X39357143Y-39397676D02*
X39595238Y-39492914D01*
X39595238Y-39492914D02*
X39833333Y-39397676D01*
X39452381Y-39683390D02*
X39595238Y-39492914D01*
X39595238Y-39492914D02*
X39738095Y-39683390D01*
M02*
