%TF.GenerationSoftware,KiCad,Pcbnew,8.0.8*%
%TF.CreationDate,2025-02-16T23:14:20+09:00*%
%TF.ProjectId,macro,6d616372-6f2e-46b6-9963-61645f706362,rev?*%
%TF.SameCoordinates,Original*%
%TF.FileFunction,Copper,L2,Bot*%
%TF.FilePolarity,Positive*%
%FSLAX46Y46*%
G04 Gerber Fmt 4.6, Leading zero omitted, Abs format (unit mm)*
G04 Created by KiCad (PCBNEW 8.0.8) date 2025-02-16 23:14:20*
%MOMM*%
%LPD*%
G01*
G04 APERTURE LIST*
%TA.AperFunction,ComponentPad*%
%ADD10O,2.500000X2.000000*%
%TD*%
%TA.AperFunction,ComponentPad*%
%ADD11C,2.000000*%
%TD*%
%TA.AperFunction,ComponentPad*%
%ADD12R,1.397000X1.397000*%
%TD*%
%TA.AperFunction,SMDPad,CuDef*%
%ADD13R,1.300000X0.950000*%
%TD*%
%TA.AperFunction,ComponentPad*%
%ADD14C,1.397000*%
%TD*%
%TA.AperFunction,ComponentPad*%
%ADD15R,1.752600X1.752600*%
%TD*%
%TA.AperFunction,ComponentPad*%
%ADD16C,1.752600*%
%TD*%
%TA.AperFunction,ViaPad*%
%ADD17C,0.600000*%
%TD*%
%TA.AperFunction,Conductor*%
%ADD18C,0.250000*%
%TD*%
%TA.AperFunction,Conductor*%
%ADD19C,0.500000*%
%TD*%
G04 APERTURE END LIST*
D10*
X111822500Y-65460000D03*
X118172500Y-62920000D03*
X92772500Y-65460000D03*
X99122500Y-62920000D03*
D11*
X57250000Y-76050000D03*
X50750000Y-76050000D03*
D10*
X73722500Y-65460000D03*
X80072500Y-62920000D03*
X73722500Y-84510000D03*
X80072500Y-81970000D03*
D12*
X112140000Y-72762500D03*
D13*
X114175000Y-72762500D03*
X117725000Y-72762500D03*
D14*
X119760000Y-72762500D03*
D10*
X73722500Y-46410000D03*
X80072500Y-43870000D03*
X111827890Y-84510000D03*
X118177890Y-81970000D03*
D12*
X93090000Y-53712500D03*
D13*
X95125000Y-53712500D03*
X98675000Y-53712500D03*
D14*
X100710000Y-53712500D03*
D15*
X46380000Y-43030000D03*
D16*
X46380000Y-45570000D03*
X46380000Y-48110000D03*
X46380000Y-50650000D03*
X46380000Y-53190000D03*
X46380000Y-55730000D03*
X46380000Y-58270000D03*
X46380000Y-60810000D03*
X46380000Y-63350000D03*
X46380000Y-65890000D03*
X46380000Y-68430000D03*
X46380000Y-70970000D03*
X61620000Y-70970000D03*
X61620000Y-68430000D03*
X61620000Y-65890000D03*
X61620000Y-63350000D03*
X61620000Y-60810000D03*
X61620000Y-58270000D03*
X61620000Y-55730000D03*
X61620000Y-53190000D03*
X61620000Y-50650000D03*
X61620000Y-48110000D03*
X61620000Y-45570000D03*
X61620000Y-43030000D03*
D10*
X92780471Y-84510000D03*
X99130471Y-81970000D03*
X111822500Y-46410000D03*
X118172500Y-43870000D03*
D12*
X50190000Y-80812500D03*
D13*
X52225000Y-80812500D03*
X55775000Y-80812500D03*
D14*
X57810000Y-80812500D03*
D12*
X112140000Y-53712500D03*
D13*
X114175000Y-53712500D03*
X117725000Y-53712500D03*
D14*
X119760000Y-53712500D03*
D12*
X112140000Y-91812500D03*
D13*
X114175000Y-91812500D03*
X117725000Y-91812500D03*
D14*
X119760000Y-91812500D03*
D12*
X74040000Y-53712500D03*
D13*
X76075000Y-53712500D03*
X79625000Y-53712500D03*
D14*
X81660000Y-53712500D03*
D12*
X93090000Y-91812500D03*
D13*
X95125000Y-91812500D03*
X98675000Y-91812500D03*
D14*
X100710000Y-91812500D03*
D12*
X93090000Y-72762500D03*
D13*
X95125000Y-72762500D03*
X98675000Y-72762500D03*
D14*
X100710000Y-72762500D03*
D10*
X92772500Y-46410000D03*
X99122500Y-43870000D03*
D12*
X74040000Y-72762500D03*
D13*
X76075000Y-72762500D03*
X79625000Y-72762500D03*
D14*
X81660000Y-72762500D03*
D12*
X74040000Y-91812500D03*
D13*
X76075000Y-91812500D03*
X79625000Y-91812500D03*
D14*
X81660000Y-91812500D03*
D17*
X74000000Y-90000000D03*
X93000000Y-90000000D03*
X112000000Y-90000000D03*
D18*
X92772500Y-46410000D02*
X111822500Y-46410000D01*
X61620000Y-53190000D02*
X68400000Y-46410000D01*
X73722500Y-46410000D02*
X92772500Y-46410000D01*
X68400000Y-46410000D02*
X73722500Y-46410000D01*
X79625000Y-53712500D02*
X81660000Y-53712500D01*
X81660000Y-72762500D02*
X79625000Y-72762500D01*
X61620000Y-55730000D02*
X63992500Y-55730000D01*
X73722500Y-65460000D02*
X92772500Y-65460000D01*
X63992500Y-55730000D02*
X73722500Y-65460000D01*
X92772500Y-65460000D02*
X111822500Y-65460000D01*
X61620000Y-58270000D02*
X71127500Y-67777500D01*
X71127500Y-67777500D02*
X71127500Y-81915000D01*
X71127500Y-81915000D02*
X73722500Y-84510000D01*
X92780471Y-84510000D02*
X111827890Y-84510000D01*
X73722500Y-84510000D02*
X92780471Y-84510000D01*
X81660000Y-91812500D02*
X79625000Y-91812500D01*
X98675000Y-53712500D02*
X100710000Y-53712500D01*
X100710000Y-72762500D02*
X98675000Y-72762500D01*
X100710000Y-91812500D02*
X98675000Y-91812500D01*
X117725000Y-53712500D02*
X119760000Y-53712500D01*
X117725000Y-72762500D02*
X119760000Y-72762500D01*
X117725000Y-91812500D02*
X119760000Y-91812500D01*
X61620000Y-48110000D02*
X57250000Y-52480000D01*
X57250000Y-52480000D02*
X57250000Y-76050000D01*
X55775000Y-80812500D02*
X57810000Y-80812500D01*
D19*
X57810000Y-80812500D02*
X53047500Y-76050000D01*
X53047500Y-76050000D02*
X50750000Y-76050000D01*
D18*
X48725000Y-65695000D02*
X48725000Y-81725000D01*
X74040000Y-90040000D02*
X74000000Y-90000000D01*
X74040000Y-91812500D02*
X74040000Y-90040000D01*
X48725000Y-81725000D02*
X58812500Y-91812500D01*
X76075000Y-72762500D02*
X74040000Y-72762500D01*
X76075000Y-91812500D02*
X74040000Y-91812500D01*
X46380000Y-63350000D02*
X48725000Y-65695000D01*
X58812500Y-91812500D02*
X74040000Y-91812500D01*
X76075000Y-53712500D02*
X74040000Y-53712500D01*
X45178700Y-62011300D02*
X45178700Y-79133888D01*
X93090000Y-90090000D02*
X93000000Y-90000000D01*
X93090000Y-53712500D02*
X95125000Y-53712500D01*
X95125000Y-72762500D02*
X93090000Y-72762500D01*
X93090000Y-91812500D02*
X93090000Y-90090000D01*
X93090000Y-91812500D02*
X95125000Y-91812500D01*
X59044812Y-93000000D02*
X91902500Y-93000000D01*
X46380000Y-60810000D02*
X45178700Y-62011300D01*
X45178700Y-79133888D02*
X59044812Y-93000000D01*
X91902500Y-93000000D02*
X93090000Y-91812500D01*
X44728700Y-59921300D02*
X44728700Y-79728700D01*
X46380000Y-58270000D02*
X44728700Y-59921300D01*
X112140000Y-91812500D02*
X114175000Y-91812500D01*
X112140000Y-72762500D02*
X114175000Y-72762500D01*
X110502500Y-93450000D02*
X112140000Y-91812500D01*
X112140000Y-90140000D02*
X112000000Y-90000000D01*
X44728700Y-79728700D02*
X58450000Y-93450000D01*
X58450000Y-93450000D02*
X110502500Y-93450000D01*
X114175000Y-53712500D02*
X112140000Y-53712500D01*
X112140000Y-91812500D02*
X112140000Y-90140000D01*
D19*
X46380000Y-48110000D02*
X46380000Y-50650000D01*
X49300000Y-53570000D02*
X49300000Y-79922500D01*
X47593700Y-46896300D02*
X46380000Y-48110000D01*
X50190000Y-80812500D02*
X52225000Y-80812500D01*
X46380000Y-50650000D02*
X49300000Y-53570000D01*
X49300000Y-79922500D02*
X50190000Y-80812500D01*
X60293700Y-46896300D02*
X47593700Y-46896300D01*
X61620000Y-45570000D02*
X60293700Y-46896300D01*
M02*
