%TF.GenerationSoftware,KiCad,Pcbnew,8.0.8*%
%TF.CreationDate,2025-02-16T23:14:20+09:00*%
%TF.ProjectId,macro,6d616372-6f2e-46b6-9963-61645f706362,rev?*%
%TF.SameCoordinates,Original*%
%TF.FileFunction,Soldermask,Bot*%
%TF.FilePolarity,Negative*%
%FSLAX46Y46*%
G04 Gerber Fmt 4.6, Leading zero omitted, Abs format (unit mm)*
G04 Created by KiCad (PCBNEW 8.0.8) date 2025-02-16 23:14:20*
%MOMM*%
%LPD*%
G01*
G04 APERTURE LIST*
%ADD10C,6.500000*%
%ADD11C,1.900000*%
%ADD12C,4.000000*%
%ADD13O,2.500000X2.000000*%
%ADD14C,2.000000*%
%ADD15R,1.397000X1.397000*%
%ADD16R,1.300000X0.950000*%
%ADD17C,1.397000*%
%ADD18R,1.752600X1.752600*%
%ADD19C,1.752600*%
%ADD20C,0.600000*%
G04 APERTURE END LIST*
D10*
X38000000Y-92000000D03*
D11*
X110552500Y-68000000D03*
D12*
X115632500Y-68000000D03*
D11*
X120712500Y-68000000D03*
D13*
X111822500Y-65460000D03*
X118172500Y-62920000D03*
D11*
X91502500Y-68000000D03*
D12*
X96582500Y-68000000D03*
D11*
X101662500Y-68000000D03*
D13*
X92772500Y-65460000D03*
X99122500Y-62920000D03*
D10*
X132000000Y-92000000D03*
D14*
X57250000Y-76050000D03*
X50750000Y-76050000D03*
D11*
X72452500Y-68000000D03*
D12*
X77532500Y-68000000D03*
D11*
X82612500Y-68000000D03*
D13*
X73722500Y-65460000D03*
X80072500Y-62920000D03*
D11*
X72452500Y-87050000D03*
D12*
X77532500Y-87050000D03*
D11*
X82612500Y-87050000D03*
D13*
X73722500Y-84510000D03*
X80072500Y-81970000D03*
D15*
X112140000Y-72762500D03*
D16*
X114175000Y-72762500D03*
X117725000Y-72762500D03*
D17*
X119760000Y-72762500D03*
D11*
X72452500Y-48950000D03*
D12*
X77532500Y-48950000D03*
D11*
X82612500Y-48950000D03*
D13*
X73722500Y-46410000D03*
X80072500Y-43870000D03*
D11*
X110557890Y-87050000D03*
D12*
X115637890Y-87050000D03*
D11*
X120717890Y-87050000D03*
D13*
X111827890Y-84510000D03*
X118177890Y-81970000D03*
D10*
X132000000Y-44000000D03*
D15*
X93090000Y-53712500D03*
D16*
X95125000Y-53712500D03*
X98675000Y-53712500D03*
D17*
X100710000Y-53712500D03*
D18*
X46380000Y-43030000D03*
D19*
X46380000Y-45570000D03*
X46380000Y-48110000D03*
X46380000Y-50650000D03*
X46380000Y-53190000D03*
X46380000Y-55730000D03*
X46380000Y-58270000D03*
X46380000Y-60810000D03*
X46380000Y-63350000D03*
X46380000Y-65890000D03*
X46380000Y-68430000D03*
X46380000Y-70970000D03*
X61620000Y-70970000D03*
X61620000Y-68430000D03*
X61620000Y-65890000D03*
X61620000Y-63350000D03*
X61620000Y-60810000D03*
X61620000Y-58270000D03*
X61620000Y-55730000D03*
X61620000Y-53190000D03*
X61620000Y-50650000D03*
X61620000Y-48110000D03*
X61620000Y-45570000D03*
X61620000Y-43030000D03*
D11*
X91510471Y-87050000D03*
D12*
X96590471Y-87050000D03*
D11*
X101670471Y-87050000D03*
D13*
X92780471Y-84510000D03*
X99130471Y-81970000D03*
D11*
X110552500Y-48950000D03*
D12*
X115632500Y-48950000D03*
D11*
X120712500Y-48950000D03*
D13*
X111822500Y-46410000D03*
X118172500Y-43870000D03*
D15*
X50190000Y-80812500D03*
D16*
X52225000Y-80812500D03*
X55775000Y-80812500D03*
D17*
X57810000Y-80812500D03*
D15*
X112140000Y-53712500D03*
D16*
X114175000Y-53712500D03*
X117725000Y-53712500D03*
D17*
X119760000Y-53712500D03*
D15*
X112140000Y-91812500D03*
D16*
X114175000Y-91812500D03*
X117725000Y-91812500D03*
D17*
X119760000Y-91812500D03*
D10*
X38000000Y-44000000D03*
D15*
X74040000Y-53712500D03*
D16*
X76075000Y-53712500D03*
X79625000Y-53712500D03*
D17*
X81660000Y-53712500D03*
D15*
X93090000Y-91812500D03*
D16*
X95125000Y-91812500D03*
X98675000Y-91812500D03*
D17*
X100710000Y-91812500D03*
D15*
X93090000Y-72762500D03*
D16*
X95125000Y-72762500D03*
X98675000Y-72762500D03*
D17*
X100710000Y-72762500D03*
D11*
X91502500Y-48950000D03*
D12*
X96582500Y-48950000D03*
D11*
X101662500Y-48950000D03*
D13*
X92772500Y-46410000D03*
X99122500Y-43870000D03*
D15*
X74040000Y-72762500D03*
D16*
X76075000Y-72762500D03*
X79625000Y-72762500D03*
D17*
X81660000Y-72762500D03*
D15*
X74040000Y-91812500D03*
D16*
X76075000Y-91812500D03*
X79625000Y-91812500D03*
D17*
X81660000Y-91812500D03*
D20*
X74000000Y-90000000D03*
X93000000Y-90000000D03*
X112000000Y-90000000D03*
M02*
