M48
; DRILL file {KiCad 8.0.8} date 2025-02-16T23:14:30+0900
; FORMAT={-:-/ absolute / metric / decimal}
; #@! TF.CreationDate,2025-02-16T23:14:30+09:00
; #@! TF.GenerationSoftware,Kicad,Pcbnew,8.0.8
; #@! TF.FileFunction,Plated,1,2,PTH
FMAT,2
METRIC
; #@! TA.AperFunction,Plated,PTH,ViaDrill
T1C0.300
; #@! TA.AperFunction,Plated,PTH,ComponentDrill
T2C0.800
; #@! TA.AperFunction,Plated,PTH,ComponentDrill
T3C0.813
; #@! TA.AperFunction,Plated,PTH,ComponentDrill
T4C1.092
; #@! TA.AperFunction,Plated,PTH,ComponentDrill
T5C1.300
%
G90
G05
T1
X74.0Y-90.0
X93.0Y-90.0
X112.0Y-90.0
T3
X50.19Y-80.812
X57.81Y-80.812
X74.04Y-53.712
X74.04Y-72.763
X74.04Y-91.812
X81.66Y-53.712
X81.66Y-72.763
X81.66Y-91.812
X93.09Y-53.712
X93.09Y-72.763
X93.09Y-91.812
X100.71Y-53.712
X100.71Y-72.763
X100.71Y-91.812
X112.14Y-53.712
X112.14Y-72.763
X112.14Y-91.812
X119.76Y-53.712
X119.76Y-72.763
X119.76Y-91.812
T4
X46.38Y-43.03
X46.38Y-45.57
X46.38Y-48.11
X46.38Y-50.65
X46.38Y-53.19
X46.38Y-55.73
X46.38Y-58.27
X46.38Y-60.81
X46.38Y-63.35
X46.38Y-65.89
X46.38Y-68.43
X46.38Y-70.97
X61.62Y-43.03
X61.62Y-45.57
X61.62Y-48.11
X61.62Y-50.65
X61.62Y-53.19
X61.62Y-55.73
X61.62Y-58.27
X61.62Y-60.81
X61.62Y-63.35
X61.62Y-65.89
X61.62Y-68.43
X61.62Y-70.97
T5
X50.75Y-76.05
X57.25Y-76.05
T2
G00X73.522Y-46.41
M15
G01X73.922Y-46.41
M16
G05
G00X73.522Y-65.46
M15
G01X73.922Y-65.46
M16
G05
G00X73.522Y-84.51
M15
G01X73.922Y-84.51
M16
G05
G00X79.873Y-43.87
M15
G01X80.272Y-43.87
M16
G05
G00X79.873Y-62.92
M15
G01X80.272Y-62.92
M16
G05
G00X79.873Y-81.97
M15
G01X80.272Y-81.97
M16
G05
G00X92.572Y-46.41
M15
G01X92.972Y-46.41
M16
G05
G00X92.572Y-65.46
M15
G01X92.972Y-65.46
M16
G05
G00X92.58Y-84.51
M15
G01X92.98Y-84.51
M16
G05
G00X98.922Y-43.87
M15
G01X99.322Y-43.87
M16
G05
G00X98.922Y-62.92
M15
G01X99.322Y-62.92
M16
G05
G00X98.93Y-81.97
M15
G01X99.33Y-81.97
M16
G05
G00X111.622Y-46.41
M15
G01X112.022Y-46.41
M16
G05
G00X111.622Y-65.46
M15
G01X112.022Y-65.46
M16
G05
G00X111.628Y-84.51
M15
G01X112.028Y-84.51
M16
G05
G00X117.972Y-43.87
M15
G01X118.372Y-43.87
M16
G05
G00X117.972Y-62.92
M15
G01X118.372Y-62.92
M16
G05
G00X117.978Y-81.97
M15
G01X118.378Y-81.97
M16
G05
M30
