M48
; DRILL file {KiCad 8.0.8} date 2025-02-16T23:14:30+0900
; FORMAT={-:-/ absolute / metric / decimal}
; #@! TF.CreationDate,2025-02-16T23:14:30+09:00
; #@! TF.GenerationSoftware,Kicad,Pcbnew,8.0.8
; #@! TF.FileFunction,NonPlated,1,2,NPTH
FMAT,2
METRIC
; #@! TA.AperFunction,NonPlated,NPTH,ComponentDrill
T1C1.900
; #@! TA.AperFunction,NonPlated,NPTH,ComponentDrill
T2C4.000
; #@! TA.AperFunction,NonPlated,NPTH,ComponentDrill
T3C6.500
%
G90
G05
T1
X72.453Y-48.95
X72.453Y-68.0
X72.453Y-87.05
X82.612Y-48.95
X82.612Y-68.0
X82.612Y-87.05
X91.502Y-48.95
X91.502Y-68.0
X91.51Y-87.05
X101.662Y-48.95
X101.662Y-68.0
X101.67Y-87.05
X110.552Y-48.95
X110.552Y-68.0
X110.558Y-87.05
X120.712Y-48.95
X120.712Y-68.0
X120.718Y-87.05
T2
X77.532Y-48.95
X77.532Y-68.0
X77.532Y-87.05
X96.582Y-48.95
X96.582Y-68.0
X96.59Y-87.05
X115.632Y-48.95
X115.632Y-68.0
X115.638Y-87.05
T3
X38.0Y-44.0
X38.0Y-92.0
X132.0Y-44.0
X132.0Y-92.0
M30
