%TF.GenerationSoftware,KiCad,Pcbnew,8.0.8*%
%TF.CreationDate,2025-02-16T23:14:20+09:00*%
%TF.ProjectId,macro,6d616372-6f2e-46b6-9963-61645f706362,rev?*%
%TF.SameCoordinates,Original*%
%TF.FileFunction,Copper,L1,Top*%
%TF.FilePolarity,Positive*%
%FSLAX46Y46*%
G04 Gerber Fmt 4.6, Leading zero omitted, Abs format (unit mm)*
G04 Created by KiCad (PCBNEW 8.0.8) date 2025-02-16 23:14:20*
%MOMM*%
%LPD*%
G01*
G04 APERTURE LIST*
%TA.AperFunction,ComponentPad*%
%ADD10O,2.500000X2.000000*%
%TD*%
%TA.AperFunction,ComponentPad*%
%ADD11C,2.000000*%
%TD*%
%TA.AperFunction,ComponentPad*%
%ADD12R,1.397000X1.397000*%
%TD*%
%TA.AperFunction,ComponentPad*%
%ADD13C,1.397000*%
%TD*%
%TA.AperFunction,ComponentPad*%
%ADD14R,1.752600X1.752600*%
%TD*%
%TA.AperFunction,ComponentPad*%
%ADD15C,1.752600*%
%TD*%
%TA.AperFunction,ViaPad*%
%ADD16C,0.600000*%
%TD*%
%TA.AperFunction,Conductor*%
%ADD17C,0.250000*%
%TD*%
G04 APERTURE END LIST*
D10*
X111822500Y-65460000D03*
X118172500Y-62920000D03*
X92772500Y-65460000D03*
X99122500Y-62920000D03*
D11*
X57250000Y-76050000D03*
X50750000Y-76050000D03*
D10*
X73722500Y-65460000D03*
X80072500Y-62920000D03*
X73722500Y-84510000D03*
X80072500Y-81970000D03*
D12*
X112140000Y-72762500D03*
D13*
X119760000Y-72762500D03*
D10*
X73722500Y-46410000D03*
X80072500Y-43870000D03*
X111827890Y-84510000D03*
X118177890Y-81970000D03*
D12*
X93090000Y-53712500D03*
D13*
X100710000Y-53712500D03*
D14*
X46380000Y-43030000D03*
D15*
X46380000Y-45570000D03*
X46380000Y-48110000D03*
X46380000Y-50650000D03*
X46380000Y-53190000D03*
X46380000Y-55730000D03*
X46380000Y-58270000D03*
X46380000Y-60810000D03*
X46380000Y-63350000D03*
X46380000Y-65890000D03*
X46380000Y-68430000D03*
X46380000Y-70970000D03*
X61620000Y-70970000D03*
X61620000Y-68430000D03*
X61620000Y-65890000D03*
X61620000Y-63350000D03*
X61620000Y-60810000D03*
X61620000Y-58270000D03*
X61620000Y-55730000D03*
X61620000Y-53190000D03*
X61620000Y-50650000D03*
X61620000Y-48110000D03*
X61620000Y-45570000D03*
X61620000Y-43030000D03*
D10*
X92780471Y-84510000D03*
X99130471Y-81970000D03*
X111822500Y-46410000D03*
X118172500Y-43870000D03*
D12*
X50190000Y-80812500D03*
D13*
X57810000Y-80812500D03*
D12*
X112140000Y-53712500D03*
D13*
X119760000Y-53712500D03*
D12*
X112140000Y-91812500D03*
D13*
X119760000Y-91812500D03*
D12*
X74040000Y-53712500D03*
D13*
X81660000Y-53712500D03*
D12*
X93090000Y-91812500D03*
D13*
X100710000Y-91812500D03*
D12*
X93090000Y-72762500D03*
D13*
X100710000Y-72762500D03*
D10*
X92772500Y-46410000D03*
X99122500Y-43870000D03*
D12*
X74040000Y-72762500D03*
D13*
X81660000Y-72762500D03*
D12*
X74040000Y-91812500D03*
D13*
X81660000Y-91812500D03*
D16*
X74000000Y-90000000D03*
X93000000Y-90000000D03*
X112000000Y-90000000D03*
D17*
X80072500Y-52125000D02*
X81660000Y-53712500D01*
X80072500Y-43870000D02*
X80072500Y-52125000D01*
X80072500Y-71175000D02*
X81660000Y-72762500D01*
X80072500Y-62920000D02*
X80072500Y-71175000D01*
X81660000Y-90660000D02*
X81660000Y-91812500D01*
X80072500Y-89072500D02*
X81660000Y-90660000D01*
X80072500Y-81970000D02*
X80072500Y-89072500D01*
X99122500Y-43870000D02*
X99122500Y-52125000D01*
X99122500Y-52125000D02*
X100710000Y-53712500D01*
X99122500Y-62920000D02*
X99122500Y-71175000D01*
X99122500Y-71175000D02*
X100710000Y-72762500D01*
X99130471Y-90232971D02*
X100710000Y-91812500D01*
X99130471Y-81970000D02*
X99130471Y-90232971D01*
X118172500Y-52125000D02*
X119760000Y-53712500D01*
X118172500Y-43870000D02*
X118172500Y-52125000D01*
X118172500Y-71175000D02*
X119760000Y-72762500D01*
X118172500Y-62920000D02*
X118172500Y-71175000D01*
X118177890Y-90230390D02*
X119760000Y-91812500D01*
X118177890Y-81970000D02*
X118177890Y-90230390D01*
X74040000Y-72762500D02*
X74040000Y-68133743D01*
X74040000Y-68133743D02*
X76000000Y-66173743D01*
X74000000Y-90000000D02*
X74000000Y-87223743D01*
X76000000Y-66173743D02*
X76000000Y-55672500D01*
X76000000Y-55672500D02*
X74040000Y-53712500D01*
X74000000Y-87223743D02*
X75297500Y-85926243D01*
X75297500Y-85926243D02*
X75297500Y-74020000D01*
X75297500Y-74020000D02*
X74040000Y-72762500D01*
X95000000Y-66223743D02*
X95000000Y-55622500D01*
X93090000Y-72762500D02*
X93090000Y-68133743D01*
X94355471Y-85926243D02*
X94355471Y-74027971D01*
X93090000Y-68133743D02*
X95000000Y-66223743D01*
X95000000Y-55622500D02*
X93090000Y-53712500D01*
X93000000Y-87281714D02*
X94355471Y-85926243D01*
X94355471Y-74027971D02*
X93090000Y-72762500D01*
X93000000Y-90000000D02*
X93000000Y-87281714D01*
X113402890Y-86078833D02*
X113402890Y-74025390D01*
X112000000Y-87481723D02*
X113402890Y-86078833D01*
X112000000Y-90000000D02*
X112000000Y-87481723D01*
X114000000Y-66273743D02*
X114000000Y-55572500D01*
X112140000Y-68133743D02*
X114000000Y-66273743D01*
X113402890Y-74025390D02*
X112140000Y-72762500D01*
X112140000Y-72762500D02*
X112140000Y-68133743D01*
X114000000Y-55572500D02*
X112140000Y-53712500D01*
M02*
