%TF.GenerationSoftware,KiCad,Pcbnew,8.0.8*%
%TF.CreationDate,2025-02-16T23:14:20+09:00*%
%TF.ProjectId,macro,6d616372-6f2e-46b6-9963-61645f706362,rev?*%
%TF.SameCoordinates,Original*%
%TF.FileFunction,Legend,Bot*%
%TF.FilePolarity,Positive*%
%FSLAX46Y46*%
G04 Gerber Fmt 4.6, Leading zero omitted, Abs format (unit mm)*
G04 Created by KiCad (PCBNEW 8.0.8) date 2025-02-16 23:14:20*
%MOMM*%
%LPD*%
G01*
G04 APERTURE LIST*
%ADD10C,0.150000*%
%ADD11C,0.125000*%
%ADD12C,0.381000*%
%ADD13R,1.752600X1.752600*%
%ADD14C,1.752600*%
G04 APERTURE END LIST*
D10*
X115695832Y-63327200D02*
X115552975Y-63374819D01*
X115552975Y-63374819D02*
X115314880Y-63374819D01*
X115314880Y-63374819D02*
X115219642Y-63327200D01*
X115219642Y-63327200D02*
X115172023Y-63279580D01*
X115172023Y-63279580D02*
X115124404Y-63184342D01*
X115124404Y-63184342D02*
X115124404Y-63089104D01*
X115124404Y-63089104D02*
X115172023Y-62993866D01*
X115172023Y-62993866D02*
X115219642Y-62946247D01*
X115219642Y-62946247D02*
X115314880Y-62898628D01*
X115314880Y-62898628D02*
X115505356Y-62851009D01*
X115505356Y-62851009D02*
X115600594Y-62803390D01*
X115600594Y-62803390D02*
X115648213Y-62755771D01*
X115648213Y-62755771D02*
X115695832Y-62660533D01*
X115695832Y-62660533D02*
X115695832Y-62565295D01*
X115695832Y-62565295D02*
X115648213Y-62470057D01*
X115648213Y-62470057D02*
X115600594Y-62422438D01*
X115600594Y-62422438D02*
X115505356Y-62374819D01*
X115505356Y-62374819D02*
X115267261Y-62374819D01*
X115267261Y-62374819D02*
X115124404Y-62422438D01*
X114791070Y-62374819D02*
X114552975Y-63374819D01*
X114552975Y-63374819D02*
X114362499Y-62660533D01*
X114362499Y-62660533D02*
X114172023Y-63374819D01*
X114172023Y-63374819D02*
X113933928Y-62374819D01*
X113410118Y-62803390D02*
X113505356Y-62755771D01*
X113505356Y-62755771D02*
X113552975Y-62708152D01*
X113552975Y-62708152D02*
X113600594Y-62612914D01*
X113600594Y-62612914D02*
X113600594Y-62565295D01*
X113600594Y-62565295D02*
X113552975Y-62470057D01*
X113552975Y-62470057D02*
X113505356Y-62422438D01*
X113505356Y-62422438D02*
X113410118Y-62374819D01*
X113410118Y-62374819D02*
X113219642Y-62374819D01*
X113219642Y-62374819D02*
X113124404Y-62422438D01*
X113124404Y-62422438D02*
X113076785Y-62470057D01*
X113076785Y-62470057D02*
X113029166Y-62565295D01*
X113029166Y-62565295D02*
X113029166Y-62612914D01*
X113029166Y-62612914D02*
X113076785Y-62708152D01*
X113076785Y-62708152D02*
X113124404Y-62755771D01*
X113124404Y-62755771D02*
X113219642Y-62803390D01*
X113219642Y-62803390D02*
X113410118Y-62803390D01*
X113410118Y-62803390D02*
X113505356Y-62851009D01*
X113505356Y-62851009D02*
X113552975Y-62898628D01*
X113552975Y-62898628D02*
X113600594Y-62993866D01*
X113600594Y-62993866D02*
X113600594Y-63184342D01*
X113600594Y-63184342D02*
X113552975Y-63279580D01*
X113552975Y-63279580D02*
X113505356Y-63327200D01*
X113505356Y-63327200D02*
X113410118Y-63374819D01*
X113410118Y-63374819D02*
X113219642Y-63374819D01*
X113219642Y-63374819D02*
X113124404Y-63327200D01*
X113124404Y-63327200D02*
X113076785Y-63279580D01*
X113076785Y-63279580D02*
X113029166Y-63184342D01*
X113029166Y-63184342D02*
X113029166Y-62993866D01*
X113029166Y-62993866D02*
X113076785Y-62898628D01*
X113076785Y-62898628D02*
X113124404Y-62851009D01*
X113124404Y-62851009D02*
X113219642Y-62803390D01*
X96645832Y-63327200D02*
X96502975Y-63374819D01*
X96502975Y-63374819D02*
X96264880Y-63374819D01*
X96264880Y-63374819D02*
X96169642Y-63327200D01*
X96169642Y-63327200D02*
X96122023Y-63279580D01*
X96122023Y-63279580D02*
X96074404Y-63184342D01*
X96074404Y-63184342D02*
X96074404Y-63089104D01*
X96074404Y-63089104D02*
X96122023Y-62993866D01*
X96122023Y-62993866D02*
X96169642Y-62946247D01*
X96169642Y-62946247D02*
X96264880Y-62898628D01*
X96264880Y-62898628D02*
X96455356Y-62851009D01*
X96455356Y-62851009D02*
X96550594Y-62803390D01*
X96550594Y-62803390D02*
X96598213Y-62755771D01*
X96598213Y-62755771D02*
X96645832Y-62660533D01*
X96645832Y-62660533D02*
X96645832Y-62565295D01*
X96645832Y-62565295D02*
X96598213Y-62470057D01*
X96598213Y-62470057D02*
X96550594Y-62422438D01*
X96550594Y-62422438D02*
X96455356Y-62374819D01*
X96455356Y-62374819D02*
X96217261Y-62374819D01*
X96217261Y-62374819D02*
X96074404Y-62422438D01*
X95741070Y-62374819D02*
X95502975Y-63374819D01*
X95502975Y-63374819D02*
X95312499Y-62660533D01*
X95312499Y-62660533D02*
X95122023Y-63374819D01*
X95122023Y-63374819D02*
X94883928Y-62374819D01*
X94026785Y-62374819D02*
X94502975Y-62374819D01*
X94502975Y-62374819D02*
X94550594Y-62851009D01*
X94550594Y-62851009D02*
X94502975Y-62803390D01*
X94502975Y-62803390D02*
X94407737Y-62755771D01*
X94407737Y-62755771D02*
X94169642Y-62755771D01*
X94169642Y-62755771D02*
X94074404Y-62803390D01*
X94074404Y-62803390D02*
X94026785Y-62851009D01*
X94026785Y-62851009D02*
X93979166Y-62946247D01*
X93979166Y-62946247D02*
X93979166Y-63184342D01*
X93979166Y-63184342D02*
X94026785Y-63279580D01*
X94026785Y-63279580D02*
X94074404Y-63327200D01*
X94074404Y-63327200D02*
X94169642Y-63374819D01*
X94169642Y-63374819D02*
X94407737Y-63374819D01*
X94407737Y-63374819D02*
X94502975Y-63327200D01*
X94502975Y-63327200D02*
X94550594Y-63279580D01*
X55579381Y-76504819D02*
X55912714Y-76028628D01*
X56150809Y-76504819D02*
X56150809Y-75504819D01*
X56150809Y-75504819D02*
X55769857Y-75504819D01*
X55769857Y-75504819D02*
X55674619Y-75552438D01*
X55674619Y-75552438D02*
X55627000Y-75600057D01*
X55627000Y-75600057D02*
X55579381Y-75695295D01*
X55579381Y-75695295D02*
X55579381Y-75838152D01*
X55579381Y-75838152D02*
X55627000Y-75933390D01*
X55627000Y-75933390D02*
X55674619Y-75981009D01*
X55674619Y-75981009D02*
X55769857Y-76028628D01*
X55769857Y-76028628D02*
X56150809Y-76028628D01*
X55150809Y-75981009D02*
X54817476Y-75981009D01*
X54674619Y-76504819D02*
X55150809Y-76504819D01*
X55150809Y-76504819D02*
X55150809Y-75504819D01*
X55150809Y-75504819D02*
X54674619Y-75504819D01*
X54293666Y-76457200D02*
X54150809Y-76504819D01*
X54150809Y-76504819D02*
X53912714Y-76504819D01*
X53912714Y-76504819D02*
X53817476Y-76457200D01*
X53817476Y-76457200D02*
X53769857Y-76409580D01*
X53769857Y-76409580D02*
X53722238Y-76314342D01*
X53722238Y-76314342D02*
X53722238Y-76219104D01*
X53722238Y-76219104D02*
X53769857Y-76123866D01*
X53769857Y-76123866D02*
X53817476Y-76076247D01*
X53817476Y-76076247D02*
X53912714Y-76028628D01*
X53912714Y-76028628D02*
X54103190Y-75981009D01*
X54103190Y-75981009D02*
X54198428Y-75933390D01*
X54198428Y-75933390D02*
X54246047Y-75885771D01*
X54246047Y-75885771D02*
X54293666Y-75790533D01*
X54293666Y-75790533D02*
X54293666Y-75695295D01*
X54293666Y-75695295D02*
X54246047Y-75600057D01*
X54246047Y-75600057D02*
X54198428Y-75552438D01*
X54198428Y-75552438D02*
X54103190Y-75504819D01*
X54103190Y-75504819D02*
X53865095Y-75504819D01*
X53865095Y-75504819D02*
X53722238Y-75552438D01*
X53293666Y-75981009D02*
X52960333Y-75981009D01*
X52817476Y-76504819D02*
X53293666Y-76504819D01*
X53293666Y-76504819D02*
X53293666Y-75504819D01*
X53293666Y-75504819D02*
X52817476Y-75504819D01*
X52531761Y-75504819D02*
X51960333Y-75504819D01*
X52246047Y-76504819D02*
X52246047Y-75504819D01*
X77595832Y-63327200D02*
X77452975Y-63374819D01*
X77452975Y-63374819D02*
X77214880Y-63374819D01*
X77214880Y-63374819D02*
X77119642Y-63327200D01*
X77119642Y-63327200D02*
X77072023Y-63279580D01*
X77072023Y-63279580D02*
X77024404Y-63184342D01*
X77024404Y-63184342D02*
X77024404Y-63089104D01*
X77024404Y-63089104D02*
X77072023Y-62993866D01*
X77072023Y-62993866D02*
X77119642Y-62946247D01*
X77119642Y-62946247D02*
X77214880Y-62898628D01*
X77214880Y-62898628D02*
X77405356Y-62851009D01*
X77405356Y-62851009D02*
X77500594Y-62803390D01*
X77500594Y-62803390D02*
X77548213Y-62755771D01*
X77548213Y-62755771D02*
X77595832Y-62660533D01*
X77595832Y-62660533D02*
X77595832Y-62565295D01*
X77595832Y-62565295D02*
X77548213Y-62470057D01*
X77548213Y-62470057D02*
X77500594Y-62422438D01*
X77500594Y-62422438D02*
X77405356Y-62374819D01*
X77405356Y-62374819D02*
X77167261Y-62374819D01*
X77167261Y-62374819D02*
X77024404Y-62422438D01*
X76691070Y-62374819D02*
X76452975Y-63374819D01*
X76452975Y-63374819D02*
X76262499Y-62660533D01*
X76262499Y-62660533D02*
X76072023Y-63374819D01*
X76072023Y-63374819D02*
X75833928Y-62374819D01*
X75500594Y-62470057D02*
X75452975Y-62422438D01*
X75452975Y-62422438D02*
X75357737Y-62374819D01*
X75357737Y-62374819D02*
X75119642Y-62374819D01*
X75119642Y-62374819D02*
X75024404Y-62422438D01*
X75024404Y-62422438D02*
X74976785Y-62470057D01*
X74976785Y-62470057D02*
X74929166Y-62565295D01*
X74929166Y-62565295D02*
X74929166Y-62660533D01*
X74929166Y-62660533D02*
X74976785Y-62803390D01*
X74976785Y-62803390D02*
X75548213Y-63374819D01*
X75548213Y-63374819D02*
X74929166Y-63374819D01*
X77595832Y-82377200D02*
X77452975Y-82424819D01*
X77452975Y-82424819D02*
X77214880Y-82424819D01*
X77214880Y-82424819D02*
X77119642Y-82377200D01*
X77119642Y-82377200D02*
X77072023Y-82329580D01*
X77072023Y-82329580D02*
X77024404Y-82234342D01*
X77024404Y-82234342D02*
X77024404Y-82139104D01*
X77024404Y-82139104D02*
X77072023Y-82043866D01*
X77072023Y-82043866D02*
X77119642Y-81996247D01*
X77119642Y-81996247D02*
X77214880Y-81948628D01*
X77214880Y-81948628D02*
X77405356Y-81901009D01*
X77405356Y-81901009D02*
X77500594Y-81853390D01*
X77500594Y-81853390D02*
X77548213Y-81805771D01*
X77548213Y-81805771D02*
X77595832Y-81710533D01*
X77595832Y-81710533D02*
X77595832Y-81615295D01*
X77595832Y-81615295D02*
X77548213Y-81520057D01*
X77548213Y-81520057D02*
X77500594Y-81472438D01*
X77500594Y-81472438D02*
X77405356Y-81424819D01*
X77405356Y-81424819D02*
X77167261Y-81424819D01*
X77167261Y-81424819D02*
X77024404Y-81472438D01*
X76691070Y-81424819D02*
X76452975Y-82424819D01*
X76452975Y-82424819D02*
X76262499Y-81710533D01*
X76262499Y-81710533D02*
X76072023Y-82424819D01*
X76072023Y-82424819D02*
X75833928Y-81424819D01*
X75548213Y-81424819D02*
X74929166Y-81424819D01*
X74929166Y-81424819D02*
X75262499Y-81805771D01*
X75262499Y-81805771D02*
X75119642Y-81805771D01*
X75119642Y-81805771D02*
X75024404Y-81853390D01*
X75024404Y-81853390D02*
X74976785Y-81901009D01*
X74976785Y-81901009D02*
X74929166Y-81996247D01*
X74929166Y-81996247D02*
X74929166Y-82234342D01*
X74929166Y-82234342D02*
X74976785Y-82329580D01*
X74976785Y-82329580D02*
X75024404Y-82377200D01*
X75024404Y-82377200D02*
X75119642Y-82424819D01*
X75119642Y-82424819D02*
X75405356Y-82424819D01*
X75405356Y-82424819D02*
X75500594Y-82377200D01*
X75500594Y-82377200D02*
X75548213Y-82329580D01*
D11*
X116688094Y-71588619D02*
X116688094Y-70588619D01*
X116688094Y-70588619D02*
X116449999Y-70588619D01*
X116449999Y-70588619D02*
X116307142Y-70636238D01*
X116307142Y-70636238D02*
X116211904Y-70731476D01*
X116211904Y-70731476D02*
X116164285Y-70826714D01*
X116164285Y-70826714D02*
X116116666Y-71017190D01*
X116116666Y-71017190D02*
X116116666Y-71160047D01*
X116116666Y-71160047D02*
X116164285Y-71350523D01*
X116164285Y-71350523D02*
X116211904Y-71445761D01*
X116211904Y-71445761D02*
X116307142Y-71541000D01*
X116307142Y-71541000D02*
X116449999Y-71588619D01*
X116449999Y-71588619D02*
X116688094Y-71588619D01*
X115545237Y-71017190D02*
X115640475Y-70969571D01*
X115640475Y-70969571D02*
X115688094Y-70921952D01*
X115688094Y-70921952D02*
X115735713Y-70826714D01*
X115735713Y-70826714D02*
X115735713Y-70779095D01*
X115735713Y-70779095D02*
X115688094Y-70683857D01*
X115688094Y-70683857D02*
X115640475Y-70636238D01*
X115640475Y-70636238D02*
X115545237Y-70588619D01*
X115545237Y-70588619D02*
X115354761Y-70588619D01*
X115354761Y-70588619D02*
X115259523Y-70636238D01*
X115259523Y-70636238D02*
X115211904Y-70683857D01*
X115211904Y-70683857D02*
X115164285Y-70779095D01*
X115164285Y-70779095D02*
X115164285Y-70826714D01*
X115164285Y-70826714D02*
X115211904Y-70921952D01*
X115211904Y-70921952D02*
X115259523Y-70969571D01*
X115259523Y-70969571D02*
X115354761Y-71017190D01*
X115354761Y-71017190D02*
X115545237Y-71017190D01*
X115545237Y-71017190D02*
X115640475Y-71064809D01*
X115640475Y-71064809D02*
X115688094Y-71112428D01*
X115688094Y-71112428D02*
X115735713Y-71207666D01*
X115735713Y-71207666D02*
X115735713Y-71398142D01*
X115735713Y-71398142D02*
X115688094Y-71493380D01*
X115688094Y-71493380D02*
X115640475Y-71541000D01*
X115640475Y-71541000D02*
X115545237Y-71588619D01*
X115545237Y-71588619D02*
X115354761Y-71588619D01*
X115354761Y-71588619D02*
X115259523Y-71541000D01*
X115259523Y-71541000D02*
X115211904Y-71493380D01*
X115211904Y-71493380D02*
X115164285Y-71398142D01*
X115164285Y-71398142D02*
X115164285Y-71207666D01*
X115164285Y-71207666D02*
X115211904Y-71112428D01*
X115211904Y-71112428D02*
X115259523Y-71064809D01*
X115259523Y-71064809D02*
X115354761Y-71017190D01*
D10*
X77595832Y-44277200D02*
X77452975Y-44324819D01*
X77452975Y-44324819D02*
X77214880Y-44324819D01*
X77214880Y-44324819D02*
X77119642Y-44277200D01*
X77119642Y-44277200D02*
X77072023Y-44229580D01*
X77072023Y-44229580D02*
X77024404Y-44134342D01*
X77024404Y-44134342D02*
X77024404Y-44039104D01*
X77024404Y-44039104D02*
X77072023Y-43943866D01*
X77072023Y-43943866D02*
X77119642Y-43896247D01*
X77119642Y-43896247D02*
X77214880Y-43848628D01*
X77214880Y-43848628D02*
X77405356Y-43801009D01*
X77405356Y-43801009D02*
X77500594Y-43753390D01*
X77500594Y-43753390D02*
X77548213Y-43705771D01*
X77548213Y-43705771D02*
X77595832Y-43610533D01*
X77595832Y-43610533D02*
X77595832Y-43515295D01*
X77595832Y-43515295D02*
X77548213Y-43420057D01*
X77548213Y-43420057D02*
X77500594Y-43372438D01*
X77500594Y-43372438D02*
X77405356Y-43324819D01*
X77405356Y-43324819D02*
X77167261Y-43324819D01*
X77167261Y-43324819D02*
X77024404Y-43372438D01*
X76691070Y-43324819D02*
X76452975Y-44324819D01*
X76452975Y-44324819D02*
X76262499Y-43610533D01*
X76262499Y-43610533D02*
X76072023Y-44324819D01*
X76072023Y-44324819D02*
X75833928Y-43324819D01*
X74929166Y-44324819D02*
X75500594Y-44324819D01*
X75214880Y-44324819D02*
X75214880Y-43324819D01*
X75214880Y-43324819D02*
X75310118Y-43467676D01*
X75310118Y-43467676D02*
X75405356Y-43562914D01*
X75405356Y-43562914D02*
X75500594Y-43610533D01*
X115701222Y-82377200D02*
X115558365Y-82424819D01*
X115558365Y-82424819D02*
X115320270Y-82424819D01*
X115320270Y-82424819D02*
X115225032Y-82377200D01*
X115225032Y-82377200D02*
X115177413Y-82329580D01*
X115177413Y-82329580D02*
X115129794Y-82234342D01*
X115129794Y-82234342D02*
X115129794Y-82139104D01*
X115129794Y-82139104D02*
X115177413Y-82043866D01*
X115177413Y-82043866D02*
X115225032Y-81996247D01*
X115225032Y-81996247D02*
X115320270Y-81948628D01*
X115320270Y-81948628D02*
X115510746Y-81901009D01*
X115510746Y-81901009D02*
X115605984Y-81853390D01*
X115605984Y-81853390D02*
X115653603Y-81805771D01*
X115653603Y-81805771D02*
X115701222Y-81710533D01*
X115701222Y-81710533D02*
X115701222Y-81615295D01*
X115701222Y-81615295D02*
X115653603Y-81520057D01*
X115653603Y-81520057D02*
X115605984Y-81472438D01*
X115605984Y-81472438D02*
X115510746Y-81424819D01*
X115510746Y-81424819D02*
X115272651Y-81424819D01*
X115272651Y-81424819D02*
X115129794Y-81472438D01*
X114796460Y-81424819D02*
X114558365Y-82424819D01*
X114558365Y-82424819D02*
X114367889Y-81710533D01*
X114367889Y-81710533D02*
X114177413Y-82424819D01*
X114177413Y-82424819D02*
X113939318Y-81424819D01*
X113510746Y-82424819D02*
X113320270Y-82424819D01*
X113320270Y-82424819D02*
X113225032Y-82377200D01*
X113225032Y-82377200D02*
X113177413Y-82329580D01*
X113177413Y-82329580D02*
X113082175Y-82186723D01*
X113082175Y-82186723D02*
X113034556Y-81996247D01*
X113034556Y-81996247D02*
X113034556Y-81615295D01*
X113034556Y-81615295D02*
X113082175Y-81520057D01*
X113082175Y-81520057D02*
X113129794Y-81472438D01*
X113129794Y-81472438D02*
X113225032Y-81424819D01*
X113225032Y-81424819D02*
X113415508Y-81424819D01*
X113415508Y-81424819D02*
X113510746Y-81472438D01*
X113510746Y-81472438D02*
X113558365Y-81520057D01*
X113558365Y-81520057D02*
X113605984Y-81615295D01*
X113605984Y-81615295D02*
X113605984Y-81853390D01*
X113605984Y-81853390D02*
X113558365Y-81948628D01*
X113558365Y-81948628D02*
X113510746Y-81996247D01*
X113510746Y-81996247D02*
X113415508Y-82043866D01*
X113415508Y-82043866D02*
X113225032Y-82043866D01*
X113225032Y-82043866D02*
X113129794Y-81996247D01*
X113129794Y-81996247D02*
X113082175Y-81948628D01*
X113082175Y-81948628D02*
X113034556Y-81853390D01*
D11*
X97638094Y-52538619D02*
X97638094Y-51538619D01*
X97638094Y-51538619D02*
X97399999Y-51538619D01*
X97399999Y-51538619D02*
X97257142Y-51586238D01*
X97257142Y-51586238D02*
X97161904Y-51681476D01*
X97161904Y-51681476D02*
X97114285Y-51776714D01*
X97114285Y-51776714D02*
X97066666Y-51967190D01*
X97066666Y-51967190D02*
X97066666Y-52110047D01*
X97066666Y-52110047D02*
X97114285Y-52300523D01*
X97114285Y-52300523D02*
X97161904Y-52395761D01*
X97161904Y-52395761D02*
X97257142Y-52491000D01*
X97257142Y-52491000D02*
X97399999Y-52538619D01*
X97399999Y-52538619D02*
X97638094Y-52538619D01*
X96209523Y-51871952D02*
X96209523Y-52538619D01*
X96447618Y-51491000D02*
X96685713Y-52205285D01*
X96685713Y-52205285D02*
X96066666Y-52205285D01*
D10*
X59727666Y-58213247D02*
X59994332Y-58213247D01*
X59994332Y-58632295D02*
X59994332Y-57832295D01*
X59994332Y-57832295D02*
X59613380Y-57832295D01*
X58965761Y-57832295D02*
X59118142Y-57832295D01*
X59118142Y-57832295D02*
X59194333Y-57870390D01*
X59194333Y-57870390D02*
X59232428Y-57908485D01*
X59232428Y-57908485D02*
X59308618Y-58022771D01*
X59308618Y-58022771D02*
X59346714Y-58175152D01*
X59346714Y-58175152D02*
X59346714Y-58479914D01*
X59346714Y-58479914D02*
X59308618Y-58556104D01*
X59308618Y-58556104D02*
X59270523Y-58594200D01*
X59270523Y-58594200D02*
X59194333Y-58632295D01*
X59194333Y-58632295D02*
X59041952Y-58632295D01*
X59041952Y-58632295D02*
X58965761Y-58594200D01*
X58965761Y-58594200D02*
X58927666Y-58556104D01*
X58927666Y-58556104D02*
X58889571Y-58479914D01*
X58889571Y-58479914D02*
X58889571Y-58289438D01*
X58889571Y-58289438D02*
X58927666Y-58213247D01*
X58927666Y-58213247D02*
X58965761Y-58175152D01*
X58965761Y-58175152D02*
X59041952Y-58137057D01*
X59041952Y-58137057D02*
X59194333Y-58137057D01*
X59194333Y-58137057D02*
X59270523Y-58175152D01*
X59270523Y-58175152D02*
X59308618Y-58213247D01*
X59308618Y-58213247D02*
X59346714Y-58289438D01*
X59784809Y-68373247D02*
X59670523Y-68411342D01*
X59670523Y-68411342D02*
X59632428Y-68449438D01*
X59632428Y-68449438D02*
X59594332Y-68525628D01*
X59594332Y-68525628D02*
X59594332Y-68639914D01*
X59594332Y-68639914D02*
X59632428Y-68716104D01*
X59632428Y-68716104D02*
X59670523Y-68754200D01*
X59670523Y-68754200D02*
X59746713Y-68792295D01*
X59746713Y-68792295D02*
X60051475Y-68792295D01*
X60051475Y-68792295D02*
X60051475Y-67992295D01*
X60051475Y-67992295D02*
X59784809Y-67992295D01*
X59784809Y-67992295D02*
X59708618Y-68030390D01*
X59708618Y-68030390D02*
X59670523Y-68068485D01*
X59670523Y-68068485D02*
X59632428Y-68144676D01*
X59632428Y-68144676D02*
X59632428Y-68220866D01*
X59632428Y-68220866D02*
X59670523Y-68297057D01*
X59670523Y-68297057D02*
X59708618Y-68335152D01*
X59708618Y-68335152D02*
X59784809Y-68373247D01*
X59784809Y-68373247D02*
X60051475Y-68373247D01*
X59289571Y-68068485D02*
X59251475Y-68030390D01*
X59251475Y-68030390D02*
X59175285Y-67992295D01*
X59175285Y-67992295D02*
X58984809Y-67992295D01*
X58984809Y-67992295D02*
X58908618Y-68030390D01*
X58908618Y-68030390D02*
X58870523Y-68068485D01*
X58870523Y-68068485D02*
X58832428Y-68144676D01*
X58832428Y-68144676D02*
X58832428Y-68220866D01*
X58832428Y-68220866D02*
X58870523Y-68335152D01*
X58870523Y-68335152D02*
X59327666Y-68792295D01*
X59327666Y-68792295D02*
X58832428Y-68792295D01*
X59784809Y-63293247D02*
X59670523Y-63331342D01*
X59670523Y-63331342D02*
X59632428Y-63369438D01*
X59632428Y-63369438D02*
X59594332Y-63445628D01*
X59594332Y-63445628D02*
X59594332Y-63559914D01*
X59594332Y-63559914D02*
X59632428Y-63636104D01*
X59632428Y-63636104D02*
X59670523Y-63674200D01*
X59670523Y-63674200D02*
X59746713Y-63712295D01*
X59746713Y-63712295D02*
X60051475Y-63712295D01*
X60051475Y-63712295D02*
X60051475Y-62912295D01*
X60051475Y-62912295D02*
X59784809Y-62912295D01*
X59784809Y-62912295D02*
X59708618Y-62950390D01*
X59708618Y-62950390D02*
X59670523Y-62988485D01*
X59670523Y-62988485D02*
X59632428Y-63064676D01*
X59632428Y-63064676D02*
X59632428Y-63140866D01*
X59632428Y-63140866D02*
X59670523Y-63217057D01*
X59670523Y-63217057D02*
X59708618Y-63255152D01*
X59708618Y-63255152D02*
X59784809Y-63293247D01*
X59784809Y-63293247D02*
X60051475Y-63293247D01*
X58832428Y-63712295D02*
X59289571Y-63712295D01*
X59060999Y-63712295D02*
X59060999Y-62912295D01*
X59060999Y-62912295D02*
X59137190Y-63026580D01*
X59137190Y-63026580D02*
X59213380Y-63102771D01*
X59213380Y-63102771D02*
X59289571Y-63140866D01*
X49129475Y-63712295D02*
X49129475Y-62912295D01*
X49129475Y-62912295D02*
X48938999Y-62912295D01*
X48938999Y-62912295D02*
X48824713Y-62950390D01*
X48824713Y-62950390D02*
X48748523Y-63026580D01*
X48748523Y-63026580D02*
X48710428Y-63102771D01*
X48710428Y-63102771D02*
X48672332Y-63255152D01*
X48672332Y-63255152D02*
X48672332Y-63369438D01*
X48672332Y-63369438D02*
X48710428Y-63521819D01*
X48710428Y-63521819D02*
X48748523Y-63598009D01*
X48748523Y-63598009D02*
X48824713Y-63674200D01*
X48824713Y-63674200D02*
X48938999Y-63712295D01*
X48938999Y-63712295D02*
X49129475Y-63712295D01*
X48405666Y-62912295D02*
X47872332Y-62912295D01*
X47872332Y-62912295D02*
X48215190Y-63712295D01*
X49129475Y-53552295D02*
X49129475Y-52752295D01*
X49129475Y-52752295D02*
X48938999Y-52752295D01*
X48938999Y-52752295D02*
X48824713Y-52790390D01*
X48824713Y-52790390D02*
X48748523Y-52866580D01*
X48748523Y-52866580D02*
X48710428Y-52942771D01*
X48710428Y-52942771D02*
X48672332Y-53095152D01*
X48672332Y-53095152D02*
X48672332Y-53209438D01*
X48672332Y-53209438D02*
X48710428Y-53361819D01*
X48710428Y-53361819D02*
X48748523Y-53438009D01*
X48748523Y-53438009D02*
X48824713Y-53514200D01*
X48824713Y-53514200D02*
X48938999Y-53552295D01*
X48938999Y-53552295D02*
X49129475Y-53552295D01*
X47910428Y-53552295D02*
X48367571Y-53552295D01*
X48138999Y-53552295D02*
X48138999Y-52752295D01*
X48138999Y-52752295D02*
X48215190Y-52866580D01*
X48215190Y-52866580D02*
X48291380Y-52942771D01*
X48291380Y-52942771D02*
X48367571Y-52980866D01*
X49129475Y-45932295D02*
X49129475Y-45132295D01*
X49129475Y-45132295D02*
X48938999Y-45132295D01*
X48938999Y-45132295D02*
X48824713Y-45170390D01*
X48824713Y-45170390D02*
X48748523Y-45246580D01*
X48748523Y-45246580D02*
X48710428Y-45322771D01*
X48710428Y-45322771D02*
X48672332Y-45475152D01*
X48672332Y-45475152D02*
X48672332Y-45589438D01*
X48672332Y-45589438D02*
X48710428Y-45741819D01*
X48710428Y-45741819D02*
X48748523Y-45818009D01*
X48748523Y-45818009D02*
X48824713Y-45894200D01*
X48824713Y-45894200D02*
X48938999Y-45932295D01*
X48938999Y-45932295D02*
X49129475Y-45932295D01*
X48367571Y-45208485D02*
X48329475Y-45170390D01*
X48329475Y-45170390D02*
X48253285Y-45132295D01*
X48253285Y-45132295D02*
X48062809Y-45132295D01*
X48062809Y-45132295D02*
X47986618Y-45170390D01*
X47986618Y-45170390D02*
X47948523Y-45208485D01*
X47948523Y-45208485D02*
X47910428Y-45284676D01*
X47910428Y-45284676D02*
X47910428Y-45360866D01*
X47910428Y-45360866D02*
X47948523Y-45475152D01*
X47948523Y-45475152D02*
X48405666Y-45932295D01*
X48405666Y-45932295D02*
X47910428Y-45932295D01*
X49148523Y-47710390D02*
X49224713Y-47672295D01*
X49224713Y-47672295D02*
X49338999Y-47672295D01*
X49338999Y-47672295D02*
X49453285Y-47710390D01*
X49453285Y-47710390D02*
X49529475Y-47786580D01*
X49529475Y-47786580D02*
X49567570Y-47862771D01*
X49567570Y-47862771D02*
X49605666Y-48015152D01*
X49605666Y-48015152D02*
X49605666Y-48129438D01*
X49605666Y-48129438D02*
X49567570Y-48281819D01*
X49567570Y-48281819D02*
X49529475Y-48358009D01*
X49529475Y-48358009D02*
X49453285Y-48434200D01*
X49453285Y-48434200D02*
X49338999Y-48472295D01*
X49338999Y-48472295D02*
X49262808Y-48472295D01*
X49262808Y-48472295D02*
X49148523Y-48434200D01*
X49148523Y-48434200D02*
X49110427Y-48396104D01*
X49110427Y-48396104D02*
X49110427Y-48129438D01*
X49110427Y-48129438D02*
X49262808Y-48129438D01*
X48767570Y-48472295D02*
X48767570Y-47672295D01*
X48767570Y-47672295D02*
X48310427Y-48472295D01*
X48310427Y-48472295D02*
X48310427Y-47672295D01*
X47929475Y-48472295D02*
X47929475Y-47672295D01*
X47929475Y-47672295D02*
X47738999Y-47672295D01*
X47738999Y-47672295D02*
X47624713Y-47710390D01*
X47624713Y-47710390D02*
X47548523Y-47786580D01*
X47548523Y-47786580D02*
X47510428Y-47862771D01*
X47510428Y-47862771D02*
X47472332Y-48015152D01*
X47472332Y-48015152D02*
X47472332Y-48129438D01*
X47472332Y-48129438D02*
X47510428Y-48281819D01*
X47510428Y-48281819D02*
X47548523Y-48358009D01*
X47548523Y-48358009D02*
X47624713Y-48434200D01*
X47624713Y-48434200D02*
X47738999Y-48472295D01*
X47738999Y-48472295D02*
X47929475Y-48472295D01*
X49129475Y-56092295D02*
X49129475Y-55292295D01*
X49129475Y-55292295D02*
X48938999Y-55292295D01*
X48938999Y-55292295D02*
X48824713Y-55330390D01*
X48824713Y-55330390D02*
X48748523Y-55406580D01*
X48748523Y-55406580D02*
X48710428Y-55482771D01*
X48710428Y-55482771D02*
X48672332Y-55635152D01*
X48672332Y-55635152D02*
X48672332Y-55749438D01*
X48672332Y-55749438D02*
X48710428Y-55901819D01*
X48710428Y-55901819D02*
X48748523Y-55978009D01*
X48748523Y-55978009D02*
X48824713Y-56054200D01*
X48824713Y-56054200D02*
X48938999Y-56092295D01*
X48938999Y-56092295D02*
X49129475Y-56092295D01*
X48177094Y-55292295D02*
X48100904Y-55292295D01*
X48100904Y-55292295D02*
X48024713Y-55330390D01*
X48024713Y-55330390D02*
X47986618Y-55368485D01*
X47986618Y-55368485D02*
X47948523Y-55444676D01*
X47948523Y-55444676D02*
X47910428Y-55597057D01*
X47910428Y-55597057D02*
X47910428Y-55787533D01*
X47910428Y-55787533D02*
X47948523Y-55939914D01*
X47948523Y-55939914D02*
X47986618Y-56016104D01*
X47986618Y-56016104D02*
X48024713Y-56054200D01*
X48024713Y-56054200D02*
X48100904Y-56092295D01*
X48100904Y-56092295D02*
X48177094Y-56092295D01*
X48177094Y-56092295D02*
X48253285Y-56054200D01*
X48253285Y-56054200D02*
X48291380Y-56016104D01*
X48291380Y-56016104D02*
X48329475Y-55939914D01*
X48329475Y-55939914D02*
X48367571Y-55787533D01*
X48367571Y-55787533D02*
X48367571Y-55597057D01*
X48367571Y-55597057D02*
X48329475Y-55444676D01*
X48329475Y-55444676D02*
X48291380Y-55368485D01*
X48291380Y-55368485D02*
X48253285Y-55330390D01*
X48253285Y-55330390D02*
X48177094Y-55292295D01*
X60013380Y-43392295D02*
X60280047Y-43011342D01*
X60470523Y-43392295D02*
X60470523Y-42592295D01*
X60470523Y-42592295D02*
X60165761Y-42592295D01*
X60165761Y-42592295D02*
X60089571Y-42630390D01*
X60089571Y-42630390D02*
X60051476Y-42668485D01*
X60051476Y-42668485D02*
X60013380Y-42744676D01*
X60013380Y-42744676D02*
X60013380Y-42858961D01*
X60013380Y-42858961D02*
X60051476Y-42935152D01*
X60051476Y-42935152D02*
X60089571Y-42973247D01*
X60089571Y-42973247D02*
X60165761Y-43011342D01*
X60165761Y-43011342D02*
X60470523Y-43011342D01*
X59708619Y-43163723D02*
X59327666Y-43163723D01*
X59784809Y-43392295D02*
X59518142Y-42592295D01*
X59518142Y-42592295D02*
X59251476Y-43392295D01*
X59061000Y-42592295D02*
X58870524Y-43392295D01*
X58870524Y-43392295D02*
X58718143Y-42820866D01*
X58718143Y-42820866D02*
X58565762Y-43392295D01*
X58565762Y-43392295D02*
X58375286Y-42592295D01*
X59573333Y-48414200D02*
X59459047Y-48452295D01*
X59459047Y-48452295D02*
X59268571Y-48452295D01*
X59268571Y-48452295D02*
X59192380Y-48414200D01*
X59192380Y-48414200D02*
X59154285Y-48376104D01*
X59154285Y-48376104D02*
X59116190Y-48299914D01*
X59116190Y-48299914D02*
X59116190Y-48223723D01*
X59116190Y-48223723D02*
X59154285Y-48147533D01*
X59154285Y-48147533D02*
X59192380Y-48109438D01*
X59192380Y-48109438D02*
X59268571Y-48071342D01*
X59268571Y-48071342D02*
X59420952Y-48033247D01*
X59420952Y-48033247D02*
X59497142Y-47995152D01*
X59497142Y-47995152D02*
X59535237Y-47957057D01*
X59535237Y-47957057D02*
X59573333Y-47880866D01*
X59573333Y-47880866D02*
X59573333Y-47804676D01*
X59573333Y-47804676D02*
X59535237Y-47728485D01*
X59535237Y-47728485D02*
X59497142Y-47690390D01*
X59497142Y-47690390D02*
X59420952Y-47652295D01*
X59420952Y-47652295D02*
X59230475Y-47652295D01*
X59230475Y-47652295D02*
X59116190Y-47690390D01*
X58887618Y-47652295D02*
X58430475Y-47652295D01*
X58659047Y-48452295D02*
X58659047Y-47652295D01*
X60527666Y-50212295D02*
X60260999Y-51012295D01*
X60260999Y-51012295D02*
X59994333Y-50212295D01*
X59270523Y-50936104D02*
X59308619Y-50974200D01*
X59308619Y-50974200D02*
X59422904Y-51012295D01*
X59422904Y-51012295D02*
X59499095Y-51012295D01*
X59499095Y-51012295D02*
X59613381Y-50974200D01*
X59613381Y-50974200D02*
X59689571Y-50898009D01*
X59689571Y-50898009D02*
X59727666Y-50821819D01*
X59727666Y-50821819D02*
X59765762Y-50669438D01*
X59765762Y-50669438D02*
X59765762Y-50555152D01*
X59765762Y-50555152D02*
X59727666Y-50402771D01*
X59727666Y-50402771D02*
X59689571Y-50326580D01*
X59689571Y-50326580D02*
X59613381Y-50250390D01*
X59613381Y-50250390D02*
X59499095Y-50212295D01*
X59499095Y-50212295D02*
X59422904Y-50212295D01*
X59422904Y-50212295D02*
X59308619Y-50250390D01*
X59308619Y-50250390D02*
X59270523Y-50288485D01*
X58470523Y-50936104D02*
X58508619Y-50974200D01*
X58508619Y-50974200D02*
X58622904Y-51012295D01*
X58622904Y-51012295D02*
X58699095Y-51012295D01*
X58699095Y-51012295D02*
X58813381Y-50974200D01*
X58813381Y-50974200D02*
X58889571Y-50898009D01*
X58889571Y-50898009D02*
X58927666Y-50821819D01*
X58927666Y-50821819D02*
X58965762Y-50669438D01*
X58965762Y-50669438D02*
X58965762Y-50555152D01*
X58965762Y-50555152D02*
X58927666Y-50402771D01*
X58927666Y-50402771D02*
X58889571Y-50326580D01*
X58889571Y-50326580D02*
X58813381Y-50250390D01*
X58813381Y-50250390D02*
X58699095Y-50212295D01*
X58699095Y-50212295D02*
X58622904Y-50212295D01*
X58622904Y-50212295D02*
X58508619Y-50250390D01*
X58508619Y-50250390D02*
X58470523Y-50288485D01*
X59727666Y-55673247D02*
X59994332Y-55673247D01*
X59994332Y-56092295D02*
X59994332Y-55292295D01*
X59994332Y-55292295D02*
X59613380Y-55292295D01*
X58927666Y-55292295D02*
X59308618Y-55292295D01*
X59308618Y-55292295D02*
X59346714Y-55673247D01*
X59346714Y-55673247D02*
X59308618Y-55635152D01*
X59308618Y-55635152D02*
X59232428Y-55597057D01*
X59232428Y-55597057D02*
X59041952Y-55597057D01*
X59041952Y-55597057D02*
X58965761Y-55635152D01*
X58965761Y-55635152D02*
X58927666Y-55673247D01*
X58927666Y-55673247D02*
X58889571Y-55749438D01*
X58889571Y-55749438D02*
X58889571Y-55939914D01*
X58889571Y-55939914D02*
X58927666Y-56016104D01*
X58927666Y-56016104D02*
X58965761Y-56054200D01*
X58965761Y-56054200D02*
X59041952Y-56092295D01*
X59041952Y-56092295D02*
X59232428Y-56092295D01*
X59232428Y-56092295D02*
X59308618Y-56054200D01*
X59308618Y-56054200D02*
X59346714Y-56016104D01*
X59727666Y-53133247D02*
X59994332Y-53133247D01*
X59994332Y-53552295D02*
X59994332Y-52752295D01*
X59994332Y-52752295D02*
X59613380Y-52752295D01*
X58965761Y-53018961D02*
X58965761Y-53552295D01*
X59156237Y-52714200D02*
X59346714Y-53285628D01*
X59346714Y-53285628D02*
X58851475Y-53285628D01*
X48862809Y-70913247D02*
X48748523Y-70951342D01*
X48748523Y-70951342D02*
X48710428Y-70989438D01*
X48710428Y-70989438D02*
X48672332Y-71065628D01*
X48672332Y-71065628D02*
X48672332Y-71179914D01*
X48672332Y-71179914D02*
X48710428Y-71256104D01*
X48710428Y-71256104D02*
X48748523Y-71294200D01*
X48748523Y-71294200D02*
X48824713Y-71332295D01*
X48824713Y-71332295D02*
X49129475Y-71332295D01*
X49129475Y-71332295D02*
X49129475Y-70532295D01*
X49129475Y-70532295D02*
X48862809Y-70532295D01*
X48862809Y-70532295D02*
X48786618Y-70570390D01*
X48786618Y-70570390D02*
X48748523Y-70608485D01*
X48748523Y-70608485D02*
X48710428Y-70684676D01*
X48710428Y-70684676D02*
X48710428Y-70760866D01*
X48710428Y-70760866D02*
X48748523Y-70837057D01*
X48748523Y-70837057D02*
X48786618Y-70875152D01*
X48786618Y-70875152D02*
X48862809Y-70913247D01*
X48862809Y-70913247D02*
X49129475Y-70913247D01*
X47948523Y-70532295D02*
X48329475Y-70532295D01*
X48329475Y-70532295D02*
X48367571Y-70913247D01*
X48367571Y-70913247D02*
X48329475Y-70875152D01*
X48329475Y-70875152D02*
X48253285Y-70837057D01*
X48253285Y-70837057D02*
X48062809Y-70837057D01*
X48062809Y-70837057D02*
X47986618Y-70875152D01*
X47986618Y-70875152D02*
X47948523Y-70913247D01*
X47948523Y-70913247D02*
X47910428Y-70989438D01*
X47910428Y-70989438D02*
X47910428Y-71179914D01*
X47910428Y-71179914D02*
X47948523Y-71256104D01*
X47948523Y-71256104D02*
X47986618Y-71294200D01*
X47986618Y-71294200D02*
X48062809Y-71332295D01*
X48062809Y-71332295D02*
X48253285Y-71332295D01*
X48253285Y-71332295D02*
X48329475Y-71294200D01*
X48329475Y-71294200D02*
X48367571Y-71256104D01*
X52618604Y-42592295D02*
X52161461Y-42592295D01*
X52390033Y-43392295D02*
X52390033Y-42592295D01*
X51970985Y-42592295D02*
X51437651Y-43392295D01*
X51437651Y-42592295D02*
X51970985Y-43392295D01*
X50980508Y-42592295D02*
X50904318Y-42592295D01*
X50904318Y-42592295D02*
X50828127Y-42630390D01*
X50828127Y-42630390D02*
X50790032Y-42668485D01*
X50790032Y-42668485D02*
X50751937Y-42744676D01*
X50751937Y-42744676D02*
X50713842Y-42897057D01*
X50713842Y-42897057D02*
X50713842Y-43087533D01*
X50713842Y-43087533D02*
X50751937Y-43239914D01*
X50751937Y-43239914D02*
X50790032Y-43316104D01*
X50790032Y-43316104D02*
X50828127Y-43354200D01*
X50828127Y-43354200D02*
X50904318Y-43392295D01*
X50904318Y-43392295D02*
X50980508Y-43392295D01*
X50980508Y-43392295D02*
X51056699Y-43354200D01*
X51056699Y-43354200D02*
X51094794Y-43316104D01*
X51094794Y-43316104D02*
X51132889Y-43239914D01*
X51132889Y-43239914D02*
X51170985Y-43087533D01*
X51170985Y-43087533D02*
X51170985Y-42897057D01*
X51170985Y-42897057D02*
X51132889Y-42744676D01*
X51132889Y-42744676D02*
X51094794Y-42668485D01*
X51094794Y-42668485D02*
X51056699Y-42630390D01*
X51056699Y-42630390D02*
X50980508Y-42592295D01*
X49799556Y-42554200D02*
X50485270Y-43582771D01*
X49532889Y-43392295D02*
X49532889Y-42592295D01*
X49532889Y-42592295D02*
X49342413Y-42592295D01*
X49342413Y-42592295D02*
X49228127Y-42630390D01*
X49228127Y-42630390D02*
X49151937Y-42706580D01*
X49151937Y-42706580D02*
X49113842Y-42782771D01*
X49113842Y-42782771D02*
X49075746Y-42935152D01*
X49075746Y-42935152D02*
X49075746Y-43049438D01*
X49075746Y-43049438D02*
X49113842Y-43201819D01*
X49113842Y-43201819D02*
X49151937Y-43278009D01*
X49151937Y-43278009D02*
X49228127Y-43354200D01*
X49228127Y-43354200D02*
X49342413Y-43392295D01*
X49342413Y-43392295D02*
X49532889Y-43392295D01*
X48809080Y-42592295D02*
X48313842Y-42592295D01*
X48313842Y-42592295D02*
X48580508Y-42897057D01*
X48580508Y-42897057D02*
X48466223Y-42897057D01*
X48466223Y-42897057D02*
X48390032Y-42935152D01*
X48390032Y-42935152D02*
X48351937Y-42973247D01*
X48351937Y-42973247D02*
X48313842Y-43049438D01*
X48313842Y-43049438D02*
X48313842Y-43239914D01*
X48313842Y-43239914D02*
X48351937Y-43316104D01*
X48351937Y-43316104D02*
X48390032Y-43354200D01*
X48390032Y-43354200D02*
X48466223Y-43392295D01*
X48466223Y-43392295D02*
X48694794Y-43392295D01*
X48694794Y-43392295D02*
X48770985Y-43354200D01*
X48770985Y-43354200D02*
X48809080Y-43316104D01*
X59784809Y-70913247D02*
X59670523Y-70951342D01*
X59670523Y-70951342D02*
X59632428Y-70989438D01*
X59632428Y-70989438D02*
X59594332Y-71065628D01*
X59594332Y-71065628D02*
X59594332Y-71179914D01*
X59594332Y-71179914D02*
X59632428Y-71256104D01*
X59632428Y-71256104D02*
X59670523Y-71294200D01*
X59670523Y-71294200D02*
X59746713Y-71332295D01*
X59746713Y-71332295D02*
X60051475Y-71332295D01*
X60051475Y-71332295D02*
X60051475Y-70532295D01*
X60051475Y-70532295D02*
X59784809Y-70532295D01*
X59784809Y-70532295D02*
X59708618Y-70570390D01*
X59708618Y-70570390D02*
X59670523Y-70608485D01*
X59670523Y-70608485D02*
X59632428Y-70684676D01*
X59632428Y-70684676D02*
X59632428Y-70760866D01*
X59632428Y-70760866D02*
X59670523Y-70837057D01*
X59670523Y-70837057D02*
X59708618Y-70875152D01*
X59708618Y-70875152D02*
X59784809Y-70913247D01*
X59784809Y-70913247D02*
X60051475Y-70913247D01*
X58908618Y-70532295D02*
X59060999Y-70532295D01*
X59060999Y-70532295D02*
X59137190Y-70570390D01*
X59137190Y-70570390D02*
X59175285Y-70608485D01*
X59175285Y-70608485D02*
X59251475Y-70722771D01*
X59251475Y-70722771D02*
X59289571Y-70875152D01*
X59289571Y-70875152D02*
X59289571Y-71179914D01*
X59289571Y-71179914D02*
X59251475Y-71256104D01*
X59251475Y-71256104D02*
X59213380Y-71294200D01*
X59213380Y-71294200D02*
X59137190Y-71332295D01*
X59137190Y-71332295D02*
X58984809Y-71332295D01*
X58984809Y-71332295D02*
X58908618Y-71294200D01*
X58908618Y-71294200D02*
X58870523Y-71256104D01*
X58870523Y-71256104D02*
X58832428Y-71179914D01*
X58832428Y-71179914D02*
X58832428Y-70989438D01*
X58832428Y-70989438D02*
X58870523Y-70913247D01*
X58870523Y-70913247D02*
X58908618Y-70875152D01*
X58908618Y-70875152D02*
X58984809Y-70837057D01*
X58984809Y-70837057D02*
X59137190Y-70837057D01*
X59137190Y-70837057D02*
X59213380Y-70875152D01*
X59213380Y-70875152D02*
X59251475Y-70913247D01*
X59251475Y-70913247D02*
X59289571Y-70989438D01*
X59784809Y-65833247D02*
X59670523Y-65871342D01*
X59670523Y-65871342D02*
X59632428Y-65909438D01*
X59632428Y-65909438D02*
X59594332Y-65985628D01*
X59594332Y-65985628D02*
X59594332Y-66099914D01*
X59594332Y-66099914D02*
X59632428Y-66176104D01*
X59632428Y-66176104D02*
X59670523Y-66214200D01*
X59670523Y-66214200D02*
X59746713Y-66252295D01*
X59746713Y-66252295D02*
X60051475Y-66252295D01*
X60051475Y-66252295D02*
X60051475Y-65452295D01*
X60051475Y-65452295D02*
X59784809Y-65452295D01*
X59784809Y-65452295D02*
X59708618Y-65490390D01*
X59708618Y-65490390D02*
X59670523Y-65528485D01*
X59670523Y-65528485D02*
X59632428Y-65604676D01*
X59632428Y-65604676D02*
X59632428Y-65680866D01*
X59632428Y-65680866D02*
X59670523Y-65757057D01*
X59670523Y-65757057D02*
X59708618Y-65795152D01*
X59708618Y-65795152D02*
X59784809Y-65833247D01*
X59784809Y-65833247D02*
X60051475Y-65833247D01*
X59327666Y-65452295D02*
X58832428Y-65452295D01*
X58832428Y-65452295D02*
X59099094Y-65757057D01*
X59099094Y-65757057D02*
X58984809Y-65757057D01*
X58984809Y-65757057D02*
X58908618Y-65795152D01*
X58908618Y-65795152D02*
X58870523Y-65833247D01*
X58870523Y-65833247D02*
X58832428Y-65909438D01*
X58832428Y-65909438D02*
X58832428Y-66099914D01*
X58832428Y-66099914D02*
X58870523Y-66176104D01*
X58870523Y-66176104D02*
X58908618Y-66214200D01*
X58908618Y-66214200D02*
X58984809Y-66252295D01*
X58984809Y-66252295D02*
X59213380Y-66252295D01*
X59213380Y-66252295D02*
X59289571Y-66214200D01*
X59289571Y-66214200D02*
X59327666Y-66176104D01*
X60070523Y-45170390D02*
X60146713Y-45132295D01*
X60146713Y-45132295D02*
X60260999Y-45132295D01*
X60260999Y-45132295D02*
X60375285Y-45170390D01*
X60375285Y-45170390D02*
X60451475Y-45246580D01*
X60451475Y-45246580D02*
X60489570Y-45322771D01*
X60489570Y-45322771D02*
X60527666Y-45475152D01*
X60527666Y-45475152D02*
X60527666Y-45589438D01*
X60527666Y-45589438D02*
X60489570Y-45741819D01*
X60489570Y-45741819D02*
X60451475Y-45818009D01*
X60451475Y-45818009D02*
X60375285Y-45894200D01*
X60375285Y-45894200D02*
X60260999Y-45932295D01*
X60260999Y-45932295D02*
X60184808Y-45932295D01*
X60184808Y-45932295D02*
X60070523Y-45894200D01*
X60070523Y-45894200D02*
X60032427Y-45856104D01*
X60032427Y-45856104D02*
X60032427Y-45589438D01*
X60032427Y-45589438D02*
X60184808Y-45589438D01*
X59689570Y-45932295D02*
X59689570Y-45132295D01*
X59689570Y-45132295D02*
X59232427Y-45932295D01*
X59232427Y-45932295D02*
X59232427Y-45132295D01*
X58851475Y-45932295D02*
X58851475Y-45132295D01*
X58851475Y-45132295D02*
X58660999Y-45132295D01*
X58660999Y-45132295D02*
X58546713Y-45170390D01*
X58546713Y-45170390D02*
X58470523Y-45246580D01*
X58470523Y-45246580D02*
X58432428Y-45322771D01*
X58432428Y-45322771D02*
X58394332Y-45475152D01*
X58394332Y-45475152D02*
X58394332Y-45589438D01*
X58394332Y-45589438D02*
X58432428Y-45741819D01*
X58432428Y-45741819D02*
X58470523Y-45818009D01*
X58470523Y-45818009D02*
X58546713Y-45894200D01*
X58546713Y-45894200D02*
X58660999Y-45932295D01*
X58660999Y-45932295D02*
X58851475Y-45932295D01*
X59727666Y-60753247D02*
X59994332Y-60753247D01*
X59994332Y-61172295D02*
X59994332Y-60372295D01*
X59994332Y-60372295D02*
X59613380Y-60372295D01*
X59384809Y-60372295D02*
X58851475Y-60372295D01*
X58851475Y-60372295D02*
X59194333Y-61172295D01*
X48862809Y-68373247D02*
X48748523Y-68411342D01*
X48748523Y-68411342D02*
X48710428Y-68449438D01*
X48710428Y-68449438D02*
X48672332Y-68525628D01*
X48672332Y-68525628D02*
X48672332Y-68639914D01*
X48672332Y-68639914D02*
X48710428Y-68716104D01*
X48710428Y-68716104D02*
X48748523Y-68754200D01*
X48748523Y-68754200D02*
X48824713Y-68792295D01*
X48824713Y-68792295D02*
X49129475Y-68792295D01*
X49129475Y-68792295D02*
X49129475Y-67992295D01*
X49129475Y-67992295D02*
X48862809Y-67992295D01*
X48862809Y-67992295D02*
X48786618Y-68030390D01*
X48786618Y-68030390D02*
X48748523Y-68068485D01*
X48748523Y-68068485D02*
X48710428Y-68144676D01*
X48710428Y-68144676D02*
X48710428Y-68220866D01*
X48710428Y-68220866D02*
X48748523Y-68297057D01*
X48748523Y-68297057D02*
X48786618Y-68335152D01*
X48786618Y-68335152D02*
X48862809Y-68373247D01*
X48862809Y-68373247D02*
X49129475Y-68373247D01*
X47986618Y-68258961D02*
X47986618Y-68792295D01*
X48177094Y-67954200D02*
X48367571Y-68525628D01*
X48367571Y-68525628D02*
X47872332Y-68525628D01*
X49129475Y-58632295D02*
X49129475Y-57832295D01*
X49129475Y-57832295D02*
X48938999Y-57832295D01*
X48938999Y-57832295D02*
X48824713Y-57870390D01*
X48824713Y-57870390D02*
X48748523Y-57946580D01*
X48748523Y-57946580D02*
X48710428Y-58022771D01*
X48710428Y-58022771D02*
X48672332Y-58175152D01*
X48672332Y-58175152D02*
X48672332Y-58289438D01*
X48672332Y-58289438D02*
X48710428Y-58441819D01*
X48710428Y-58441819D02*
X48748523Y-58518009D01*
X48748523Y-58518009D02*
X48824713Y-58594200D01*
X48824713Y-58594200D02*
X48938999Y-58632295D01*
X48938999Y-58632295D02*
X49129475Y-58632295D01*
X47986618Y-58098961D02*
X47986618Y-58632295D01*
X48177094Y-57794200D02*
X48367571Y-58365628D01*
X48367571Y-58365628D02*
X47872332Y-58365628D01*
X49091380Y-65833247D02*
X48824714Y-65833247D01*
X48710428Y-66252295D02*
X49091380Y-66252295D01*
X49091380Y-66252295D02*
X49091380Y-65452295D01*
X49091380Y-65452295D02*
X48710428Y-65452295D01*
X48024713Y-65452295D02*
X48177094Y-65452295D01*
X48177094Y-65452295D02*
X48253285Y-65490390D01*
X48253285Y-65490390D02*
X48291380Y-65528485D01*
X48291380Y-65528485D02*
X48367570Y-65642771D01*
X48367570Y-65642771D02*
X48405666Y-65795152D01*
X48405666Y-65795152D02*
X48405666Y-66099914D01*
X48405666Y-66099914D02*
X48367570Y-66176104D01*
X48367570Y-66176104D02*
X48329475Y-66214200D01*
X48329475Y-66214200D02*
X48253285Y-66252295D01*
X48253285Y-66252295D02*
X48100904Y-66252295D01*
X48100904Y-66252295D02*
X48024713Y-66214200D01*
X48024713Y-66214200D02*
X47986618Y-66176104D01*
X47986618Y-66176104D02*
X47948523Y-66099914D01*
X47948523Y-66099914D02*
X47948523Y-65909438D01*
X47948523Y-65909438D02*
X47986618Y-65833247D01*
X47986618Y-65833247D02*
X48024713Y-65795152D01*
X48024713Y-65795152D02*
X48100904Y-65757057D01*
X48100904Y-65757057D02*
X48253285Y-65757057D01*
X48253285Y-65757057D02*
X48329475Y-65795152D01*
X48329475Y-65795152D02*
X48367570Y-65833247D01*
X48367570Y-65833247D02*
X48405666Y-65909438D01*
X49148523Y-50250390D02*
X49224713Y-50212295D01*
X49224713Y-50212295D02*
X49338999Y-50212295D01*
X49338999Y-50212295D02*
X49453285Y-50250390D01*
X49453285Y-50250390D02*
X49529475Y-50326580D01*
X49529475Y-50326580D02*
X49567570Y-50402771D01*
X49567570Y-50402771D02*
X49605666Y-50555152D01*
X49605666Y-50555152D02*
X49605666Y-50669438D01*
X49605666Y-50669438D02*
X49567570Y-50821819D01*
X49567570Y-50821819D02*
X49529475Y-50898009D01*
X49529475Y-50898009D02*
X49453285Y-50974200D01*
X49453285Y-50974200D02*
X49338999Y-51012295D01*
X49338999Y-51012295D02*
X49262808Y-51012295D01*
X49262808Y-51012295D02*
X49148523Y-50974200D01*
X49148523Y-50974200D02*
X49110427Y-50936104D01*
X49110427Y-50936104D02*
X49110427Y-50669438D01*
X49110427Y-50669438D02*
X49262808Y-50669438D01*
X48767570Y-51012295D02*
X48767570Y-50212295D01*
X48767570Y-50212295D02*
X48310427Y-51012295D01*
X48310427Y-51012295D02*
X48310427Y-50212295D01*
X47929475Y-51012295D02*
X47929475Y-50212295D01*
X47929475Y-50212295D02*
X47738999Y-50212295D01*
X47738999Y-50212295D02*
X47624713Y-50250390D01*
X47624713Y-50250390D02*
X47548523Y-50326580D01*
X47548523Y-50326580D02*
X47510428Y-50402771D01*
X47510428Y-50402771D02*
X47472332Y-50555152D01*
X47472332Y-50555152D02*
X47472332Y-50669438D01*
X47472332Y-50669438D02*
X47510428Y-50821819D01*
X47510428Y-50821819D02*
X47548523Y-50898009D01*
X47548523Y-50898009D02*
X47624713Y-50974200D01*
X47624713Y-50974200D02*
X47738999Y-51012295D01*
X47738999Y-51012295D02*
X47929475Y-51012295D01*
X48672332Y-61096104D02*
X48710428Y-61134200D01*
X48710428Y-61134200D02*
X48824713Y-61172295D01*
X48824713Y-61172295D02*
X48900904Y-61172295D01*
X48900904Y-61172295D02*
X49015190Y-61134200D01*
X49015190Y-61134200D02*
X49091380Y-61058009D01*
X49091380Y-61058009D02*
X49129475Y-60981819D01*
X49129475Y-60981819D02*
X49167571Y-60829438D01*
X49167571Y-60829438D02*
X49167571Y-60715152D01*
X49167571Y-60715152D02*
X49129475Y-60562771D01*
X49129475Y-60562771D02*
X49091380Y-60486580D01*
X49091380Y-60486580D02*
X49015190Y-60410390D01*
X49015190Y-60410390D02*
X48900904Y-60372295D01*
X48900904Y-60372295D02*
X48824713Y-60372295D01*
X48824713Y-60372295D02*
X48710428Y-60410390D01*
X48710428Y-60410390D02*
X48672332Y-60448485D01*
X47986618Y-60372295D02*
X48138999Y-60372295D01*
X48138999Y-60372295D02*
X48215190Y-60410390D01*
X48215190Y-60410390D02*
X48253285Y-60448485D01*
X48253285Y-60448485D02*
X48329475Y-60562771D01*
X48329475Y-60562771D02*
X48367571Y-60715152D01*
X48367571Y-60715152D02*
X48367571Y-61019914D01*
X48367571Y-61019914D02*
X48329475Y-61096104D01*
X48329475Y-61096104D02*
X48291380Y-61134200D01*
X48291380Y-61134200D02*
X48215190Y-61172295D01*
X48215190Y-61172295D02*
X48062809Y-61172295D01*
X48062809Y-61172295D02*
X47986618Y-61134200D01*
X47986618Y-61134200D02*
X47948523Y-61096104D01*
X47948523Y-61096104D02*
X47910428Y-61019914D01*
X47910428Y-61019914D02*
X47910428Y-60829438D01*
X47910428Y-60829438D02*
X47948523Y-60753247D01*
X47948523Y-60753247D02*
X47986618Y-60715152D01*
X47986618Y-60715152D02*
X48062809Y-60677057D01*
X48062809Y-60677057D02*
X48215190Y-60677057D01*
X48215190Y-60677057D02*
X48291380Y-60715152D01*
X48291380Y-60715152D02*
X48329475Y-60753247D01*
X48329475Y-60753247D02*
X48367571Y-60829438D01*
X96653803Y-82377200D02*
X96510946Y-82424819D01*
X96510946Y-82424819D02*
X96272851Y-82424819D01*
X96272851Y-82424819D02*
X96177613Y-82377200D01*
X96177613Y-82377200D02*
X96129994Y-82329580D01*
X96129994Y-82329580D02*
X96082375Y-82234342D01*
X96082375Y-82234342D02*
X96082375Y-82139104D01*
X96082375Y-82139104D02*
X96129994Y-82043866D01*
X96129994Y-82043866D02*
X96177613Y-81996247D01*
X96177613Y-81996247D02*
X96272851Y-81948628D01*
X96272851Y-81948628D02*
X96463327Y-81901009D01*
X96463327Y-81901009D02*
X96558565Y-81853390D01*
X96558565Y-81853390D02*
X96606184Y-81805771D01*
X96606184Y-81805771D02*
X96653803Y-81710533D01*
X96653803Y-81710533D02*
X96653803Y-81615295D01*
X96653803Y-81615295D02*
X96606184Y-81520057D01*
X96606184Y-81520057D02*
X96558565Y-81472438D01*
X96558565Y-81472438D02*
X96463327Y-81424819D01*
X96463327Y-81424819D02*
X96225232Y-81424819D01*
X96225232Y-81424819D02*
X96082375Y-81472438D01*
X95749041Y-81424819D02*
X95510946Y-82424819D01*
X95510946Y-82424819D02*
X95320470Y-81710533D01*
X95320470Y-81710533D02*
X95129994Y-82424819D01*
X95129994Y-82424819D02*
X94891899Y-81424819D01*
X94082375Y-81424819D02*
X94272851Y-81424819D01*
X94272851Y-81424819D02*
X94368089Y-81472438D01*
X94368089Y-81472438D02*
X94415708Y-81520057D01*
X94415708Y-81520057D02*
X94510946Y-81662914D01*
X94510946Y-81662914D02*
X94558565Y-81853390D01*
X94558565Y-81853390D02*
X94558565Y-82234342D01*
X94558565Y-82234342D02*
X94510946Y-82329580D01*
X94510946Y-82329580D02*
X94463327Y-82377200D01*
X94463327Y-82377200D02*
X94368089Y-82424819D01*
X94368089Y-82424819D02*
X94177613Y-82424819D01*
X94177613Y-82424819D02*
X94082375Y-82377200D01*
X94082375Y-82377200D02*
X94034756Y-82329580D01*
X94034756Y-82329580D02*
X93987137Y-82234342D01*
X93987137Y-82234342D02*
X93987137Y-81996247D01*
X93987137Y-81996247D02*
X94034756Y-81901009D01*
X94034756Y-81901009D02*
X94082375Y-81853390D01*
X94082375Y-81853390D02*
X94177613Y-81805771D01*
X94177613Y-81805771D02*
X94368089Y-81805771D01*
X94368089Y-81805771D02*
X94463327Y-81853390D01*
X94463327Y-81853390D02*
X94510946Y-81901009D01*
X94510946Y-81901009D02*
X94558565Y-81996247D01*
X115695832Y-44277200D02*
X115552975Y-44324819D01*
X115552975Y-44324819D02*
X115314880Y-44324819D01*
X115314880Y-44324819D02*
X115219642Y-44277200D01*
X115219642Y-44277200D02*
X115172023Y-44229580D01*
X115172023Y-44229580D02*
X115124404Y-44134342D01*
X115124404Y-44134342D02*
X115124404Y-44039104D01*
X115124404Y-44039104D02*
X115172023Y-43943866D01*
X115172023Y-43943866D02*
X115219642Y-43896247D01*
X115219642Y-43896247D02*
X115314880Y-43848628D01*
X115314880Y-43848628D02*
X115505356Y-43801009D01*
X115505356Y-43801009D02*
X115600594Y-43753390D01*
X115600594Y-43753390D02*
X115648213Y-43705771D01*
X115648213Y-43705771D02*
X115695832Y-43610533D01*
X115695832Y-43610533D02*
X115695832Y-43515295D01*
X115695832Y-43515295D02*
X115648213Y-43420057D01*
X115648213Y-43420057D02*
X115600594Y-43372438D01*
X115600594Y-43372438D02*
X115505356Y-43324819D01*
X115505356Y-43324819D02*
X115267261Y-43324819D01*
X115267261Y-43324819D02*
X115124404Y-43372438D01*
X114791070Y-43324819D02*
X114552975Y-44324819D01*
X114552975Y-44324819D02*
X114362499Y-43610533D01*
X114362499Y-43610533D02*
X114172023Y-44324819D01*
X114172023Y-44324819D02*
X113933928Y-43324819D01*
X113648213Y-43324819D02*
X112981547Y-43324819D01*
X112981547Y-43324819D02*
X113410118Y-44324819D01*
D11*
X55214285Y-79638619D02*
X55214285Y-78638619D01*
X55214285Y-78638619D02*
X54976190Y-78638619D01*
X54976190Y-78638619D02*
X54833333Y-78686238D01*
X54833333Y-78686238D02*
X54738095Y-78781476D01*
X54738095Y-78781476D02*
X54690476Y-78876714D01*
X54690476Y-78876714D02*
X54642857Y-79067190D01*
X54642857Y-79067190D02*
X54642857Y-79210047D01*
X54642857Y-79210047D02*
X54690476Y-79400523D01*
X54690476Y-79400523D02*
X54738095Y-79495761D01*
X54738095Y-79495761D02*
X54833333Y-79591000D01*
X54833333Y-79591000D02*
X54976190Y-79638619D01*
X54976190Y-79638619D02*
X55214285Y-79638619D01*
X53690476Y-79638619D02*
X54261904Y-79638619D01*
X53976190Y-79638619D02*
X53976190Y-78638619D01*
X53976190Y-78638619D02*
X54071428Y-78781476D01*
X54071428Y-78781476D02*
X54166666Y-78876714D01*
X54166666Y-78876714D02*
X54261904Y-78924333D01*
X53071428Y-78638619D02*
X52976190Y-78638619D01*
X52976190Y-78638619D02*
X52880952Y-78686238D01*
X52880952Y-78686238D02*
X52833333Y-78733857D01*
X52833333Y-78733857D02*
X52785714Y-78829095D01*
X52785714Y-78829095D02*
X52738095Y-79019571D01*
X52738095Y-79019571D02*
X52738095Y-79257666D01*
X52738095Y-79257666D02*
X52785714Y-79448142D01*
X52785714Y-79448142D02*
X52833333Y-79543380D01*
X52833333Y-79543380D02*
X52880952Y-79591000D01*
X52880952Y-79591000D02*
X52976190Y-79638619D01*
X52976190Y-79638619D02*
X53071428Y-79638619D01*
X53071428Y-79638619D02*
X53166666Y-79591000D01*
X53166666Y-79591000D02*
X53214285Y-79543380D01*
X53214285Y-79543380D02*
X53261904Y-79448142D01*
X53261904Y-79448142D02*
X53309523Y-79257666D01*
X53309523Y-79257666D02*
X53309523Y-79019571D01*
X53309523Y-79019571D02*
X53261904Y-78829095D01*
X53261904Y-78829095D02*
X53214285Y-78733857D01*
X53214285Y-78733857D02*
X53166666Y-78686238D01*
X53166666Y-78686238D02*
X53071428Y-78638619D01*
X116688094Y-52538619D02*
X116688094Y-51538619D01*
X116688094Y-51538619D02*
X116449999Y-51538619D01*
X116449999Y-51538619D02*
X116307142Y-51586238D01*
X116307142Y-51586238D02*
X116211904Y-51681476D01*
X116211904Y-51681476D02*
X116164285Y-51776714D01*
X116164285Y-51776714D02*
X116116666Y-51967190D01*
X116116666Y-51967190D02*
X116116666Y-52110047D01*
X116116666Y-52110047D02*
X116164285Y-52300523D01*
X116164285Y-52300523D02*
X116211904Y-52395761D01*
X116211904Y-52395761D02*
X116307142Y-52491000D01*
X116307142Y-52491000D02*
X116449999Y-52538619D01*
X116449999Y-52538619D02*
X116688094Y-52538619D01*
X115783332Y-51538619D02*
X115116666Y-51538619D01*
X115116666Y-51538619D02*
X115545237Y-52538619D01*
X116688094Y-90638619D02*
X116688094Y-89638619D01*
X116688094Y-89638619D02*
X116449999Y-89638619D01*
X116449999Y-89638619D02*
X116307142Y-89686238D01*
X116307142Y-89686238D02*
X116211904Y-89781476D01*
X116211904Y-89781476D02*
X116164285Y-89876714D01*
X116164285Y-89876714D02*
X116116666Y-90067190D01*
X116116666Y-90067190D02*
X116116666Y-90210047D01*
X116116666Y-90210047D02*
X116164285Y-90400523D01*
X116164285Y-90400523D02*
X116211904Y-90495761D01*
X116211904Y-90495761D02*
X116307142Y-90591000D01*
X116307142Y-90591000D02*
X116449999Y-90638619D01*
X116449999Y-90638619D02*
X116688094Y-90638619D01*
X115640475Y-90638619D02*
X115449999Y-90638619D01*
X115449999Y-90638619D02*
X115354761Y-90591000D01*
X115354761Y-90591000D02*
X115307142Y-90543380D01*
X115307142Y-90543380D02*
X115211904Y-90400523D01*
X115211904Y-90400523D02*
X115164285Y-90210047D01*
X115164285Y-90210047D02*
X115164285Y-89829095D01*
X115164285Y-89829095D02*
X115211904Y-89733857D01*
X115211904Y-89733857D02*
X115259523Y-89686238D01*
X115259523Y-89686238D02*
X115354761Y-89638619D01*
X115354761Y-89638619D02*
X115545237Y-89638619D01*
X115545237Y-89638619D02*
X115640475Y-89686238D01*
X115640475Y-89686238D02*
X115688094Y-89733857D01*
X115688094Y-89733857D02*
X115735713Y-89829095D01*
X115735713Y-89829095D02*
X115735713Y-90067190D01*
X115735713Y-90067190D02*
X115688094Y-90162428D01*
X115688094Y-90162428D02*
X115640475Y-90210047D01*
X115640475Y-90210047D02*
X115545237Y-90257666D01*
X115545237Y-90257666D02*
X115354761Y-90257666D01*
X115354761Y-90257666D02*
X115259523Y-90210047D01*
X115259523Y-90210047D02*
X115211904Y-90162428D01*
X115211904Y-90162428D02*
X115164285Y-90067190D01*
X78588094Y-52538619D02*
X78588094Y-51538619D01*
X78588094Y-51538619D02*
X78349999Y-51538619D01*
X78349999Y-51538619D02*
X78207142Y-51586238D01*
X78207142Y-51586238D02*
X78111904Y-51681476D01*
X78111904Y-51681476D02*
X78064285Y-51776714D01*
X78064285Y-51776714D02*
X78016666Y-51967190D01*
X78016666Y-51967190D02*
X78016666Y-52110047D01*
X78016666Y-52110047D02*
X78064285Y-52300523D01*
X78064285Y-52300523D02*
X78111904Y-52395761D01*
X78111904Y-52395761D02*
X78207142Y-52491000D01*
X78207142Y-52491000D02*
X78349999Y-52538619D01*
X78349999Y-52538619D02*
X78588094Y-52538619D01*
X77064285Y-52538619D02*
X77635713Y-52538619D01*
X77349999Y-52538619D02*
X77349999Y-51538619D01*
X77349999Y-51538619D02*
X77445237Y-51681476D01*
X77445237Y-51681476D02*
X77540475Y-51776714D01*
X77540475Y-51776714D02*
X77635713Y-51824333D01*
X97638094Y-90638619D02*
X97638094Y-89638619D01*
X97638094Y-89638619D02*
X97399999Y-89638619D01*
X97399999Y-89638619D02*
X97257142Y-89686238D01*
X97257142Y-89686238D02*
X97161904Y-89781476D01*
X97161904Y-89781476D02*
X97114285Y-89876714D01*
X97114285Y-89876714D02*
X97066666Y-90067190D01*
X97066666Y-90067190D02*
X97066666Y-90210047D01*
X97066666Y-90210047D02*
X97114285Y-90400523D01*
X97114285Y-90400523D02*
X97161904Y-90495761D01*
X97161904Y-90495761D02*
X97257142Y-90591000D01*
X97257142Y-90591000D02*
X97399999Y-90638619D01*
X97399999Y-90638619D02*
X97638094Y-90638619D01*
X96209523Y-89638619D02*
X96399999Y-89638619D01*
X96399999Y-89638619D02*
X96495237Y-89686238D01*
X96495237Y-89686238D02*
X96542856Y-89733857D01*
X96542856Y-89733857D02*
X96638094Y-89876714D01*
X96638094Y-89876714D02*
X96685713Y-90067190D01*
X96685713Y-90067190D02*
X96685713Y-90448142D01*
X96685713Y-90448142D02*
X96638094Y-90543380D01*
X96638094Y-90543380D02*
X96590475Y-90591000D01*
X96590475Y-90591000D02*
X96495237Y-90638619D01*
X96495237Y-90638619D02*
X96304761Y-90638619D01*
X96304761Y-90638619D02*
X96209523Y-90591000D01*
X96209523Y-90591000D02*
X96161904Y-90543380D01*
X96161904Y-90543380D02*
X96114285Y-90448142D01*
X96114285Y-90448142D02*
X96114285Y-90210047D01*
X96114285Y-90210047D02*
X96161904Y-90114809D01*
X96161904Y-90114809D02*
X96209523Y-90067190D01*
X96209523Y-90067190D02*
X96304761Y-90019571D01*
X96304761Y-90019571D02*
X96495237Y-90019571D01*
X96495237Y-90019571D02*
X96590475Y-90067190D01*
X96590475Y-90067190D02*
X96638094Y-90114809D01*
X96638094Y-90114809D02*
X96685713Y-90210047D01*
X97638094Y-71588619D02*
X97638094Y-70588619D01*
X97638094Y-70588619D02*
X97399999Y-70588619D01*
X97399999Y-70588619D02*
X97257142Y-70636238D01*
X97257142Y-70636238D02*
X97161904Y-70731476D01*
X97161904Y-70731476D02*
X97114285Y-70826714D01*
X97114285Y-70826714D02*
X97066666Y-71017190D01*
X97066666Y-71017190D02*
X97066666Y-71160047D01*
X97066666Y-71160047D02*
X97114285Y-71350523D01*
X97114285Y-71350523D02*
X97161904Y-71445761D01*
X97161904Y-71445761D02*
X97257142Y-71541000D01*
X97257142Y-71541000D02*
X97399999Y-71588619D01*
X97399999Y-71588619D02*
X97638094Y-71588619D01*
X96161904Y-70588619D02*
X96638094Y-70588619D01*
X96638094Y-70588619D02*
X96685713Y-71064809D01*
X96685713Y-71064809D02*
X96638094Y-71017190D01*
X96638094Y-71017190D02*
X96542856Y-70969571D01*
X96542856Y-70969571D02*
X96304761Y-70969571D01*
X96304761Y-70969571D02*
X96209523Y-71017190D01*
X96209523Y-71017190D02*
X96161904Y-71064809D01*
X96161904Y-71064809D02*
X96114285Y-71160047D01*
X96114285Y-71160047D02*
X96114285Y-71398142D01*
X96114285Y-71398142D02*
X96161904Y-71493380D01*
X96161904Y-71493380D02*
X96209523Y-71541000D01*
X96209523Y-71541000D02*
X96304761Y-71588619D01*
X96304761Y-71588619D02*
X96542856Y-71588619D01*
X96542856Y-71588619D02*
X96638094Y-71541000D01*
X96638094Y-71541000D02*
X96685713Y-71493380D01*
D10*
X96645832Y-44277200D02*
X96502975Y-44324819D01*
X96502975Y-44324819D02*
X96264880Y-44324819D01*
X96264880Y-44324819D02*
X96169642Y-44277200D01*
X96169642Y-44277200D02*
X96122023Y-44229580D01*
X96122023Y-44229580D02*
X96074404Y-44134342D01*
X96074404Y-44134342D02*
X96074404Y-44039104D01*
X96074404Y-44039104D02*
X96122023Y-43943866D01*
X96122023Y-43943866D02*
X96169642Y-43896247D01*
X96169642Y-43896247D02*
X96264880Y-43848628D01*
X96264880Y-43848628D02*
X96455356Y-43801009D01*
X96455356Y-43801009D02*
X96550594Y-43753390D01*
X96550594Y-43753390D02*
X96598213Y-43705771D01*
X96598213Y-43705771D02*
X96645832Y-43610533D01*
X96645832Y-43610533D02*
X96645832Y-43515295D01*
X96645832Y-43515295D02*
X96598213Y-43420057D01*
X96598213Y-43420057D02*
X96550594Y-43372438D01*
X96550594Y-43372438D02*
X96455356Y-43324819D01*
X96455356Y-43324819D02*
X96217261Y-43324819D01*
X96217261Y-43324819D02*
X96074404Y-43372438D01*
X95741070Y-43324819D02*
X95502975Y-44324819D01*
X95502975Y-44324819D02*
X95312499Y-43610533D01*
X95312499Y-43610533D02*
X95122023Y-44324819D01*
X95122023Y-44324819D02*
X94883928Y-43324819D01*
X94074404Y-43658152D02*
X94074404Y-44324819D01*
X94312499Y-43277200D02*
X94550594Y-43991485D01*
X94550594Y-43991485D02*
X93931547Y-43991485D01*
D11*
X78588094Y-71588619D02*
X78588094Y-70588619D01*
X78588094Y-70588619D02*
X78349999Y-70588619D01*
X78349999Y-70588619D02*
X78207142Y-70636238D01*
X78207142Y-70636238D02*
X78111904Y-70731476D01*
X78111904Y-70731476D02*
X78064285Y-70826714D01*
X78064285Y-70826714D02*
X78016666Y-71017190D01*
X78016666Y-71017190D02*
X78016666Y-71160047D01*
X78016666Y-71160047D02*
X78064285Y-71350523D01*
X78064285Y-71350523D02*
X78111904Y-71445761D01*
X78111904Y-71445761D02*
X78207142Y-71541000D01*
X78207142Y-71541000D02*
X78349999Y-71588619D01*
X78349999Y-71588619D02*
X78588094Y-71588619D01*
X77635713Y-70683857D02*
X77588094Y-70636238D01*
X77588094Y-70636238D02*
X77492856Y-70588619D01*
X77492856Y-70588619D02*
X77254761Y-70588619D01*
X77254761Y-70588619D02*
X77159523Y-70636238D01*
X77159523Y-70636238D02*
X77111904Y-70683857D01*
X77111904Y-70683857D02*
X77064285Y-70779095D01*
X77064285Y-70779095D02*
X77064285Y-70874333D01*
X77064285Y-70874333D02*
X77111904Y-71017190D01*
X77111904Y-71017190D02*
X77683332Y-71588619D01*
X77683332Y-71588619D02*
X77064285Y-71588619D01*
X78588094Y-90638619D02*
X78588094Y-89638619D01*
X78588094Y-89638619D02*
X78349999Y-89638619D01*
X78349999Y-89638619D02*
X78207142Y-89686238D01*
X78207142Y-89686238D02*
X78111904Y-89781476D01*
X78111904Y-89781476D02*
X78064285Y-89876714D01*
X78064285Y-89876714D02*
X78016666Y-90067190D01*
X78016666Y-90067190D02*
X78016666Y-90210047D01*
X78016666Y-90210047D02*
X78064285Y-90400523D01*
X78064285Y-90400523D02*
X78111904Y-90495761D01*
X78111904Y-90495761D02*
X78207142Y-90591000D01*
X78207142Y-90591000D02*
X78349999Y-90638619D01*
X78349999Y-90638619D02*
X78588094Y-90638619D01*
X77683332Y-89638619D02*
X77064285Y-89638619D01*
X77064285Y-89638619D02*
X77397618Y-90019571D01*
X77397618Y-90019571D02*
X77254761Y-90019571D01*
X77254761Y-90019571D02*
X77159523Y-90067190D01*
X77159523Y-90067190D02*
X77111904Y-90114809D01*
X77111904Y-90114809D02*
X77064285Y-90210047D01*
X77064285Y-90210047D02*
X77064285Y-90448142D01*
X77064285Y-90448142D02*
X77111904Y-90543380D01*
X77111904Y-90543380D02*
X77159523Y-90591000D01*
X77159523Y-90591000D02*
X77254761Y-90638619D01*
X77254761Y-90638619D02*
X77540475Y-90638619D01*
X77540475Y-90638619D02*
X77635713Y-90591000D01*
X77635713Y-90591000D02*
X77683332Y-90543380D01*
D10*
X51000000Y-74300000D02*
X57000000Y-74300000D01*
X51000000Y-74550000D02*
X51000000Y-74300000D01*
X51000000Y-77800000D02*
X51000000Y-77550000D01*
X57000000Y-74300000D02*
X57000000Y-74550000D01*
X57000000Y-77550000D02*
X57000000Y-77800000D01*
X57000000Y-77800000D02*
X51000000Y-77800000D01*
X113250000Y-72012500D02*
X113250000Y-73512500D01*
X113250000Y-73512500D02*
X118650000Y-73512500D01*
X115450000Y-72262500D02*
X115450000Y-73262500D01*
X115550000Y-72762500D02*
X116450000Y-72262500D01*
X116450000Y-72262500D02*
X116450000Y-73262500D01*
X116450000Y-73262500D02*
X115550000Y-72762500D01*
X118650000Y-72012500D02*
X113250000Y-72012500D01*
X118650000Y-73512500D02*
X118650000Y-72012500D01*
X94200000Y-52962500D02*
X94200000Y-54462500D01*
X94200000Y-54462500D02*
X99600000Y-54462500D01*
X96400000Y-53212500D02*
X96400000Y-54212500D01*
X96500000Y-53712500D02*
X97400000Y-53212500D01*
X97400000Y-53212500D02*
X97400000Y-54212500D01*
X97400000Y-54212500D02*
X96500000Y-53712500D01*
X99600000Y-52962500D02*
X94200000Y-52962500D01*
X99600000Y-54462500D02*
X99600000Y-52962500D01*
D12*
X45110000Y-39220000D02*
X45110000Y-72240000D01*
X45110000Y-72240000D02*
X62890000Y-72240000D01*
X47650000Y-41760000D02*
X45110000Y-41760000D01*
X47650000Y-41760000D02*
X47650000Y-44300000D01*
X47650000Y-44300000D02*
X45110000Y-44300000D01*
X62890000Y-39220000D02*
X45110000Y-39220000D01*
X62890000Y-72240000D02*
X62890000Y-39220000D01*
D10*
X60344635Y-47749030D02*
X59844635Y-47749030D01*
X59844635Y-47649030D01*
X60344635Y-47649030D01*
X60344635Y-47749030D01*
G36*
X60344635Y-47749030D02*
G01*
X59844635Y-47749030D01*
X59844635Y-47649030D01*
X60344635Y-47649030D01*
X60344635Y-47749030D01*
G37*
X59944635Y-47949030D02*
X59844635Y-47949030D01*
X59844635Y-47649030D01*
X59944635Y-47649030D01*
X59944635Y-47949030D01*
G36*
X59944635Y-47949030D02*
G01*
X59844635Y-47949030D01*
X59844635Y-47649030D01*
X59944635Y-47649030D01*
X59944635Y-47949030D01*
G37*
X59944635Y-48449030D02*
X59844635Y-48449030D01*
X59844635Y-48249030D01*
X59944635Y-48249030D01*
X59944635Y-48449030D01*
G36*
X59944635Y-48449030D02*
G01*
X59844635Y-48449030D01*
X59844635Y-48249030D01*
X59944635Y-48249030D01*
X59944635Y-48449030D01*
G37*
X60144635Y-48149030D02*
X60044635Y-48149030D01*
X60044635Y-48049030D01*
X60144635Y-48049030D01*
X60144635Y-48149030D01*
G36*
X60144635Y-48149030D02*
G01*
X60044635Y-48149030D01*
X60044635Y-48049030D01*
X60144635Y-48049030D01*
X60144635Y-48149030D01*
G37*
X60344635Y-48449030D02*
X60244635Y-48449030D01*
X60244635Y-47649030D01*
X60344635Y-47649030D01*
X60344635Y-48449030D01*
G36*
X60344635Y-48449030D02*
G01*
X60244635Y-48449030D01*
X60244635Y-47649030D01*
X60344635Y-47649030D01*
X60344635Y-48449030D01*
G37*
X51300000Y-80062500D02*
X51300000Y-81562500D01*
X51300000Y-81562500D02*
X56700000Y-81562500D01*
X53500000Y-80312500D02*
X53500000Y-81312500D01*
X53600000Y-80812500D02*
X54500000Y-80312500D01*
X54500000Y-80312500D02*
X54500000Y-81312500D01*
X54500000Y-81312500D02*
X53600000Y-80812500D01*
X56700000Y-80062500D02*
X51300000Y-80062500D01*
X56700000Y-81562500D02*
X56700000Y-80062500D01*
X113250000Y-52962500D02*
X113250000Y-54462500D01*
X113250000Y-54462500D02*
X118650000Y-54462500D01*
X115450000Y-53212500D02*
X115450000Y-54212500D01*
X115550000Y-53712500D02*
X116450000Y-53212500D01*
X116450000Y-53212500D02*
X116450000Y-54212500D01*
X116450000Y-54212500D02*
X115550000Y-53712500D01*
X118650000Y-52962500D02*
X113250000Y-52962500D01*
X118650000Y-54462500D02*
X118650000Y-52962500D01*
X113250000Y-91062500D02*
X113250000Y-92562500D01*
X113250000Y-92562500D02*
X118650000Y-92562500D01*
X115450000Y-91312500D02*
X115450000Y-92312500D01*
X115550000Y-91812500D02*
X116450000Y-91312500D01*
X116450000Y-91312500D02*
X116450000Y-92312500D01*
X116450000Y-92312500D02*
X115550000Y-91812500D01*
X118650000Y-91062500D02*
X113250000Y-91062500D01*
X118650000Y-92562500D02*
X118650000Y-91062500D01*
X75150000Y-52962500D02*
X75150000Y-54462500D01*
X75150000Y-54462500D02*
X80550000Y-54462500D01*
X77350000Y-53212500D02*
X77350000Y-54212500D01*
X77450000Y-53712500D02*
X78350000Y-53212500D01*
X78350000Y-53212500D02*
X78350000Y-54212500D01*
X78350000Y-54212500D02*
X77450000Y-53712500D01*
X80550000Y-52962500D02*
X75150000Y-52962500D01*
X80550000Y-54462500D02*
X80550000Y-52962500D01*
X94200000Y-91062500D02*
X94200000Y-92562500D01*
X94200000Y-92562500D02*
X99600000Y-92562500D01*
X96400000Y-91312500D02*
X96400000Y-92312500D01*
X96500000Y-91812500D02*
X97400000Y-91312500D01*
X97400000Y-91312500D02*
X97400000Y-92312500D01*
X97400000Y-92312500D02*
X96500000Y-91812500D01*
X99600000Y-91062500D02*
X94200000Y-91062500D01*
X99600000Y-92562500D02*
X99600000Y-91062500D01*
X94200000Y-72012500D02*
X94200000Y-73512500D01*
X94200000Y-73512500D02*
X99600000Y-73512500D01*
X96400000Y-72262500D02*
X96400000Y-73262500D01*
X96500000Y-72762500D02*
X97400000Y-72262500D01*
X97400000Y-72262500D02*
X97400000Y-73262500D01*
X97400000Y-73262500D02*
X96500000Y-72762500D01*
X99600000Y-72012500D02*
X94200000Y-72012500D01*
X99600000Y-73512500D02*
X99600000Y-72012500D01*
X75150000Y-72012500D02*
X75150000Y-73512500D01*
X75150000Y-73512500D02*
X80550000Y-73512500D01*
X77350000Y-72262500D02*
X77350000Y-73262500D01*
X77450000Y-72762500D02*
X78350000Y-72262500D01*
X78350000Y-72262500D02*
X78350000Y-73262500D01*
X78350000Y-73262500D02*
X77450000Y-72762500D01*
X80550000Y-72012500D02*
X75150000Y-72012500D01*
X80550000Y-73512500D02*
X80550000Y-72012500D01*
X75150000Y-91062500D02*
X75150000Y-92562500D01*
X75150000Y-92562500D02*
X80550000Y-92562500D01*
X77350000Y-91312500D02*
X77350000Y-92312500D01*
X77450000Y-91812500D02*
X78350000Y-91312500D01*
X78350000Y-91312500D02*
X78350000Y-92312500D01*
X78350000Y-92312500D02*
X77450000Y-91812500D01*
X80550000Y-91062500D02*
X75150000Y-91062500D01*
X80550000Y-92562500D02*
X80550000Y-91062500D01*
D13*
X46380000Y-43030000D03*
D14*
X46380000Y-45570000D03*
X46380000Y-48110000D03*
X46380000Y-50650000D03*
X46380000Y-53190000D03*
X46380000Y-55730000D03*
X46380000Y-58270000D03*
X46380000Y-60810000D03*
X46380000Y-63350000D03*
X46380000Y-65890000D03*
X46380000Y-68430000D03*
X46380000Y-70970000D03*
X61620000Y-70970000D03*
X61620000Y-68430000D03*
X61620000Y-65890000D03*
X61620000Y-63350000D03*
X61620000Y-60810000D03*
X61620000Y-58270000D03*
X61620000Y-55730000D03*
X61620000Y-53190000D03*
X61620000Y-50650000D03*
X61620000Y-48110000D03*
X61620000Y-45570000D03*
X61620000Y-43030000D03*
M02*
