%TF.GenerationSoftware,KiCad,Pcbnew,8.0.8*%
%TF.CreationDate,2025-02-16T23:21:43+09:00*%
%TF.ProjectId,macro,6d616372-6f2e-46b6-9963-61645f706362,rev?*%
%TF.SameCoordinates,Original*%
%TF.FileFunction,Legend,Top*%
%TF.FilePolarity,Positive*%
%FSLAX46Y46*%
G04 Gerber Fmt 4.6, Leading zero omitted, Abs format (unit mm)*
G04 Created by KiCad (PCBNEW 8.0.8) date 2025-02-16 23:21:43*
%MOMM*%
%LPD*%
G01*
G04 APERTURE LIST*
%ADD10C,0.000000*%
G04 APERTURE END LIST*
D10*
G36*
X50871835Y-80807600D02*
G01*
X50922201Y-80854005D01*
X50977031Y-80911920D01*
X51046295Y-80989144D01*
X51087887Y-81042210D01*
X51105457Y-81078490D01*
X51102656Y-81105359D01*
X51084444Y-81128888D01*
X51043077Y-81152951D01*
X50996152Y-81142184D01*
X50937082Y-81094503D01*
X50919903Y-81076845D01*
X50865775Y-81006331D01*
X50826691Y-80930297D01*
X50806783Y-80860281D01*
X50810185Y-80807821D01*
X50818792Y-80794540D01*
X50839170Y-80789117D01*
X50871835Y-80807600D01*
G37*
G36*
X49796531Y-82944449D02*
G01*
X49856112Y-82974427D01*
X49886754Y-83027878D01*
X49888888Y-83049287D01*
X49877579Y-83099195D01*
X49848305Y-83171870D01*
X49808049Y-83253300D01*
X49763793Y-83329469D01*
X49722520Y-83386362D01*
X49719006Y-83390258D01*
X49666983Y-83431794D01*
X49612575Y-83439841D01*
X49546906Y-83413679D01*
X49485060Y-83371277D01*
X49412143Y-83300379D01*
X49379654Y-83224929D01*
X49383860Y-83135383D01*
X49387174Y-83121141D01*
X49416155Y-83080722D01*
X49477388Y-83036413D01*
X49559784Y-82994165D01*
X49652257Y-82959928D01*
X49717555Y-82943820D01*
X49796531Y-82944449D01*
G37*
G36*
X56837239Y-82540626D02*
G01*
X56875424Y-82546616D01*
X56904108Y-82577776D01*
X56908909Y-82627319D01*
X56889665Y-82676041D01*
X56876628Y-82689842D01*
X56841415Y-82702516D01*
X56767092Y-82713781D01*
X56652076Y-82723797D01*
X56494784Y-82732725D01*
X56426628Y-82735741D01*
X56280630Y-82742753D01*
X56103304Y-82752761D01*
X55907604Y-82764944D01*
X55706482Y-82778481D01*
X55512891Y-82792549D01*
X55433333Y-82798705D01*
X55218616Y-82815356D01*
X55043843Y-82828010D01*
X54904698Y-82836722D01*
X54796867Y-82841550D01*
X54716033Y-82842550D01*
X54657882Y-82839779D01*
X54618099Y-82833295D01*
X54592368Y-82823154D01*
X54576852Y-82809995D01*
X54561003Y-82782552D01*
X54566035Y-82759535D01*
X54595937Y-82739682D01*
X54654694Y-82721732D01*
X54746294Y-82704423D01*
X54874724Y-82686496D01*
X55022222Y-82669111D01*
X55248416Y-82644850D01*
X55477296Y-82622292D01*
X55704131Y-82601748D01*
X55924188Y-82583532D01*
X56132736Y-82567956D01*
X56325043Y-82555333D01*
X56496379Y-82545976D01*
X56642011Y-82540197D01*
X56757208Y-82538310D01*
X56837239Y-82540626D01*
G37*
G36*
X52960834Y-79595939D02*
G01*
X52977622Y-79648730D01*
X52977685Y-79652720D01*
X52962224Y-79693522D01*
X52919901Y-79757389D01*
X52856647Y-79837388D01*
X52778394Y-79926587D01*
X52691075Y-80018053D01*
X52600622Y-80104855D01*
X52559601Y-80141303D01*
X52439459Y-80238417D01*
X52299411Y-80340709D01*
X52146061Y-80444323D01*
X51986013Y-80545400D01*
X51825870Y-80640085D01*
X51672237Y-80724518D01*
X51531717Y-80794844D01*
X51410914Y-80847204D01*
X51316431Y-80877742D01*
X51290489Y-80882603D01*
X51232693Y-80887700D01*
X51206496Y-80879379D01*
X51200021Y-80853434D01*
X51200000Y-80850555D01*
X51210045Y-80825783D01*
X51243526Y-80794881D01*
X51305456Y-80754319D01*
X51400850Y-80700566D01*
X51451314Y-80673623D01*
X51601988Y-80589747D01*
X51766777Y-80490704D01*
X51936167Y-80382819D01*
X52100642Y-80272417D01*
X52250688Y-80165821D01*
X52376791Y-80069359D01*
X52439742Y-80016564D01*
X52529217Y-79932918D01*
X52626099Y-79835153D01*
X52710023Y-79743848D01*
X52713043Y-79740366D01*
X52775065Y-79671027D01*
X52829964Y-79613906D01*
X52868705Y-79578257D01*
X52877053Y-79572406D01*
X52923082Y-79567122D01*
X52960834Y-79595939D01*
G37*
G36*
X56332666Y-81104212D02*
G01*
X56362792Y-81146200D01*
X56366666Y-81180199D01*
X56355015Y-81213292D01*
X56317845Y-81248928D01*
X56251832Y-81288790D01*
X56153650Y-81334559D01*
X56019977Y-81387918D01*
X55847485Y-81450548D01*
X55798368Y-81467692D01*
X55693060Y-81505713D01*
X55556413Y-81557321D01*
X55398012Y-81618767D01*
X55227441Y-81686302D01*
X55054286Y-81756178D01*
X54927272Y-81808371D01*
X54775957Y-81870308D01*
X54635820Y-81926170D01*
X54512735Y-81973735D01*
X54412577Y-82010778D01*
X54341219Y-82035077D01*
X54304535Y-82044408D01*
X54303504Y-82044444D01*
X54256687Y-82031629D01*
X54235749Y-82009394D01*
X54234442Y-81980942D01*
X54254642Y-81949878D01*
X54300284Y-81913615D01*
X54375307Y-81869566D01*
X54483647Y-81815146D01*
X54629242Y-81747769D01*
X54644444Y-81740920D01*
X54859743Y-81644509D01*
X55042111Y-81563910D01*
X55198861Y-81496068D01*
X55337304Y-81437928D01*
X55464751Y-81386437D01*
X55588514Y-81338541D01*
X55715905Y-81291184D01*
X55755555Y-81276758D01*
X55877217Y-81232503D01*
X55993035Y-81190054D01*
X56092406Y-81153319D01*
X56164726Y-81126206D01*
X56183395Y-81119051D01*
X56272819Y-81095147D01*
X56332666Y-81104212D01*
G37*
G36*
X52990934Y-80887498D02*
G01*
X53054947Y-80946737D01*
X53105117Y-81040061D01*
X53139094Y-81162764D01*
X53154528Y-81310141D01*
X53155208Y-81347150D01*
X53147417Y-81442047D01*
X53125917Y-81563867D01*
X53094223Y-81698557D01*
X53055845Y-81832069D01*
X53014299Y-81950352D01*
X52990627Y-82005399D01*
X52884237Y-82185261D01*
X52750197Y-82339259D01*
X52594132Y-82464138D01*
X52421665Y-82556641D01*
X52238417Y-82613509D01*
X52050014Y-82631486D01*
X51928075Y-82620874D01*
X51712272Y-82565742D01*
X51521097Y-82475443D01*
X51357130Y-82351830D01*
X51222956Y-82196756D01*
X51141138Y-82056182D01*
X51086855Y-81918971D01*
X51068357Y-81807270D01*
X51072734Y-81785152D01*
X51200017Y-81785152D01*
X51212084Y-81833789D01*
X51243656Y-81905785D01*
X51287859Y-81988730D01*
X51337816Y-82070216D01*
X51386652Y-82137833D01*
X51409914Y-82163988D01*
X51568975Y-82294127D01*
X51743933Y-82382976D01*
X51933496Y-82430232D01*
X52136374Y-82435590D01*
X52351275Y-82398749D01*
X52377777Y-82391487D01*
X52502916Y-82333485D01*
X52619768Y-82235017D01*
X52725754Y-82099688D01*
X52818297Y-81931109D01*
X52894818Y-81732888D01*
X52926222Y-81623954D01*
X52956670Y-81474545D01*
X52970745Y-81331352D01*
X52968296Y-81204448D01*
X52949172Y-81103905D01*
X52934599Y-81069032D01*
X52918154Y-81044325D01*
X52895628Y-81035512D01*
X52854263Y-81041568D01*
X52794322Y-81057765D01*
X52643701Y-81103114D01*
X52534986Y-81141989D01*
X52466251Y-81175261D01*
X52435567Y-81203797D01*
X52434939Y-81219813D01*
X52481142Y-81352864D01*
X52519984Y-81509308D01*
X52549208Y-81674941D01*
X52566555Y-81835559D01*
X52569766Y-81976957D01*
X52565086Y-82038283D01*
X52540965Y-82140986D01*
X52500054Y-82217144D01*
X52446916Y-82259887D01*
X52413371Y-82266666D01*
X52348876Y-82245083D01*
X52288441Y-82182760D01*
X52233723Y-82083335D01*
X52186380Y-81950449D01*
X52148068Y-81787741D01*
X52124188Y-81631588D01*
X52110591Y-81518732D01*
X52173226Y-81527925D01*
X52236740Y-81521292D01*
X52275066Y-81485640D01*
X52279775Y-81429611D01*
X52277418Y-81421088D01*
X52256145Y-81387189D01*
X52213841Y-81380914D01*
X52197804Y-81382840D01*
X52150932Y-81383843D01*
X52134203Y-81363829D01*
X52133333Y-81351706D01*
X52127084Y-81317691D01*
X52119626Y-81311111D01*
X52090789Y-81320811D01*
X52030744Y-81347584D01*
X51946271Y-81387933D01*
X51844150Y-81438364D01*
X51731161Y-81495383D01*
X51614082Y-81555495D01*
X51499694Y-81615204D01*
X51394776Y-81671017D01*
X51306108Y-81719438D01*
X51240468Y-81756972D01*
X51204638Y-81780126D01*
X51200017Y-81785152D01*
X51072734Y-81785152D01*
X51085559Y-81720350D01*
X51099120Y-81696888D01*
X51131392Y-81664183D01*
X51191140Y-81620440D01*
X51280988Y-81564082D01*
X51403560Y-81493535D01*
X51561480Y-81407224D01*
X51733333Y-81316161D01*
X51934978Y-81214620D01*
X52134770Y-81121838D01*
X52326826Y-81040050D01*
X52505263Y-80971491D01*
X52664197Y-80918397D01*
X52797743Y-80883004D01*
X52900019Y-80867546D01*
X52915427Y-80867047D01*
X52990934Y-80887498D01*
G37*
G36*
X51535666Y-83304593D02*
G01*
X51562113Y-83335449D01*
X51576896Y-83388603D01*
X51559080Y-83452993D01*
X51506862Y-83531963D01*
X51418438Y-83628860D01*
X51387536Y-83659092D01*
X51221825Y-83818185D01*
X51249075Y-83936870D01*
X51262876Y-84028033D01*
X51271853Y-84153232D01*
X51276111Y-84302333D01*
X51275756Y-84465202D01*
X51270895Y-84631704D01*
X51261632Y-84791706D01*
X51248074Y-84935072D01*
X51237886Y-85009111D01*
X51195520Y-85226966D01*
X51142516Y-85421632D01*
X51080732Y-85588621D01*
X51012028Y-85723444D01*
X50938260Y-85821612D01*
X50882546Y-85867388D01*
X50799304Y-85898012D01*
X50692093Y-85909344D01*
X50577160Y-85901015D01*
X50480945Y-85876548D01*
X50298803Y-85786878D01*
X50123030Y-85654194D01*
X49955048Y-85479653D01*
X49887918Y-85395146D01*
X49778917Y-85235393D01*
X50027645Y-85235393D01*
X50038917Y-85276189D01*
X50071080Y-85325823D01*
X50113788Y-85378396D01*
X50241958Y-85508644D01*
X50383044Y-85614221D01*
X50525390Y-85686581D01*
X50542737Y-85692881D01*
X50632931Y-85720851D01*
X50695780Y-85728682D01*
X50744443Y-85714523D01*
X50792083Y-85676521D01*
X50813230Y-85654834D01*
X50873298Y-85569842D01*
X50928076Y-85447215D01*
X50977911Y-85285623D01*
X51023150Y-85083735D01*
X51064141Y-84840221D01*
X51101230Y-84553750D01*
X51101627Y-84550272D01*
X51108058Y-84476257D01*
X51104637Y-84434565D01*
X51089438Y-84413785D01*
X51077592Y-84407965D01*
X51022354Y-84402435D01*
X50939135Y-84412427D01*
X50840438Y-84435123D01*
X50738769Y-84467709D01*
X50655216Y-84503087D01*
X50544027Y-84569791D01*
X50428235Y-84660348D01*
X50314999Y-84766865D01*
X50211480Y-84881451D01*
X50124837Y-84996215D01*
X50062231Y-85103266D01*
X50031577Y-85190432D01*
X50027645Y-85235393D01*
X49778917Y-85235393D01*
X49775961Y-85231061D01*
X49675707Y-85054134D01*
X49590906Y-84873299D01*
X49525305Y-84697489D01*
X49482652Y-84535636D01*
X49466696Y-84396675D01*
X49466666Y-84391166D01*
X49466666Y-84266666D01*
X49369976Y-84266666D01*
X49291071Y-84256403D01*
X49237646Y-84238628D01*
X49593073Y-84238628D01*
X49620641Y-84380425D01*
X49641518Y-84464896D01*
X49674179Y-84571067D01*
X49714393Y-84687563D01*
X49757933Y-84803007D01*
X49800569Y-84906024D01*
X49838073Y-84985240D01*
X49858096Y-85019153D01*
X49894892Y-85071639D01*
X49963819Y-84941375D01*
X50014931Y-84861537D01*
X50090788Y-84764477D01*
X50182177Y-84661647D01*
X50221928Y-84620547D01*
X50384061Y-84473413D01*
X50542840Y-84364637D01*
X50706641Y-84289710D01*
X50883837Y-84244120D01*
X50935517Y-84236194D01*
X51116539Y-84211958D01*
X51102163Y-84057280D01*
X51094389Y-83980120D01*
X51087513Y-83923188D01*
X51082953Y-83898156D01*
X51082782Y-83897922D01*
X51061030Y-83902510D01*
X51006676Y-83918675D01*
X50929147Y-83943533D01*
X50877777Y-83960629D01*
X50621199Y-84023995D01*
X50359150Y-84043839D01*
X50095277Y-84020139D01*
X49875623Y-83966796D01*
X49839399Y-83964903D01*
X49813191Y-83993593D01*
X49800454Y-84021124D01*
X49766063Y-84076480D01*
X49711524Y-84138010D01*
X49682479Y-84164363D01*
X49593073Y-84238628D01*
X49237646Y-84238628D01*
X49208272Y-84228855D01*
X49127855Y-84188887D01*
X49056095Y-84141364D01*
X48999269Y-84091151D01*
X48963652Y-84043111D01*
X48955522Y-84002109D01*
X48981153Y-83973009D01*
X48987551Y-83970254D01*
X49022934Y-83973801D01*
X49082041Y-83995532D01*
X49137551Y-84023030D01*
X49268552Y-84076947D01*
X49387841Y-84088034D01*
X49494997Y-84056405D01*
X49589599Y-83982170D01*
X49661180Y-83883333D01*
X49702646Y-83818327D01*
X49739156Y-83772319D01*
X49762100Y-83755566D01*
X49796108Y-83763354D01*
X49856344Y-83783485D01*
X49911111Y-83804283D01*
X50023010Y-83834944D01*
X50164591Y-83853014D01*
X50322913Y-83858500D01*
X50485034Y-83851410D01*
X50638015Y-83831750D01*
X50755555Y-83803823D01*
X50965633Y-83724075D01*
X51142645Y-83626283D01*
X51283244Y-83512653D01*
X51379451Y-83392989D01*
X51435760Y-83321121D01*
X51488414Y-83291472D01*
X51535666Y-83304593D01*
G37*
G36*
X54455026Y-76213701D02*
G01*
X54538679Y-76262324D01*
X54639280Y-76343999D01*
X54760130Y-76460341D01*
X54811428Y-76513325D01*
X54986167Y-76708565D01*
X55153175Y-76920937D01*
X55315396Y-77155127D01*
X55475774Y-77415824D01*
X55637253Y-77707713D01*
X55802776Y-78035482D01*
X55911672Y-78265127D01*
X56019670Y-78506123D01*
X56105521Y-78717734D01*
X56171535Y-78907688D01*
X56220021Y-79083713D01*
X56253287Y-79253534D01*
X56273643Y-79424878D01*
X56278516Y-79492711D01*
X56285822Y-79585893D01*
X56297269Y-79649457D01*
X56317557Y-79698225D01*
X56351387Y-79747020D01*
X56364279Y-79763140D01*
X56513526Y-79969786D01*
X56657953Y-80213824D01*
X56794737Y-80488249D01*
X56921056Y-80786055D01*
X57034086Y-81100233D01*
X57131005Y-81423778D01*
X57208990Y-81749684D01*
X57247542Y-81955555D01*
X57263925Y-82061028D01*
X57275488Y-82155772D01*
X57282720Y-82250198D01*
X57286112Y-82354719D01*
X57286152Y-82479747D01*
X57283331Y-82635693D01*
X57282030Y-82688888D01*
X57275805Y-82879637D01*
X57266529Y-83036306D01*
X57252196Y-83169247D01*
X57230801Y-83288811D01*
X57200336Y-83405353D01*
X57158795Y-83529222D01*
X57104172Y-83670773D01*
X57080376Y-83729378D01*
X56965463Y-83992089D01*
X56843458Y-84232984D01*
X56709137Y-84459687D01*
X56557279Y-84679826D01*
X56382658Y-84901028D01*
X56180052Y-85130920D01*
X55969182Y-85351839D01*
X55794284Y-85525948D01*
X55638071Y-85672714D01*
X55491743Y-85799714D01*
X55346496Y-85914531D01*
X55193531Y-86024743D01*
X55165457Y-86044023D01*
X54977871Y-86172027D01*
X55072269Y-86198001D01*
X55115137Y-86208439D01*
X55151806Y-86210767D01*
X55192119Y-86202153D01*
X55245919Y-86179769D01*
X55323049Y-86140785D01*
X55384851Y-86108125D01*
X55487698Y-86051472D01*
X55558252Y-86006596D01*
X55604809Y-85967171D01*
X55635668Y-85926871D01*
X55645196Y-85909637D01*
X55713338Y-85813618D01*
X55808736Y-85727093D01*
X55915295Y-85663338D01*
X55966739Y-85644423D01*
X56066817Y-85627308D01*
X56166904Y-85636615D01*
X56236746Y-85655509D01*
X56276662Y-85657756D01*
X56299084Y-85624831D01*
X56301025Y-85618989D01*
X56362579Y-85495668D01*
X56461099Y-85387280D01*
X56525820Y-85343322D01*
X57312554Y-85343322D01*
X57323918Y-85360955D01*
X57350873Y-85360919D01*
X57394093Y-85340816D01*
X57430007Y-85315844D01*
X57644444Y-85315844D01*
X57653110Y-85331100D01*
X57682629Y-85326492D01*
X57738280Y-85300136D01*
X57820629Y-85252958D01*
X57897094Y-85203622D01*
X57922882Y-85182579D01*
X58155555Y-85182579D01*
X58155824Y-85192708D01*
X58161469Y-85195826D01*
X58179750Y-85188558D01*
X58217925Y-85167523D01*
X58283252Y-85129346D01*
X58333333Y-85099848D01*
X58413000Y-85052873D01*
X58461295Y-85023502D01*
X58463360Y-85022034D01*
X58685783Y-85022034D01*
X58685802Y-85022034D01*
X58716794Y-85011247D01*
X58775878Y-84982045D01*
X58853368Y-84939421D01*
X58908024Y-84907478D01*
X59000540Y-84852152D01*
X59061165Y-84815415D01*
X59096092Y-84792942D01*
X59111516Y-84780411D01*
X59113629Y-84773499D01*
X59108626Y-84767883D01*
X59108375Y-84767635D01*
X59086512Y-84774329D01*
X59034646Y-84800115D01*
X58960654Y-84840839D01*
X58876894Y-84889669D01*
X58793367Y-84940988D01*
X58729498Y-84983047D01*
X58691549Y-85011509D01*
X58685783Y-85022034D01*
X58463360Y-85022034D01*
X58485044Y-85006619D01*
X58491074Y-84997108D01*
X58486209Y-84989851D01*
X58483547Y-84987251D01*
X58459885Y-84991594D01*
X58410407Y-85014590D01*
X58345966Y-85049776D01*
X58277413Y-85090687D01*
X58215601Y-85130863D01*
X58171383Y-85163840D01*
X58155555Y-85182579D01*
X57922882Y-85182579D01*
X57944505Y-85164934D01*
X57959249Y-85140411D01*
X57943460Y-85133333D01*
X57915446Y-85144052D01*
X57863745Y-85171558D01*
X57799788Y-85208875D01*
X57735006Y-85249024D01*
X57680829Y-85285028D01*
X57648688Y-85309912D01*
X57644444Y-85315844D01*
X57430007Y-85315844D01*
X57437255Y-85310804D01*
X57464036Y-85281039D01*
X57466526Y-85272222D01*
X57462066Y-85249854D01*
X57441782Y-85248414D01*
X57395815Y-85268573D01*
X57376674Y-85278348D01*
X57324141Y-85313000D01*
X57312554Y-85343322D01*
X56525820Y-85343322D01*
X56590040Y-85299704D01*
X56715057Y-85247166D01*
X56732678Y-85240847D01*
X57175077Y-85240847D01*
X57180598Y-85249789D01*
X57219947Y-85250030D01*
X57278364Y-85225820D01*
X57351141Y-85182127D01*
X57364805Y-85168899D01*
X57558885Y-85168899D01*
X57559601Y-85188757D01*
X57578896Y-85210981D01*
X57595979Y-85215033D01*
X57621289Y-85200467D01*
X57673846Y-85169479D01*
X57742774Y-85128486D01*
X57750000Y-85124172D01*
X57832589Y-85070771D01*
X57838887Y-85065425D01*
X58078860Y-85065425D01*
X58079331Y-85069180D01*
X58104572Y-85071999D01*
X58152917Y-85052733D01*
X58173981Y-85040836D01*
X58244991Y-84997617D01*
X58325744Y-84948294D01*
X58352542Y-84931883D01*
X58393521Y-84902737D01*
X58600000Y-84902737D01*
X58613387Y-84911742D01*
X58655247Y-84898439D01*
X58728120Y-84861709D01*
X58834551Y-84800429D01*
X58841358Y-84796367D01*
X58933995Y-84740994D01*
X58994685Y-84704196D01*
X59029518Y-84681566D01*
X59044587Y-84668693D01*
X59045983Y-84661170D01*
X59039798Y-84654586D01*
X59038717Y-84653531D01*
X59016883Y-84659783D01*
X58966656Y-84683894D01*
X58897520Y-84720479D01*
X58818962Y-84764147D01*
X58740466Y-84809512D01*
X58671518Y-84851185D01*
X58621602Y-84883779D01*
X58600206Y-84901905D01*
X58600000Y-84902737D01*
X58393521Y-84902737D01*
X58402749Y-84896174D01*
X58427656Y-84868235D01*
X58426226Y-84858030D01*
X58398082Y-84861747D01*
X58345799Y-84884436D01*
X58279564Y-84919897D01*
X58209566Y-84961927D01*
X58145990Y-85004325D01*
X58099026Y-85040892D01*
X58078860Y-85065425D01*
X57838887Y-85065425D01*
X57879222Y-85031187D01*
X57888373Y-85007084D01*
X57864018Y-85000000D01*
X57837338Y-85010339D01*
X57784651Y-85036900D01*
X57718036Y-85072996D01*
X57649572Y-85111942D01*
X57591339Y-85147051D01*
X57558885Y-85168899D01*
X57364805Y-85168899D01*
X57384045Y-85150272D01*
X57381633Y-85128299D01*
X57350627Y-85126953D01*
X57292883Y-85151585D01*
X57255534Y-85173284D01*
X57197921Y-85213733D01*
X57175077Y-85240847D01*
X56732678Y-85240847D01*
X56792645Y-85219342D01*
X56878974Y-85182026D01*
X56980249Y-85132062D01*
X57100134Y-85067659D01*
X57466666Y-85067659D01*
X57470263Y-85082870D01*
X57485553Y-85085123D01*
X57519283Y-85071844D01*
X57578202Y-85040457D01*
X57658616Y-84994444D01*
X57751591Y-84937977D01*
X57757928Y-84933346D01*
X57989414Y-84933346D01*
X57989969Y-84935082D01*
X58000791Y-84948503D01*
X58016749Y-84951811D01*
X58045529Y-84942077D01*
X58094820Y-84916372D01*
X58172308Y-84871768D01*
X58202371Y-84854165D01*
X58293027Y-84797632D01*
X58308060Y-84785784D01*
X58548747Y-84785784D01*
X58556639Y-84793356D01*
X58566622Y-84795638D01*
X58585534Y-84789357D01*
X58620213Y-84771241D01*
X58677497Y-84738019D01*
X58764225Y-84686417D01*
X58795919Y-84667513D01*
X58878465Y-84615634D01*
X58940668Y-84571309D01*
X58975858Y-84539617D01*
X58980340Y-84527007D01*
X58954735Y-84530212D01*
X58899829Y-84553940D01*
X58823521Y-84594384D01*
X58747407Y-84639259D01*
X58663945Y-84692560D01*
X58598490Y-84738248D01*
X58558002Y-84771190D01*
X58548747Y-84785784D01*
X58308060Y-84785784D01*
X58345816Y-84756028D01*
X58363751Y-84726834D01*
X58362752Y-84720034D01*
X58347508Y-84699234D01*
X58318835Y-84707679D01*
X58302872Y-84717348D01*
X58260301Y-84743743D01*
X58193841Y-84784263D01*
X58117747Y-84830218D01*
X58116436Y-84831006D01*
X58050755Y-84874000D01*
X58005560Y-84910462D01*
X57989414Y-84933346D01*
X57757928Y-84933346D01*
X57805377Y-84898672D01*
X57821261Y-84875333D01*
X57800528Y-84866760D01*
X57795737Y-84866666D01*
X57762590Y-84877554D01*
X57706573Y-84905729D01*
X57638707Y-84944458D01*
X57570020Y-84987005D01*
X57511536Y-85026638D01*
X57474279Y-85056623D01*
X57466666Y-85067659D01*
X57100134Y-85067659D01*
X57102679Y-85066292D01*
X57252468Y-84981559D01*
X57360513Y-84918870D01*
X57449189Y-84868042D01*
X57543054Y-84815368D01*
X57911195Y-84815368D01*
X57925824Y-84822222D01*
X57950310Y-84811674D01*
X58003518Y-84783428D01*
X58076018Y-84742583D01*
X58114713Y-84720110D01*
X58191517Y-84672791D01*
X58226269Y-84648833D01*
X58458284Y-84648833D01*
X58458374Y-84649005D01*
X58472711Y-84662155D01*
X58496997Y-84662369D01*
X58537910Y-84647042D01*
X58602125Y-84613569D01*
X58696320Y-84559346D01*
X58712197Y-84550000D01*
X58810165Y-84488495D01*
X58877384Y-84438274D01*
X58911368Y-84401743D01*
X58909626Y-84381310D01*
X58890294Y-84377777D01*
X58860189Y-84388641D01*
X58805161Y-84417443D01*
X58734260Y-84458504D01*
X58656531Y-84506141D01*
X58581022Y-84554674D01*
X58516779Y-84598421D01*
X58472851Y-84631701D01*
X58458284Y-84648833D01*
X58226269Y-84648833D01*
X58251024Y-84631767D01*
X58284562Y-84603230D01*
X58288888Y-84595776D01*
X58270986Y-84593507D01*
X58217557Y-84617159D01*
X58129024Y-84666512D01*
X58005808Y-84741349D01*
X57994444Y-84748443D01*
X57932555Y-84790854D01*
X57911195Y-84815368D01*
X57543054Y-84815368D01*
X57569171Y-84800712D01*
X57712526Y-84721253D01*
X57871323Y-84634039D01*
X58037630Y-84543442D01*
X58041766Y-84541208D01*
X58377777Y-84541208D01*
X58393346Y-84545311D01*
X58427777Y-84528633D01*
X58468626Y-84503314D01*
X58536157Y-84462328D01*
X58618816Y-84412668D01*
X58661111Y-84387425D01*
X58739879Y-84338619D01*
X58801697Y-84296701D01*
X58838186Y-84267550D01*
X58844444Y-84258791D01*
X58828875Y-84254688D01*
X58794444Y-84271366D01*
X58753595Y-84296685D01*
X58686064Y-84337671D01*
X58603405Y-84387331D01*
X58561111Y-84412574D01*
X58482342Y-84461380D01*
X58420525Y-84503298D01*
X58384035Y-84532449D01*
X58377777Y-84541208D01*
X58041766Y-84541208D01*
X58203515Y-84453836D01*
X58220993Y-84444444D01*
X58370079Y-84363565D01*
X58505700Y-84288437D01*
X58623086Y-84221824D01*
X58707287Y-84172460D01*
X58960643Y-84172460D01*
X58977293Y-84188589D01*
X59003997Y-84182877D01*
X59059161Y-84157049D01*
X59134600Y-84116142D01*
X59222131Y-84065188D01*
X59313568Y-84009222D01*
X59400726Y-83953279D01*
X59475422Y-83902393D01*
X59529471Y-83861598D01*
X59554688Y-83835929D01*
X59555555Y-83832895D01*
X59559760Y-83822222D01*
X59622222Y-83822222D01*
X59639132Y-83843798D01*
X59644444Y-83844444D01*
X59666020Y-83827533D01*
X59666666Y-83822222D01*
X59649756Y-83800645D01*
X59644444Y-83800000D01*
X59622867Y-83816910D01*
X59622222Y-83822222D01*
X59559760Y-83822222D01*
X59570771Y-83794271D01*
X59604856Y-83754728D01*
X59640463Y-83733695D01*
X59644444Y-83733333D01*
X59683157Y-83752130D01*
X59712180Y-83795133D01*
X59718109Y-83842257D01*
X59717844Y-83843317D01*
X59688770Y-83884697D01*
X59658711Y-83901116D01*
X59615166Y-83919603D01*
X59547104Y-83955325D01*
X59462385Y-84003427D01*
X59368870Y-84059054D01*
X59274420Y-84117349D01*
X59186895Y-84173458D01*
X59114157Y-84222525D01*
X59064066Y-84259694D01*
X59044482Y-84280109D01*
X59044444Y-84280550D01*
X59060752Y-84317235D01*
X59067888Y-84322977D01*
X59093859Y-84316934D01*
X59150228Y-84290686D01*
X59230627Y-84248091D01*
X59328691Y-84193007D01*
X59438050Y-84129294D01*
X59552339Y-84060808D01*
X59665191Y-83991409D01*
X59770237Y-83924956D01*
X59861111Y-83865305D01*
X59931446Y-83816317D01*
X59974875Y-83781848D01*
X59985834Y-83766720D01*
X59987900Y-83755555D01*
X60044444Y-83755555D01*
X60061354Y-83777132D01*
X60066666Y-83777777D01*
X60088243Y-83760867D01*
X60088888Y-83755555D01*
X60071978Y-83733979D01*
X60066666Y-83733333D01*
X60045090Y-83750243D01*
X60044444Y-83755555D01*
X59987900Y-83755555D01*
X59992206Y-83732279D01*
X60020897Y-83693199D01*
X60056577Y-83668458D01*
X60066666Y-83666666D01*
X60097690Y-83682063D01*
X60133431Y-83715700D01*
X60154716Y-83748750D01*
X60155555Y-83753958D01*
X60136746Y-83772568D01*
X60082152Y-83811577D01*
X59994525Y-83869241D01*
X59876616Y-83943815D01*
X59731175Y-84033555D01*
X59560955Y-84136718D01*
X59400000Y-84232967D01*
X59305264Y-84289422D01*
X59225137Y-84337390D01*
X59166922Y-84372482D01*
X59137923Y-84390309D01*
X59136143Y-84391515D01*
X59135573Y-84414642D01*
X59140844Y-84431964D01*
X59152751Y-84436792D01*
X59182327Y-84428670D01*
X59232719Y-84405918D01*
X59307076Y-84366857D01*
X59408545Y-84309806D01*
X59540273Y-84233087D01*
X59705410Y-84135019D01*
X59771367Y-84095531D01*
X59920923Y-84005512D01*
X60057813Y-83922476D01*
X60177479Y-83849239D01*
X60275365Y-83788613D01*
X60346915Y-83743414D01*
X60387574Y-83716455D01*
X60395245Y-83710204D01*
X60412323Y-83682127D01*
X60432833Y-83653151D01*
X60464754Y-83624790D01*
X60500993Y-83633764D01*
X60504254Y-83635715D01*
X60546253Y-83676238D01*
X60544670Y-83717083D01*
X60500203Y-83754738D01*
X60478582Y-83764898D01*
X60443321Y-83782938D01*
X60376557Y-83820088D01*
X60284062Y-83872930D01*
X60171608Y-83938050D01*
X60044966Y-84012032D01*
X59909909Y-84091461D01*
X59772207Y-84172920D01*
X59637633Y-84252996D01*
X59511958Y-84328271D01*
X59400954Y-84395330D01*
X59310393Y-84450759D01*
X59246045Y-84491141D01*
X59213684Y-84513061D01*
X59212222Y-84514291D01*
X59204699Y-84543775D01*
X59212838Y-84555060D01*
X59236699Y-84549553D01*
X59293263Y-84523190D01*
X59377679Y-84478883D01*
X59485096Y-84419547D01*
X59610664Y-84348094D01*
X59749530Y-84267438D01*
X59896845Y-84180493D01*
X60047757Y-84090172D01*
X60197416Y-83999389D01*
X60340970Y-83911056D01*
X60473569Y-83828087D01*
X60590362Y-83753397D01*
X60686498Y-83689897D01*
X60757125Y-83640502D01*
X60765961Y-83633398D01*
X60850176Y-83633398D01*
X60871360Y-83659962D01*
X60890200Y-83666666D01*
X60910695Y-83649903D01*
X60911111Y-83645755D01*
X60896348Y-83617707D01*
X60867360Y-83602941D01*
X60851851Y-83607407D01*
X60850176Y-83633398D01*
X60765961Y-83633398D01*
X60797393Y-83608126D01*
X60804727Y-83598976D01*
X60836045Y-83564842D01*
X60882474Y-83561634D01*
X60928102Y-83588452D01*
X60942174Y-83606742D01*
X60947572Y-83646751D01*
X60910842Y-83682110D01*
X60830867Y-83713889D01*
X60829878Y-83714182D01*
X60804345Y-83727261D01*
X60745722Y-83760181D01*
X60659057Y-83809960D01*
X60549397Y-83873616D01*
X60421789Y-83948164D01*
X60281279Y-84030624D01*
X60132914Y-84118011D01*
X59981743Y-84207343D01*
X59832810Y-84295639D01*
X59691164Y-84379913D01*
X59561850Y-84457185D01*
X59449917Y-84524471D01*
X59360411Y-84578789D01*
X59298380Y-84617156D01*
X59268868Y-84636589D01*
X59268148Y-84637165D01*
X59271946Y-84657037D01*
X59279888Y-84666555D01*
X59302634Y-84659878D01*
X59358773Y-84632426D01*
X59443908Y-84586819D01*
X59553646Y-84525678D01*
X59683591Y-84451625D01*
X59829348Y-84367282D01*
X59986521Y-84275268D01*
X60150716Y-84178206D01*
X60317538Y-84078717D01*
X60482591Y-83979421D01*
X60641481Y-83882941D01*
X60789811Y-83791896D01*
X60923188Y-83708909D01*
X61037216Y-83636601D01*
X61127501Y-83577592D01*
X61160290Y-83554858D01*
X61244444Y-83554858D01*
X61260733Y-83567085D01*
X61277777Y-83563591D01*
X61307017Y-83547818D01*
X61311111Y-83542066D01*
X61292964Y-83534298D01*
X61277777Y-83533333D01*
X61248199Y-83544962D01*
X61244444Y-83554858D01*
X61160290Y-83554858D01*
X61189645Y-83534505D01*
X61219256Y-83509959D01*
X61219296Y-83509911D01*
X61256141Y-83474049D01*
X61287724Y-83471839D01*
X61304163Y-83480199D01*
X61340907Y-83520755D01*
X61338052Y-83564732D01*
X61297921Y-83600802D01*
X61277777Y-83608764D01*
X61245771Y-83624067D01*
X61179621Y-83659899D01*
X61083319Y-83713961D01*
X60960857Y-83783957D01*
X60816227Y-83867588D01*
X60653421Y-83962559D01*
X60476431Y-84066571D01*
X60289249Y-84177327D01*
X60272832Y-84187077D01*
X60043296Y-84323885D01*
X59850185Y-84440073D01*
X59691342Y-84537079D01*
X59564609Y-84616344D01*
X59467830Y-84679304D01*
X59398846Y-84727401D01*
X59355499Y-84762073D01*
X59335633Y-84784759D01*
X59337090Y-84796898D01*
X59353906Y-84800000D01*
X59378641Y-84788746D01*
X59437075Y-84756652D01*
X59525085Y-84706213D01*
X59638547Y-84639929D01*
X59773338Y-84560297D01*
X59925333Y-84469815D01*
X60090409Y-84370981D01*
X60264443Y-84266292D01*
X60443310Y-84158246D01*
X60622887Y-84049342D01*
X60799050Y-83942076D01*
X60967676Y-83838947D01*
X61124640Y-83742453D01*
X61265820Y-83655091D01*
X61387091Y-83579359D01*
X61484330Y-83517755D01*
X61553413Y-83472777D01*
X61562112Y-83466666D01*
X61644444Y-83466666D01*
X61661354Y-83488243D01*
X61666666Y-83488888D01*
X61688243Y-83471978D01*
X61688888Y-83466666D01*
X61671978Y-83445090D01*
X61666666Y-83444444D01*
X61645090Y-83461354D01*
X61644444Y-83466666D01*
X61562112Y-83466666D01*
X61590217Y-83446922D01*
X61594928Y-83442565D01*
X61642211Y-83405822D01*
X61696462Y-83406444D01*
X61733098Y-83433050D01*
X61751168Y-83479538D01*
X61731468Y-83516843D01*
X61680602Y-83533267D01*
X61676493Y-83533333D01*
X61643764Y-83544933D01*
X61574835Y-83579155D01*
X61471232Y-83635131D01*
X61334486Y-83711992D01*
X61166125Y-83808869D01*
X60967676Y-83924894D01*
X60740669Y-84059199D01*
X60536907Y-84180791D01*
X60336517Y-84300957D01*
X60147057Y-84414923D01*
X59972057Y-84520541D01*
X59815047Y-84615665D01*
X59679555Y-84698146D01*
X59569112Y-84765839D01*
X59487247Y-84816596D01*
X59437490Y-84848271D01*
X59423544Y-84858040D01*
X59400313Y-84889181D01*
X59416159Y-84902033D01*
X59469618Y-84896510D01*
X59559223Y-84872530D01*
X59577435Y-84866776D01*
X59769427Y-84826535D01*
X59957202Y-84830106D01*
X60138700Y-84877357D01*
X60206502Y-84907184D01*
X60283904Y-84948736D01*
X60349460Y-84990032D01*
X60387920Y-85021151D01*
X60423627Y-85050044D01*
X60447102Y-85053912D01*
X60466598Y-85032932D01*
X60507650Y-84982967D01*
X60565062Y-84910525D01*
X60633640Y-84822112D01*
X60668462Y-84776615D01*
X60815251Y-84594227D01*
X60953889Y-84442253D01*
X61082034Y-84322717D01*
X61197343Y-84237644D01*
X61297473Y-84189057D01*
X61361623Y-84177777D01*
X61411148Y-84193908D01*
X61467328Y-84234757D01*
X61479175Y-84246479D01*
X61597171Y-84339573D01*
X61738174Y-84398930D01*
X61821197Y-84415132D01*
X61899818Y-84418135D01*
X61972722Y-84403280D01*
X62049377Y-84372353D01*
X62186398Y-84290436D01*
X62294296Y-84187337D01*
X62372688Y-84069022D01*
X62421190Y-83941455D01*
X62439421Y-83810603D01*
X62426996Y-83682430D01*
X62383532Y-83562901D01*
X62308648Y-83457982D01*
X62201958Y-83373637D01*
X62116129Y-83332955D01*
X61988888Y-83285340D01*
X61600000Y-83353457D01*
X61277123Y-83409973D01*
X60994215Y-83459379D01*
X60747475Y-83502293D01*
X60533105Y-83539332D01*
X60347304Y-83571114D01*
X60186274Y-83598257D01*
X60046215Y-83621378D01*
X59923327Y-83641094D01*
X59813812Y-83658024D01*
X59713869Y-83672784D01*
X59619699Y-83685993D01*
X59527503Y-83698267D01*
X59433481Y-83710225D01*
X59333834Y-83722484D01*
X59317205Y-83724504D01*
X59268964Y-83732406D01*
X59234672Y-83747846D01*
X59205037Y-83779648D01*
X59170768Y-83836633D01*
X59141735Y-83891111D01*
X59095658Y-83971446D01*
X59049309Y-84040245D01*
X59011799Y-84084146D01*
X59007863Y-84087473D01*
X58963332Y-84134695D01*
X58960643Y-84172460D01*
X58707287Y-84172460D01*
X58717467Y-84166492D01*
X58784073Y-84125209D01*
X58818136Y-84100738D01*
X58821591Y-84096149D01*
X58835293Y-84063015D01*
X58868144Y-84015451D01*
X58874833Y-84007260D01*
X58913060Y-83953515D01*
X58958946Y-83877689D01*
X58994828Y-83811111D01*
X59052173Y-83707747D01*
X59107596Y-83637983D01*
X59172766Y-83593100D01*
X59259350Y-83564382D01*
X59347124Y-83547930D01*
X59431232Y-83533922D01*
X59476126Y-83523645D01*
X59486664Y-83515086D01*
X59467704Y-83506232D01*
X59455778Y-83502896D01*
X59399537Y-83481288D01*
X59369154Y-83446227D01*
X59357242Y-83385659D01*
X59356331Y-83354714D01*
X59400000Y-83354714D01*
X59404978Y-83404540D01*
X59414814Y-83429629D01*
X59450672Y-83441630D01*
X59511948Y-83443555D01*
X59580919Y-83436006D01*
X59633378Y-83422204D01*
X59674471Y-83398557D01*
X59680444Y-83364436D01*
X59676772Y-83349982D01*
X59657264Y-83301470D01*
X59628433Y-83277522D01*
X59578119Y-83272857D01*
X59514359Y-83279444D01*
X59447199Y-83290361D01*
X59413198Y-83304791D01*
X59401231Y-83330056D01*
X59400000Y-83354714D01*
X59356331Y-83354714D01*
X59355895Y-83339895D01*
X59358450Y-83280287D01*
X59373193Y-83250630D01*
X59409875Y-83236497D01*
X59428278Y-83232815D01*
X59498417Y-83225706D01*
X59580998Y-83225209D01*
X59599782Y-83226253D01*
X59661617Y-83233314D01*
X59693879Y-83250632D01*
X59711416Y-83289946D01*
X59719084Y-83320589D01*
X59729334Y-83380456D01*
X59720867Y-83416852D01*
X59692024Y-83446374D01*
X59657215Y-83477375D01*
X59644444Y-83493697D01*
X59664470Y-83495159D01*
X59716919Y-83490484D01*
X59788888Y-83480906D01*
X59873457Y-83464935D01*
X59921751Y-83448541D01*
X59931337Y-83433333D01*
X60000000Y-83433333D01*
X60011111Y-83444444D01*
X60022222Y-83433333D01*
X60011111Y-83422222D01*
X60000000Y-83433333D01*
X59931337Y-83433333D01*
X59931347Y-83433317D01*
X59899824Y-83420857D01*
X59884217Y-83418212D01*
X59846479Y-83399362D01*
X59818512Y-83349527D01*
X59807857Y-83316689D01*
X59794814Y-83258749D01*
X59794848Y-83258510D01*
X59846873Y-83258510D01*
X59854758Y-83307390D01*
X59855780Y-83312134D01*
X59868723Y-83356905D01*
X59890642Y-83374803D01*
X59936349Y-83374114D01*
X59960952Y-83370983D01*
X60025634Y-83356248D01*
X60073467Y-83334816D01*
X60080173Y-83329350D01*
X60098987Y-83285226D01*
X60097089Y-83251181D01*
X60085381Y-83223072D01*
X60061495Y-83210884D01*
X60013083Y-83211156D01*
X59969973Y-83215537D01*
X59903862Y-83223978D01*
X59858914Y-83231559D01*
X59847885Y-83234857D01*
X59846873Y-83258510D01*
X59794848Y-83258510D01*
X59800290Y-83220354D01*
X59830924Y-83195762D01*
X59893352Y-83179229D01*
X59981316Y-83166606D01*
X60054238Y-83159347D01*
X60096146Y-83162343D01*
X60119792Y-83178112D01*
X60131316Y-83196230D01*
X60154030Y-83263887D01*
X60151806Y-83324454D01*
X60126198Y-83364452D01*
X60111111Y-83371338D01*
X60075063Y-83389979D01*
X60066666Y-83405064D01*
X60076353Y-83415481D01*
X60109525Y-83416942D01*
X60172351Y-83408942D01*
X60270999Y-83390974D01*
X60294444Y-83386363D01*
X60342186Y-83368955D01*
X60353251Y-83348816D01*
X60344693Y-83344444D01*
X60400000Y-83344444D01*
X60411111Y-83355555D01*
X60422222Y-83344444D01*
X60411111Y-83333333D01*
X60400000Y-83344444D01*
X60344693Y-83344444D01*
X60326280Y-83335038D01*
X60302377Y-83333333D01*
X60256890Y-83321337D01*
X60231454Y-83280934D01*
X60222937Y-83209999D01*
X60266666Y-83209999D01*
X60272595Y-83259425D01*
X60295635Y-83283487D01*
X60343671Y-83284901D01*
X60424583Y-83266382D01*
X60427777Y-83265498D01*
X60484165Y-83244069D01*
X60507811Y-83215144D01*
X60511111Y-83187844D01*
X60504530Y-83149984D01*
X60475958Y-83135373D01*
X60438888Y-83133636D01*
X60344640Y-83140760D01*
X60288816Y-83162403D01*
X60267240Y-83200415D01*
X60266666Y-83209999D01*
X60222937Y-83209999D01*
X60222397Y-83205501D01*
X60222222Y-83188837D01*
X60228024Y-83135963D01*
X60252897Y-83111013D01*
X60283333Y-83102525D01*
X60392827Y-83082357D01*
X60467015Y-83074543D01*
X60513774Y-83080929D01*
X60540982Y-83103358D01*
X60556517Y-83143676D01*
X60561714Y-83167713D01*
X60565537Y-83235625D01*
X60540813Y-83276953D01*
X60505555Y-83295367D01*
X60472749Y-83319226D01*
X60466666Y-83335013D01*
X60482780Y-83350526D01*
X60499729Y-83347623D01*
X60540284Y-83337385D01*
X60606089Y-83325667D01*
X60644173Y-83320160D01*
X60707313Y-83307383D01*
X60747030Y-83291391D01*
X60757660Y-83276658D01*
X60733540Y-83267660D01*
X60711892Y-83266666D01*
X60665593Y-83247844D01*
X60634881Y-83201323D01*
X60622737Y-83142025D01*
X60626369Y-83119952D01*
X60656096Y-83119952D01*
X60657093Y-83124411D01*
X60672654Y-83174533D01*
X60677487Y-83189950D01*
X60695383Y-83211606D01*
X60736951Y-83214430D01*
X60771932Y-83209253D01*
X60830402Y-83197127D01*
X60868513Y-83186359D01*
X60872222Y-83184658D01*
X60885049Y-83157635D01*
X60888888Y-83120910D01*
X60882254Y-83083224D01*
X60853539Y-83068685D01*
X60816666Y-83066970D01*
X60727450Y-83073684D01*
X60672444Y-83091879D01*
X60656096Y-83119952D01*
X60626369Y-83119952D01*
X60632142Y-83084870D01*
X60666075Y-83044779D01*
X60667423Y-83044039D01*
X60716670Y-83030726D01*
X60787470Y-83025672D01*
X60817423Y-83026591D01*
X60880868Y-83032377D01*
X60912528Y-83045897D01*
X60924984Y-83077514D01*
X60929240Y-83118702D01*
X60926158Y-83189261D01*
X60899902Y-83233000D01*
X60895907Y-83236367D01*
X60877566Y-83254092D01*
X60885366Y-83261470D01*
X60925898Y-83259943D01*
X60977777Y-83254290D01*
X61043186Y-83243429D01*
X61096449Y-83229252D01*
X61129729Y-83215077D01*
X61133587Y-83207407D01*
X61185185Y-83207407D01*
X61188235Y-83220618D01*
X61200000Y-83222222D01*
X61218291Y-83214091D01*
X61214814Y-83207407D01*
X61188442Y-83204747D01*
X61185185Y-83207407D01*
X61133587Y-83207407D01*
X61135190Y-83204221D01*
X61106031Y-83200000D01*
X61054446Y-83180794D01*
X61017411Y-83133204D01*
X61000014Y-83072272D01*
X61006762Y-83017759D01*
X61029608Y-83017759D01*
X61031802Y-83040651D01*
X61034555Y-83050000D01*
X61062590Y-83113727D01*
X61103413Y-83141407D01*
X61169863Y-83141434D01*
X61173598Y-83140929D01*
X61235318Y-83131162D01*
X61279546Y-83122093D01*
X61283333Y-83121025D01*
X61304362Y-83094975D01*
X61311111Y-83056252D01*
X61308697Y-83026137D01*
X61294792Y-83009298D01*
X61259401Y-83001884D01*
X61192529Y-83000042D01*
X61165169Y-83000000D01*
X61087399Y-83000838D01*
X61045176Y-83005623D01*
X61029608Y-83017759D01*
X61006762Y-83017759D01*
X61007346Y-83013040D01*
X61031393Y-82979388D01*
X61073154Y-82965081D01*
X61147405Y-82959062D01*
X61203615Y-82960000D01*
X61344444Y-82966666D01*
X61351186Y-83059237D01*
X61351800Y-83120728D01*
X61338521Y-83152421D01*
X61312297Y-83166290D01*
X61269719Y-83184124D01*
X61266234Y-83196268D01*
X61296714Y-83201462D01*
X61356028Y-83198449D01*
X61412063Y-83190765D01*
X61492199Y-83173743D01*
X61543819Y-83155511D01*
X61563099Y-83139014D01*
X61554982Y-83133333D01*
X61622222Y-83133333D01*
X61630352Y-83151624D01*
X61637037Y-83148148D01*
X61639696Y-83121775D01*
X61637037Y-83118518D01*
X61623825Y-83121568D01*
X61622222Y-83133333D01*
X61554982Y-83133333D01*
X61546214Y-83127197D01*
X61500000Y-83123025D01*
X61459576Y-83119478D01*
X61438903Y-83102239D01*
X61429830Y-83059495D01*
X61426556Y-83016580D01*
X61425928Y-82992648D01*
X61458801Y-82992648D01*
X61461744Y-83020981D01*
X61475712Y-83069602D01*
X61500954Y-83081217D01*
X61508175Y-83079628D01*
X61553670Y-83068792D01*
X61617914Y-83056041D01*
X61628023Y-83054221D01*
X61695795Y-83036536D01*
X61726058Y-83010137D01*
X61725722Y-82967764D01*
X61722159Y-82955356D01*
X61690832Y-82923530D01*
X61630922Y-82910213D01*
X61554852Y-82916774D01*
X61505015Y-82931426D01*
X61467908Y-82954064D01*
X61458801Y-82992648D01*
X61425928Y-82992648D01*
X61424844Y-82951301D01*
X61434449Y-82915796D01*
X61461136Y-82895747D01*
X61478003Y-82888803D01*
X61537558Y-82874763D01*
X61613965Y-82867129D01*
X61635330Y-82866666D01*
X61699409Y-82870233D01*
X61734209Y-82885626D01*
X61754636Y-82919878D01*
X61756105Y-82923668D01*
X61776349Y-83005351D01*
X61763621Y-83057708D01*
X61733333Y-83077777D01*
X61691127Y-83097460D01*
X61687684Y-83113718D01*
X61717324Y-83122810D01*
X61774365Y-83120995D01*
X61794444Y-83118028D01*
X61942395Y-83101663D01*
X62068756Y-83109850D01*
X62190089Y-83144349D01*
X62239487Y-83165251D01*
X62360352Y-83233453D01*
X62456716Y-83320546D01*
X62539250Y-83437148D01*
X62571215Y-83495264D01*
X62603696Y-83565986D01*
X62622185Y-83632876D01*
X62630352Y-83713703D01*
X62631896Y-83788888D01*
X62629603Y-83889968D01*
X62619013Y-83966916D01*
X62595901Y-84039859D01*
X62563997Y-84112163D01*
X62477554Y-84266003D01*
X62376169Y-84386624D01*
X62250697Y-84484872D01*
X62248646Y-84486192D01*
X62152563Y-84536615D01*
X62041881Y-84577527D01*
X61931242Y-84604908D01*
X61835289Y-84614743D01*
X61793434Y-84611090D01*
X61620874Y-84563873D01*
X61484344Y-84498870D01*
X61419216Y-84450196D01*
X61368034Y-84405643D01*
X61335509Y-84387314D01*
X61307510Y-84391434D01*
X61274158Y-84411439D01*
X61182944Y-84481141D01*
X61077101Y-84580938D01*
X60953993Y-84713512D01*
X60810984Y-84881544D01*
X60804938Y-84888888D01*
X60693607Y-85022058D01*
X60604981Y-85122632D01*
X60535627Y-85193959D01*
X60482111Y-85239390D01*
X60440998Y-85262271D01*
X60417570Y-85266666D01*
X60378700Y-85252536D01*
X60324349Y-85216590D01*
X60294508Y-85191825D01*
X60151225Y-85087840D01*
X59997937Y-85025487D01*
X59831574Y-85004126D01*
X59649065Y-85023123D01*
X59571197Y-85041785D01*
X59485943Y-85064059D01*
X59414706Y-85080649D01*
X59370409Y-85088595D01*
X59365547Y-85088888D01*
X59339732Y-85100385D01*
X59281994Y-85132632D01*
X59197744Y-85182271D01*
X59092393Y-85245940D01*
X58971353Y-85320278D01*
X58840034Y-85401925D01*
X58703848Y-85487519D01*
X58568207Y-85573700D01*
X58438522Y-85657107D01*
X58320204Y-85734379D01*
X58236412Y-85790166D01*
X58125344Y-85864963D01*
X58123783Y-86060259D01*
X58120572Y-86166849D01*
X58110668Y-86246698D01*
X58090648Y-86317385D01*
X58059202Y-86391935D01*
X58013537Y-86476546D01*
X57959849Y-86555910D01*
X57920313Y-86601849D01*
X57875576Y-86650161D01*
X57852898Y-86694908D01*
X57844939Y-86755085D01*
X57844180Y-86798803D01*
X57823693Y-87000764D01*
X57762388Y-87190730D01*
X57659158Y-87371141D01*
X57512897Y-87544437D01*
X57500666Y-87556715D01*
X57333208Y-87723092D01*
X57323304Y-87944879D01*
X57304059Y-88147462D01*
X57266386Y-88342309D01*
X57213315Y-88516139D01*
X57170500Y-88614535D01*
X57108408Y-88709261D01*
X57018579Y-88811564D01*
X56913269Y-88909641D01*
X56804738Y-88991687D01*
X56738063Y-89030936D01*
X56545943Y-89104961D01*
X56330033Y-89146661D01*
X56097007Y-89156072D01*
X55853539Y-89133233D01*
X55606303Y-89078178D01*
X55443237Y-89023808D01*
X55377757Y-89000834D01*
X55331200Y-88988075D01*
X55316255Y-88987448D01*
X55319730Y-89010443D01*
X55335022Y-89068093D01*
X55359956Y-89152869D01*
X55392357Y-89257240D01*
X55410768Y-89314699D01*
X55445805Y-89427131D01*
X55488968Y-89572229D01*
X55537287Y-89739617D01*
X55587793Y-89918923D01*
X55637519Y-90099774D01*
X55669144Y-90217487D01*
X55718153Y-90400094D01*
X55758894Y-90546664D01*
X55793786Y-90664304D01*
X55825245Y-90760117D01*
X55855690Y-90841210D01*
X55887538Y-90914686D01*
X55923206Y-90987651D01*
X55946254Y-91031889D01*
X56003733Y-91145615D01*
X56060680Y-91267022D01*
X56109073Y-91378604D01*
X56132179Y-91437668D01*
X56168808Y-91550672D01*
X56208525Y-91694404D01*
X56248855Y-91857581D01*
X56287323Y-92028919D01*
X56321454Y-92197133D01*
X56348775Y-92350941D01*
X56366811Y-92479057D01*
X56371512Y-92529075D01*
X56384562Y-92713706D01*
X56483011Y-92617964D01*
X56598780Y-92491776D01*
X56724717Y-92330450D01*
X56856691Y-92140927D01*
X56990572Y-91930151D01*
X57122229Y-91705064D01*
X57247532Y-91472609D01*
X57362350Y-91239730D01*
X57462554Y-91013368D01*
X57512431Y-90887581D01*
X57560639Y-90757233D01*
X57601181Y-90640230D01*
X57636191Y-90528294D01*
X57667803Y-90413147D01*
X57698150Y-90286510D01*
X57729368Y-90140105D01*
X57763590Y-89965653D01*
X57799235Y-89775046D01*
X57850375Y-89515450D01*
X57901778Y-89292702D01*
X57955612Y-89099243D01*
X58014047Y-88927517D01*
X58079253Y-88769967D01*
X58101467Y-88722222D01*
X58240982Y-88469020D01*
X58405055Y-88244668D01*
X58596142Y-88047425D01*
X58816699Y-87875553D01*
X59069184Y-87727311D01*
X59356054Y-87600962D01*
X59679764Y-87494764D01*
X59922222Y-87433165D01*
X60213564Y-87380443D01*
X60482130Y-87360181D01*
X60726212Y-87372155D01*
X60944101Y-87416140D01*
X61134088Y-87491913D01*
X61294467Y-87599249D01*
X61313518Y-87615929D01*
X61414498Y-87730133D01*
X61471593Y-87850217D01*
X61484681Y-87975436D01*
X61453639Y-88105047D01*
X61408241Y-88193734D01*
X61360782Y-88262919D01*
X61309524Y-88317906D01*
X61247998Y-88361382D01*
X61169733Y-88396039D01*
X61068258Y-88424565D01*
X60937104Y-88449650D01*
X60769800Y-88473983D01*
X60717679Y-88480761D01*
X60510645Y-88508981D01*
X60339057Y-88536949D01*
X60193991Y-88566970D01*
X60066521Y-88601346D01*
X59947722Y-88642383D01*
X59828670Y-88692383D01*
X59744444Y-88731985D01*
X59571490Y-88825414D01*
X59431641Y-88923980D01*
X59313733Y-89036750D01*
X59213126Y-89163531D01*
X59158393Y-89242873D01*
X59111504Y-89317319D01*
X59070462Y-89392455D01*
X59033272Y-89473861D01*
X58997938Y-89567122D01*
X58962466Y-89677820D01*
X58924859Y-89811539D01*
X58883121Y-89973861D01*
X58835259Y-90170369D01*
X58799565Y-90320569D01*
X58718649Y-90660786D01*
X58645985Y-90960989D01*
X58580586Y-91224638D01*
X58521462Y-91455191D01*
X58467627Y-91656110D01*
X58418092Y-91830853D01*
X58371868Y-91982879D01*
X58327969Y-92115649D01*
X58285405Y-92232621D01*
X58243190Y-92337255D01*
X58200335Y-92433011D01*
X58190120Y-92454481D01*
X58108384Y-92604480D01*
X58009440Y-92747384D01*
X57889248Y-92887101D01*
X57743769Y-93027538D01*
X57568962Y-93172600D01*
X57360789Y-93326194D01*
X57120742Y-93488609D01*
X57013524Y-93555931D01*
X56894600Y-93625921D01*
X56771308Y-93694764D01*
X56650985Y-93758646D01*
X56540966Y-93813751D01*
X56448589Y-93856263D01*
X56381189Y-93882368D01*
X56351008Y-93888888D01*
X56315406Y-93909317D01*
X56298731Y-93950000D01*
X56235248Y-94189403D01*
X56154980Y-94393251D01*
X56054746Y-94568300D01*
X55939626Y-94712462D01*
X55800617Y-94849666D01*
X55657839Y-94962051D01*
X55504100Y-95052882D01*
X55332204Y-95125426D01*
X55134957Y-95182949D01*
X54905164Y-95228717D01*
X54752526Y-95251379D01*
X54552346Y-95278193D01*
X54512154Y-95396916D01*
X54462543Y-95516648D01*
X54404100Y-95601333D01*
X54329849Y-95660329D01*
X54306301Y-95673011D01*
X54210122Y-95705799D01*
X54096578Y-95722857D01*
X53988211Y-95721644D01*
X53944444Y-95713773D01*
X53878140Y-95691245D01*
X53806072Y-95659782D01*
X53800000Y-95656739D01*
X53752436Y-95623734D01*
X53683252Y-95564592D01*
X53599897Y-95486792D01*
X53509818Y-95397816D01*
X53420466Y-95305145D01*
X53339288Y-95216259D01*
X53273735Y-95138641D01*
X53242112Y-95096446D01*
X53158498Y-95000803D01*
X53036548Y-94898473D01*
X52881181Y-94792986D01*
X52697317Y-94687870D01*
X52611111Y-94643855D01*
X52320080Y-94513562D01*
X52042849Y-94417919D01*
X51769843Y-94353777D01*
X51688888Y-94340438D01*
X51550893Y-94323965D01*
X51398100Y-94312627D01*
X51240019Y-94306455D01*
X51086164Y-94305477D01*
X50946047Y-94309723D01*
X50829181Y-94319222D01*
X50745077Y-94334003D01*
X50733333Y-94337494D01*
X50678763Y-94361366D01*
X50596899Y-94404571D01*
X50497370Y-94461703D01*
X50389805Y-94527357D01*
X50349351Y-94553078D01*
X50056526Y-94726892D01*
X49779103Y-94861237D01*
X49514364Y-94957226D01*
X49259593Y-95015975D01*
X49200166Y-95024588D01*
X49001272Y-95050095D01*
X49013885Y-95175047D01*
X49018201Y-95253882D01*
X49009090Y-95316277D01*
X48982037Y-95384075D01*
X48962778Y-95422222D01*
X48885540Y-95529440D01*
X48785903Y-95603917D01*
X48671172Y-95640883D01*
X48623069Y-95644099D01*
X48552949Y-95631494D01*
X48459370Y-95593428D01*
X48340280Y-95528751D01*
X48193626Y-95436312D01*
X48017357Y-95314961D01*
X47949977Y-95266666D01*
X47791136Y-95146725D01*
X47633353Y-95016617D01*
X47472894Y-94872590D01*
X47306023Y-94710895D01*
X47129007Y-94527783D01*
X46938110Y-94319504D01*
X46729599Y-94082307D01*
X46499738Y-93812444D01*
X46489276Y-93800000D01*
X46348744Y-93623060D01*
X46210557Y-93430861D01*
X46077582Y-93228840D01*
X45952684Y-93022433D01*
X45838732Y-92817077D01*
X45738589Y-92618208D01*
X45655124Y-92431263D01*
X45591203Y-92261678D01*
X45549691Y-92114891D01*
X45533456Y-91996337D01*
X45533333Y-91986898D01*
X45537881Y-91947496D01*
X45628959Y-91947496D01*
X45649306Y-92044249D01*
X45655093Y-92063362D01*
X45703634Y-92192547D01*
X45775251Y-92349543D01*
X45865676Y-92527121D01*
X45970639Y-92718057D01*
X46085870Y-92915124D01*
X46207102Y-93111094D01*
X46330064Y-93298743D01*
X46450489Y-93470843D01*
X46564105Y-93620169D01*
X46602272Y-93666666D01*
X46727945Y-93814272D01*
X46863374Y-93970108D01*
X47002969Y-94127996D01*
X47141140Y-94281760D01*
X47272298Y-94425221D01*
X47390851Y-94552204D01*
X47491209Y-94656530D01*
X47557966Y-94722714D01*
X47634725Y-94792013D01*
X47732126Y-94873723D01*
X47844540Y-94963730D01*
X47966338Y-95057914D01*
X48091890Y-95152159D01*
X48215566Y-95242348D01*
X48331737Y-95324364D01*
X48434774Y-95394089D01*
X48519046Y-95447406D01*
X48578925Y-95480199D01*
X48605572Y-95488888D01*
X48637706Y-95478450D01*
X48686930Y-95453166D01*
X48689667Y-95451560D01*
X48759199Y-95394941D01*
X48801347Y-95319524D01*
X48818860Y-95217868D01*
X48816610Y-95107641D01*
X48783113Y-94915407D01*
X48711110Y-94705569D01*
X48601879Y-94480332D01*
X48456702Y-94241900D01*
X48276856Y-93992478D01*
X48063621Y-93734272D01*
X47940651Y-93598000D01*
X47765130Y-93414924D01*
X47568227Y-93219997D01*
X47357190Y-93019723D01*
X47139268Y-92820607D01*
X46921711Y-92629152D01*
X46769976Y-92501018D01*
X47044444Y-92501018D01*
X47363164Y-92795240D01*
X47650353Y-93065540D01*
X47902804Y-93314584D01*
X48123031Y-93545358D01*
X48313548Y-93760846D01*
X48476870Y-93964033D01*
X48615509Y-94157904D01*
X48731981Y-94345443D01*
X48828798Y-94529635D01*
X48834928Y-94542530D01*
X48877508Y-94635591D01*
X48913687Y-94719940D01*
X48938363Y-94783418D01*
X48945314Y-94805555D01*
X48960080Y-94844573D01*
X48988230Y-94862204D01*
X49044304Y-94866633D01*
X49053883Y-94866666D01*
X49129980Y-94862443D01*
X49223429Y-94851622D01*
X49279252Y-94842706D01*
X49444796Y-94801106D01*
X49633360Y-94734021D01*
X49835064Y-94645849D01*
X50040028Y-94540988D01*
X50238373Y-94423835D01*
X50278504Y-94397922D01*
X50423155Y-94305416D01*
X50542969Y-94236458D01*
X50648506Y-94187719D01*
X50750323Y-94155868D01*
X50858980Y-94137575D01*
X50985035Y-94129510D01*
X51133333Y-94128305D01*
X51370797Y-94137867D01*
X51609852Y-94162425D01*
X51838634Y-94200096D01*
X52045281Y-94248993D01*
X52190272Y-94296287D01*
X52306042Y-94343643D01*
X52438842Y-94403019D01*
X52577019Y-94468717D01*
X52708923Y-94535041D01*
X52822898Y-94596294D01*
X52907294Y-94646780D01*
X52907529Y-94646935D01*
X52981724Y-94695752D01*
X52893150Y-94519586D01*
X52840113Y-94405594D01*
X52778410Y-94259170D01*
X52711814Y-94090550D01*
X52644102Y-93909968D01*
X52579046Y-93727661D01*
X52520422Y-93553864D01*
X52472004Y-93398813D01*
X52446829Y-93309283D01*
X52365916Y-92965840D01*
X52533333Y-92965840D01*
X52540639Y-93014344D01*
X52561080Y-93097619D01*
X52592440Y-93208724D01*
X52632503Y-93340721D01*
X52679054Y-93486670D01*
X52729876Y-93639632D01*
X52782753Y-93792668D01*
X52835471Y-93938838D01*
X52885812Y-94071202D01*
X52888402Y-94077777D01*
X52985697Y-94300374D01*
X53101405Y-94525217D01*
X53230672Y-94745110D01*
X53368643Y-94952860D01*
X53510463Y-95141270D01*
X53651278Y-95303147D01*
X53786234Y-95431295D01*
X53819862Y-95458277D01*
X53884662Y-95503091D01*
X53941728Y-95525548D01*
X54013069Y-95532949D01*
X54046193Y-95533333D01*
X54127264Y-95529835D01*
X54197607Y-95520851D01*
X54228478Y-95512956D01*
X54286010Y-95468554D01*
X54329820Y-95388595D01*
X54356836Y-95280672D01*
X54364303Y-95177211D01*
X54362155Y-95104794D01*
X54352718Y-95042268D01*
X54332176Y-94976330D01*
X54296719Y-94893678D01*
X54262393Y-94821655D01*
X54207132Y-94707729D01*
X54142591Y-94574357D01*
X54078741Y-94442156D01*
X54046520Y-94375316D01*
X53943956Y-94175549D01*
X53833437Y-93983812D01*
X53719216Y-93806164D01*
X53605547Y-93648660D01*
X53584929Y-93623793D01*
X56360188Y-93623793D01*
X56364452Y-93644385D01*
X56364986Y-93644444D01*
X56389233Y-93635392D01*
X56444380Y-93610965D01*
X56521370Y-93575254D01*
X56583418Y-93545731D01*
X56756666Y-93455170D01*
X56942338Y-93345306D01*
X57131638Y-93222348D01*
X57315773Y-93092502D01*
X57485951Y-92961976D01*
X57633378Y-92836979D01*
X57749260Y-92723719D01*
X57751961Y-92720782D01*
X57806030Y-92659345D01*
X57856285Y-92596052D01*
X57903620Y-92528191D01*
X57948929Y-92453047D01*
X57993104Y-92367910D01*
X58037039Y-92270066D01*
X58081627Y-92156803D01*
X58127763Y-92025408D01*
X58176338Y-91873167D01*
X58228247Y-91697370D01*
X58284384Y-91495303D01*
X58345641Y-91264253D01*
X58412911Y-91001507D01*
X58487090Y-90704354D01*
X58569069Y-90370080D01*
X58659742Y-89995973D01*
X58688039Y-89878612D01*
X58729438Y-89711613D01*
X58766461Y-89577784D01*
X58803526Y-89466727D01*
X58845051Y-89368044D01*
X58895453Y-89271340D01*
X58959149Y-89166217D01*
X59040557Y-89042278D01*
X59048241Y-89030831D01*
X59159294Y-88851765D01*
X59257234Y-88666691D01*
X59339295Y-88482860D01*
X59402705Y-88307521D01*
X59444696Y-88147927D01*
X59462499Y-88011326D01*
X59461098Y-87949869D01*
X59451401Y-87876372D01*
X59434674Y-87832335D01*
X59403859Y-87815935D01*
X59351897Y-87825347D01*
X59271727Y-87858747D01*
X59214290Y-87886081D01*
X58968984Y-88026392D01*
X58747921Y-88196514D01*
X58557061Y-88391158D01*
X58402362Y-88605032D01*
X58399708Y-88609418D01*
X58379594Y-88645697D01*
X58365280Y-88682536D01*
X58355708Y-88728249D01*
X58349818Y-88791154D01*
X58346551Y-88879566D01*
X58344847Y-89001804D01*
X58344509Y-89042751D01*
X58342243Y-89189715D01*
X58337272Y-89303240D01*
X58328499Y-89394307D01*
X58314827Y-89473893D01*
X58295158Y-89552977D01*
X58292613Y-89562007D01*
X58237662Y-89730546D01*
X58167872Y-89907558D01*
X58089995Y-90077615D01*
X58010784Y-90225291D01*
X57981515Y-90272676D01*
X57933371Y-90358751D01*
X57881022Y-90471640D01*
X57831675Y-90595203D01*
X57810509Y-90655555D01*
X57731859Y-90881542D01*
X57651543Y-91088194D01*
X57564539Y-91286235D01*
X57465822Y-91486386D01*
X57350367Y-91699369D01*
X57213149Y-91935907D01*
X57200844Y-91956567D01*
X57019877Y-92244445D01*
X56846557Y-92488621D01*
X56680827Y-92689168D01*
X56522631Y-92846155D01*
X56453686Y-92902760D01*
X56385150Y-92955207D01*
X56383321Y-93232741D01*
X56381444Y-93345951D01*
X56377688Y-93448721D01*
X56372600Y-93529694D01*
X56366758Y-93577360D01*
X56360188Y-93623793D01*
X53584929Y-93623793D01*
X53496680Y-93517360D01*
X53396869Y-93418320D01*
X53347940Y-93380182D01*
X53270991Y-93338445D01*
X53168337Y-93297933D01*
X53071556Y-93269205D01*
X52918933Y-93225093D01*
X52799477Y-93175042D01*
X52701913Y-93113334D01*
X52621305Y-93040845D01*
X52574198Y-92994753D01*
X52542273Y-92968201D01*
X52533333Y-92965840D01*
X52365916Y-92965840D01*
X52358210Y-92933130D01*
X52295253Y-92576120D01*
X52258609Y-92243039D01*
X52248928Y-91938673D01*
X52250794Y-91867718D01*
X52259312Y-91706489D01*
X52271751Y-91582453D01*
X52289795Y-91488415D01*
X52315127Y-91417181D01*
X52349430Y-91361555D01*
X52376259Y-91331432D01*
X52450391Y-91283159D01*
X52548408Y-91253434D01*
X52652102Y-91246536D01*
X52705270Y-91254098D01*
X52747874Y-91277053D01*
X52813445Y-91328690D01*
X52896006Y-91403968D01*
X52968719Y-91476231D01*
X53170772Y-91683750D01*
X53241022Y-91541291D01*
X53322058Y-91404013D01*
X53418082Y-91285298D01*
X53520736Y-91194359D01*
X53595428Y-91150639D01*
X53695075Y-91121714D01*
X53822036Y-91107238D01*
X53961526Y-91107406D01*
X54098763Y-91122413D01*
X54188888Y-91142809D01*
X54290022Y-91177322D01*
X54386196Y-91218884D01*
X54467376Y-91262277D01*
X54523525Y-91302282D01*
X54543224Y-91327056D01*
X54545829Y-91372174D01*
X54517146Y-91396030D01*
X54465879Y-91396744D01*
X54400735Y-91372435D01*
X54382551Y-91361754D01*
X54355113Y-91346726D01*
X54354607Y-91354998D01*
X54382636Y-91389835D01*
X54413295Y-91424267D01*
X54497388Y-91523506D01*
X54561654Y-91616926D01*
X54608496Y-91712746D01*
X54640317Y-91819184D01*
X54659521Y-91944462D01*
X54668509Y-92096797D01*
X54669685Y-92284410D01*
X54669518Y-92300731D01*
X54665323Y-92679241D01*
X54736595Y-92786842D01*
X54806444Y-92873840D01*
X54881624Y-92923846D01*
X54973420Y-92941712D01*
X55079781Y-92934287D01*
X55194453Y-92914327D01*
X55292216Y-92887485D01*
X55381355Y-92848969D01*
X55470151Y-92793992D01*
X55566887Y-92717764D01*
X55679846Y-92615496D01*
X55753788Y-92544569D01*
X55848488Y-92453854D01*
X55935661Y-92372757D01*
X56008960Y-92307000D01*
X56062036Y-92262303D01*
X56085447Y-92245670D01*
X56107184Y-92232358D01*
X56121151Y-92214836D01*
X56126849Y-92186753D01*
X56123777Y-92141760D01*
X56111438Y-92073506D01*
X56089331Y-91975641D01*
X56056959Y-91841816D01*
X56052160Y-91822222D01*
X55977287Y-91559902D01*
X55885564Y-91322693D01*
X55769814Y-91092322D01*
X55755336Y-91066666D01*
X55721711Y-91005481D01*
X55692350Y-90945597D01*
X55665089Y-90880543D01*
X55637763Y-90803848D01*
X55608207Y-90709043D01*
X55574257Y-90589658D01*
X55533748Y-90439220D01*
X55491416Y-90277777D01*
X55443529Y-90096573D01*
X55392264Y-89907253D01*
X55340653Y-89720702D01*
X55291730Y-89547799D01*
X55248528Y-89399428D01*
X55223141Y-89315426D01*
X55186142Y-89194004D01*
X55154294Y-89086154D01*
X55129783Y-88999542D01*
X55114793Y-88941836D01*
X55111111Y-88922049D01*
X55091833Y-88900910D01*
X55038270Y-88865673D01*
X54956825Y-88820123D01*
X54853899Y-88768046D01*
X54835741Y-88759301D01*
X54661619Y-88669782D01*
X54527328Y-88586018D01*
X54429133Y-88504951D01*
X54363301Y-88423528D01*
X54327394Y-88343253D01*
X54299651Y-88248107D01*
X54044270Y-88411278D01*
X53951528Y-88472653D01*
X53874790Y-88527494D01*
X53820738Y-88570711D01*
X53796052Y-88597216D01*
X53795306Y-88600921D01*
X53793421Y-88631544D01*
X53771718Y-88668732D01*
X53726743Y-88715528D01*
X53655040Y-88774974D01*
X53553158Y-88850113D01*
X53417641Y-88943987D01*
X53367038Y-88978191D01*
X53252223Y-89056030D01*
X53148411Y-89127497D01*
X53061920Y-89188155D01*
X52999070Y-89233567D01*
X52966179Y-89259296D01*
X52964616Y-89260780D01*
X52941596Y-89310943D01*
X52935632Y-89389510D01*
X52945669Y-89484299D01*
X52970649Y-89583129D01*
X52998597Y-89652659D01*
X53024655Y-89702205D01*
X53055274Y-89749185D01*
X53095964Y-89799850D01*
X53152239Y-89860452D01*
X53229611Y-89937243D01*
X53333591Y-90036475D01*
X53353811Y-90055555D01*
X53454624Y-90159710D01*
X53519076Y-90252050D01*
X53550053Y-90341618D01*
X53550441Y-90437453D01*
X53523127Y-90548597D01*
X53516987Y-90566666D01*
X53470890Y-90656261D01*
X53396439Y-90755292D01*
X53304504Y-90852296D01*
X53205956Y-90935812D01*
X53111665Y-90994376D01*
X53111111Y-90994640D01*
X52978257Y-91047817D01*
X52807642Y-91099966D01*
X52605944Y-91149355D01*
X52379840Y-91194255D01*
X52266666Y-91213375D01*
X52092724Y-91242261D01*
X51955202Y-91268169D01*
X51846381Y-91293353D01*
X51758547Y-91320063D01*
X51683981Y-91350553D01*
X51614969Y-91387075D01*
X51564406Y-91418357D01*
X51375137Y-91564968D01*
X51206319Y-91747277D01*
X51055976Y-91967622D01*
X50977799Y-92111111D01*
X50934406Y-92193201D01*
X50876546Y-92297105D01*
X50813200Y-92406878D01*
X50775214Y-92470721D01*
X50645356Y-92685887D01*
X50678917Y-92781007D01*
X50698322Y-92853732D01*
X50715592Y-92948890D01*
X50725927Y-93035240D01*
X50720843Y-93226958D01*
X50674802Y-93409094D01*
X50591038Y-93576778D01*
X50472789Y-93725137D01*
X50323291Y-93849300D01*
X50145779Y-93944396D01*
X50113450Y-93957171D01*
X50048551Y-93978773D01*
X49985195Y-93991835D01*
X49910391Y-93997723D01*
X49811151Y-93997802D01*
X49744444Y-93995964D01*
X49631771Y-93991137D01*
X49551319Y-93983797D01*
X49490866Y-93971522D01*
X49438188Y-93951893D01*
X49385342Y-93924850D01*
X49270461Y-93849088D01*
X49145788Y-93745979D01*
X49023323Y-93626913D01*
X48915062Y-93503278D01*
X48855014Y-93421409D01*
X48776859Y-93317837D01*
X48694582Y-93232455D01*
X48648162Y-93195542D01*
X48499848Y-93084821D01*
X48358502Y-92957966D01*
X48214304Y-92805684D01*
X48121373Y-92697092D01*
X47964459Y-92493487D01*
X47811380Y-92267764D01*
X47670046Y-92032956D01*
X47548367Y-91802092D01*
X47490255Y-91672081D01*
X48511813Y-91672081D01*
X48594795Y-91738209D01*
X48738730Y-91838598D01*
X48894416Y-91916255D01*
X49011111Y-91959448D01*
X49090572Y-91983159D01*
X49166361Y-91998358D01*
X49252088Y-92006665D01*
X49361361Y-92009702D01*
X49433333Y-92009729D01*
X49605912Y-92004367D01*
X49740108Y-91989939D01*
X49825642Y-91970840D01*
X49904699Y-91947537D01*
X49950207Y-91937639D01*
X49971417Y-91942583D01*
X49977582Y-91963801D01*
X49977901Y-91994444D01*
X49993302Y-92108636D01*
X50034429Y-92215881D01*
X50089274Y-92292693D01*
X50160685Y-92340042D01*
X50241680Y-92357723D01*
X50317997Y-92344782D01*
X50366518Y-92311275D01*
X50392593Y-92273219D01*
X50431353Y-92205431D01*
X50476918Y-92118562D01*
X50510647Y-92050164D01*
X50604738Y-91865838D01*
X50704941Y-91690442D01*
X50805963Y-91532275D01*
X50902512Y-91399639D01*
X50986818Y-91303293D01*
X51132574Y-91186187D01*
X51318687Y-91085579D01*
X51545438Y-91001360D01*
X51813111Y-90933421D01*
X52059629Y-90890320D01*
X52264037Y-90857950D01*
X52430619Y-90824839D01*
X52565960Y-90788553D01*
X52676648Y-90746656D01*
X52769268Y-90696713D01*
X52850406Y-90636288D01*
X52916666Y-90573416D01*
X52976158Y-90500380D01*
X53002238Y-90433512D01*
X52993994Y-90365115D01*
X52950518Y-90287492D01*
X52871768Y-90193883D01*
X52757226Y-90062701D01*
X52674863Y-89947366D01*
X52620588Y-89838040D01*
X52590310Y-89724883D01*
X52579940Y-89598054D01*
X52582255Y-89497398D01*
X52585869Y-89398639D01*
X52583145Y-89339676D01*
X52572643Y-89316133D01*
X52552923Y-89323633D01*
X52532350Y-89345628D01*
X52515139Y-89386001D01*
X52500615Y-89454870D01*
X52489733Y-89539774D01*
X52483450Y-89628255D01*
X52482721Y-89707854D01*
X52488502Y-89766112D01*
X52498343Y-89788888D01*
X52523662Y-89823970D01*
X52549303Y-89880060D01*
X52551749Y-89886910D01*
X52585942Y-89961384D01*
X52642131Y-90046039D01*
X52724827Y-90147005D01*
X52818639Y-90249498D01*
X52878523Y-90313982D01*
X52912319Y-90356794D01*
X52924873Y-90388175D01*
X52921032Y-90418363D01*
X52911012Y-90444681D01*
X52873600Y-90505215D01*
X52820244Y-90561484D01*
X52815107Y-90565632D01*
X52747330Y-90618676D01*
X52718109Y-90562353D01*
X52696383Y-90510221D01*
X52688888Y-90475237D01*
X52670868Y-90448523D01*
X52653146Y-90444444D01*
X52629190Y-90454327D01*
X52628951Y-90491055D01*
X52632140Y-90505555D01*
X52654118Y-90559777D01*
X52678994Y-90591338D01*
X52703778Y-90614364D01*
X52703460Y-90633526D01*
X52672767Y-90655949D01*
X52607135Y-90688424D01*
X52517210Y-90720562D01*
X52446025Y-90725799D01*
X52442478Y-90725162D01*
X52389060Y-90725460D01*
X52369374Y-90745402D01*
X52339775Y-90768658D01*
X52286387Y-90778414D01*
X52227693Y-90774888D01*
X52182179Y-90758299D01*
X52169201Y-90743035D01*
X52146506Y-90720514D01*
X52131975Y-90723061D01*
X52116699Y-90753626D01*
X52119104Y-90766554D01*
X52105812Y-90783912D01*
X52061962Y-90799957D01*
X52001431Y-90812329D01*
X51938091Y-90818670D01*
X51885819Y-90816623D01*
X51864569Y-90809814D01*
X51832969Y-90807756D01*
X51825293Y-90814461D01*
X51798670Y-90828994D01*
X51739688Y-90850580D01*
X51659094Y-90875446D01*
X51622222Y-90885734D01*
X51528208Y-90913024D01*
X51443921Y-90940747D01*
X51383797Y-90964057D01*
X51372222Y-90969682D01*
X51327992Y-90987117D01*
X51311114Y-90979309D01*
X51311111Y-90979034D01*
X51292510Y-90959962D01*
X51266666Y-90955555D01*
X51229200Y-90971367D01*
X51222222Y-90994946D01*
X51203116Y-91031030D01*
X51153471Y-91070010D01*
X51138888Y-91078204D01*
X51004786Y-91170565D01*
X50869566Y-91307078D01*
X50733177Y-91487812D01*
X50595569Y-91712833D01*
X50456690Y-91982210D01*
X50452472Y-91991043D01*
X50404448Y-92088641D01*
X50360299Y-92172611D01*
X50324889Y-92234062D01*
X50303088Y-92264101D01*
X50302945Y-92264222D01*
X50252714Y-92280370D01*
X50191346Y-92268011D01*
X50136863Y-92232178D01*
X50121841Y-92213648D01*
X50096062Y-92157785D01*
X50077606Y-92095135D01*
X50160638Y-92095135D01*
X50165348Y-92108978D01*
X50195751Y-92131956D01*
X50233453Y-92111953D01*
X50245850Y-92098306D01*
X50263403Y-92066893D01*
X50245303Y-92044993D01*
X50243015Y-92043554D01*
X50205964Y-92040028D01*
X50173034Y-92061831D01*
X50160638Y-92095135D01*
X50077606Y-92095135D01*
X50073511Y-92081233D01*
X50057509Y-92000188D01*
X50051373Y-91930847D01*
X50055559Y-91898826D01*
X50359481Y-91898826D01*
X50370218Y-91928476D01*
X50388888Y-91933333D01*
X50416908Y-91917358D01*
X50417991Y-91894444D01*
X50399470Y-91863137D01*
X50374010Y-91868543D01*
X50359481Y-91898826D01*
X50055559Y-91898826D01*
X50056249Y-91893548D01*
X50066804Y-91849584D01*
X50069862Y-91825624D01*
X50278664Y-91825624D01*
X50281674Y-91829822D01*
X50313081Y-91843056D01*
X50351111Y-91817777D01*
X50376007Y-91780073D01*
X50364558Y-91758255D01*
X50347165Y-91755555D01*
X50311272Y-91768724D01*
X50283691Y-91797464D01*
X50278664Y-91825624D01*
X50069862Y-91825624D01*
X50074244Y-91791292D01*
X50140192Y-91791292D01*
X50143914Y-91799142D01*
X50166684Y-91812359D01*
X50191809Y-91797576D01*
X50211089Y-91766284D01*
X50200941Y-91747608D01*
X50170347Y-91739037D01*
X50144623Y-91758544D01*
X50140192Y-91791292D01*
X50074244Y-91791292D01*
X50075522Y-91781283D01*
X50078257Y-91744444D01*
X50088709Y-91657867D01*
X50095703Y-91624943D01*
X50200000Y-91624943D01*
X50215063Y-91643388D01*
X50246992Y-91640469D01*
X50275899Y-91619808D01*
X50281220Y-91610152D01*
X50285834Y-91573205D01*
X50281060Y-91562541D01*
X50256604Y-91563731D01*
X50224039Y-91586258D01*
X50201876Y-91615871D01*
X50200000Y-91624943D01*
X50095703Y-91624943D01*
X50109205Y-91561381D01*
X50136419Y-91465102D01*
X50139377Y-91456795D01*
X50360990Y-91456795D01*
X50365089Y-91509129D01*
X50390476Y-91542857D01*
X50444997Y-91572453D01*
X50507391Y-91573734D01*
X50551111Y-91551111D01*
X50571645Y-91509557D01*
X50577777Y-91466666D01*
X50561812Y-91399061D01*
X50520708Y-91362246D01*
X50464652Y-91360041D01*
X50403832Y-91396267D01*
X50400000Y-91400000D01*
X50360990Y-91456795D01*
X50139377Y-91456795D01*
X50167026Y-91379148D01*
X50197700Y-91313633D01*
X50221473Y-91283318D01*
X50624368Y-91283318D01*
X50632657Y-91303348D01*
X50644444Y-91311574D01*
X50664089Y-91329095D01*
X50659799Y-91332993D01*
X50647843Y-91342422D01*
X50661988Y-91360993D01*
X50689751Y-91375791D01*
X50703077Y-91377777D01*
X50724739Y-91368140D01*
X50726330Y-91332229D01*
X50721391Y-91305555D01*
X50706270Y-91245748D01*
X50690570Y-91224310D01*
X50666835Y-91235699D01*
X50649470Y-91252126D01*
X50624368Y-91283318D01*
X50221473Y-91283318D01*
X50225114Y-91278675D01*
X50232387Y-91275630D01*
X50278112Y-91260649D01*
X50283343Y-91233008D01*
X50277755Y-91222185D01*
X50246583Y-91206241D01*
X50231085Y-91208898D01*
X50210324Y-91205457D01*
X50201156Y-91169237D01*
X50200000Y-91132635D01*
X50191109Y-91070519D01*
X50190043Y-91069215D01*
X50466666Y-91069215D01*
X50479829Y-91101133D01*
X50506781Y-91101487D01*
X50527328Y-91073571D01*
X50517065Y-91046583D01*
X50500939Y-91036768D01*
X50473219Y-91039282D01*
X50466666Y-91069215D01*
X50190043Y-91069215D01*
X50167607Y-91041773D01*
X50134244Y-91051430D01*
X50128389Y-91056795D01*
X50103342Y-91061167D01*
X50040880Y-91066035D01*
X49948024Y-91071028D01*
X49831794Y-91075773D01*
X49699210Y-91079900D01*
X49685796Y-91080252D01*
X49537148Y-91084313D01*
X49426642Y-91088272D01*
X49347986Y-91092943D01*
X49294886Y-91099138D01*
X49261049Y-91107670D01*
X49240183Y-91119353D01*
X49225995Y-91135000D01*
X49222416Y-91140123D01*
X49153648Y-91226718D01*
X49062676Y-91320598D01*
X48958040Y-91414920D01*
X48848283Y-91502836D01*
X48741944Y-91577503D01*
X48647564Y-91632075D01*
X48574288Y-91659586D01*
X48511813Y-91672081D01*
X47490255Y-91672081D01*
X47465486Y-91616666D01*
X47435573Y-91549866D01*
X47409093Y-91503621D01*
X47393715Y-91488888D01*
X47358746Y-91507126D01*
X47311049Y-91555554D01*
X47258042Y-91624746D01*
X47207142Y-91705275D01*
X47175171Y-91766666D01*
X47091222Y-91990770D01*
X47049743Y-92215457D01*
X47044444Y-92332956D01*
X47044444Y-92501018D01*
X46769976Y-92501018D01*
X46711767Y-92451863D01*
X46516685Y-92295245D01*
X46347607Y-92168581D01*
X46228826Y-92090786D01*
X46090680Y-92011504D01*
X45946847Y-91937744D01*
X45811001Y-91876510D01*
X45696816Y-91834809D01*
X45695184Y-91834322D01*
X45652685Y-91838039D01*
X45630348Y-91877261D01*
X45628959Y-91947496D01*
X45537881Y-91947496D01*
X45542547Y-91907071D01*
X45576947Y-91842499D01*
X45598217Y-91817017D01*
X45641573Y-91773936D01*
X45683051Y-91752869D01*
X45741142Y-91746765D01*
X45781550Y-91747106D01*
X45902298Y-91763017D01*
X46037079Y-91806623D01*
X46188869Y-91879468D01*
X46360645Y-91983098D01*
X46555386Y-92119059D01*
X46680576Y-92213762D01*
X46756766Y-92270557D01*
X46819911Y-92313449D01*
X46862084Y-92337301D01*
X46875020Y-92339794D01*
X46876910Y-92332956D01*
X46882874Y-92311377D01*
X46887900Y-92253689D01*
X46888888Y-92209748D01*
X46907210Y-92042519D01*
X46958635Y-91865424D01*
X47037856Y-91690953D01*
X47139564Y-91531595D01*
X47215128Y-91442129D01*
X47336203Y-91315194D01*
X47256572Y-91063718D01*
X47190492Y-90811101D01*
X47179038Y-90743884D01*
X47927788Y-90743884D01*
X47936541Y-90775815D01*
X47964200Y-90847524D01*
X48009980Y-90956901D01*
X48044622Y-91030626D01*
X48090000Y-91117183D01*
X48141022Y-91208049D01*
X48192593Y-91294699D01*
X48239620Y-91368609D01*
X48277009Y-91421252D01*
X48299668Y-91444106D01*
X48301284Y-91444444D01*
X48299080Y-91428597D01*
X48280231Y-91394444D01*
X48259651Y-91358304D01*
X48223141Y-91290339D01*
X48174830Y-91198384D01*
X48118845Y-91090273D01*
X48078285Y-91011111D01*
X48013189Y-90885342D01*
X47966289Y-90798788D01*
X47937763Y-90751588D01*
X47927788Y-90743884D01*
X47179038Y-90743884D01*
X47160201Y-90633333D01*
X47888888Y-90633333D01*
X47900000Y-90644444D01*
X47911111Y-90633333D01*
X47900000Y-90622222D01*
X47888888Y-90633333D01*
X47160201Y-90633333D01*
X47144159Y-90539186D01*
X47137376Y-90466354D01*
X47925953Y-90466354D01*
X47935971Y-90524102D01*
X47954012Y-90573861D01*
X47993651Y-90667120D01*
X48046053Y-90779752D01*
X48107654Y-90905132D01*
X48174892Y-91036633D01*
X48244201Y-91167630D01*
X48312019Y-91291495D01*
X48374782Y-91401603D01*
X48428927Y-91491328D01*
X48470889Y-91554042D01*
X48496622Y-91582826D01*
X48526556Y-91591574D01*
X48568772Y-91583285D01*
X48629667Y-91555250D01*
X48715637Y-91504763D01*
X48784160Y-91461111D01*
X48868382Y-91401460D01*
X48953207Y-91332839D01*
X49032030Y-91261727D01*
X49098251Y-91194601D01*
X49145266Y-91137940D01*
X49166473Y-91098223D01*
X49165477Y-91086964D01*
X49135362Y-91070203D01*
X49107799Y-91066666D01*
X49068384Y-91078150D01*
X49003174Y-91108857D01*
X48921408Y-91153168D01*
X48832324Y-91205466D01*
X48745160Y-91260131D01*
X48669153Y-91311547D01*
X48613542Y-91354095D01*
X48587564Y-91382157D01*
X48587131Y-91383315D01*
X48557534Y-91415149D01*
X48529114Y-91422222D01*
X48498040Y-91417162D01*
X48505710Y-91395620D01*
X48511111Y-91388888D01*
X48526117Y-91347308D01*
X48516805Y-91327777D01*
X48500034Y-91299752D01*
X48468619Y-91242072D01*
X48533333Y-91242072D01*
X48546082Y-91272008D01*
X48568780Y-91265938D01*
X48621570Y-91240199D01*
X48697163Y-91199160D01*
X48788270Y-91147192D01*
X48887601Y-91088667D01*
X48987868Y-91027955D01*
X49017556Y-91009453D01*
X49158763Y-91009453D01*
X49164003Y-91021048D01*
X49176466Y-91022222D01*
X49205334Y-91006760D01*
X49276294Y-91006760D01*
X49282651Y-91029320D01*
X49307025Y-91034173D01*
X49367236Y-91036665D01*
X49454750Y-91037023D01*
X49561034Y-91035473D01*
X49677556Y-91032239D01*
X49795784Y-91027549D01*
X49907183Y-91021627D01*
X50003222Y-91014699D01*
X50062405Y-91008690D01*
X50123469Y-90995430D01*
X50154390Y-90980372D01*
X50688647Y-90980372D01*
X50698876Y-91042569D01*
X50723442Y-91084138D01*
X50727777Y-91087108D01*
X50799157Y-91109054D01*
X50864573Y-91087086D01*
X50878719Y-91075105D01*
X50986687Y-91075105D01*
X50988791Y-91088731D01*
X51018675Y-91109828D01*
X51055555Y-91094104D01*
X51070714Y-91063601D01*
X51082735Y-91006012D01*
X51085702Y-90978645D01*
X51088999Y-90919331D01*
X51083865Y-90896391D01*
X51066979Y-90902053D01*
X51056496Y-90910330D01*
X51029651Y-90958750D01*
X51031746Y-90990478D01*
X51029203Y-91037338D01*
X51009544Y-91053081D01*
X50986687Y-91075105D01*
X50878719Y-91075105D01*
X50890025Y-91065529D01*
X50921760Y-91007327D01*
X50910440Y-90940497D01*
X50871705Y-90883333D01*
X50819046Y-90850590D01*
X50758077Y-90848370D01*
X50715555Y-90871111D01*
X50693844Y-90916801D01*
X50688647Y-90980372D01*
X50154390Y-90980372D01*
X50163052Y-90976154D01*
X50169041Y-90968489D01*
X50167511Y-90943125D01*
X50449261Y-90943125D01*
X50453622Y-90967515D01*
X50498180Y-90977769D01*
X50500000Y-90977777D01*
X50541812Y-90974586D01*
X50555555Y-90968484D01*
X50548647Y-90942345D01*
X50542223Y-90924446D01*
X50521972Y-90901746D01*
X50486667Y-90912299D01*
X50449261Y-90943125D01*
X50167511Y-90943125D01*
X50167012Y-90934845D01*
X50151433Y-90872974D01*
X50139722Y-90837976D01*
X50204084Y-90837976D01*
X50215277Y-90852314D01*
X50248353Y-90860770D01*
X50278778Y-90837355D01*
X50283796Y-90826388D01*
X50275815Y-90811111D01*
X51044444Y-90811111D01*
X51062232Y-90840572D01*
X51077777Y-90844444D01*
X51288888Y-90844444D01*
X51305799Y-90866020D01*
X51311111Y-90866666D01*
X51332687Y-90849756D01*
X51333333Y-90844444D01*
X51323360Y-90831719D01*
X51584231Y-90831719D01*
X51588888Y-90844444D01*
X51613458Y-90857651D01*
X51627238Y-90848316D01*
X51637990Y-90812725D01*
X51633333Y-90800000D01*
X51608763Y-90786793D01*
X51594983Y-90796127D01*
X51584231Y-90831719D01*
X51323360Y-90831719D01*
X51316422Y-90822867D01*
X51311111Y-90822222D01*
X51289534Y-90839132D01*
X51288888Y-90844444D01*
X51077777Y-90844444D01*
X51107239Y-90826656D01*
X51111111Y-90811111D01*
X51093322Y-90781649D01*
X51077777Y-90777777D01*
X51048316Y-90795565D01*
X51044444Y-90811111D01*
X50275815Y-90811111D01*
X50272842Y-90805421D01*
X50246296Y-90800000D01*
X50206320Y-90810750D01*
X50204084Y-90837976D01*
X50139722Y-90837976D01*
X50125603Y-90795780D01*
X50123303Y-90789622D01*
X50111570Y-90756666D01*
X50892222Y-90756666D01*
X50899212Y-90775624D01*
X50910000Y-90774444D01*
X50933844Y-90755747D01*
X50935000Y-90749444D01*
X50920502Y-90732143D01*
X50898276Y-90744667D01*
X50892222Y-90756666D01*
X50111570Y-90756666D01*
X50097988Y-90718518D01*
X51074074Y-90718518D01*
X51077124Y-90731729D01*
X51088888Y-90733333D01*
X51107180Y-90725202D01*
X51103703Y-90718518D01*
X51077331Y-90715858D01*
X51074074Y-90718518D01*
X50097988Y-90718518D01*
X50095283Y-90710923D01*
X51225214Y-90710923D01*
X51231316Y-90747201D01*
X51249563Y-90771799D01*
X51271839Y-90759271D01*
X51282170Y-90737276D01*
X51314889Y-90737276D01*
X51324599Y-90764849D01*
X51348535Y-90797156D01*
X51370561Y-90789265D01*
X51377777Y-90755555D01*
X51363882Y-90719360D01*
X51344444Y-90711111D01*
X51316340Y-90715285D01*
X51314889Y-90737276D01*
X51282170Y-90737276D01*
X51286088Y-90728934D01*
X51271481Y-90707037D01*
X51240442Y-90691597D01*
X51225214Y-90710923D01*
X50095283Y-90710923D01*
X50095266Y-90710874D01*
X50086009Y-90681160D01*
X51651857Y-90681160D01*
X51654955Y-90687918D01*
X51682546Y-90700492D01*
X51715643Y-90686724D01*
X51733226Y-90655931D01*
X51733333Y-90653178D01*
X51717205Y-90627459D01*
X51683542Y-90624364D01*
X51655555Y-90644444D01*
X51651857Y-90681160D01*
X50086009Y-90681160D01*
X50075012Y-90645862D01*
X50074426Y-90643194D01*
X50977777Y-90643194D01*
X50982370Y-90660698D01*
X51002002Y-90664160D01*
X51045450Y-90652518D01*
X51117350Y-90626281D01*
X51187452Y-90594680D01*
X51209377Y-90581493D01*
X51517633Y-90581493D01*
X51540410Y-90598773D01*
X51553703Y-90600000D01*
X51591905Y-90585883D01*
X51600000Y-90565037D01*
X51583338Y-90538337D01*
X51562952Y-90537259D01*
X51525910Y-90555816D01*
X51517633Y-90581493D01*
X51209377Y-90581493D01*
X51244401Y-90560427D01*
X51261795Y-90545763D01*
X51284951Y-90518741D01*
X51276293Y-90512440D01*
X51233333Y-90521092D01*
X51160502Y-90542746D01*
X51086871Y-90572067D01*
X51024437Y-90603323D01*
X50985198Y-90630781D01*
X50977777Y-90643194D01*
X50074426Y-90643194D01*
X50067381Y-90611111D01*
X50111111Y-90611111D01*
X50122222Y-90622222D01*
X50128776Y-90615668D01*
X50454360Y-90615668D01*
X50457111Y-90624740D01*
X50487133Y-90642833D01*
X50526599Y-90641029D01*
X50553317Y-90622105D01*
X50555555Y-90612422D01*
X50541378Y-90574173D01*
X50532359Y-90566065D01*
X50500450Y-90565745D01*
X50468345Y-90587039D01*
X50454360Y-90615668D01*
X50128776Y-90615668D01*
X50133333Y-90611111D01*
X50122222Y-90600000D01*
X50111111Y-90611111D01*
X50067381Y-90611111D01*
X50066695Y-90607986D01*
X50066666Y-90606878D01*
X50053401Y-90568766D01*
X50047329Y-90561354D01*
X50784446Y-90561354D01*
X50788550Y-90577229D01*
X50812583Y-90588947D01*
X50836187Y-90572353D01*
X50842650Y-90540489D01*
X50841388Y-90535989D01*
X50819445Y-90524571D01*
X50802708Y-90531560D01*
X50784446Y-90561354D01*
X50047329Y-90561354D01*
X50023538Y-90532315D01*
X49991978Y-90513914D01*
X49983036Y-90514880D01*
X49959424Y-90528241D01*
X49904301Y-90560701D01*
X49824195Y-90608376D01*
X49725636Y-90667384D01*
X49636474Y-90720993D01*
X49498180Y-90806453D01*
X49396317Y-90874882D01*
X49327584Y-90929157D01*
X49288678Y-90972157D01*
X49276294Y-91006760D01*
X49205334Y-91006760D01*
X49206600Y-91006082D01*
X49210953Y-91000254D01*
X49207376Y-90987626D01*
X49190043Y-90991520D01*
X49158763Y-91009453D01*
X49017556Y-91009453D01*
X49081781Y-90969427D01*
X49162052Y-90917454D01*
X49221391Y-90876407D01*
X49252509Y-90850655D01*
X49255157Y-90846819D01*
X49260735Y-90813335D01*
X49257559Y-90805707D01*
X49236109Y-90813006D01*
X49184304Y-90839771D01*
X49109327Y-90881676D01*
X49018360Y-90934393D01*
X48918586Y-90993594D01*
X48817188Y-91054951D01*
X48721349Y-91114137D01*
X48638252Y-91166823D01*
X48575079Y-91208682D01*
X48539013Y-91235385D01*
X48533333Y-91242072D01*
X48468619Y-91242072D01*
X48466903Y-91238921D01*
X48421053Y-91152166D01*
X48395231Y-91102431D01*
X48469996Y-91102431D01*
X48472102Y-91122011D01*
X48488589Y-91147946D01*
X48500277Y-91155555D01*
X48521634Y-91144835D01*
X48573335Y-91115639D01*
X48647648Y-91072411D01*
X48736841Y-91019597D01*
X48737855Y-91018992D01*
X48830365Y-90962915D01*
X48910802Y-90912559D01*
X48970261Y-90873603D01*
X48999206Y-90852325D01*
X49019276Y-90828860D01*
X49001599Y-90822366D01*
X48991927Y-90822222D01*
X48962996Y-90832500D01*
X48904869Y-90860010D01*
X48826842Y-90899760D01*
X48738207Y-90946761D01*
X48648262Y-90996022D01*
X48566299Y-91042553D01*
X48501615Y-91081364D01*
X48469996Y-91102431D01*
X48395231Y-91102431D01*
X48366125Y-91046371D01*
X48349402Y-91013714D01*
X48407526Y-91013714D01*
X48411111Y-91022222D01*
X48418973Y-91034646D01*
X48428797Y-91040013D01*
X48447595Y-91035216D01*
X48482381Y-91017146D01*
X48540168Y-90982699D01*
X48627971Y-90928767D01*
X48643106Y-90919456D01*
X48724556Y-90867756D01*
X48788235Y-90824247D01*
X48812194Y-90805555D01*
X49311451Y-90805555D01*
X49313515Y-90815608D01*
X49323635Y-90817813D01*
X49346897Y-90809592D01*
X49388389Y-90788370D01*
X49453199Y-90751569D01*
X49546413Y-90696614D01*
X49657310Y-90630393D01*
X49763314Y-90565923D01*
X49854520Y-90508514D01*
X49924650Y-90462274D01*
X49959535Y-90437025D01*
X50113656Y-90437025D01*
X50115557Y-90458345D01*
X50138734Y-90494685D01*
X50171376Y-90531387D01*
X50201675Y-90553795D01*
X50209161Y-90555555D01*
X50247905Y-90542445D01*
X50288229Y-90516113D01*
X50320753Y-90482617D01*
X50321966Y-90447724D01*
X50314644Y-90429383D01*
X51512785Y-90429383D01*
X51525925Y-90451851D01*
X51557639Y-90466089D01*
X51570400Y-90448709D01*
X51924930Y-90448709D01*
X51926867Y-90473395D01*
X51952157Y-90485454D01*
X51981219Y-90467137D01*
X51994768Y-90438416D01*
X52112846Y-90438416D01*
X52128414Y-90492532D01*
X52138715Y-90511470D01*
X52173140Y-90545463D01*
X52202120Y-90536699D01*
X52218372Y-90491480D01*
X52215030Y-90465355D01*
X52488888Y-90465355D01*
X52505020Y-90487984D01*
X52511111Y-90488888D01*
X52532755Y-90481307D01*
X52533333Y-90479089D01*
X52517761Y-90460116D01*
X52511111Y-90455555D01*
X52490633Y-90457317D01*
X52488888Y-90465355D01*
X52215030Y-90465355D01*
X52210973Y-90433633D01*
X52178519Y-90390606D01*
X52141723Y-90377777D01*
X52117390Y-90395346D01*
X52112846Y-90438416D01*
X51994768Y-90438416D01*
X51996528Y-90434686D01*
X51994523Y-90388462D01*
X51974536Y-90367949D01*
X51948679Y-90379800D01*
X51936619Y-90401788D01*
X51924930Y-90448709D01*
X51570400Y-90448709D01*
X51576047Y-90441018D01*
X51577777Y-90422222D01*
X51563882Y-90386026D01*
X51544444Y-90377777D01*
X51516463Y-90394285D01*
X51512785Y-90429383D01*
X50314644Y-90429383D01*
X50309346Y-90416113D01*
X50283960Y-90373100D01*
X50262317Y-90355555D01*
X50232241Y-90366612D01*
X50181287Y-90393987D01*
X50125319Y-90428987D01*
X50113656Y-90437025D01*
X49959535Y-90437025D01*
X49967424Y-90431315D01*
X49977777Y-90420593D01*
X49971027Y-90400519D01*
X49947895Y-90396792D01*
X49904064Y-90411187D01*
X49835214Y-90445478D01*
X49737026Y-90501440D01*
X49641481Y-90558731D01*
X49519856Y-90633278D01*
X49431645Y-90689397D01*
X49371774Y-90730883D01*
X49335168Y-90761531D01*
X49316752Y-90785135D01*
X49311452Y-90805492D01*
X49311451Y-90805555D01*
X48812194Y-90805555D01*
X48826885Y-90794094D01*
X48834842Y-90782990D01*
X48812223Y-90788804D01*
X48760420Y-90813655D01*
X48688033Y-90853181D01*
X48632209Y-90885756D01*
X48549287Y-90934082D01*
X48479808Y-90972285D01*
X48433019Y-90995407D01*
X48419216Y-91000000D01*
X48407526Y-91013714D01*
X48349402Y-91013714D01*
X48311085Y-90938888D01*
X48291726Y-90901363D01*
X48351693Y-90901363D01*
X48356344Y-90912584D01*
X48369516Y-90929950D01*
X48389547Y-90933887D01*
X48424488Y-90921815D01*
X48482388Y-90891152D01*
X48555170Y-90848839D01*
X48632766Y-90800434D01*
X48693205Y-90757679D01*
X48727842Y-90726944D01*
X48732787Y-90717978D01*
X48724686Y-90688652D01*
X48695800Y-90682301D01*
X48641763Y-90699928D01*
X48558207Y-90742535D01*
X48512585Y-90768512D01*
X48428636Y-90818709D01*
X48377907Y-90853830D01*
X48354295Y-90879505D01*
X48351693Y-90901363D01*
X48291726Y-90901363D01*
X48251825Y-90824020D01*
X48226629Y-90776606D01*
X48288888Y-90776606D01*
X48301218Y-90804892D01*
X48324443Y-90810875D01*
X48331815Y-90804532D01*
X48355947Y-90784737D01*
X48407713Y-90749747D01*
X48476375Y-90706789D01*
X48483333Y-90702589D01*
X48561009Y-90651987D01*
X48609773Y-90611991D01*
X48626081Y-90586109D01*
X48609440Y-90577777D01*
X48582410Y-90588636D01*
X48530956Y-90616692D01*
X48466009Y-90655164D01*
X48398501Y-90697273D01*
X48339363Y-90736236D01*
X48299529Y-90765274D01*
X48288888Y-90776606D01*
X48226629Y-90776606D01*
X48198799Y-90724234D01*
X48155454Y-90645775D01*
X48125235Y-90594890D01*
X48111816Y-90577777D01*
X48083521Y-90591582D01*
X48088963Y-90630041D01*
X48109221Y-90664158D01*
X48138272Y-90710597D01*
X48179656Y-90783932D01*
X48229227Y-90876013D01*
X48282843Y-90978691D01*
X48336361Y-91083817D01*
X48385636Y-91183243D01*
X48426526Y-91268820D01*
X48454886Y-91332398D01*
X48466574Y-91365830D01*
X48466666Y-91367127D01*
X48463375Y-91391852D01*
X48452240Y-91393759D01*
X48431369Y-91369840D01*
X48398871Y-91317084D01*
X48352854Y-91232481D01*
X48291425Y-91113021D01*
X48230157Y-90990820D01*
X48026981Y-90582740D01*
X48083349Y-90552573D01*
X48126070Y-90534493D01*
X48150667Y-90544040D01*
X48164302Y-90563838D01*
X48204248Y-90629094D01*
X48236094Y-90665406D01*
X48270725Y-90674354D01*
X48319028Y-90657518D01*
X48391887Y-90616479D01*
X48418401Y-90600729D01*
X48462085Y-90572850D01*
X49455704Y-90572850D01*
X49481341Y-90567392D01*
X49540829Y-90537344D01*
X49625381Y-90488551D01*
X49721338Y-90428761D01*
X49777416Y-90386989D01*
X49794150Y-90362760D01*
X49774994Y-90355555D01*
X49723411Y-90368578D01*
X49652971Y-90402014D01*
X49578613Y-90447414D01*
X49515277Y-90496328D01*
X49500054Y-90511054D01*
X49462436Y-90553981D01*
X49455704Y-90572850D01*
X48462085Y-90572850D01*
X48491609Y-90554008D01*
X48547088Y-90512452D01*
X48575752Y-90483097D01*
X48577777Y-90477330D01*
X48556850Y-90456200D01*
X48499236Y-90438737D01*
X48467228Y-90433410D01*
X48355397Y-90402118D01*
X48269918Y-90355356D01*
X48183156Y-90292506D01*
X48074911Y-90342716D01*
X47990250Y-90385551D01*
X47942322Y-90423466D01*
X47925953Y-90466354D01*
X47137376Y-90466354D01*
X47118044Y-90258772D01*
X47116700Y-90189892D01*
X47837963Y-90189892D01*
X47840473Y-90293798D01*
X47848743Y-90397785D01*
X47929927Y-90344092D01*
X47999656Y-90303296D01*
X48069035Y-90270565D01*
X48081550Y-90265869D01*
X48151990Y-90241339D01*
X48118567Y-90159558D01*
X48088701Y-90090317D01*
X48050544Y-90006698D01*
X48031282Y-89966075D01*
X47997022Y-89877023D01*
X47969527Y-89774105D01*
X47960365Y-89721630D01*
X47943311Y-89588888D01*
X47902855Y-89731284D01*
X47870162Y-89876031D01*
X47847786Y-90035622D01*
X47837963Y-90189892D01*
X47116700Y-90189892D01*
X47112618Y-89980661D01*
X47128354Y-89715653D01*
X47165722Y-89474552D01*
X47183879Y-89398267D01*
X47277520Y-89122284D01*
X47405824Y-88872272D01*
X47567649Y-88650372D01*
X47605084Y-88608305D01*
X47689479Y-88516610D01*
X47600763Y-88330527D01*
X47575876Y-88271548D01*
X48116076Y-88271548D01*
X48119268Y-88352398D01*
X48132064Y-88407306D01*
X48157771Y-88445473D01*
X48199695Y-88476100D01*
X48242629Y-88499080D01*
X48353458Y-88571832D01*
X48428803Y-88657942D01*
X48459109Y-88728471D01*
X48461941Y-88799520D01*
X48445971Y-88893139D01*
X48415661Y-88994027D01*
X48375474Y-89086884D01*
X48336660Y-89148347D01*
X48254400Y-89276319D01*
X48196891Y-89418728D01*
X48165421Y-89566059D01*
X48161279Y-89708794D01*
X48185755Y-89837420D01*
X48230824Y-89929713D01*
X48315691Y-90018161D01*
X48423762Y-90080913D01*
X48540322Y-90110013D01*
X48566377Y-90111111D01*
X48653492Y-90124894D01*
X48707699Y-90167994D01*
X48731625Y-90243038D01*
X48733333Y-90277905D01*
X48744265Y-90389279D01*
X48775128Y-90474457D01*
X48823019Y-90525819D01*
X48828950Y-90528956D01*
X48864595Y-90545436D01*
X48892712Y-90551614D01*
X48928254Y-90546942D01*
X48986175Y-90530873D01*
X49015605Y-90522128D01*
X49141673Y-90462047D01*
X49253651Y-90360624D01*
X49264765Y-90344444D01*
X49555555Y-90344444D01*
X49566666Y-90355555D01*
X49577777Y-90344444D01*
X49566666Y-90333333D01*
X49555555Y-90344444D01*
X49264765Y-90344444D01*
X49292110Y-90304633D01*
X49831262Y-90304633D01*
X49834282Y-90312646D01*
X49861819Y-90330646D01*
X49895241Y-90330386D01*
X49900453Y-90324486D01*
X50047774Y-90324486D01*
X50050021Y-90345197D01*
X50055242Y-90355048D01*
X50080652Y-90359798D01*
X50124861Y-90344037D01*
X50172684Y-90315899D01*
X50178044Y-90311111D01*
X50355555Y-90311111D01*
X50372466Y-90332687D01*
X50377777Y-90333333D01*
X50399354Y-90316422D01*
X50400000Y-90311111D01*
X50383089Y-90289534D01*
X50377777Y-90288888D01*
X50356201Y-90305799D01*
X50355555Y-90311111D01*
X50178044Y-90311111D01*
X50208936Y-90283516D01*
X50218138Y-90267805D01*
X50213188Y-90246000D01*
X50180033Y-90248488D01*
X50125981Y-90272838D01*
X50058340Y-90316621D01*
X50047774Y-90324486D01*
X49900453Y-90324486D01*
X49911111Y-90312422D01*
X49893544Y-90281439D01*
X49857260Y-90272949D01*
X49844081Y-90278001D01*
X49831262Y-90304633D01*
X49292110Y-90304633D01*
X49333614Y-90244208D01*
X50444527Y-90244208D01*
X50455085Y-90268700D01*
X50481196Y-90315363D01*
X50489677Y-90329475D01*
X50534745Y-90403395D01*
X50600973Y-90364814D01*
X51311111Y-90364814D01*
X51329003Y-90395426D01*
X51346296Y-90400000D01*
X51372213Y-90387079D01*
X51372685Y-90373611D01*
X51350566Y-90344265D01*
X51323938Y-90340534D01*
X51311111Y-90364814D01*
X50600973Y-90364814D01*
X50639594Y-90342315D01*
X50650351Y-90335931D01*
X51847431Y-90335931D01*
X51854641Y-90354077D01*
X51886942Y-90376783D01*
X51919756Y-90359225D01*
X51922319Y-90355398D01*
X51920663Y-90346947D01*
X52229861Y-90346947D01*
X52233333Y-90355555D01*
X52253302Y-90376755D01*
X52256867Y-90377777D01*
X52261524Y-90369387D01*
X52688888Y-90369387D01*
X52703243Y-90395859D01*
X52733676Y-90396157D01*
X52761242Y-90371465D01*
X52764361Y-90364661D01*
X52769372Y-90322403D01*
X52764760Y-90308026D01*
X52741516Y-90301151D01*
X52711917Y-90320745D01*
X52691240Y-90354454D01*
X52688888Y-90369387D01*
X52261524Y-90369387D01*
X52266411Y-90360584D01*
X52266666Y-90355555D01*
X52249583Y-90334187D01*
X52243132Y-90333333D01*
X52229861Y-90346947D01*
X51920663Y-90346947D01*
X51917366Y-90330121D01*
X51900450Y-90319319D01*
X51860169Y-90314931D01*
X51847431Y-90335931D01*
X50650351Y-90335931D01*
X50712316Y-90299158D01*
X50891599Y-90299158D01*
X50919624Y-90311073D01*
X50922222Y-90311111D01*
X50951869Y-90306052D01*
X50955555Y-90301817D01*
X50959005Y-90288888D01*
X51222222Y-90288888D01*
X51238171Y-90310475D01*
X51243132Y-90311111D01*
X51273229Y-90294957D01*
X51277777Y-90288888D01*
X51272740Y-90269864D01*
X51256867Y-90266666D01*
X51226462Y-90278268D01*
X51222222Y-90288888D01*
X50959005Y-90288888D01*
X50962497Y-90275802D01*
X50970036Y-90254787D01*
X50975435Y-90229774D01*
X50955277Y-90233183D01*
X50936702Y-90242641D01*
X50898010Y-90272949D01*
X50891599Y-90299158D01*
X50712316Y-90299158D01*
X50715539Y-90297245D01*
X50788664Y-90252544D01*
X50816391Y-90235062D01*
X50872260Y-90186454D01*
X50882351Y-90147094D01*
X51447259Y-90147094D01*
X51451640Y-90175294D01*
X51466666Y-90188888D01*
X51485334Y-90220232D01*
X51488888Y-90245755D01*
X51500972Y-90283008D01*
X51527917Y-90283917D01*
X51529775Y-90281899D01*
X51696711Y-90281899D01*
X51700000Y-90288888D01*
X51729944Y-90309433D01*
X51763211Y-90305013D01*
X51776450Y-90282420D01*
X52226306Y-90282420D01*
X52237500Y-90296759D01*
X52270575Y-90305215D01*
X52301000Y-90281799D01*
X52306018Y-90270833D01*
X52295064Y-90249865D01*
X52268518Y-90244444D01*
X52228542Y-90255195D01*
X52226306Y-90282420D01*
X51776450Y-90282420D01*
X51777777Y-90280155D01*
X51762219Y-90248456D01*
X51729560Y-90233077D01*
X51700820Y-90243338D01*
X51699400Y-90245414D01*
X51696711Y-90281899D01*
X51529775Y-90281899D01*
X51545754Y-90264547D01*
X51547428Y-90226793D01*
X51527202Y-90179438D01*
X51506343Y-90154711D01*
X51844769Y-90154711D01*
X51862691Y-90174414D01*
X51865605Y-90176311D01*
X51908032Y-90187647D01*
X51931316Y-90161358D01*
X51933333Y-90143132D01*
X51922476Y-90114433D01*
X51887978Y-90121062D01*
X51866666Y-90133673D01*
X51844769Y-90154711D01*
X51506343Y-90154711D01*
X51495976Y-90142422D01*
X51474022Y-90133333D01*
X51447259Y-90147094D01*
X50882351Y-90147094D01*
X50885225Y-90135883D01*
X50856560Y-90076544D01*
X50848130Y-90065700D01*
X50838608Y-90053941D01*
X50962009Y-90053941D01*
X50966666Y-90066666D01*
X50991236Y-90079873D01*
X50994330Y-90077777D01*
X52044444Y-90077777D01*
X52062232Y-90107239D01*
X52077777Y-90111111D01*
X52107239Y-90093322D01*
X52111111Y-90077777D01*
X52093322Y-90048316D01*
X52077777Y-90044444D01*
X52048316Y-90062232D01*
X52044444Y-90077777D01*
X50994330Y-90077777D01*
X51005016Y-90070539D01*
X51015768Y-90034947D01*
X51011111Y-90022222D01*
X50998444Y-90015413D01*
X51158088Y-90015413D01*
X51174605Y-90050714D01*
X51199302Y-90066666D01*
X51219855Y-90048774D01*
X51222222Y-90034644D01*
X51209260Y-89999505D01*
X51208189Y-89998759D01*
X51409788Y-89998759D01*
X51415418Y-90008011D01*
X51447677Y-90021529D01*
X51466021Y-89997744D01*
X51466666Y-89988888D01*
X51464123Y-89982232D01*
X52274820Y-89982232D01*
X52285053Y-90006901D01*
X52316692Y-90000297D01*
X52338726Y-89982260D01*
X52366187Y-89942452D01*
X52368051Y-89913352D01*
X52341499Y-89890527D01*
X52311584Y-89908746D01*
X52293481Y-89934237D01*
X52274820Y-89982232D01*
X51464123Y-89982232D01*
X51455363Y-89959305D01*
X51445755Y-89955555D01*
X51644444Y-89955555D01*
X51662443Y-89975270D01*
X51677777Y-89977777D01*
X51707350Y-89965778D01*
X51711111Y-89955555D01*
X51866666Y-89955555D01*
X51883577Y-89977132D01*
X51888888Y-89977777D01*
X51910465Y-89960867D01*
X51911111Y-89955555D01*
X51894200Y-89933979D01*
X51888888Y-89933333D01*
X51867312Y-89950243D01*
X51866666Y-89955555D01*
X51711111Y-89955555D01*
X51693112Y-89935840D01*
X51677777Y-89933333D01*
X51648205Y-89945332D01*
X51644444Y-89955555D01*
X51445755Y-89955555D01*
X51416737Y-89970259D01*
X51409788Y-89998759D01*
X51208189Y-89998759D01*
X51182004Y-89980522D01*
X51162442Y-89985705D01*
X51158088Y-90015413D01*
X50998444Y-90015413D01*
X50986541Y-90009015D01*
X50972761Y-90018349D01*
X50962009Y-90053941D01*
X50838608Y-90053941D01*
X50807372Y-90015366D01*
X50625908Y-90124113D01*
X50547797Y-90172041D01*
X50486568Y-90211735D01*
X50450565Y-90237673D01*
X50444527Y-90244208D01*
X49333614Y-90244208D01*
X49352070Y-90217338D01*
X49379563Y-90165038D01*
X49391412Y-90143618D01*
X50383779Y-90143618D01*
X50388182Y-90154413D01*
X50415349Y-90159911D01*
X50473229Y-90136316D01*
X50518468Y-90110886D01*
X50595375Y-90066184D01*
X50669149Y-90025146D01*
X50705555Y-90005976D01*
X50758994Y-89968746D01*
X50778278Y-89931779D01*
X50760541Y-89903081D01*
X50736686Y-89909726D01*
X50685641Y-89934102D01*
X50617853Y-89970302D01*
X50543771Y-90012422D01*
X50473842Y-90054555D01*
X50418514Y-90090795D01*
X50391936Y-90111435D01*
X50383779Y-90143618D01*
X49391412Y-90143618D01*
X49426072Y-90080961D01*
X49467433Y-90024709D01*
X49496222Y-90003827D01*
X49538948Y-90007849D01*
X49603877Y-90026627D01*
X49646852Y-90043361D01*
X49738379Y-90074320D01*
X49815700Y-90079001D01*
X49839518Y-90075662D01*
X49970633Y-90036211D01*
X49989743Y-90024011D01*
X50323327Y-90024011D01*
X50337818Y-90038885D01*
X50360668Y-90040349D01*
X50399263Y-90025670D01*
X50460990Y-89992117D01*
X50544735Y-89942125D01*
X50618636Y-89893991D01*
X50673790Y-89851766D01*
X50694262Y-89830201D01*
X52386961Y-89830201D01*
X52388791Y-89844287D01*
X52420763Y-89865739D01*
X52453848Y-89846894D01*
X52456469Y-89842965D01*
X52461486Y-89811821D01*
X52434057Y-89802345D01*
X52410661Y-89808208D01*
X52386961Y-89830201D01*
X50694262Y-89830201D01*
X50702070Y-89821976D01*
X50703856Y-89814347D01*
X50693880Y-89798721D01*
X50675006Y-89795909D01*
X50640357Y-89808570D01*
X50583059Y-89839364D01*
X50496236Y-89890950D01*
X50479319Y-89901206D01*
X50405928Y-89948690D01*
X50351706Y-89989442D01*
X50324546Y-90017249D01*
X50323327Y-90024011D01*
X49989743Y-90024011D01*
X50068261Y-89973884D01*
X50130076Y-89892662D01*
X50130761Y-89889881D01*
X50311111Y-89889881D01*
X50314262Y-89904981D01*
X50328374Y-89907307D01*
X50360434Y-89894124D01*
X50417428Y-89862700D01*
X50490559Y-89819689D01*
X50576849Y-89764928D01*
X50629875Y-89723461D01*
X50645646Y-89700000D01*
X51155555Y-89700000D01*
X51166666Y-89711111D01*
X51177777Y-89700000D01*
X51166666Y-89688888D01*
X51155555Y-89700000D01*
X50645646Y-89700000D01*
X50647384Y-89697414D01*
X50629070Y-89688888D01*
X50599245Y-89699979D01*
X50546005Y-89728618D01*
X50480349Y-89767851D01*
X50413275Y-89810728D01*
X50355780Y-89850295D01*
X50318863Y-89879601D01*
X50311111Y-89889881D01*
X50130761Y-89889881D01*
X50153754Y-89796528D01*
X50143541Y-89731376D01*
X50331209Y-89731376D01*
X50353006Y-89737165D01*
X50407514Y-89720036D01*
X50418288Y-89715347D01*
X50485544Y-89682427D01*
X50535762Y-89653897D01*
X50914319Y-89653897D01*
X50919559Y-89665493D01*
X50932021Y-89666666D01*
X50962155Y-89650527D01*
X50966509Y-89644698D01*
X50965976Y-89642817D01*
X51480672Y-89642817D01*
X51487275Y-89663793D01*
X51491873Y-89672799D01*
X51530067Y-89744092D01*
X51560602Y-89788394D01*
X51592596Y-89806811D01*
X51635170Y-89800449D01*
X51697444Y-89770414D01*
X51703935Y-89766666D01*
X51844444Y-89766666D01*
X51855555Y-89777777D01*
X51866666Y-89766666D01*
X51855555Y-89755555D01*
X52244444Y-89755555D01*
X52261354Y-89777132D01*
X52266666Y-89777777D01*
X52288243Y-89760867D01*
X52288888Y-89755555D01*
X52271978Y-89733979D01*
X52266666Y-89733333D01*
X52245090Y-89750243D01*
X52244444Y-89755555D01*
X51855555Y-89755555D01*
X51844444Y-89766666D01*
X51703935Y-89766666D01*
X51788535Y-89717814D01*
X51801317Y-89710341D01*
X51857075Y-89677777D01*
X52377777Y-89677777D01*
X52396304Y-89704924D01*
X52422222Y-89711111D01*
X52458417Y-89697216D01*
X52466666Y-89677777D01*
X52448140Y-89650631D01*
X52422222Y-89644444D01*
X52386026Y-89658339D01*
X52377777Y-89677777D01*
X51857075Y-89677777D01*
X51955366Y-89620372D01*
X51926230Y-89562874D01*
X52292830Y-89562874D01*
X52297751Y-89589149D01*
X52320607Y-89586433D01*
X52351155Y-89557791D01*
X52355555Y-89540215D01*
X52343793Y-89516953D01*
X52319006Y-89521877D01*
X52296941Y-89549297D01*
X52292830Y-89562874D01*
X51926230Y-89562874D01*
X51906898Y-89524725D01*
X51985416Y-89524725D01*
X51988888Y-89533333D01*
X52008857Y-89554532D01*
X52012422Y-89555555D01*
X52021967Y-89538362D01*
X52022222Y-89533333D01*
X52005138Y-89511965D01*
X51998688Y-89511111D01*
X51985416Y-89524725D01*
X51906898Y-89524725D01*
X51898791Y-89508727D01*
X51860587Y-89433333D01*
X52022222Y-89433333D01*
X52040010Y-89462794D01*
X52055555Y-89466666D01*
X52085017Y-89448878D01*
X52088888Y-89433333D01*
X52071100Y-89403871D01*
X52055555Y-89400000D01*
X52026094Y-89417788D01*
X52022222Y-89433333D01*
X51860587Y-89433333D01*
X51842217Y-89397082D01*
X51737775Y-89457816D01*
X51630215Y-89520761D01*
X51555962Y-89566155D01*
X51509779Y-89598577D01*
X51486428Y-89622605D01*
X51480672Y-89642817D01*
X50965976Y-89642817D01*
X50962932Y-89632071D01*
X50945598Y-89635965D01*
X50914319Y-89653897D01*
X50535762Y-89653897D01*
X50543100Y-89649728D01*
X50551489Y-89644211D01*
X50577134Y-89615926D01*
X50780030Y-89615926D01*
X50802297Y-89611264D01*
X50806513Y-89609682D01*
X50820530Y-89600614D01*
X51044444Y-89600614D01*
X51060776Y-89611737D01*
X51077650Y-89608085D01*
X51100102Y-89586996D01*
X51098336Y-89575086D01*
X51073935Y-89565163D01*
X51049569Y-89582586D01*
X51044444Y-89600614D01*
X50820530Y-89600614D01*
X50833725Y-89592078D01*
X50833921Y-89582069D01*
X50810413Y-89584562D01*
X50794074Y-89597242D01*
X50780030Y-89615926D01*
X50577134Y-89615926D01*
X50584767Y-89607507D01*
X50580812Y-89581590D01*
X50561575Y-89569666D01*
X50525871Y-89578834D01*
X50465179Y-89611703D01*
X50447611Y-89622385D01*
X50379959Y-89669396D01*
X50340676Y-89707256D01*
X50331209Y-89731376D01*
X50143541Y-89731376D01*
X50136971Y-89689465D01*
X50105555Y-89619929D01*
X50055555Y-89531053D01*
X50090432Y-89502264D01*
X51403330Y-89502264D01*
X51404917Y-89522296D01*
X51424010Y-89547519D01*
X51439690Y-89555555D01*
X51464090Y-89544765D01*
X51516957Y-89515873D01*
X51588922Y-89474094D01*
X51627267Y-89451134D01*
X51715106Y-89393694D01*
X51774500Y-89345732D01*
X51802379Y-89310537D01*
X51795674Y-89291404D01*
X51778565Y-89288888D01*
X51754170Y-89299316D01*
X51702239Y-89326588D01*
X51633352Y-89364688D01*
X51558089Y-89407600D01*
X51487028Y-89449309D01*
X51430751Y-89483799D01*
X51403330Y-89502264D01*
X50090432Y-89502264D01*
X50108017Y-89487748D01*
X50168960Y-89455557D01*
X50226393Y-89444444D01*
X50301586Y-89424166D01*
X50316965Y-89411389D01*
X51355555Y-89411389D01*
X51360718Y-89440857D01*
X51364972Y-89444444D01*
X51386818Y-89433768D01*
X51438084Y-89405011D01*
X51510149Y-89363080D01*
X51563533Y-89331401D01*
X51660504Y-89270147D01*
X51718931Y-89225012D01*
X51740957Y-89194237D01*
X51740665Y-89190090D01*
X52258163Y-89190090D01*
X52270806Y-89233545D01*
X52294678Y-89285938D01*
X52358248Y-89238939D01*
X52398825Y-89205627D01*
X52406980Y-89182163D01*
X52387353Y-89153865D01*
X52385716Y-89152050D01*
X52352556Y-89126623D01*
X52316435Y-89131955D01*
X52273467Y-89160703D01*
X52258163Y-89190090D01*
X51740665Y-89190090D01*
X51740403Y-89186371D01*
X51725828Y-89171622D01*
X51694763Y-89177700D01*
X51638073Y-89206813D01*
X51625175Y-89214244D01*
X51513465Y-89280354D01*
X51435845Y-89329472D01*
X51387122Y-89365397D01*
X51362102Y-89391924D01*
X51355555Y-89411389D01*
X50316965Y-89411389D01*
X50365963Y-89370681D01*
X50413063Y-89295013D01*
X50413280Y-89294208D01*
X51288888Y-89294208D01*
X51298013Y-89309088D01*
X51328393Y-89304666D01*
X51384543Y-89279164D01*
X51470974Y-89230801D01*
X51513144Y-89205791D01*
X51609549Y-89145608D01*
X51667446Y-89103360D01*
X51688351Y-89077654D01*
X51680561Y-89072012D01*
X52177777Y-89072012D01*
X52191928Y-89087443D01*
X52195719Y-89085842D01*
X52403845Y-89085842D01*
X52408914Y-89108576D01*
X52412965Y-89119041D01*
X52442529Y-89151803D01*
X52490191Y-89144279D01*
X52533153Y-89115725D01*
X52565418Y-89084677D01*
X52563918Y-89062735D01*
X52548146Y-89047516D01*
X52511380Y-89030418D01*
X52465455Y-89044407D01*
X52462531Y-89045912D01*
X52418538Y-89069644D01*
X52403845Y-89085842D01*
X52195719Y-89085842D01*
X52231714Y-89070641D01*
X52253933Y-89055078D01*
X52281907Y-89025990D01*
X52283875Y-89009800D01*
X52258294Y-89010446D01*
X52219352Y-89029520D01*
X52186583Y-89055569D01*
X52177777Y-89072012D01*
X51680561Y-89072012D01*
X51673779Y-89067100D01*
X51664632Y-89066666D01*
X51634688Y-89077449D01*
X51579838Y-89105666D01*
X51510314Y-89145123D01*
X51436345Y-89189624D01*
X51368161Y-89232975D01*
X51315992Y-89268980D01*
X51290069Y-89291444D01*
X51288888Y-89294208D01*
X50413280Y-89294208D01*
X50436426Y-89208186D01*
X50435179Y-89192311D01*
X51226245Y-89192311D01*
X51237500Y-89207870D01*
X51245098Y-89215582D01*
X51254308Y-89218065D01*
X51272292Y-89211876D01*
X51306211Y-89193571D01*
X51363228Y-89159709D01*
X51450505Y-89106847D01*
X51461416Y-89100236D01*
X51539757Y-89051658D01*
X51601274Y-89011381D01*
X51612234Y-89003424D01*
X52600336Y-89003424D01*
X52614814Y-89029629D01*
X52642112Y-89043210D01*
X52678928Y-89028513D01*
X52710930Y-89004614D01*
X52743196Y-88973565D01*
X52741696Y-88951624D01*
X52725924Y-88936405D01*
X52683293Y-88921623D01*
X52640246Y-88934499D01*
X52608640Y-88965082D01*
X52600336Y-89003424D01*
X51612234Y-89003424D01*
X51637712Y-88984928D01*
X51644104Y-88978013D01*
X51640109Y-88968066D01*
X52338570Y-88968066D01*
X52348290Y-88976593D01*
X52356863Y-88977071D01*
X52401132Y-88964885D01*
X52434641Y-88945151D01*
X52461429Y-88920822D01*
X52451709Y-88912295D01*
X52443136Y-88911817D01*
X52398867Y-88924003D01*
X52365358Y-88943737D01*
X52338570Y-88968066D01*
X51640109Y-88968066D01*
X51633457Y-88951506D01*
X51630091Y-88945742D01*
X52115738Y-88945742D01*
X52124327Y-88954167D01*
X52136167Y-88954848D01*
X52180095Y-88939589D01*
X52200000Y-88922222D01*
X52213978Y-88895284D01*
X52200502Y-88891720D01*
X52766170Y-88891720D01*
X52767599Y-88916666D01*
X52784134Y-88949181D01*
X52791469Y-88955555D01*
X52812690Y-88944270D01*
X52862864Y-88913816D01*
X52933708Y-88869296D01*
X52991134Y-88832515D01*
X53078116Y-88774884D01*
X53131879Y-88734607D01*
X53157655Y-88706749D01*
X53160674Y-88686375D01*
X53155383Y-88677570D01*
X53133189Y-88660696D01*
X53101988Y-88664723D01*
X53048524Y-88691705D01*
X53042647Y-88695055D01*
X52990837Y-88732209D01*
X52963220Y-88767062D01*
X52961528Y-88777777D01*
X52947837Y-88804715D01*
X52910008Y-88811111D01*
X52844403Y-88822940D01*
X52792582Y-88852682D01*
X52766170Y-88891720D01*
X52200502Y-88891720D01*
X52197919Y-88891037D01*
X52160060Y-88909584D01*
X52143136Y-88921515D01*
X52115738Y-88945742D01*
X51630091Y-88945742D01*
X51625438Y-88937776D01*
X51606959Y-88929693D01*
X51568813Y-88940188D01*
X51505342Y-88971573D01*
X51414667Y-89023900D01*
X51317659Y-89084472D01*
X51256621Y-89129925D01*
X51227500Y-89164469D01*
X51226245Y-89192311D01*
X50435179Y-89192311D01*
X50429593Y-89121222D01*
X50424591Y-89106232D01*
X50390309Y-89060070D01*
X50603392Y-89060070D01*
X50619833Y-89103110D01*
X50650960Y-89134833D01*
X50662155Y-89139178D01*
X50707114Y-89137703D01*
X50728239Y-89115789D01*
X50715555Y-89084444D01*
X50693252Y-89071122D01*
X50688888Y-89077580D01*
X50678314Y-89077886D01*
X50657372Y-89054282D01*
X50644577Y-89042232D01*
X51155555Y-89042232D01*
X51170322Y-89073021D01*
X51208907Y-89071407D01*
X51231559Y-89059709D01*
X51273206Y-89034074D01*
X51339386Y-88994172D01*
X51416339Y-88948295D01*
X51422222Y-88944809D01*
X51502355Y-88897345D01*
X51550795Y-88867376D01*
X51573128Y-88849789D01*
X52288888Y-88849789D01*
X52303079Y-88865239D01*
X52311654Y-88861704D01*
X52534796Y-88861704D01*
X52542752Y-88875449D01*
X52577777Y-88861509D01*
X52612401Y-88833560D01*
X52622222Y-88816876D01*
X52608425Y-88800651D01*
X52576395Y-88812777D01*
X52560000Y-88826666D01*
X52534796Y-88861704D01*
X52311654Y-88861704D01*
X52341843Y-88849259D01*
X52360765Y-88835984D01*
X52386027Y-88807899D01*
X52386147Y-88793555D01*
X52360170Y-88793592D01*
X52322478Y-88812344D01*
X52293604Y-88837937D01*
X52288888Y-88849789D01*
X51573128Y-88849789D01*
X51573796Y-88849263D01*
X51576345Y-88841317D01*
X52069855Y-88841317D01*
X52086167Y-88844444D01*
X52114568Y-88829140D01*
X52136167Y-88807472D01*
X52154192Y-88782837D01*
X52141379Y-88784474D01*
X52116666Y-88797143D01*
X52074880Y-88824654D01*
X52069855Y-88841317D01*
X51576345Y-88841317D01*
X51577614Y-88837363D01*
X51568503Y-88826039D01*
X51561470Y-88819248D01*
X51536999Y-88814515D01*
X51489516Y-88830779D01*
X51414234Y-88870057D01*
X51346285Y-88909999D01*
X51265997Y-88960086D01*
X51202386Y-89002800D01*
X51163599Y-89032490D01*
X51155555Y-89042232D01*
X50644577Y-89042232D01*
X50628204Y-89026813D01*
X50610898Y-89026138D01*
X50603392Y-89060070D01*
X50390309Y-89060070D01*
X50389304Y-89058717D01*
X50327839Y-89010633D01*
X50257002Y-88972715D01*
X50193600Y-88955695D01*
X50188670Y-88955555D01*
X50149892Y-88946296D01*
X50777777Y-88946296D01*
X50790731Y-88970631D01*
X50817385Y-88966751D01*
X50825793Y-88955555D01*
X50888888Y-88955555D01*
X50906887Y-88975270D01*
X50922222Y-88977777D01*
X50951794Y-88965778D01*
X50955555Y-88955555D01*
X50937556Y-88935840D01*
X50922222Y-88933333D01*
X50892649Y-88945332D01*
X50888888Y-88955555D01*
X50825793Y-88955555D01*
X50839351Y-88937500D01*
X50829680Y-88914831D01*
X50812962Y-88911111D01*
X50782350Y-88929003D01*
X50777777Y-88946296D01*
X50149892Y-88946296D01*
X50127091Y-88940852D01*
X50064322Y-88904748D01*
X50019064Y-88859247D01*
X50009962Y-88840824D01*
X49987039Y-88799497D01*
X49942839Y-88740629D01*
X49895288Y-88686150D01*
X49834714Y-88636439D01*
X50102027Y-88636439D01*
X50117938Y-88671041D01*
X50147065Y-88713951D01*
X50180836Y-88753090D01*
X50210679Y-88776383D01*
X50218861Y-88778565D01*
X50264886Y-88789815D01*
X50311111Y-88811111D01*
X50352250Y-88834148D01*
X50370796Y-88843656D01*
X50377258Y-88833429D01*
X51066666Y-88833429D01*
X51075575Y-88862348D01*
X51095729Y-88905069D01*
X51117271Y-88942398D01*
X51129391Y-88955555D01*
X51152236Y-88945041D01*
X51204075Y-88916882D01*
X51275703Y-88876149D01*
X51314703Y-88853449D01*
X51393007Y-88806319D01*
X51455804Y-88766227D01*
X51466157Y-88758865D01*
X52702045Y-88758865D01*
X52726915Y-88764682D01*
X52764343Y-88750337D01*
X52794152Y-88725727D01*
X52800000Y-88710805D01*
X52783023Y-88703035D01*
X52745141Y-88714837D01*
X52708981Y-88738989D01*
X52702045Y-88758865D01*
X51466157Y-88758865D01*
X51483655Y-88746423D01*
X52226928Y-88746423D01*
X52234398Y-88746462D01*
X52257663Y-88735710D01*
X52466666Y-88735710D01*
X52480661Y-88754484D01*
X52519677Y-88740712D01*
X52545752Y-88722928D01*
X52569093Y-88698631D01*
X52562928Y-88689595D01*
X52514599Y-88697808D01*
X52476529Y-88718622D01*
X52466666Y-88735710D01*
X52257663Y-88735710D01*
X52266666Y-88731549D01*
X52310608Y-88709420D01*
X52331481Y-88696989D01*
X52337114Y-88685836D01*
X52316714Y-88689875D01*
X52283990Y-88704412D01*
X52254247Y-88723448D01*
X52226928Y-88746423D01*
X51483655Y-88746423D01*
X51493730Y-88739259D01*
X51500272Y-88732892D01*
X51500117Y-88712226D01*
X52011800Y-88712226D01*
X52042141Y-88732162D01*
X52080960Y-88708912D01*
X52089334Y-88699462D01*
X52107050Y-88666480D01*
X52105069Y-88653218D01*
X52078427Y-88651254D01*
X52042143Y-88668814D01*
X52014770Y-88694158D01*
X52011800Y-88712226D01*
X51500117Y-88712226D01*
X51500045Y-88702642D01*
X51485169Y-88657088D01*
X51470523Y-88628971D01*
X52158222Y-88628971D01*
X52168771Y-88644270D01*
X52171678Y-88644444D01*
X52198023Y-88634563D01*
X52407410Y-88634563D01*
X52411111Y-88643030D01*
X52433684Y-88634772D01*
X52652298Y-88634772D01*
X52656863Y-88643737D01*
X52681052Y-88635528D01*
X52888888Y-88635528D01*
X52905776Y-88644821D01*
X52949141Y-88632961D01*
X52984569Y-88615147D01*
X53237957Y-88615147D01*
X53256889Y-88639556D01*
X53291077Y-88638738D01*
X53348787Y-88611547D01*
X53375154Y-88596140D01*
X53426854Y-88564761D01*
X53459793Y-88544172D01*
X53464277Y-88541122D01*
X53459646Y-88521284D01*
X53446101Y-88501996D01*
X53424747Y-88485688D01*
X53394798Y-88489207D01*
X53344217Y-88515068D01*
X53322958Y-88527718D01*
X53265413Y-88569210D01*
X53238304Y-88603766D01*
X53237957Y-88615147D01*
X52984569Y-88615147D01*
X53002126Y-88606319D01*
X53046344Y-88574252D01*
X53068138Y-88546944D01*
X53060632Y-88533571D01*
X53056825Y-88533333D01*
X53031988Y-88543657D01*
X52987529Y-88568422D01*
X52938749Y-88598315D01*
X52900954Y-88624022D01*
X52888888Y-88635528D01*
X52681052Y-88635528D01*
X52691530Y-88631972D01*
X52723530Y-88611817D01*
X52747701Y-88587449D01*
X52743136Y-88578484D01*
X52708469Y-88590249D01*
X52676469Y-88610404D01*
X52652298Y-88634772D01*
X52433684Y-88634772D01*
X52444706Y-88630740D01*
X52476469Y-88610404D01*
X52501084Y-88586245D01*
X52497383Y-88577777D01*
X52463787Y-88590068D01*
X52432025Y-88610404D01*
X52407410Y-88634563D01*
X52198023Y-88634563D01*
X52203524Y-88632500D01*
X52234606Y-88612928D01*
X52261069Y-88580019D01*
X52252578Y-88558733D01*
X52217896Y-88562428D01*
X52205812Y-88569040D01*
X52172743Y-88599092D01*
X52158222Y-88628971D01*
X51470523Y-88628971D01*
X51463889Y-88616236D01*
X51445503Y-88600000D01*
X51421527Y-88610799D01*
X51371122Y-88639105D01*
X51304250Y-88678778D01*
X51230875Y-88723682D01*
X51160957Y-88767677D01*
X51104459Y-88804625D01*
X51071343Y-88828387D01*
X51066666Y-88833429D01*
X50377258Y-88833429D01*
X50382039Y-88825862D01*
X50407743Y-88778298D01*
X50442439Y-88711111D01*
X50500000Y-88711111D01*
X50505037Y-88730135D01*
X50520910Y-88733333D01*
X50551315Y-88721731D01*
X50555555Y-88711111D01*
X50539606Y-88689524D01*
X50534644Y-88688888D01*
X50504548Y-88705042D01*
X50500000Y-88711111D01*
X50442439Y-88711111D01*
X50442517Y-88710960D01*
X50445258Y-88705555D01*
X50473802Y-88651757D01*
X50607029Y-88651757D01*
X50633062Y-88688249D01*
X50674496Y-88710346D01*
X50721443Y-88717008D01*
X50748996Y-88701703D01*
X50746344Y-88672653D01*
X50737777Y-88662222D01*
X50715474Y-88648900D01*
X50711111Y-88655358D01*
X50700464Y-88655681D01*
X50679273Y-88632025D01*
X50649065Y-88603799D01*
X50622153Y-88613813D01*
X50621210Y-88614730D01*
X50607029Y-88651757D01*
X50473802Y-88651757D01*
X50491723Y-88617981D01*
X50510311Y-88584886D01*
X50870033Y-88584886D01*
X50874706Y-88614365D01*
X50900000Y-88622222D01*
X50929461Y-88604434D01*
X50933333Y-88588888D01*
X50945332Y-88559316D01*
X50955555Y-88555555D01*
X50977132Y-88538645D01*
X50977777Y-88533333D01*
X50977646Y-88533146D01*
X51180769Y-88533146D01*
X51186872Y-88569424D01*
X51205118Y-88594021D01*
X51227395Y-88581493D01*
X51227586Y-88581087D01*
X51946489Y-88581087D01*
X51971359Y-88586904D01*
X52008787Y-88572559D01*
X52038596Y-88547949D01*
X52044444Y-88533027D01*
X52027468Y-88525258D01*
X51989585Y-88537059D01*
X51953426Y-88561211D01*
X51946489Y-88581087D01*
X51227586Y-88581087D01*
X51239578Y-88555555D01*
X51355555Y-88555555D01*
X51363137Y-88577200D01*
X51365355Y-88577777D01*
X51384327Y-88562205D01*
X51388888Y-88555555D01*
X51387126Y-88535078D01*
X51379089Y-88533333D01*
X51356459Y-88549464D01*
X51355555Y-88555555D01*
X51239578Y-88555555D01*
X51241644Y-88551156D01*
X51227037Y-88529259D01*
X51217631Y-88524580D01*
X52326202Y-88524580D01*
X52350531Y-88539529D01*
X52389701Y-88528539D01*
X52394118Y-88524866D01*
X52587804Y-88524866D01*
X52591505Y-88533333D01*
X52625101Y-88521042D01*
X52632150Y-88516529D01*
X52844444Y-88516529D01*
X52857198Y-88530248D01*
X52861111Y-88528916D01*
X52891359Y-88513921D01*
X52938888Y-88490164D01*
X52969204Y-88470758D01*
X53177777Y-88470758D01*
X53182033Y-88485698D01*
X53200917Y-88483463D01*
X53243607Y-88461401D01*
X53276507Y-88442249D01*
X53320629Y-88411789D01*
X53516143Y-88411789D01*
X53517314Y-88432339D01*
X53530378Y-88466208D01*
X53545134Y-88488151D01*
X53547298Y-88488888D01*
X53569588Y-88477707D01*
X53615839Y-88449293D01*
X53645095Y-88430264D01*
X53698015Y-88391098D01*
X53716709Y-88363474D01*
X53708492Y-88341289D01*
X53682658Y-88328716D01*
X53639683Y-88339154D01*
X53573308Y-88374898D01*
X53516143Y-88411789D01*
X53320629Y-88411789D01*
X53333175Y-88403128D01*
X53353797Y-88377831D01*
X53339649Y-88371494D01*
X53292008Y-88389254D01*
X53266666Y-88402670D01*
X53213640Y-88436075D01*
X53181844Y-88463062D01*
X53177777Y-88470758D01*
X52969204Y-88470758D01*
X52981898Y-88462632D01*
X52999998Y-88439178D01*
X53000000Y-88439025D01*
X52987246Y-88425307D01*
X52983333Y-88426638D01*
X52906451Y-88465555D01*
X52863055Y-88491863D01*
X52845732Y-88510359D01*
X52844444Y-88516529D01*
X52632150Y-88516529D01*
X52656863Y-88500706D01*
X52681478Y-88476547D01*
X52677777Y-88468080D01*
X52644182Y-88480371D01*
X52612419Y-88500706D01*
X52587804Y-88524866D01*
X52394118Y-88524866D01*
X52427300Y-88497271D01*
X52434320Y-88487290D01*
X52441421Y-88458115D01*
X52414879Y-88453427D01*
X52371297Y-88468600D01*
X52332149Y-88497665D01*
X52326202Y-88524580D01*
X51217631Y-88524580D01*
X51195998Y-88513819D01*
X51180769Y-88533146D01*
X50977646Y-88533146D01*
X50963368Y-88512688D01*
X50929301Y-88519716D01*
X50898412Y-88542857D01*
X50870033Y-88584886D01*
X50510311Y-88584886D01*
X50550983Y-88512472D01*
X50561597Y-88494234D01*
X52088888Y-88494234D01*
X52103039Y-88509666D01*
X52142825Y-88492864D01*
X52165044Y-88477300D01*
X52193018Y-88448213D01*
X52194986Y-88432023D01*
X52169405Y-88432668D01*
X52130463Y-88451743D01*
X52097694Y-88477791D01*
X52088888Y-88494234D01*
X50561597Y-88494234D01*
X50592573Y-88441011D01*
X50671504Y-88441011D01*
X50678067Y-88463090D01*
X50701154Y-88463233D01*
X50731165Y-88446821D01*
X51888888Y-88446821D01*
X51902883Y-88465595D01*
X51941900Y-88451823D01*
X51967974Y-88434040D01*
X51989707Y-88411416D01*
X52511111Y-88411416D01*
X52518514Y-88431470D01*
X52548249Y-88426103D01*
X52566666Y-88418178D01*
X52577980Y-88410337D01*
X52785365Y-88410337D01*
X52790638Y-88411869D01*
X52831079Y-88393214D01*
X52837479Y-88390122D01*
X52889477Y-88360388D01*
X52889682Y-88360218D01*
X53111111Y-88360218D01*
X53127431Y-88363955D01*
X53168610Y-88347984D01*
X53222975Y-88317912D01*
X53232931Y-88311057D01*
X53446202Y-88311057D01*
X53460350Y-88317394D01*
X53507991Y-88299634D01*
X53533333Y-88286218D01*
X53578422Y-88257812D01*
X53822222Y-88257812D01*
X53833833Y-88284481D01*
X53870889Y-88282067D01*
X53936723Y-88250130D01*
X53952932Y-88240585D01*
X53977017Y-88226012D01*
X54332953Y-88226012D01*
X54494254Y-88343508D01*
X54638554Y-88438081D01*
X54814677Y-88536785D01*
X55012301Y-88635143D01*
X55221101Y-88728675D01*
X55430756Y-88812903D01*
X55630941Y-88883350D01*
X55811334Y-88935538D01*
X55907352Y-88956512D01*
X56010998Y-88966892D01*
X56140273Y-88967597D01*
X56277659Y-88959614D01*
X56405639Y-88943931D01*
X56501964Y-88922975D01*
X56619495Y-88880680D01*
X56702792Y-88829791D01*
X56762062Y-88760967D01*
X56807509Y-88664864D01*
X56818761Y-88632947D01*
X56839762Y-88555677D01*
X56862794Y-88447405D01*
X56885669Y-88321371D01*
X56906198Y-88190818D01*
X56922190Y-88068985D01*
X56931458Y-87969114D01*
X56932640Y-87944147D01*
X56913374Y-87926827D01*
X56863200Y-87906679D01*
X56820316Y-87894782D01*
X56686789Y-87849842D01*
X56587205Y-87784026D01*
X56513771Y-87691738D01*
X56498512Y-87663731D01*
X56434652Y-87493608D01*
X56412234Y-87323099D01*
X56429509Y-87157804D01*
X56484726Y-87003317D01*
X56576134Y-86865238D01*
X56701984Y-86749164D01*
X56803980Y-86686858D01*
X56949467Y-86625422D01*
X57104966Y-86581745D01*
X57259665Y-86557285D01*
X57402755Y-86553498D01*
X57523427Y-86571840D01*
X57561002Y-86584851D01*
X57644228Y-86619864D01*
X57743851Y-86515487D01*
X57846715Y-86386548D01*
X57914641Y-86255034D01*
X57947252Y-86126077D01*
X57944172Y-86004808D01*
X57905023Y-85896358D01*
X57829429Y-85805859D01*
X57797741Y-85781706D01*
X57747450Y-85752309D01*
X57697818Y-85739302D01*
X57630844Y-85739334D01*
X57588888Y-85742840D01*
X57472780Y-85754201D01*
X57393015Y-85760450D01*
X57341572Y-85759164D01*
X57310433Y-85747915D01*
X57291577Y-85724278D01*
X57287500Y-85713535D01*
X58031834Y-85713535D01*
X58036815Y-85719993D01*
X58068842Y-85703726D01*
X58075041Y-85699749D01*
X58115567Y-85670554D01*
X58133301Y-85652547D01*
X58133333Y-85652217D01*
X58118655Y-85651797D01*
X58085601Y-85669018D01*
X58050637Y-85693933D01*
X58031834Y-85713535D01*
X57287500Y-85713535D01*
X57276984Y-85685828D01*
X57263553Y-85644444D01*
X57262914Y-85642997D01*
X58161003Y-85642997D01*
X58164043Y-85644444D01*
X58184323Y-85628800D01*
X58188888Y-85622222D01*
X58194551Y-85601446D01*
X58191511Y-85600000D01*
X58171232Y-85615644D01*
X58166666Y-85622222D01*
X58161003Y-85642997D01*
X57262914Y-85642997D01*
X57254763Y-85624554D01*
X57936259Y-85624554D01*
X57948027Y-85629043D01*
X57987462Y-85613029D01*
X58024736Y-85592457D01*
X58082276Y-85554340D01*
X58121392Y-85521310D01*
X58129770Y-85509664D01*
X58383226Y-85509664D01*
X58386265Y-85511111D01*
X58406545Y-85495467D01*
X58411111Y-85488888D01*
X58416773Y-85468113D01*
X58413734Y-85466666D01*
X58393454Y-85482310D01*
X58388888Y-85488888D01*
X58383226Y-85509664D01*
X58129770Y-85509664D01*
X58130407Y-85508778D01*
X58118638Y-85504289D01*
X58079204Y-85520303D01*
X58041930Y-85540876D01*
X57984390Y-85578993D01*
X57945273Y-85612022D01*
X57936259Y-85624554D01*
X57254763Y-85624554D01*
X57225032Y-85557281D01*
X57222018Y-85552718D01*
X57805009Y-85552718D01*
X57826354Y-85549448D01*
X57877656Y-85523552D01*
X57959507Y-85475377D01*
X57990278Y-85455555D01*
X58444444Y-85455555D01*
X58455555Y-85466666D01*
X58466666Y-85455555D01*
X58455555Y-85444444D01*
X58444444Y-85455555D01*
X57990278Y-85455555D01*
X58009773Y-85442997D01*
X58494337Y-85442997D01*
X58497377Y-85444444D01*
X58517656Y-85428800D01*
X58522222Y-85422222D01*
X58527884Y-85401446D01*
X58524845Y-85400000D01*
X58504565Y-85415644D01*
X58500000Y-85422222D01*
X58494337Y-85442997D01*
X58009773Y-85442997D01*
X58023165Y-85434370D01*
X58054565Y-85410839D01*
X58287686Y-85410839D01*
X58300420Y-85422182D01*
X58302265Y-85422222D01*
X58326151Y-85411323D01*
X58366145Y-85388888D01*
X58555555Y-85388888D01*
X58566666Y-85400000D01*
X58577777Y-85388888D01*
X58566666Y-85377777D01*
X58555555Y-85388888D01*
X58366145Y-85388888D01*
X58377772Y-85382366D01*
X58387899Y-85376330D01*
X58605448Y-85376330D01*
X58608488Y-85377777D01*
X58628767Y-85362133D01*
X58633333Y-85355555D01*
X58638996Y-85334780D01*
X58635956Y-85333333D01*
X58615676Y-85348977D01*
X58611111Y-85355555D01*
X58605448Y-85376330D01*
X58387899Y-85376330D01*
X58447244Y-85340958D01*
X58468741Y-85327777D01*
X58543923Y-85278688D01*
X58591398Y-85242997D01*
X58827670Y-85242997D01*
X58830710Y-85244444D01*
X58850990Y-85228800D01*
X58855555Y-85222222D01*
X58861218Y-85201446D01*
X58858178Y-85200000D01*
X58837898Y-85215644D01*
X58833333Y-85222222D01*
X58827670Y-85242997D01*
X58591398Y-85242997D01*
X58594826Y-85240420D01*
X58619210Y-85216247D01*
X58614836Y-85209447D01*
X58579467Y-85223295D01*
X58516666Y-85257651D01*
X58444000Y-85300049D01*
X58376887Y-85338885D01*
X58350140Y-85354207D01*
X58306293Y-85385291D01*
X58287686Y-85410839D01*
X58054565Y-85410839D01*
X58066492Y-85401901D01*
X58080727Y-85384585D01*
X58080399Y-85384103D01*
X58057322Y-85388579D01*
X58009166Y-85410381D01*
X57948165Y-85442686D01*
X57886554Y-85478676D01*
X57836568Y-85511528D01*
X57810440Y-85534424D01*
X57810269Y-85534695D01*
X57805009Y-85552718D01*
X57222018Y-85552718D01*
X57199424Y-85518518D01*
X57562962Y-85518518D01*
X57566013Y-85531729D01*
X57577777Y-85533333D01*
X57596069Y-85525202D01*
X57592592Y-85518518D01*
X57566220Y-85515858D01*
X57562962Y-85518518D01*
X57199424Y-85518518D01*
X57176224Y-85483399D01*
X57162917Y-85469222D01*
X57400000Y-85469222D01*
X57410954Y-85487217D01*
X57446689Y-85476771D01*
X57496554Y-85446913D01*
X57502025Y-85442217D01*
X57738358Y-85442217D01*
X57761590Y-85437579D01*
X57815462Y-85409933D01*
X57891537Y-85365057D01*
X57956872Y-85322717D01*
X57991476Y-85296556D01*
X58222610Y-85296556D01*
X58239452Y-85296762D01*
X58283373Y-85277753D01*
X58327777Y-85253459D01*
X58400444Y-85211062D01*
X58438763Y-85188888D01*
X58888888Y-85188888D01*
X58900000Y-85200000D01*
X58911111Y-85188888D01*
X58900000Y-85177777D01*
X58888888Y-85188888D01*
X58438763Y-85188888D01*
X58467556Y-85172226D01*
X58474531Y-85168230D01*
X58933333Y-85168230D01*
X58949665Y-85168079D01*
X58977777Y-85155555D01*
X59012701Y-85132606D01*
X59022222Y-85120658D01*
X59005890Y-85120809D01*
X58977777Y-85133333D01*
X58942854Y-85156282D01*
X58933333Y-85168230D01*
X58474531Y-85168230D01*
X58494303Y-85156903D01*
X58519404Y-85138864D01*
X58746271Y-85138864D01*
X58769021Y-85133521D01*
X58819937Y-85110127D01*
X58834310Y-85102646D01*
X59044444Y-85102646D01*
X59062023Y-85099194D01*
X59106639Y-85079800D01*
X59135486Y-85065568D01*
X59187061Y-85036207D01*
X59214657Y-85014392D01*
X59216065Y-85008657D01*
X59193536Y-85012885D01*
X59149509Y-85033020D01*
X59099596Y-85060510D01*
X59059407Y-85086806D01*
X59044444Y-85102646D01*
X58834310Y-85102646D01*
X58889374Y-85073986D01*
X58967685Y-85030400D01*
X59045223Y-84984672D01*
X59112340Y-84942107D01*
X59142822Y-84920863D01*
X59171775Y-84893179D01*
X59175272Y-84878975D01*
X59153274Y-84885508D01*
X59101392Y-84911090D01*
X59027629Y-84951539D01*
X58949085Y-84997233D01*
X58864677Y-85049249D01*
X58798107Y-85093562D01*
X58756475Y-85125215D01*
X58746271Y-85138864D01*
X58519404Y-85138864D01*
X58532042Y-85129782D01*
X58554868Y-85103961D01*
X58556153Y-85089399D01*
X58537107Y-85092592D01*
X58494769Y-85113889D01*
X58434221Y-85149331D01*
X58366172Y-85191971D01*
X58301330Y-85234865D01*
X58250404Y-85271068D01*
X58224103Y-85293635D01*
X58222610Y-85296556D01*
X57991476Y-85296556D01*
X58003732Y-85287290D01*
X58022209Y-85266287D01*
X58022222Y-85266006D01*
X58005438Y-85267304D01*
X57962476Y-85286521D01*
X57904419Y-85317349D01*
X57842350Y-85353481D01*
X57787351Y-85388610D01*
X57750507Y-85416428D01*
X57742668Y-85425096D01*
X57738358Y-85442217D01*
X57502025Y-85442217D01*
X57534318Y-85414500D01*
X57538212Y-85392235D01*
X57536071Y-85390581D01*
X57503255Y-85391810D01*
X57457083Y-85412780D01*
X57416400Y-85442599D01*
X57400000Y-85469222D01*
X57162917Y-85469222D01*
X57155303Y-85461111D01*
X57112034Y-85426953D01*
X57067219Y-85408460D01*
X57004967Y-85401048D01*
X56943380Y-85400000D01*
X56783271Y-85417292D01*
X56651215Y-85468898D01*
X56547729Y-85554413D01*
X56473329Y-85673431D01*
X56433479Y-85800000D01*
X56416320Y-85860366D01*
X56396483Y-85903187D01*
X56394712Y-85905555D01*
X56348629Y-85931566D01*
X56288416Y-85922053D01*
X56223699Y-85879054D01*
X56211111Y-85866666D01*
X56135444Y-85815847D01*
X56049743Y-85803303D01*
X55963147Y-85827213D01*
X55884791Y-85885755D01*
X55843544Y-85939967D01*
X55817189Y-86008295D01*
X55802202Y-86098230D01*
X55799005Y-86194156D01*
X55808016Y-86280456D01*
X55829657Y-86341512D01*
X55832626Y-86345752D01*
X55859932Y-86400292D01*
X55860483Y-86463629D01*
X55833266Y-86545367D01*
X55805555Y-86602687D01*
X55777569Y-86660825D01*
X55759686Y-86713419D01*
X55749698Y-86773220D01*
X55745393Y-86852981D01*
X55744555Y-86954738D01*
X55745961Y-87066722D01*
X55751269Y-87146192D01*
X55762298Y-87205026D01*
X55780868Y-87255106D01*
X55794840Y-87283008D01*
X55837200Y-87348254D01*
X55884194Y-87400688D01*
X55900285Y-87413341D01*
X55943999Y-87458385D01*
X55951018Y-87502640D01*
X55928155Y-87536256D01*
X55882225Y-87549380D01*
X55820043Y-87532159D01*
X55818623Y-87531407D01*
X55784188Y-87518656D01*
X55754641Y-87528845D01*
X55716073Y-87567984D01*
X55705750Y-87580176D01*
X55639740Y-87675787D01*
X55569297Y-87808784D01*
X55501861Y-87962717D01*
X55473851Y-88018451D01*
X55444143Y-88040211D01*
X55417576Y-88040495D01*
X55364328Y-88016965D01*
X55342643Y-87965429D01*
X55352474Y-87884804D01*
X55393770Y-87774007D01*
X55404411Y-87751050D01*
X55452433Y-87659224D01*
X55505943Y-87571028D01*
X55554060Y-87504277D01*
X55557925Y-87499734D01*
X55633333Y-87412887D01*
X55544444Y-87466265D01*
X55308499Y-87609632D01*
X55052070Y-87768436D01*
X54791155Y-87932728D01*
X54660921Y-88015804D01*
X54332953Y-88226012D01*
X53977017Y-88226012D01*
X54004304Y-88209501D01*
X54036645Y-88189517D01*
X54040925Y-88186696D01*
X54038323Y-88165790D01*
X54029814Y-88148036D01*
X54012881Y-88131355D01*
X53984232Y-88135075D01*
X53932752Y-88161437D01*
X53916666Y-88170848D01*
X53861765Y-88209164D01*
X53827702Y-88244161D01*
X53822222Y-88257812D01*
X53578422Y-88257812D01*
X53586359Y-88252812D01*
X53618155Y-88225826D01*
X53622222Y-88218130D01*
X53617966Y-88203189D01*
X53599082Y-88205425D01*
X53556392Y-88227486D01*
X53523492Y-88246639D01*
X53466824Y-88285760D01*
X53446202Y-88311057D01*
X53232931Y-88311057D01*
X53277777Y-88280178D01*
X53304205Y-88254760D01*
X53303025Y-88245151D01*
X53269954Y-88255144D01*
X53219455Y-88280640D01*
X53166323Y-88312769D01*
X53125355Y-88342657D01*
X53111111Y-88360218D01*
X52889682Y-88360218D01*
X52921936Y-88333503D01*
X52923494Y-88331274D01*
X52922145Y-88319898D01*
X52894408Y-88330785D01*
X52849316Y-88359349D01*
X52811111Y-88388336D01*
X52785365Y-88410337D01*
X52577980Y-88410337D01*
X52607669Y-88389762D01*
X52622222Y-88363099D01*
X52615810Y-88337479D01*
X52589979Y-88339061D01*
X52554094Y-88356337D01*
X52519457Y-88388012D01*
X52511111Y-88411416D01*
X51989707Y-88411416D01*
X51991315Y-88409742D01*
X51985150Y-88400706D01*
X51936822Y-88408919D01*
X51898751Y-88429733D01*
X51888888Y-88446821D01*
X50731165Y-88446821D01*
X50740127Y-88441920D01*
X50750717Y-88425655D01*
X50744154Y-88403576D01*
X50721067Y-88403433D01*
X50682094Y-88424746D01*
X50671504Y-88441011D01*
X50592573Y-88441011D01*
X50618399Y-88396635D01*
X50618415Y-88396608D01*
X52025158Y-88396608D01*
X52043018Y-88389459D01*
X52244444Y-88389459D01*
X52261556Y-88399759D01*
X52302924Y-88391194D01*
X52334794Y-88376995D01*
X52369221Y-88349699D01*
X52377777Y-88331980D01*
X52360930Y-88326105D01*
X52319537Y-88340263D01*
X52311111Y-88344444D01*
X52266129Y-88370483D01*
X52244730Y-88388335D01*
X52244444Y-88389459D01*
X52043018Y-88389459D01*
X52049491Y-88386868D01*
X52067465Y-88375380D01*
X52109861Y-88339181D01*
X52130098Y-88309704D01*
X52130318Y-88296894D01*
X52422222Y-88296894D01*
X52436654Y-88310914D01*
X52468481Y-88298471D01*
X52703133Y-88298471D01*
X52703857Y-88302040D01*
X52721214Y-88314089D01*
X52759402Y-88300028D01*
X52801628Y-88274062D01*
X52822849Y-88257646D01*
X53044444Y-88257646D01*
X53060885Y-88254600D01*
X53101382Y-88234825D01*
X53152698Y-88205768D01*
X53175944Y-88191083D01*
X53377777Y-88191083D01*
X53394728Y-88199874D01*
X53440964Y-88184795D01*
X53486947Y-88161111D01*
X53522221Y-88136862D01*
X53746625Y-88136862D01*
X53769603Y-88135946D01*
X53817306Y-88115471D01*
X53854791Y-88094520D01*
X53908110Y-88058287D01*
X53922171Y-88045086D01*
X54157464Y-88045086D01*
X54166856Y-88070356D01*
X54170370Y-88074074D01*
X54185773Y-88085839D01*
X54205207Y-88083322D01*
X54241046Y-88062336D01*
X54277493Y-88037832D01*
X54327708Y-87994493D01*
X54336687Y-87961361D01*
X54335319Y-87958769D01*
X54314289Y-87945895D01*
X54274966Y-87957815D01*
X54236782Y-87978687D01*
X54179116Y-88016909D01*
X54157464Y-88045086D01*
X53922171Y-88045086D01*
X53938940Y-88029342D01*
X53942263Y-88018693D01*
X53919285Y-88019609D01*
X53871582Y-88040084D01*
X53834096Y-88061035D01*
X53780777Y-88097267D01*
X53749948Y-88126213D01*
X53746625Y-88136862D01*
X53522221Y-88136862D01*
X53533414Y-88129167D01*
X53556724Y-88102405D01*
X53550071Y-88089187D01*
X53545714Y-88088888D01*
X53520877Y-88099213D01*
X53476417Y-88123978D01*
X53427638Y-88153870D01*
X53389843Y-88179578D01*
X53377777Y-88191083D01*
X53175944Y-88191083D01*
X53201597Y-88174878D01*
X53232222Y-88151999D01*
X53242075Y-88135047D01*
X53237336Y-88133333D01*
X53209325Y-88144330D01*
X53161924Y-88171249D01*
X53109267Y-88204980D01*
X53065487Y-88236415D01*
X53044719Y-88256444D01*
X53044444Y-88257646D01*
X52822849Y-88257646D01*
X52850093Y-88236571D01*
X52875174Y-88206214D01*
X52875787Y-88196779D01*
X52850635Y-88192406D01*
X52806613Y-88209070D01*
X52757903Y-88238089D01*
X52718683Y-88270783D01*
X52703133Y-88298471D01*
X52468481Y-88298471D01*
X52474791Y-88296004D01*
X52514204Y-88267405D01*
X52545227Y-88235949D01*
X52538346Y-88223932D01*
X52533333Y-88223668D01*
X52492921Y-88235337D01*
X52449911Y-88261827D01*
X52423830Y-88290267D01*
X52422222Y-88296894D01*
X52130318Y-88296894D01*
X52130397Y-88292280D01*
X52106063Y-88302019D01*
X52088089Y-88313508D01*
X52045693Y-88349706D01*
X52025457Y-88379184D01*
X52025158Y-88396608D01*
X50618415Y-88396608D01*
X50661069Y-88325317D01*
X51298350Y-88325317D01*
X51321602Y-88351199D01*
X51377249Y-88350576D01*
X51416666Y-88341549D01*
X51455564Y-88322825D01*
X51466666Y-88305927D01*
X51453678Y-88296296D01*
X51496296Y-88296296D01*
X51499346Y-88309507D01*
X51511111Y-88311111D01*
X51529402Y-88302980D01*
X51525925Y-88296296D01*
X51499553Y-88293636D01*
X51496296Y-88296296D01*
X51453678Y-88296296D01*
X51449023Y-88292844D01*
X51422222Y-88295327D01*
X51386717Y-88294289D01*
X51385549Y-88290409D01*
X51700939Y-88290409D01*
X51719649Y-88307786D01*
X51747566Y-88301355D01*
X51789601Y-88271457D01*
X52177777Y-88271457D01*
X52184338Y-88286648D01*
X52210114Y-88282329D01*
X52264243Y-88256802D01*
X52268496Y-88254609D01*
X52309456Y-88226023D01*
X52322460Y-88201171D01*
X52321419Y-88198700D01*
X52296933Y-88195146D01*
X52254139Y-88210176D01*
X52209924Y-88235236D01*
X52181177Y-88261771D01*
X52177777Y-88271457D01*
X51789601Y-88271457D01*
X51794654Y-88267863D01*
X51811111Y-88254450D01*
X51851896Y-88216719D01*
X51860038Y-88193582D01*
X51844444Y-88177832D01*
X51806346Y-88162756D01*
X51781939Y-88167946D01*
X51781666Y-88183460D01*
X51771024Y-88206002D01*
X51738517Y-88234425D01*
X51705994Y-88266496D01*
X51700939Y-88290409D01*
X51385549Y-88290409D01*
X51377777Y-88264586D01*
X51365210Y-88229352D01*
X51337781Y-88225425D01*
X51310901Y-88251570D01*
X51303663Y-88270523D01*
X51298350Y-88325317D01*
X50661069Y-88325317D01*
X50689335Y-88278074D01*
X50703887Y-88254381D01*
X50737259Y-88254381D01*
X50747996Y-88284031D01*
X50766666Y-88288888D01*
X50911111Y-88288888D01*
X50928021Y-88310465D01*
X50933333Y-88311111D01*
X50954909Y-88294200D01*
X50955555Y-88288888D01*
X50938645Y-88267312D01*
X50933333Y-88266666D01*
X50911756Y-88283577D01*
X50911111Y-88288888D01*
X50766666Y-88288888D01*
X50794686Y-88272913D01*
X50795769Y-88250000D01*
X50777247Y-88218693D01*
X50751788Y-88224099D01*
X50737259Y-88254381D01*
X50703887Y-88254381D01*
X50730738Y-88210662D01*
X51158479Y-88210662D01*
X51163087Y-88235836D01*
X51189438Y-88244444D01*
X51221435Y-88225829D01*
X51245153Y-88187024D01*
X51250886Y-88158111D01*
X52355555Y-88158111D01*
X52371449Y-88175796D01*
X52375696Y-88175123D01*
X52625895Y-88175123D01*
X52632887Y-88184552D01*
X52672965Y-88170705D01*
X52710939Y-88150663D01*
X52734904Y-88134448D01*
X52967355Y-88134448D01*
X52980312Y-88150396D01*
X52998736Y-88151359D01*
X53033493Y-88134219D01*
X53090149Y-88099203D01*
X53108724Y-88085244D01*
X53320060Y-88085244D01*
X53322222Y-88088661D01*
X53353107Y-88077797D01*
X53405689Y-88050308D01*
X53433333Y-88033913D01*
X53458604Y-88016998D01*
X53684529Y-88016998D01*
X53699879Y-88019435D01*
X53746597Y-88001003D01*
X53800981Y-87972222D01*
X53853481Y-87938919D01*
X53857197Y-87935801D01*
X54079303Y-87935801D01*
X54102117Y-87935830D01*
X54146391Y-87918030D01*
X54197287Y-87890217D01*
X54230130Y-87867128D01*
X54445331Y-87867128D01*
X54450109Y-87880261D01*
X54455089Y-87888135D01*
X54477310Y-87895071D01*
X54523837Y-87878266D01*
X54598303Y-87836046D01*
X54673223Y-87787662D01*
X54699764Y-87765622D01*
X54688729Y-87752052D01*
X54677817Y-87747534D01*
X54638813Y-87750660D01*
X54580116Y-87774583D01*
X54549038Y-87792207D01*
X54487200Y-87830857D01*
X54455163Y-87853246D01*
X54445331Y-87867128D01*
X54230130Y-87867128D01*
X54239969Y-87860211D01*
X54256938Y-87842207D01*
X54260133Y-87824121D01*
X54231101Y-87830691D01*
X54167997Y-87862420D01*
X54153929Y-87870250D01*
X54104765Y-87902652D01*
X54079815Y-87928720D01*
X54079303Y-87935801D01*
X53857197Y-87935801D01*
X53884834Y-87912612D01*
X53888717Y-87905555D01*
X53884374Y-87892036D01*
X53865762Y-87894446D01*
X53825141Y-87915791D01*
X53761045Y-87955133D01*
X53703824Y-87995097D01*
X53684529Y-88016998D01*
X53458604Y-88016998D01*
X53480462Y-88002367D01*
X53502161Y-87982581D01*
X53500000Y-87979164D01*
X53469114Y-87990028D01*
X53416533Y-88017517D01*
X53388888Y-88033913D01*
X53341759Y-88065458D01*
X53320060Y-88085244D01*
X53108724Y-88085244D01*
X53139549Y-88062080D01*
X53165003Y-88030901D01*
X53165428Y-88020218D01*
X53137252Y-88012477D01*
X53103497Y-88028667D01*
X53043292Y-88065174D01*
X53004933Y-88086545D01*
X52971715Y-88113392D01*
X52967355Y-88134448D01*
X52734904Y-88134448D01*
X52764092Y-88114699D01*
X52795866Y-88082374D01*
X52799828Y-88071906D01*
X52783957Y-88064772D01*
X52739326Y-88085015D01*
X52711111Y-88102637D01*
X52651974Y-88146468D01*
X52625895Y-88175123D01*
X52375696Y-88175123D01*
X52409814Y-88169716D01*
X52450000Y-88146843D01*
X52478689Y-88114482D01*
X52489995Y-88082301D01*
X52478389Y-88066716D01*
X52476995Y-88066666D01*
X52446169Y-88079079D01*
X52404053Y-88107537D01*
X52368140Y-88138866D01*
X52355555Y-88158111D01*
X51250886Y-88158111D01*
X51255800Y-88133333D01*
X51422222Y-88133333D01*
X51439132Y-88154909D01*
X51444444Y-88155555D01*
X51466020Y-88138645D01*
X51466666Y-88133333D01*
X51449756Y-88111756D01*
X51444444Y-88111111D01*
X51422867Y-88128021D01*
X51422222Y-88133333D01*
X51255800Y-88133333D01*
X51257032Y-88127119D01*
X51240666Y-88096164D01*
X51829287Y-88096164D01*
X51846178Y-88126762D01*
X51865600Y-88133333D01*
X51888805Y-88115713D01*
X51896651Y-88100711D01*
X51895368Y-88074074D01*
X51985185Y-88074074D01*
X51988235Y-88087285D01*
X52000000Y-88088888D01*
X52018291Y-88080758D01*
X52014814Y-88074074D01*
X51988442Y-88071414D01*
X51985185Y-88074074D01*
X51895368Y-88074074D01*
X51894898Y-88064314D01*
X51868456Y-88049292D01*
X51840000Y-88062222D01*
X51829287Y-88096164D01*
X51240666Y-88096164D01*
X51239432Y-88093831D01*
X51218318Y-88088888D01*
X51203998Y-88106424D01*
X51206063Y-88131898D01*
X51202170Y-88173002D01*
X51186433Y-88186756D01*
X51158479Y-88210662D01*
X50730738Y-88210662D01*
X50757760Y-88166666D01*
X50888888Y-88166666D01*
X50906677Y-88196128D01*
X50922222Y-88200000D01*
X50951683Y-88182211D01*
X50955555Y-88166666D01*
X50937767Y-88137205D01*
X50922222Y-88133333D01*
X50892760Y-88151121D01*
X50888888Y-88166666D01*
X50757760Y-88166666D01*
X50759155Y-88164394D01*
X50823221Y-88063201D01*
X50834648Y-88045936D01*
X52545366Y-88045936D01*
X52561732Y-88062453D01*
X52587308Y-88060605D01*
X52632825Y-88037736D01*
X52670761Y-88014921D01*
X52683026Y-88005555D01*
X52889060Y-88005555D01*
X52894126Y-88019400D01*
X52915634Y-88017165D01*
X52962390Y-87996628D01*
X53000885Y-87977326D01*
X53029553Y-87959647D01*
X53244444Y-87959647D01*
X53260486Y-87976876D01*
X53306081Y-87965583D01*
X53369737Y-87931435D01*
X53389105Y-87916648D01*
X53619099Y-87916648D01*
X53647420Y-87905413D01*
X53677777Y-87888888D01*
X53739683Y-87850148D01*
X53782156Y-87819104D01*
X54015799Y-87819104D01*
X54019599Y-87821528D01*
X54057309Y-87810940D01*
X54111920Y-87783855D01*
X54125154Y-87775965D01*
X54154769Y-87755969D01*
X54381343Y-87755969D01*
X54392715Y-87761535D01*
X54431809Y-87746282D01*
X54469180Y-87725790D01*
X54526844Y-87687412D01*
X54532507Y-87682569D01*
X54777777Y-87682569D01*
X54780683Y-87704305D01*
X54795720Y-87707367D01*
X54832368Y-87690016D01*
X54876507Y-87664471D01*
X54930944Y-87626204D01*
X54954957Y-87595948D01*
X54944989Y-87579339D01*
X54931206Y-87577777D01*
X54889231Y-87589920D01*
X54838708Y-87618860D01*
X54796078Y-87653369D01*
X54777782Y-87682218D01*
X54777777Y-87682569D01*
X54532507Y-87682569D01*
X54566153Y-87653792D01*
X54575258Y-87640891D01*
X54563716Y-87635611D01*
X54524423Y-87650941D01*
X54487420Y-87671070D01*
X54429694Y-87709289D01*
X54390358Y-87743041D01*
X54381343Y-87755969D01*
X54154769Y-87755969D01*
X54181652Y-87737818D01*
X54199235Y-87716798D01*
X54183333Y-87711224D01*
X54154729Y-87720968D01*
X54111800Y-87744627D01*
X54066419Y-87774201D01*
X54030461Y-87801694D01*
X54015799Y-87819104D01*
X53782156Y-87819104D01*
X53788859Y-87814205D01*
X53800000Y-87804257D01*
X53803122Y-87794462D01*
X53774801Y-87805697D01*
X53744444Y-87822222D01*
X53682538Y-87860962D01*
X53633362Y-87896905D01*
X53622222Y-87906853D01*
X53619099Y-87916648D01*
X53389105Y-87916648D01*
X53413970Y-87897664D01*
X53432842Y-87869944D01*
X53431846Y-87864260D01*
X53407878Y-87862412D01*
X53362306Y-87878380D01*
X53310006Y-87904591D01*
X53265854Y-87933474D01*
X53244726Y-87957457D01*
X53244444Y-87959647D01*
X53029553Y-87959647D01*
X53053930Y-87944614D01*
X53086270Y-87914061D01*
X53091298Y-87893381D01*
X53076624Y-87888888D01*
X53047070Y-87899628D01*
X52998923Y-87925788D01*
X52946799Y-87958276D01*
X52905312Y-87988002D01*
X52889060Y-88005555D01*
X52683026Y-88005555D01*
X52721821Y-87975929D01*
X52738677Y-87944848D01*
X52736693Y-87938770D01*
X52712196Y-87930140D01*
X52662359Y-87949056D01*
X52626653Y-87969091D01*
X52575009Y-88005054D01*
X52546929Y-88034992D01*
X52545366Y-88045936D01*
X50834648Y-88045936D01*
X50876897Y-87982099D01*
X50888066Y-87966666D01*
X51044444Y-87966666D01*
X51062232Y-87996128D01*
X51077777Y-88000000D01*
X51096740Y-87988550D01*
X51231242Y-87988550D01*
X51233333Y-88000000D01*
X51261743Y-88021374D01*
X51267978Y-88022222D01*
X51288290Y-88005272D01*
X51288888Y-88000000D01*
X51270800Y-87980497D01*
X51254244Y-87977777D01*
X51231242Y-87988550D01*
X51096740Y-87988550D01*
X51107239Y-87982211D01*
X51111111Y-87966666D01*
X51093322Y-87937205D01*
X51077777Y-87933333D01*
X51048316Y-87951121D01*
X51044444Y-87966666D01*
X50888066Y-87966666D01*
X50915545Y-87928694D01*
X50926866Y-87915656D01*
X50955285Y-87883639D01*
X51311111Y-87883639D01*
X51329999Y-87920436D01*
X51383333Y-87933333D01*
X51414415Y-87921849D01*
X51416777Y-87905555D01*
X51394184Y-87883452D01*
X51366506Y-87874074D01*
X51518518Y-87874074D01*
X51521568Y-87887285D01*
X51533333Y-87888888D01*
X51551624Y-87880758D01*
X51548148Y-87874074D01*
X51521775Y-87871414D01*
X51518518Y-87874074D01*
X51366506Y-87874074D01*
X51356138Y-87870561D01*
X51322187Y-87870934D01*
X51311111Y-87883639D01*
X50955285Y-87883639D01*
X50962049Y-87876019D01*
X50971728Y-87859758D01*
X51650451Y-87859758D01*
X51660871Y-87878021D01*
X51697906Y-87884228D01*
X51745636Y-87879225D01*
X51788144Y-87863858D01*
X51803254Y-87851634D01*
X51818361Y-87817224D01*
X51798824Y-87803351D01*
X51762069Y-87812651D01*
X51712265Y-87828935D01*
X51690709Y-87832157D01*
X51656591Y-87849153D01*
X51650451Y-87859758D01*
X50971728Y-87859758D01*
X50977725Y-87849684D01*
X50977777Y-87848918D01*
X50989708Y-87823617D01*
X51006703Y-87796566D01*
X51182615Y-87796566D01*
X51189179Y-87818645D01*
X51212265Y-87818788D01*
X51251238Y-87797476D01*
X51261828Y-87781211D01*
X51255265Y-87759132D01*
X51232178Y-87758988D01*
X51193205Y-87780301D01*
X51182615Y-87796566D01*
X51006703Y-87796566D01*
X51020552Y-87774522D01*
X51040210Y-87745941D01*
X51533333Y-87745941D01*
X51548130Y-87773333D01*
X51582368Y-87773262D01*
X51607678Y-87755368D01*
X51891881Y-87755368D01*
X51897983Y-87791646D01*
X51916230Y-87816243D01*
X51938506Y-87803715D01*
X51952755Y-87773378D01*
X51938148Y-87751481D01*
X51907109Y-87736041D01*
X51891881Y-87755368D01*
X51607678Y-87755368D01*
X51620820Y-87746077D01*
X51622667Y-87743907D01*
X51640285Y-87710827D01*
X51638174Y-87697433D01*
X51606347Y-87691697D01*
X51565132Y-87707412D01*
X51536417Y-87734451D01*
X51533333Y-87745941D01*
X51040210Y-87745941D01*
X51052083Y-87728678D01*
X51065983Y-87711111D01*
X51444444Y-87711111D01*
X51461354Y-87732687D01*
X51466666Y-87733333D01*
X51488243Y-87716422D01*
X51488888Y-87711111D01*
X51471978Y-87689534D01*
X51466666Y-87688888D01*
X51445090Y-87705799D01*
X51444444Y-87711111D01*
X51065983Y-87711111D01*
X51100513Y-87667470D01*
X51133395Y-87643359D01*
X51150147Y-87647924D01*
X51184695Y-87659511D01*
X51215461Y-87642805D01*
X51222222Y-87622540D01*
X51203964Y-87602064D01*
X51186499Y-87596073D01*
X51181011Y-87581987D01*
X51189235Y-87566328D01*
X51253465Y-87566328D01*
X51255555Y-87577777D01*
X51283965Y-87599152D01*
X51290200Y-87600000D01*
X51310512Y-87583050D01*
X51311111Y-87577777D01*
X51293023Y-87558275D01*
X51276466Y-87555555D01*
X51253465Y-87566328D01*
X51189235Y-87566328D01*
X51200445Y-87544983D01*
X51246601Y-87482479D01*
X51251445Y-87476603D01*
X51448370Y-87476603D01*
X51459107Y-87506253D01*
X51477777Y-87511111D01*
X51505797Y-87495136D01*
X51506880Y-87472222D01*
X51506731Y-87471970D01*
X51652835Y-87471970D01*
X51667608Y-87503770D01*
X51690897Y-87511111D01*
X51716551Y-87493321D01*
X51725870Y-87476284D01*
X51727989Y-87434784D01*
X51706260Y-87414166D01*
X51674284Y-87425022D01*
X51668256Y-87431418D01*
X51652835Y-87471970D01*
X51506731Y-87471970D01*
X51488359Y-87440915D01*
X51462899Y-87446321D01*
X51448370Y-87476603D01*
X51251445Y-87476603D01*
X51321281Y-87391890D01*
X51361933Y-87344444D01*
X51380085Y-87323719D01*
X51555555Y-87323719D01*
X51570352Y-87351111D01*
X51604590Y-87351040D01*
X51643042Y-87323854D01*
X51644890Y-87321685D01*
X51662508Y-87288605D01*
X51660396Y-87275211D01*
X51628569Y-87269475D01*
X51587355Y-87285190D01*
X51558640Y-87312228D01*
X51555555Y-87323719D01*
X51380085Y-87323719D01*
X51460503Y-87231900D01*
X51535503Y-87150650D01*
X51591062Y-87097232D01*
X51631312Y-87068183D01*
X51660381Y-87060040D01*
X51682400Y-87069341D01*
X51686037Y-87072703D01*
X51716899Y-87085789D01*
X51735841Y-87073047D01*
X51748567Y-87041841D01*
X51738428Y-87014525D01*
X51713544Y-87009954D01*
X51709575Y-87012060D01*
X51689924Y-87017249D01*
X51688888Y-87014739D01*
X51707007Y-86993946D01*
X51752832Y-86962061D01*
X51813564Y-86926290D01*
X51876404Y-86893835D01*
X51928555Y-86871902D01*
X51951945Y-86866666D01*
X51986861Y-86875378D01*
X51997921Y-86905653D01*
X51985590Y-86963699D01*
X51963673Y-87023223D01*
X51936019Y-87079793D01*
X51913443Y-87095903D01*
X51903673Y-87090339D01*
X51866634Y-87069309D01*
X51833448Y-87071588D01*
X51822222Y-87090969D01*
X51840810Y-87115382D01*
X51867798Y-87127190D01*
X51898238Y-87142735D01*
X51903662Y-87175995D01*
X51897739Y-87208443D01*
X51882773Y-87365241D01*
X51904436Y-87523277D01*
X51949386Y-87644444D01*
X51995472Y-87723566D01*
X52045164Y-87775933D01*
X52113879Y-87817635D01*
X52116666Y-87819024D01*
X52182638Y-87856842D01*
X52214816Y-87891065D01*
X52222222Y-87924579D01*
X52228561Y-87965223D01*
X52239999Y-87977777D01*
X52277293Y-87958431D01*
X52304396Y-87911853D01*
X52311111Y-87872083D01*
X52310152Y-87868563D01*
X52823703Y-87868563D01*
X52834634Y-87893871D01*
X52835799Y-87895058D01*
X52861064Y-87892905D01*
X52906209Y-87871298D01*
X52947803Y-87844954D01*
X53177777Y-87844954D01*
X53193762Y-87848100D01*
X53232637Y-87833293D01*
X53267021Y-87815179D01*
X53511413Y-87815179D01*
X53530575Y-87822222D01*
X53561482Y-87811467D01*
X53615492Y-87783917D01*
X53654649Y-87761272D01*
X53722767Y-87714116D01*
X53733996Y-87702195D01*
X53955555Y-87702195D01*
X53962811Y-87710184D01*
X53989969Y-87700441D01*
X54045112Y-87669860D01*
X54055234Y-87663911D01*
X54100627Y-87634128D01*
X54317563Y-87634128D01*
X54319196Y-87643737D01*
X54348817Y-87634084D01*
X54400788Y-87608950D01*
X54424752Y-87595907D01*
X54477476Y-87561787D01*
X54480827Y-87558668D01*
X54713777Y-87558668D01*
X54723883Y-87565698D01*
X54760627Y-87550073D01*
X54779684Y-87538724D01*
X54824840Y-87505555D01*
X55066807Y-87505555D01*
X55072171Y-87528178D01*
X55093996Y-87528399D01*
X55140374Y-87504763D01*
X55169599Y-87487076D01*
X55220999Y-87448909D01*
X55244288Y-87418072D01*
X55235256Y-87401300D01*
X55224023Y-87400000D01*
X55184196Y-87411860D01*
X55133960Y-87440168D01*
X55089561Y-87474018D01*
X55067245Y-87502502D01*
X55066807Y-87505555D01*
X54824840Y-87505555D01*
X54830009Y-87501758D01*
X54861009Y-87469469D01*
X54864000Y-87463553D01*
X54853893Y-87456523D01*
X54817150Y-87472149D01*
X54798093Y-87483497D01*
X54747768Y-87520463D01*
X54716768Y-87552752D01*
X54713777Y-87558668D01*
X54480827Y-87558668D01*
X54506102Y-87535141D01*
X54507844Y-87521896D01*
X54479919Y-87527975D01*
X54450000Y-87542180D01*
X54391800Y-87576092D01*
X54344540Y-87609160D01*
X54317563Y-87634128D01*
X54100627Y-87634128D01*
X54102332Y-87633009D01*
X54125654Y-87611427D01*
X54125971Y-87607453D01*
X54104036Y-87612262D01*
X54060495Y-87632836D01*
X54010888Y-87660534D01*
X53970756Y-87686719D01*
X53955555Y-87702195D01*
X53733996Y-87702195D01*
X53754502Y-87680425D01*
X53751140Y-87664689D01*
X53713966Y-87671401D01*
X53644265Y-87705050D01*
X53639361Y-87707860D01*
X53566464Y-87754243D01*
X53522590Y-87791303D01*
X53511413Y-87815179D01*
X53267021Y-87815179D01*
X53280787Y-87807927D01*
X53324597Y-87779396D01*
X53350448Y-87755095D01*
X53352625Y-87750000D01*
X53347761Y-87733829D01*
X53319621Y-87740299D01*
X53262107Y-87770990D01*
X53254594Y-87775400D01*
X53205938Y-87809624D01*
X53179418Y-87839008D01*
X53177777Y-87844954D01*
X52947803Y-87844954D01*
X52956924Y-87839177D01*
X52998896Y-87805480D01*
X53017192Y-87781755D01*
X53013196Y-87758339D01*
X52976576Y-87763838D01*
X52908309Y-87798077D01*
X52901270Y-87802195D01*
X52844303Y-87840289D01*
X52823703Y-87868563D01*
X52310152Y-87868563D01*
X52300639Y-87833638D01*
X52262989Y-87801300D01*
X52212863Y-87776263D01*
X52114137Y-87713010D01*
X53088888Y-87713010D01*
X53102054Y-87731788D01*
X53143109Y-87721884D01*
X53195735Y-87692935D01*
X53422222Y-87692935D01*
X53423769Y-87705257D01*
X53433723Y-87707400D01*
X53460052Y-87696201D01*
X53510725Y-87668498D01*
X53572387Y-87633333D01*
X53632409Y-87594444D01*
X53866837Y-87594444D01*
X53869645Y-87614849D01*
X53883881Y-87618476D01*
X53917747Y-87602958D01*
X53979446Y-87565925D01*
X53991497Y-87558438D01*
X54039364Y-87524333D01*
X54244444Y-87524333D01*
X54253124Y-87532570D01*
X54283530Y-87522241D01*
X54342213Y-87490763D01*
X54369268Y-87475077D01*
X54423154Y-87440657D01*
X54429529Y-87435444D01*
X54649577Y-87435444D01*
X54656986Y-87442274D01*
X54695779Y-87429135D01*
X54734436Y-87410540D01*
X54779240Y-87381278D01*
X54780460Y-87379770D01*
X55000000Y-87379770D01*
X55016971Y-87383641D01*
X55060178Y-87367680D01*
X55090523Y-87351966D01*
X55138774Y-87321128D01*
X55139539Y-87320370D01*
X55379532Y-87320370D01*
X55383617Y-87349192D01*
X55391203Y-87349537D01*
X55396508Y-87319795D01*
X55392958Y-87306944D01*
X55383090Y-87298527D01*
X55379532Y-87320370D01*
X55139539Y-87320370D01*
X55160870Y-87299232D01*
X55158696Y-87293639D01*
X55123367Y-87297836D01*
X55073727Y-87319027D01*
X55027207Y-87347752D01*
X55001238Y-87374552D01*
X55000000Y-87379770D01*
X54780460Y-87379770D01*
X54799849Y-87355802D01*
X54800000Y-87354203D01*
X54784749Y-87344542D01*
X54741670Y-87364105D01*
X54677777Y-87408776D01*
X54649577Y-87435444D01*
X54429529Y-87435444D01*
X54454628Y-87414918D01*
X54458303Y-87406452D01*
X54436156Y-87411396D01*
X54390388Y-87432551D01*
X54334872Y-87462269D01*
X54283486Y-87492902D01*
X54250103Y-87516802D01*
X54244444Y-87524333D01*
X54039364Y-87524333D01*
X54045819Y-87519734D01*
X54071688Y-87490621D01*
X54069752Y-87479684D01*
X54036445Y-87480821D01*
X53984189Y-87501605D01*
X53928297Y-87533376D01*
X53884083Y-87567473D01*
X53866837Y-87594444D01*
X53632409Y-87594444D01*
X53634306Y-87593215D01*
X53676551Y-87556907D01*
X53688866Y-87536333D01*
X53680638Y-87520388D01*
X53650418Y-87531849D01*
X53629696Y-87544783D01*
X53568484Y-87583556D01*
X53500430Y-87624906D01*
X53496363Y-87627312D01*
X53448753Y-87660542D01*
X53423466Y-87688211D01*
X53422222Y-87692935D01*
X53195735Y-87692935D01*
X53214386Y-87682675D01*
X53223483Y-87676981D01*
X53273228Y-87640402D01*
X53299545Y-87610622D01*
X53300563Y-87600911D01*
X53276895Y-87599883D01*
X53230537Y-87616910D01*
X53175292Y-87644684D01*
X53124964Y-87675892D01*
X53093359Y-87703226D01*
X53088888Y-87713010D01*
X52114137Y-87713010D01*
X52098200Y-87702799D01*
X52015217Y-87600278D01*
X52006752Y-87578032D01*
X53344801Y-87578032D01*
X53345189Y-87578982D01*
X53367293Y-87576680D01*
X53415053Y-87556510D01*
X53476876Y-87524852D01*
X53541172Y-87488089D01*
X53575563Y-87465972D01*
X53793155Y-87465972D01*
X53805927Y-87473550D01*
X53852482Y-87458531D01*
X53913549Y-87427623D01*
X53952928Y-87402111D01*
X54177777Y-87402111D01*
X54191167Y-87420749D01*
X54232770Y-87410457D01*
X54304738Y-87370661D01*
X54311552Y-87366387D01*
X54363337Y-87328310D01*
X54577949Y-87328310D01*
X54591015Y-87333333D01*
X54617374Y-87323083D01*
X54663834Y-87298115D01*
X54668793Y-87295208D01*
X54703699Y-87271043D01*
X54933333Y-87271043D01*
X54948419Y-87274865D01*
X54984672Y-87259131D01*
X55028585Y-87232087D01*
X55066648Y-87201980D01*
X55067013Y-87201511D01*
X55301527Y-87201511D01*
X55302367Y-87203830D01*
X55325385Y-87205882D01*
X55364095Y-87187861D01*
X55401795Y-87160120D01*
X55421783Y-87133016D01*
X55422222Y-87129521D01*
X55405890Y-87125378D01*
X55365696Y-87142184D01*
X55356764Y-87147265D01*
X55315956Y-87177632D01*
X55301527Y-87201511D01*
X55067013Y-87201511D01*
X55084947Y-87178489D01*
X55073401Y-87173747D01*
X55035021Y-87189596D01*
X55013105Y-87201767D01*
X54963423Y-87235945D01*
X54935532Y-87264573D01*
X54933333Y-87271043D01*
X54703699Y-87271043D01*
X54712543Y-87264920D01*
X54733107Y-87241931D01*
X54733333Y-87240402D01*
X54716648Y-87239952D01*
X54674802Y-87258775D01*
X54655555Y-87269611D01*
X54596805Y-87307446D01*
X54577949Y-87328310D01*
X54363337Y-87328310D01*
X54366227Y-87326185D01*
X54397689Y-87291762D01*
X54400466Y-87270319D01*
X54387290Y-87266666D01*
X54356784Y-87277818D01*
X54307080Y-87305395D01*
X54251814Y-87340580D01*
X54204628Y-87374555D01*
X54179161Y-87398503D01*
X54177777Y-87402111D01*
X53952928Y-87402111D01*
X53968731Y-87391873D01*
X53999826Y-87362170D01*
X54001960Y-87348627D01*
X53974390Y-87349006D01*
X53923205Y-87369813D01*
X53880022Y-87394096D01*
X53816930Y-87438565D01*
X53793155Y-87465972D01*
X53575563Y-87465972D01*
X53596351Y-87452603D01*
X53630822Y-87424775D01*
X53635109Y-87419348D01*
X53636762Y-87400949D01*
X53603806Y-87408213D01*
X53537568Y-87440654D01*
X53468474Y-87480247D01*
X53403813Y-87522046D01*
X53359657Y-87556988D01*
X53344801Y-87578032D01*
X52006752Y-87578032D01*
X51967057Y-87473716D01*
X51955679Y-87365779D01*
X51961629Y-87303246D01*
X51977121Y-87221875D01*
X51998356Y-87136576D01*
X52021534Y-87062258D01*
X52042855Y-87013828D01*
X52046793Y-87008280D01*
X52064288Y-86957445D01*
X52058452Y-86892067D01*
X52033193Y-86832724D01*
X52008659Y-86807427D01*
X51979717Y-86793162D01*
X51947623Y-86793341D01*
X51900791Y-86810603D01*
X51827639Y-86847585D01*
X51824139Y-86849438D01*
X51671795Y-86945677D01*
X51512523Y-87076944D01*
X51345462Y-87244308D01*
X51169753Y-87448836D01*
X50984534Y-87691594D01*
X50788946Y-87973650D01*
X50582127Y-88296071D01*
X50363218Y-88659924D01*
X50360429Y-88664692D01*
X50343293Y-88681366D01*
X50312474Y-88682170D01*
X50255987Y-88666575D01*
X50233753Y-88659136D01*
X50168685Y-88638043D01*
X50121388Y-88624681D01*
X50107901Y-88622222D01*
X50102027Y-88636439D01*
X49834714Y-88636439D01*
X49774366Y-88586914D01*
X49636286Y-88528398D01*
X49483357Y-88511551D01*
X49471589Y-88511982D01*
X49403112Y-88514322D01*
X49351552Y-88514602D01*
X49338888Y-88513978D01*
X49315343Y-88494789D01*
X49313473Y-88457812D01*
X49331676Y-88423122D01*
X49346929Y-88413232D01*
X49368095Y-88396303D01*
X49374007Y-88360110D01*
X49367087Y-88295061D01*
X49318628Y-88106244D01*
X49233946Y-87943147D01*
X49113430Y-87806297D01*
X48957471Y-87696220D01*
X48901899Y-87667573D01*
X48815765Y-87623273D01*
X48766049Y-87587562D01*
X48747267Y-87554208D01*
X48753938Y-87516979D01*
X48759340Y-87505555D01*
X48798284Y-87473728D01*
X48862509Y-87470129D01*
X48945383Y-87492057D01*
X49040273Y-87536807D01*
X49140548Y-87601677D01*
X49239574Y-87683962D01*
X49270120Y-87713739D01*
X49395797Y-87841281D01*
X49621759Y-87775788D01*
X49842477Y-87705605D01*
X50042582Y-87627302D01*
X50245886Y-87531469D01*
X50266666Y-87520888D01*
X50379604Y-87460208D01*
X50477424Y-87399981D01*
X50571298Y-87332086D01*
X50672402Y-87248403D01*
X50791908Y-87140811D01*
X50800254Y-87133097D01*
X50889460Y-87049067D01*
X50945483Y-86989926D01*
X50968524Y-86951222D01*
X50958784Y-86928505D01*
X50916464Y-86917323D01*
X50841766Y-86913226D01*
X50810216Y-86912673D01*
X50730430Y-86906951D01*
X50617343Y-86892639D01*
X50480873Y-86871509D01*
X50330941Y-86845336D01*
X50177462Y-86815895D01*
X50030357Y-86784958D01*
X49899544Y-86754300D01*
X49844444Y-86739930D01*
X49743394Y-86713420D01*
X49668049Y-86698207D01*
X49601481Y-86693028D01*
X49526763Y-86696619D01*
X49426966Y-86707716D01*
X49421632Y-86708370D01*
X49182285Y-86747452D01*
X48925408Y-86806396D01*
X48670342Y-86880246D01*
X48459606Y-86954856D01*
X48354657Y-86997157D01*
X48285865Y-87028456D01*
X48247347Y-87052179D01*
X48233221Y-87071749D01*
X48235029Y-87085606D01*
X48272532Y-87219515D01*
X48283297Y-87377067D01*
X48268033Y-87546950D01*
X48227454Y-87717856D01*
X48188668Y-87822222D01*
X48151762Y-87921064D01*
X48130379Y-88018023D01*
X48120074Y-88134412D01*
X48119183Y-88155555D01*
X48116076Y-88271548D01*
X47575876Y-88271548D01*
X47514812Y-88126838D01*
X47463738Y-87944681D01*
X47447895Y-87777591D01*
X47467640Y-87619107D01*
X47523329Y-87462766D01*
X47615318Y-87302103D01*
X47660983Y-87237050D01*
X47763590Y-87127434D01*
X47907248Y-87022780D01*
X48093108Y-86922357D01*
X48289485Y-86838075D01*
X48465445Y-86770537D01*
X48612044Y-86717393D01*
X48740621Y-86675177D01*
X48862513Y-86640422D01*
X48989057Y-86609663D01*
X49131591Y-86579433D01*
X49143009Y-86577137D01*
X49274908Y-86550693D01*
X49026899Y-86432665D01*
X48906219Y-86372202D01*
X48777422Y-86302725D01*
X48658578Y-86234208D01*
X48590981Y-86192151D01*
X48444094Y-86084459D01*
X48286028Y-85947912D01*
X48126961Y-85792627D01*
X47977074Y-85628726D01*
X47846545Y-85466329D01*
X47810382Y-85416124D01*
X47750611Y-85333523D01*
X47699271Y-85268324D01*
X47661760Y-85226992D01*
X47643478Y-85215989D01*
X47643344Y-85216124D01*
X47625661Y-85237860D01*
X47584597Y-85289357D01*
X47524249Y-85365445D01*
X47448714Y-85460953D01*
X47362089Y-85570712D01*
X47312737Y-85633333D01*
X47199465Y-85775978D01*
X47109278Y-85886413D01*
X47038743Y-85968098D01*
X46984428Y-86024489D01*
X46942900Y-86059045D01*
X46910726Y-86075223D01*
X46884473Y-86076480D01*
X46875440Y-86073805D01*
X46846024Y-86055850D01*
X46832934Y-86028360D01*
X46837993Y-85988334D01*
X46863024Y-85932773D01*
X46909851Y-85858678D01*
X46980297Y-85763050D01*
X47076186Y-85642890D01*
X47199342Y-85495197D01*
X47296777Y-85380796D01*
X47376242Y-85288020D01*
X47447367Y-85204950D01*
X47504231Y-85138502D01*
X47540914Y-85095594D01*
X47549566Y-85085447D01*
X47566820Y-85056283D01*
X47563824Y-85021421D01*
X47539105Y-84964953D01*
X47538245Y-84963225D01*
X47510275Y-84900800D01*
X47474972Y-84813273D01*
X47439153Y-84717671D01*
X47432852Y-84700000D01*
X47403747Y-84618432D01*
X47380470Y-84554731D01*
X47366761Y-84519069D01*
X47364868Y-84515028D01*
X47349211Y-84515628D01*
X47311446Y-84533746D01*
X47248944Y-84571045D01*
X47159075Y-84629186D01*
X47039212Y-84709829D01*
X46886725Y-84814636D01*
X46844990Y-84843564D01*
X46696291Y-84945294D01*
X46579310Y-85021324D01*
X46490502Y-85073009D01*
X46426323Y-85101705D01*
X46383231Y-85108767D01*
X46357681Y-85095550D01*
X46346130Y-85063409D01*
X46344444Y-85034998D01*
X46347702Y-85008422D01*
X46360918Y-84981776D01*
X46389257Y-84950335D01*
X46437885Y-84909375D01*
X46511966Y-84854171D01*
X46616665Y-84779999D01*
X46644444Y-84760581D01*
X46763450Y-84678550D01*
X46887062Y-84595125D01*
X47003249Y-84518313D01*
X47099979Y-84456121D01*
X47130006Y-84437451D01*
X47315568Y-84323736D01*
X47300969Y-84145201D01*
X47292369Y-84029902D01*
X47283791Y-83898431D01*
X47277075Y-83779026D01*
X47277013Y-83777777D01*
X47274777Y-83709921D01*
X47271977Y-83659476D01*
X47263051Y-83625416D01*
X47242434Y-83606718D01*
X47204563Y-83602356D01*
X47143873Y-83611305D01*
X47054802Y-83632540D01*
X46931784Y-83665038D01*
X46822222Y-83694009D01*
X46653442Y-83737891D01*
X46522240Y-83771208D01*
X46423307Y-83795062D01*
X46351333Y-83810554D01*
X46301010Y-83818787D01*
X46267029Y-83820861D01*
X46244081Y-83817879D01*
X46236749Y-83815497D01*
X46208623Y-83784388D01*
X46201054Y-83734163D01*
X46215318Y-83685748D01*
X46227946Y-83671137D01*
X46259545Y-83657227D01*
X46326455Y-83635587D01*
X46420637Y-83608301D01*
X46534054Y-83577454D01*
X46658670Y-83545132D01*
X46668936Y-83542584D01*
X47439207Y-83542584D01*
X47448525Y-83870584D01*
X47452631Y-83986880D01*
X47457677Y-84086818D01*
X47463135Y-84162248D01*
X47468474Y-84205018D01*
X47470673Y-84211414D01*
X47494953Y-84207833D01*
X47545173Y-84185611D01*
X47599747Y-84155704D01*
X47727880Y-84082085D01*
X47824046Y-84031706D01*
X47892899Y-84002620D01*
X47939090Y-83992882D01*
X47967272Y-84000544D01*
X47968422Y-84001457D01*
X47992643Y-84029672D01*
X47993031Y-84059497D01*
X47965871Y-84095590D01*
X47907450Y-84142610D01*
X47814054Y-84205217D01*
X47797674Y-84215684D01*
X47686441Y-84286085D01*
X47607292Y-84337577D01*
X47555708Y-84376462D01*
X47527171Y-84409041D01*
X47517161Y-84441617D01*
X47521159Y-84480491D01*
X47534648Y-84531965D01*
X47544641Y-84568560D01*
X47590118Y-84717773D01*
X47637644Y-84829013D01*
X47672019Y-84883158D01*
X47692265Y-84889418D01*
X47725133Y-84866373D01*
X47775795Y-84810167D01*
X47785040Y-84798893D01*
X47848333Y-84729463D01*
X47896445Y-84696731D01*
X47921126Y-84693513D01*
X47962131Y-84712860D01*
X47968469Y-84755038D01*
X47939878Y-84821395D01*
X47879341Y-84909079D01*
X47830310Y-84975296D01*
X47794274Y-85028725D01*
X47778074Y-85059129D01*
X47777777Y-85061042D01*
X47790709Y-85088255D01*
X47825822Y-85142690D01*
X47877593Y-85216815D01*
X47940501Y-85303099D01*
X48009022Y-85394011D01*
X48077635Y-85482019D01*
X48140816Y-85559591D01*
X48159261Y-85581301D01*
X48249550Y-85676597D01*
X48367551Y-85786948D01*
X48503326Y-85903792D01*
X48646937Y-86018564D01*
X48783790Y-86119439D01*
X48912361Y-86198266D01*
X49075396Y-86280232D01*
X49263456Y-86361545D01*
X49467104Y-86438417D01*
X49676902Y-86507056D01*
X49883412Y-86563674D01*
X49900000Y-86567688D01*
X50090584Y-86609983D01*
X50291999Y-86648828D01*
X50493439Y-86682549D01*
X50684099Y-86709468D01*
X50853171Y-86727911D01*
X50986114Y-86736111D01*
X51088517Y-86737826D01*
X51155873Y-86735732D01*
X51197515Y-86728436D01*
X51222775Y-86714543D01*
X51236809Y-86698645D01*
X51429952Y-86462924D01*
X51641331Y-86262026D01*
X51867052Y-86099375D01*
X52005504Y-86022673D01*
X52183151Y-85948369D01*
X52341678Y-85909967D01*
X52479360Y-85907492D01*
X52594473Y-85940971D01*
X52685294Y-86010429D01*
X52687065Y-86012429D01*
X52757986Y-86122791D01*
X52787355Y-86246480D01*
X52778567Y-86373613D01*
X52752470Y-86464190D01*
X52706004Y-86579680D01*
X52644602Y-86708809D01*
X52573695Y-86840299D01*
X52498715Y-86962876D01*
X52484316Y-86984434D01*
X52415506Y-87103950D01*
X52384060Y-87207020D01*
X52388663Y-87299095D01*
X52400199Y-87333815D01*
X52444672Y-87394442D01*
X52520980Y-87454225D01*
X52616817Y-87507125D01*
X52719878Y-87547102D01*
X52817859Y-87568118D01*
X52877777Y-87568194D01*
X52919302Y-87554509D01*
X52990975Y-87522274D01*
X53084650Y-87475497D01*
X53192180Y-87418187D01*
X53263861Y-87378200D01*
X53316592Y-87347766D01*
X53711111Y-87347766D01*
X53727874Y-87356558D01*
X53773544Y-87341565D01*
X53841193Y-87305288D01*
X53858741Y-87294444D01*
X53864903Y-87290121D01*
X54100761Y-87290121D01*
X54123664Y-87289690D01*
X54169725Y-87270316D01*
X54226314Y-87239411D01*
X54265892Y-87213969D01*
X54511111Y-87213969D01*
X54519934Y-87229028D01*
X54551334Y-87220613D01*
X54597527Y-87196036D01*
X54647248Y-87160810D01*
X54648236Y-87159597D01*
X54866666Y-87159597D01*
X54883368Y-87159986D01*
X54925310Y-87141124D01*
X54945393Y-87129829D01*
X54991709Y-87098914D01*
X54996381Y-87094250D01*
X55222222Y-87094250D01*
X55239161Y-87097448D01*
X55280749Y-87081852D01*
X55288888Y-87077777D01*
X55334150Y-87048245D01*
X55355339Y-87022354D01*
X55355555Y-87020395D01*
X55339241Y-87015059D01*
X55298986Y-87031167D01*
X55288888Y-87036868D01*
X55244256Y-87067892D01*
X55222607Y-87092089D01*
X55222222Y-87094250D01*
X54996381Y-87094250D01*
X55013743Y-87076916D01*
X55013598Y-87072857D01*
X54989656Y-87075721D01*
X54947013Y-87096036D01*
X54902139Y-87124079D01*
X54871503Y-87150129D01*
X54866666Y-87159597D01*
X54648236Y-87159597D01*
X54672849Y-87129372D01*
X54673600Y-87119350D01*
X54651115Y-87111141D01*
X54609689Y-87124720D01*
X54563259Y-87151972D01*
X54525763Y-87184779D01*
X54511111Y-87213969D01*
X54265892Y-87213969D01*
X54280801Y-87204385D01*
X54320556Y-87172649D01*
X54333333Y-87153649D01*
X54329959Y-87138204D01*
X54314536Y-87137598D01*
X54279111Y-87154718D01*
X54215732Y-87192451D01*
X54200237Y-87201965D01*
X54142813Y-87241447D01*
X54107182Y-87274139D01*
X54100761Y-87290121D01*
X53864903Y-87290121D01*
X53919873Y-87251555D01*
X53953436Y-87218932D01*
X53954825Y-87201563D01*
X53945921Y-87200000D01*
X53922780Y-87210730D01*
X53876443Y-87237630D01*
X53819524Y-87272761D01*
X53764636Y-87308185D01*
X53724394Y-87335965D01*
X53711111Y-87347766D01*
X53316592Y-87347766D01*
X53364514Y-87320107D01*
X53495100Y-87243290D01*
X53618890Y-87169632D01*
X54024121Y-87169632D01*
X54046081Y-87172967D01*
X54053864Y-87170390D01*
X54090819Y-87151740D01*
X54147796Y-87118572D01*
X54167522Y-87106366D01*
X54425251Y-87106366D01*
X54444283Y-87105980D01*
X54490061Y-87082148D01*
X54534594Y-87054759D01*
X54546042Y-87046256D01*
X54777777Y-87046256D01*
X54785561Y-87063495D01*
X54813335Y-87058747D01*
X54867730Y-87030147D01*
X54896335Y-87012898D01*
X54938236Y-86982126D01*
X55155555Y-86982126D01*
X55170809Y-86988886D01*
X55210900Y-86970411D01*
X55267322Y-86930855D01*
X55277777Y-86922454D01*
X55303395Y-86898616D01*
X55294814Y-86896215D01*
X55250271Y-86915528D01*
X55216666Y-86932057D01*
X55173680Y-86959259D01*
X55155557Y-86981958D01*
X55155555Y-86982126D01*
X54938236Y-86982126D01*
X54944997Y-86977161D01*
X54961169Y-86951563D01*
X54957041Y-86945362D01*
X54925074Y-86947106D01*
X54875077Y-86967857D01*
X54823379Y-86998425D01*
X54786305Y-87029620D01*
X54777777Y-87046256D01*
X54546042Y-87046256D01*
X54584180Y-87017929D01*
X54610099Y-86987504D01*
X54610844Y-86977345D01*
X54587025Y-86975580D01*
X54542755Y-86993755D01*
X54492000Y-87023685D01*
X54448725Y-87057191D01*
X54427251Y-87084911D01*
X54425251Y-87106366D01*
X54167522Y-87106366D01*
X54176086Y-87101067D01*
X54233257Y-87059679D01*
X54261699Y-87029141D01*
X54260685Y-87014876D01*
X54229491Y-87022306D01*
X54183333Y-87046898D01*
X54121970Y-87084039D01*
X54071233Y-87114644D01*
X54061111Y-87120723D01*
X54029733Y-87148092D01*
X54024121Y-87169632D01*
X53618890Y-87169632D01*
X53647778Y-87152443D01*
X53814707Y-87052260D01*
X53964760Y-86961517D01*
X54334889Y-86961517D01*
X54343656Y-86976547D01*
X54356708Y-86977777D01*
X54388904Y-86967482D01*
X54442643Y-86941538D01*
X54467648Y-86927777D01*
X54481097Y-86918569D01*
X54703754Y-86918569D01*
X54720509Y-86930596D01*
X54742671Y-86927634D01*
X54783011Y-86906037D01*
X54814043Y-86887076D01*
X54849035Y-86861111D01*
X55089029Y-86861111D01*
X55097348Y-86885403D01*
X55125836Y-86879739D01*
X55179202Y-86842899D01*
X55188888Y-86835214D01*
X55196728Y-86827795D01*
X55422222Y-86827795D01*
X55436482Y-86834672D01*
X55470396Y-86819271D01*
X55510664Y-86789134D01*
X55535160Y-86763740D01*
X55551109Y-86741401D01*
X55540795Y-86741604D01*
X55498693Y-86764835D01*
X55494444Y-86767318D01*
X55447608Y-86799103D01*
X55423216Y-86824202D01*
X55422222Y-86827795D01*
X55196728Y-86827795D01*
X55228102Y-86798105D01*
X55243281Y-86771828D01*
X55241898Y-86767964D01*
X55214713Y-86767752D01*
X55170379Y-86787521D01*
X55124823Y-86817567D01*
X55093972Y-86848186D01*
X55089029Y-86861111D01*
X54849035Y-86861111D01*
X54863608Y-86850297D01*
X54888663Y-86819382D01*
X54884002Y-86802064D01*
X54872222Y-86800693D01*
X54839354Y-86812303D01*
X54792881Y-86839164D01*
X54746019Y-86872030D01*
X54711985Y-86901653D01*
X54703754Y-86918569D01*
X54481097Y-86918569D01*
X54520442Y-86891630D01*
X54551720Y-86858622D01*
X54555384Y-86848148D01*
X54553824Y-86830798D01*
X54543191Y-86826787D01*
X54514959Y-86838841D01*
X54460601Y-86869686D01*
X54427948Y-86888888D01*
X54363675Y-86931439D01*
X54334889Y-86961517D01*
X53964760Y-86961517D01*
X53988046Y-86947435D01*
X54159952Y-86842661D01*
X54217397Y-86807443D01*
X54279994Y-86769102D01*
X54625552Y-86769102D01*
X54627631Y-86789605D01*
X54632194Y-86798157D01*
X54656863Y-86801307D01*
X54701784Y-86784153D01*
X54752934Y-86754675D01*
X54777479Y-86735528D01*
X55000000Y-86735528D01*
X55009445Y-86753422D01*
X55041703Y-86746402D01*
X55102651Y-86713120D01*
X55104415Y-86712047D01*
X55333333Y-86712047D01*
X55337873Y-86728952D01*
X55356890Y-86728778D01*
X55398482Y-86709147D01*
X55457154Y-86675666D01*
X55517835Y-86635120D01*
X55552261Y-86601857D01*
X55555639Y-86581484D01*
X55540841Y-86577777D01*
X55508971Y-86588984D01*
X55458584Y-86616662D01*
X55403454Y-86651901D01*
X55357351Y-86685790D01*
X55334047Y-86709418D01*
X55333333Y-86712047D01*
X55104415Y-86712047D01*
X55105555Y-86711354D01*
X55151077Y-86677017D01*
X55177530Y-86644886D01*
X55178058Y-86624756D01*
X55167936Y-86622222D01*
X55137868Y-86633653D01*
X55091131Y-86661148D01*
X55042847Y-86694503D01*
X55008136Y-86723518D01*
X55000000Y-86735528D01*
X54777479Y-86735528D01*
X54796284Y-86720859D01*
X54817192Y-86692866D01*
X54814130Y-86668551D01*
X54780572Y-86673034D01*
X54719009Y-86705325D01*
X54631931Y-86764433D01*
X54625552Y-86769102D01*
X54279994Y-86769102D01*
X54370837Y-86713460D01*
X54514013Y-86626222D01*
X54529789Y-86616666D01*
X54911271Y-86616666D01*
X54914185Y-86637255D01*
X54928791Y-86640662D01*
X54963390Y-86624572D01*
X55026282Y-86586669D01*
X55027739Y-86585763D01*
X55259837Y-86585763D01*
X55273384Y-86596405D01*
X55291248Y-86595825D01*
X55324356Y-86580360D01*
X55383637Y-86546345D01*
X55391958Y-86541470D01*
X55449998Y-86501770D01*
X55473701Y-86472067D01*
X55471156Y-86462267D01*
X55440111Y-86460917D01*
X55382693Y-86485994D01*
X55348041Y-86506560D01*
X55294288Y-86544472D01*
X55263115Y-86574105D01*
X55259837Y-86585763D01*
X55027739Y-86585763D01*
X55032327Y-86582910D01*
X55092271Y-86539089D01*
X55116599Y-86505573D01*
X55115032Y-86495233D01*
X55089523Y-86490843D01*
X55043505Y-86507563D01*
X54990171Y-86537529D01*
X54942715Y-86572879D01*
X54914331Y-86605749D01*
X54911271Y-86616666D01*
X54529789Y-86616666D01*
X54642061Y-86548658D01*
X54750117Y-86483696D01*
X54812975Y-86446350D01*
X55177777Y-86446350D01*
X55190542Y-86464875D01*
X55230856Y-86456916D01*
X55301745Y-86421697D01*
X55323820Y-86408999D01*
X55380063Y-86370398D01*
X55381225Y-86369247D01*
X55585328Y-86369247D01*
X55588888Y-86377777D01*
X55618326Y-86399170D01*
X55624845Y-86400000D01*
X55636893Y-86386308D01*
X55633333Y-86377777D01*
X55603895Y-86356385D01*
X55597377Y-86355555D01*
X55585328Y-86369247D01*
X55381225Y-86369247D01*
X55415680Y-86335109D01*
X55422222Y-86320110D01*
X55416011Y-86291848D01*
X55411444Y-86288888D01*
X55382695Y-86300391D01*
X55333190Y-86329237D01*
X55275535Y-86366933D01*
X55222332Y-86404987D01*
X55186185Y-86434904D01*
X55177777Y-86446350D01*
X54812975Y-86446350D01*
X54833317Y-86434264D01*
X54886798Y-86403291D01*
X54903535Y-86394345D01*
X54947166Y-86368733D01*
X54948885Y-86350449D01*
X54908133Y-86339288D01*
X54824356Y-86335046D01*
X54744135Y-86335967D01*
X54626717Y-86336266D01*
X54548547Y-86328732D01*
X54504876Y-86311806D01*
X54490953Y-86283931D01*
X54496524Y-86257914D01*
X55503980Y-86257914D01*
X55527483Y-86273749D01*
X55562462Y-86263875D01*
X55591861Y-86236660D01*
X55600000Y-86210805D01*
X55592250Y-86190646D01*
X55561592Y-86196579D01*
X55546203Y-86203242D01*
X55509002Y-86231914D01*
X55503980Y-86257914D01*
X54496524Y-86257914D01*
X54497161Y-86254939D01*
X54529398Y-86217588D01*
X54550431Y-86207778D01*
X54566963Y-86198798D01*
X54570135Y-86178473D01*
X54557946Y-86139043D01*
X54528393Y-86072750D01*
X54500808Y-86015444D01*
X54434322Y-85847477D01*
X54402885Y-85682168D01*
X54405272Y-85507543D01*
X54432249Y-85346100D01*
X54499791Y-85131751D01*
X54600216Y-84946432D01*
X54732746Y-84791187D01*
X54896602Y-84667059D01*
X54968643Y-84627402D01*
X55053897Y-84586398D01*
X55129984Y-84554854D01*
X55208365Y-84529356D01*
X55300502Y-84506488D01*
X55417855Y-84482837D01*
X55511111Y-84465779D01*
X55660736Y-84434758D01*
X55818072Y-84394872D01*
X55970901Y-84349784D01*
X56107007Y-84303158D01*
X56214175Y-84258659D01*
X56233333Y-84249168D01*
X56300000Y-84214697D01*
X56144444Y-84174860D01*
X56082470Y-84160141D01*
X55984058Y-84138192D01*
X55856345Y-84110540D01*
X55706467Y-84078710D01*
X55541560Y-84044231D01*
X55368761Y-84008626D01*
X55333333Y-84001393D01*
X55165486Y-83967011D01*
X55009165Y-83934675D01*
X54870410Y-83905657D01*
X54755263Y-83881233D01*
X54669763Y-83862677D01*
X54619953Y-83851262D01*
X54612811Y-83849403D01*
X54551046Y-83820454D01*
X54517841Y-83781368D01*
X54519465Y-83741092D01*
X54528589Y-83729187D01*
X54549284Y-83718560D01*
X54588023Y-83714815D01*
X54651720Y-83718227D01*
X54747286Y-83729072D01*
X54839201Y-83741566D01*
X55007946Y-83767172D01*
X55208365Y-83800475D01*
X55428787Y-83839341D01*
X55657543Y-83881635D01*
X55882964Y-83925223D01*
X56093379Y-83967968D01*
X56195022Y-83989595D01*
X56301605Y-84011273D01*
X56393960Y-84027386D01*
X56462627Y-84036467D01*
X56498146Y-84037050D01*
X56499171Y-84036726D01*
X56525132Y-84012691D01*
X56569219Y-83956851D01*
X56627158Y-83875784D01*
X56694675Y-83776071D01*
X56767497Y-83664293D01*
X56841350Y-83547030D01*
X56911959Y-83430861D01*
X56975050Y-83322369D01*
X57026351Y-83228132D01*
X57033829Y-83213536D01*
X57144444Y-82995079D01*
X57142159Y-82658650D01*
X57131829Y-82389450D01*
X57103340Y-82123575D01*
X57054842Y-81849342D01*
X56984485Y-81555069D01*
X56944660Y-81411111D01*
X56837405Y-81065869D01*
X56722794Y-80756613D01*
X56596570Y-80474991D01*
X56454481Y-80212652D01*
X56292271Y-79961246D01*
X56105686Y-79712421D01*
X56035277Y-79626129D01*
X55941619Y-79509185D01*
X55879475Y-79420688D01*
X55848049Y-79358560D01*
X55846549Y-79320727D01*
X55874181Y-79305110D01*
X55913199Y-79306677D01*
X55973461Y-79329674D01*
X56039261Y-79375436D01*
X56057643Y-79392458D01*
X56100749Y-79430457D01*
X56128148Y-79444792D01*
X56133304Y-79439629D01*
X56127764Y-79401504D01*
X56112941Y-79331165D01*
X56091472Y-79239216D01*
X56065995Y-79136259D01*
X56039148Y-79032896D01*
X56013568Y-78939731D01*
X55991892Y-78867365D01*
X55988000Y-78855555D01*
X55954787Y-78767297D01*
X55904893Y-78647745D01*
X55842108Y-78505056D01*
X55770219Y-78347387D01*
X55693014Y-78182893D01*
X55614282Y-78019733D01*
X55537812Y-77866062D01*
X55467391Y-77730037D01*
X55451312Y-77700000D01*
X55289716Y-77412670D01*
X55132965Y-77160476D01*
X54975271Y-76935400D01*
X54810843Y-76729423D01*
X54633894Y-76534528D01*
X54544723Y-76444444D01*
X54352956Y-76255555D01*
X54307285Y-76311111D01*
X54245783Y-76396357D01*
X54171962Y-76515498D01*
X54089600Y-76661000D01*
X54002476Y-76825330D01*
X53914367Y-77000956D01*
X53829053Y-77180345D01*
X53750310Y-77355964D01*
X53681918Y-77520280D01*
X53627655Y-77665760D01*
X53627262Y-77666901D01*
X53583727Y-77801745D01*
X53545152Y-77936500D01*
X53513108Y-78063917D01*
X53489165Y-78176748D01*
X53474891Y-78267743D01*
X53471855Y-78329653D01*
X53478625Y-78353419D01*
X53513859Y-78369377D01*
X53571245Y-78380772D01*
X53577777Y-78381460D01*
X53655555Y-78388888D01*
X53746594Y-78117024D01*
X53810355Y-77940349D01*
X53881465Y-77766874D01*
X53956782Y-77602537D01*
X54033158Y-77453273D01*
X54107450Y-77325017D01*
X54176512Y-77223705D01*
X54237199Y-77155274D01*
X54268254Y-77132483D01*
X54315240Y-77131818D01*
X54377363Y-77169622D01*
X54452812Y-77243280D01*
X54539777Y-77350175D01*
X54636447Y-77487690D01*
X54741011Y-77653210D01*
X54851658Y-77844117D01*
X54966578Y-78057796D01*
X55083959Y-78291630D01*
X55114659Y-78355407D01*
X55167906Y-78470445D01*
X55221288Y-78591839D01*
X55271584Y-78711568D01*
X55315573Y-78821615D01*
X55350034Y-78913959D01*
X55371746Y-78980582D01*
X55377777Y-79010489D01*
X55392636Y-79055744D01*
X55412539Y-79082380D01*
X55434109Y-79118166D01*
X55423268Y-79141175D01*
X55398852Y-79144867D01*
X55347902Y-79130269D01*
X55266748Y-79095984D01*
X55151725Y-79040613D01*
X55127395Y-79028427D01*
X54845469Y-78897087D01*
X54558895Y-78785689D01*
X54257405Y-78690940D01*
X53930732Y-78609544D01*
X53638350Y-78550726D01*
X53547232Y-78534944D01*
X53462726Y-78522869D01*
X53376785Y-78514038D01*
X53281369Y-78507991D01*
X53168431Y-78504268D01*
X53029930Y-78502405D01*
X52857822Y-78501943D01*
X52788888Y-78502026D01*
X52602854Y-78502799D01*
X52452174Y-78504739D01*
X52327761Y-78508423D01*
X52220530Y-78514431D01*
X52121392Y-78523340D01*
X52021263Y-78535730D01*
X51911056Y-78552179D01*
X51851954Y-78561678D01*
X51491796Y-78626755D01*
X51163362Y-78700383D01*
X50854207Y-78786181D01*
X50551886Y-78887772D01*
X50243953Y-79008776D01*
X50094823Y-79072910D01*
X49990402Y-79120252D01*
X49890073Y-79168050D01*
X49807560Y-79209652D01*
X49768523Y-79231070D01*
X49669623Y-79289029D01*
X49744192Y-79450424D01*
X49831174Y-79690566D01*
X49877496Y-79942809D01*
X49882093Y-80188107D01*
X49858861Y-80392076D01*
X49813999Y-80592632D01*
X49745261Y-80794552D01*
X49650399Y-81002615D01*
X49527167Y-81221599D01*
X49373318Y-81456280D01*
X49186605Y-81711437D01*
X49132876Y-81781109D01*
X49066589Y-81867430D01*
X49011574Y-81941296D01*
X48972975Y-81995632D01*
X48955937Y-82023365D01*
X48955555Y-82024908D01*
X48974642Y-82040392D01*
X49020549Y-82055188D01*
X49020686Y-82055218D01*
X49075555Y-82074530D01*
X49109025Y-82097487D01*
X49139026Y-82156414D01*
X49164518Y-82249237D01*
X49184624Y-82365556D01*
X49198465Y-82494971D01*
X49205164Y-82627083D01*
X49203843Y-82751490D01*
X49193623Y-82857795D01*
X49178651Y-82922222D01*
X49123064Y-83048259D01*
X49054388Y-83140218D01*
X48976232Y-83193556D01*
X48958343Y-83199595D01*
X48817502Y-83220006D01*
X48686183Y-83199497D01*
X48562788Y-83137232D01*
X48445716Y-83032376D01*
X48333370Y-82884092D01*
X48322601Y-82867267D01*
X48265842Y-82777355D01*
X48092455Y-82898850D01*
X47945728Y-82994266D01*
X47802822Y-83073444D01*
X47672882Y-83131832D01*
X47565056Y-83164876D01*
X47553871Y-83166951D01*
X47496364Y-83181370D01*
X47467911Y-83207891D01*
X47453549Y-83258433D01*
X47447454Y-83313384D01*
X47451445Y-83347166D01*
X47452901Y-83349198D01*
X47479209Y-83351193D01*
X47539213Y-83345606D01*
X47623030Y-83333569D01*
X47689783Y-83322058D01*
X47791089Y-83303991D01*
X47858079Y-83294349D01*
X47900062Y-83293048D01*
X47926344Y-83300007D01*
X47946234Y-83315146D01*
X47950880Y-83319774D01*
X47975450Y-83350362D01*
X47967816Y-83373951D01*
X47942399Y-83396597D01*
X47901723Y-83417606D01*
X47829134Y-83443795D01*
X47736232Y-83471277D01*
X47667558Y-83488678D01*
X47439207Y-83542584D01*
X46668936Y-83542584D01*
X46786448Y-83513419D01*
X46909349Y-83484400D01*
X47019338Y-83460161D01*
X47107770Y-83442892D01*
X47187290Y-83426145D01*
X47247297Y-83408164D01*
X47276418Y-83392461D01*
X47277428Y-83390489D01*
X47281833Y-83360106D01*
X47289136Y-83295036D01*
X47298318Y-83204864D01*
X47308287Y-83100000D01*
X47331137Y-82910036D01*
X47366358Y-82691517D01*
X47411219Y-82457688D01*
X47462988Y-82221793D01*
X47497663Y-82082509D01*
X48282426Y-82082509D01*
X48298290Y-82224588D01*
X48328008Y-82388690D01*
X48378132Y-82551808D01*
X48444208Y-82704609D01*
X48521781Y-82837761D01*
X48606399Y-82941934D01*
X48663681Y-82990104D01*
X48742405Y-83028391D01*
X48823915Y-83043757D01*
X48894445Y-83035245D01*
X48935118Y-83008960D01*
X48952342Y-82977607D01*
X48932173Y-82955443D01*
X48926727Y-82952300D01*
X48872429Y-82897016D01*
X48833574Y-82800474D01*
X48810094Y-82662473D01*
X48805162Y-82598657D01*
X48800409Y-82506452D01*
X48800212Y-82449997D01*
X48806343Y-82420684D01*
X48820575Y-82409906D01*
X48844205Y-82409036D01*
X48896883Y-82393546D01*
X48927710Y-82352094D01*
X48926456Y-82303020D01*
X48895373Y-82273364D01*
X48865967Y-82266666D01*
X48830908Y-82256013D01*
X48826380Y-82217426D01*
X48825053Y-82187956D01*
X48804396Y-82167969D01*
X48754796Y-82151062D01*
X48711111Y-82140622D01*
X48620702Y-82123306D01*
X48513150Y-82107000D01*
X48435657Y-82097784D01*
X48282426Y-82082509D01*
X47497663Y-82082509D01*
X47518931Y-81997077D01*
X47576319Y-81796784D01*
X47578664Y-81789282D01*
X47669435Y-81500000D01*
X47499130Y-81244444D01*
X47339831Y-80988511D01*
X47191129Y-80716577D01*
X47055384Y-80435011D01*
X46934954Y-80150179D01*
X46832199Y-79868450D01*
X46749478Y-79596189D01*
X46689151Y-79339766D01*
X46685465Y-79315495D01*
X47244444Y-79315495D01*
X47252860Y-79367941D01*
X47276230Y-79453399D01*
X47311742Y-79564141D01*
X47356580Y-79692442D01*
X47407931Y-79830576D01*
X47462979Y-79970814D01*
X47518911Y-80105432D01*
X47572912Y-80226703D01*
X47587961Y-80258588D01*
X47642657Y-80368677D01*
X47702472Y-80482435D01*
X47763396Y-80592969D01*
X47821418Y-80693391D01*
X47872529Y-80776810D01*
X47912716Y-80836334D01*
X47937971Y-80865073D01*
X47941884Y-80866666D01*
X47956419Y-80848794D01*
X47987769Y-80800752D01*
X48030600Y-80730902D01*
X48058786Y-80683378D01*
X48139405Y-80552342D01*
X48233203Y-80410357D01*
X48333489Y-80266681D01*
X48433575Y-80130576D01*
X48526772Y-80011303D01*
X48606392Y-79918121D01*
X48628235Y-79894994D01*
X48681916Y-79837761D01*
X48718994Y-79793618D01*
X48732447Y-79771019D01*
X48732031Y-79770042D01*
X48691503Y-79744883D01*
X48615891Y-79708382D01*
X48512270Y-79663269D01*
X48387716Y-79612271D01*
X48249303Y-79558117D01*
X48104106Y-79503535D01*
X47959200Y-79451255D01*
X47821661Y-79404004D01*
X47698562Y-79364511D01*
X47623989Y-79342726D01*
X47487127Y-79305946D01*
X47387147Y-79281956D01*
X47318488Y-79270357D01*
X47275591Y-79270750D01*
X47252894Y-79282736D01*
X47244838Y-79305915D01*
X47244444Y-79315495D01*
X46685465Y-79315495D01*
X46653578Y-79105546D01*
X46644527Y-78938100D01*
X46652921Y-78794137D01*
X46680911Y-78686010D01*
X46732920Y-78607784D01*
X46813369Y-78553520D01*
X46926681Y-78517282D01*
X46963555Y-78509805D01*
X47053781Y-78500754D01*
X47177482Y-78499047D01*
X47324421Y-78503994D01*
X47484358Y-78514904D01*
X47647058Y-78531085D01*
X47802282Y-78551846D01*
X47934271Y-78575343D01*
X48050420Y-78602667D01*
X48194590Y-78641638D01*
X48358851Y-78689647D01*
X48535272Y-78744086D01*
X48715923Y-78802349D01*
X48892874Y-78861826D01*
X49058194Y-78919910D01*
X49203954Y-78973993D01*
X49322224Y-79021468D01*
X49401323Y-79057779D01*
X49591536Y-79155683D01*
X49827093Y-79035995D01*
X50258682Y-78838035D01*
X50715693Y-78670221D01*
X51201311Y-78531530D01*
X51718720Y-78420943D01*
X51777777Y-78410439D01*
X51862799Y-78396254D01*
X53769817Y-78396254D01*
X53771716Y-78399817D01*
X53799423Y-78410515D01*
X53860484Y-78428092D01*
X53944865Y-78449790D01*
X54011111Y-78465645D01*
X54143254Y-78499660D01*
X54289119Y-78542794D01*
X54442183Y-78592544D01*
X54595925Y-78646410D01*
X54743825Y-78701891D01*
X54879360Y-78756486D01*
X54996009Y-78807694D01*
X55087250Y-78853013D01*
X55146563Y-78889942D01*
X55164815Y-78908116D01*
X55189692Y-78929101D01*
X55215405Y-78932749D01*
X55222222Y-78922800D01*
X55212553Y-78886282D01*
X55185536Y-78816490D01*
X55144150Y-78719670D01*
X55091377Y-78602070D01*
X55030199Y-78469937D01*
X54963597Y-78329519D01*
X54894551Y-78187063D01*
X54826044Y-78048816D01*
X54761056Y-77921025D01*
X54702568Y-77809938D01*
X54653562Y-77721802D01*
X54631670Y-77685277D01*
X54598224Y-77633976D01*
X54548889Y-77560971D01*
X54490200Y-77475630D01*
X54428688Y-77387316D01*
X54370889Y-77305397D01*
X54323334Y-77239238D01*
X54292557Y-77198205D01*
X54288300Y-77193029D01*
X54274397Y-77191914D01*
X54252495Y-77215344D01*
X54220644Y-77266727D01*
X54176893Y-77349470D01*
X54119291Y-77466978D01*
X54061654Y-77588888D01*
X54009264Y-77705636D01*
X53956492Y-77831642D01*
X53905802Y-77960018D01*
X53859659Y-78083871D01*
X53820525Y-78196312D01*
X53790864Y-78290450D01*
X53773140Y-78359394D01*
X53769817Y-78396254D01*
X51862799Y-78396254D01*
X51893559Y-78391122D01*
X51998678Y-78376013D01*
X52102048Y-78364435D01*
X52212580Y-78355708D01*
X52339187Y-78349154D01*
X52490783Y-78344093D01*
X52676278Y-78339848D01*
X52714609Y-78339106D01*
X53306995Y-78327865D01*
X53365855Y-78092966D01*
X53422509Y-77888618D01*
X53490144Y-77687865D01*
X53572923Y-77480003D01*
X53675008Y-77254325D01*
X53757841Y-77084699D01*
X53838648Y-76929624D01*
X53926671Y-76771835D01*
X54016983Y-76619317D01*
X54104658Y-76480058D01*
X54184771Y-76362042D01*
X54252394Y-76273257D01*
X54272721Y-76250000D01*
X54325349Y-76209153D01*
X54385016Y-76196515D01*
X54455026Y-76213701D01*
G37*
M02*
