%TF.GenerationSoftware,KiCad,Pcbnew,8.0.8*%
%TF.CreationDate,2025-02-16T23:21:43+09:00*%
%TF.ProjectId,macro,6d616372-6f2e-46b6-9963-61645f706362,rev?*%
%TF.SameCoordinates,Original*%
%TF.FileFunction,Copper,L1,Top*%
%TF.FilePolarity,Positive*%
%FSLAX46Y46*%
G04 Gerber Fmt 4.6, Leading zero omitted, Abs format (unit mm)*
G04 Created by KiCad (PCBNEW 8.0.8) date 2025-02-16 23:21:43*
%MOMM*%
%LPD*%
G01*
G04 APERTURE LIST*
G04 APERTURE END LIST*
%TA.AperFunction,NonConductor*%
G36*
X116943039Y-38019685D02*
G01*
X116988794Y-38072489D01*
X117000000Y-38124000D01*
X117000000Y-40625500D01*
X116980315Y-40692539D01*
X116927511Y-40738294D01*
X116876000Y-40749500D01*
X114124000Y-40749500D01*
X114056961Y-40729815D01*
X114011206Y-40677011D01*
X114000000Y-40625500D01*
X114000000Y-38124000D01*
X114019685Y-38056961D01*
X114072489Y-38011206D01*
X114124000Y-38000000D01*
X116876000Y-38000000D01*
X116943039Y-38019685D01*
G37*
%TD.AperFunction*%
%TA.AperFunction,NonConductor*%
G36*
X98943039Y-38019685D02*
G01*
X98988794Y-38072489D01*
X99000000Y-38124000D01*
X99000000Y-40625500D01*
X98980315Y-40692539D01*
X98927511Y-40738294D01*
X98876000Y-40749500D01*
X96124000Y-40749500D01*
X96056961Y-40729815D01*
X96011206Y-40677011D01*
X96000000Y-40625500D01*
X96000000Y-38124000D01*
X96019685Y-38056961D01*
X96072489Y-38011206D01*
X96124000Y-38000000D01*
X98876000Y-38000000D01*
X98943039Y-38019685D01*
G37*
%TD.AperFunction*%
%TA.AperFunction,NonConductor*%
G36*
X92943039Y-38019685D02*
G01*
X92988794Y-38072489D01*
X93000000Y-38124000D01*
X93000000Y-40625500D01*
X92980315Y-40692539D01*
X92927511Y-40738294D01*
X92876000Y-40749500D01*
X90124000Y-40749500D01*
X90056961Y-40729815D01*
X90011206Y-40677011D01*
X90000000Y-40625500D01*
X90000000Y-38124000D01*
X90019685Y-38056961D01*
X90072489Y-38011206D01*
X90124000Y-38000000D01*
X92876000Y-38000000D01*
X92943039Y-38019685D01*
G37*
%TD.AperFunction*%
%TA.AperFunction,NonConductor*%
G36*
X80943039Y-38019685D02*
G01*
X80988794Y-38072489D01*
X81000000Y-38124000D01*
X81000000Y-40625500D01*
X80980315Y-40692539D01*
X80927511Y-40738294D01*
X80876000Y-40749500D01*
X78124000Y-40749500D01*
X78056961Y-40729815D01*
X78011206Y-40677011D01*
X78000000Y-40625500D01*
X78000000Y-38124000D01*
X78019685Y-38056961D01*
X78072489Y-38011206D01*
X78124000Y-38000000D01*
X80876000Y-38000000D01*
X80943039Y-38019685D01*
G37*
%TD.AperFunction*%
%TA.AperFunction,NonConductor*%
G36*
X74943039Y-38019685D02*
G01*
X74988794Y-38072489D01*
X75000000Y-38124000D01*
X75000000Y-40625500D01*
X74980315Y-40692539D01*
X74927511Y-40738294D01*
X74876000Y-40749500D01*
X72124000Y-40749500D01*
X72056961Y-40729815D01*
X72011206Y-40677011D01*
X72000000Y-40625500D01*
X72000000Y-38124000D01*
X72019685Y-38056961D01*
X72072489Y-38011206D01*
X72124000Y-38000000D01*
X74876000Y-38000000D01*
X74943039Y-38019685D01*
G37*
%TD.AperFunction*%
%TA.AperFunction,NonConductor*%
G36*
X122943039Y-38019685D02*
G01*
X122988794Y-38072489D01*
X123000000Y-38124000D01*
X123000000Y-40654852D01*
X122980315Y-40721891D01*
X122927511Y-40767646D01*
X122858353Y-40777590D01*
X122856602Y-40777325D01*
X122680922Y-40749500D01*
X122680917Y-40749500D01*
X120124000Y-40749500D01*
X120056961Y-40729815D01*
X120011206Y-40677011D01*
X120000000Y-40625500D01*
X120000000Y-38124000D01*
X120019685Y-38056961D01*
X120072489Y-38011206D01*
X120124000Y-38000000D01*
X122876000Y-38000000D01*
X122943039Y-38019685D01*
G37*
%TD.AperFunction*%
%TA.AperFunction,NonConductor*%
G36*
X110943039Y-38019685D02*
G01*
X110988794Y-38072489D01*
X111000000Y-38124000D01*
X111000000Y-40625500D01*
X110980315Y-40692539D01*
X110927511Y-40738294D01*
X110876000Y-40749500D01*
X108584078Y-40749500D01*
X108389673Y-40780290D01*
X108202467Y-40841118D01*
X108180294Y-40852417D01*
X108111625Y-40865313D01*
X108046885Y-40839036D01*
X108006628Y-40781930D01*
X108000000Y-40741932D01*
X108000000Y-38124000D01*
X108019685Y-38056961D01*
X108072489Y-38011206D01*
X108124000Y-38000000D01*
X110876000Y-38000000D01*
X110943039Y-38019685D01*
G37*
%TD.AperFunction*%
%TA.AperFunction,NonConductor*%
G36*
X134943039Y-38019685D02*
G01*
X134988794Y-38072489D01*
X135000000Y-38124000D01*
X135000000Y-40876000D01*
X134980315Y-40943039D01*
X134927511Y-40988794D01*
X134876000Y-41000000D01*
X132124000Y-41000000D01*
X132056961Y-40980315D01*
X132011206Y-40927511D01*
X132000000Y-40876000D01*
X132000000Y-38124000D01*
X132019685Y-38056961D01*
X132072489Y-38011206D01*
X132124000Y-38000000D01*
X134876000Y-38000000D01*
X134943039Y-38019685D01*
G37*
%TD.AperFunction*%
%TA.AperFunction,NonConductor*%
G36*
X128943039Y-38019685D02*
G01*
X128988794Y-38072489D01*
X129000000Y-38124000D01*
X129000000Y-40876000D01*
X128980315Y-40943039D01*
X128927511Y-40988794D01*
X128876000Y-41000000D01*
X126124000Y-41000000D01*
X126056961Y-40980315D01*
X126011206Y-40927511D01*
X126000000Y-40876000D01*
X126000000Y-38124000D01*
X126019685Y-38056961D01*
X126072489Y-38011206D01*
X126124000Y-38000000D01*
X128876000Y-38000000D01*
X128943039Y-38019685D01*
G37*
%TD.AperFunction*%
%TA.AperFunction,NonConductor*%
G36*
X104943039Y-38019685D02*
G01*
X104988794Y-38072489D01*
X105000000Y-38124000D01*
X105000000Y-40876000D01*
X104980315Y-40943039D01*
X104927511Y-40988794D01*
X104876000Y-41000000D01*
X104323887Y-41000000D01*
X104256848Y-40980315D01*
X104251002Y-40976318D01*
X104187908Y-40930478D01*
X104187907Y-40930477D01*
X104187905Y-40930476D01*
X104133136Y-40902569D01*
X104012529Y-40841117D01*
X103825326Y-40780290D01*
X103630922Y-40749500D01*
X103630917Y-40749500D01*
X102124000Y-40749500D01*
X102056961Y-40729815D01*
X102011206Y-40677011D01*
X102000000Y-40625500D01*
X102000000Y-38124000D01*
X102019685Y-38056961D01*
X102072489Y-38011206D01*
X102124000Y-38000000D01*
X104876000Y-38000000D01*
X104943039Y-38019685D01*
G37*
%TD.AperFunction*%
%TA.AperFunction,NonConductor*%
G36*
X86943039Y-38019685D02*
G01*
X86988794Y-38072489D01*
X87000000Y-38124000D01*
X87000000Y-40876000D01*
X86980315Y-40943039D01*
X86927511Y-40988794D01*
X86876000Y-41000000D01*
X85273887Y-41000000D01*
X85206848Y-40980315D01*
X85201002Y-40976318D01*
X85137908Y-40930478D01*
X85137907Y-40930477D01*
X85137905Y-40930476D01*
X85083136Y-40902569D01*
X84962529Y-40841117D01*
X84775326Y-40780290D01*
X84580922Y-40749500D01*
X84580917Y-40749500D01*
X84124000Y-40749500D01*
X84056961Y-40729815D01*
X84011206Y-40677011D01*
X84000000Y-40625500D01*
X84000000Y-38124000D01*
X84019685Y-38056961D01*
X84072489Y-38011206D01*
X84124000Y-38000000D01*
X86876000Y-38000000D01*
X86943039Y-38019685D01*
G37*
%TD.AperFunction*%
%TA.AperFunction,NonConductor*%
G36*
X68943039Y-38019685D02*
G01*
X68988794Y-38072489D01*
X69000000Y-38124000D01*
X69000000Y-40876000D01*
X68980315Y-40943039D01*
X68927511Y-40988794D01*
X68876000Y-41000000D01*
X66124000Y-41000000D01*
X66056961Y-40980315D01*
X66011206Y-40927511D01*
X66000000Y-40876000D01*
X66000000Y-38252729D01*
X66019685Y-38185690D01*
X66072489Y-38139935D01*
X66077993Y-38137580D01*
X66306780Y-38046213D01*
X66319782Y-38041839D01*
X66455286Y-38004464D01*
X66488257Y-38000000D01*
X68876000Y-38000000D01*
X68943039Y-38019685D01*
G37*
%TD.AperFunction*%
%TA.AperFunction,NonConductor*%
G36*
X42167683Y-38034961D02*
G01*
X42226129Y-38056961D01*
X42297889Y-38083973D01*
X42317267Y-38091267D01*
X42332031Y-38097957D01*
X42548705Y-38213782D01*
X42562469Y-38222343D01*
X42762154Y-38365447D01*
X42774692Y-38375737D01*
X42953997Y-38543688D01*
X42965080Y-38555522D01*
X43120926Y-38745439D01*
X43130372Y-38758622D01*
X43260096Y-38967252D01*
X43267742Y-38981558D01*
X43369121Y-39205332D01*
X43374834Y-39220513D01*
X43446137Y-39455604D01*
X43449820Y-39471400D01*
X43489830Y-39713797D01*
X43491419Y-39729939D01*
X43499434Y-39975067D01*
X43499500Y-39979119D01*
X43499500Y-39989788D01*
X43499433Y-39993852D01*
X43497609Y-40049457D01*
X43498406Y-40057546D01*
X43497862Y-40057599D01*
X43499500Y-40071829D01*
X43499500Y-40876000D01*
X43479815Y-40943039D01*
X43427011Y-40988794D01*
X43375500Y-41000000D01*
X42124000Y-41000000D01*
X42056961Y-40980315D01*
X42011206Y-40927511D01*
X42000000Y-40876000D01*
X42000000Y-38151012D01*
X42019685Y-38083973D01*
X42072489Y-38038218D01*
X42141647Y-38028274D01*
X42167683Y-38034961D01*
G37*
%TD.AperFunction*%
%TA.AperFunction,NonConductor*%
G36*
X38943039Y-38019685D02*
G01*
X38988794Y-38072489D01*
X39000000Y-38124000D01*
X39000000Y-40876000D01*
X38980315Y-40943039D01*
X38927511Y-40988794D01*
X38876000Y-41000000D01*
X36124000Y-41000000D01*
X36056961Y-40980315D01*
X36011206Y-40927511D01*
X36000000Y-40876000D01*
X36000000Y-38124000D01*
X36019685Y-38056961D01*
X36072489Y-38011206D01*
X36124000Y-38000000D01*
X38876000Y-38000000D01*
X38943039Y-38019685D01*
G37*
%TD.AperFunction*%
%TA.AperFunction,NonConductor*%
G36*
X32963445Y-38537292D02*
G01*
X32997095Y-38598525D01*
X33000000Y-38625209D01*
X33000000Y-40876000D01*
X32980315Y-40943039D01*
X32927511Y-40988794D01*
X32876000Y-41000000D01*
X32624500Y-41000000D01*
X32557461Y-40980315D01*
X32511706Y-40927511D01*
X32500500Y-40876000D01*
X32500500Y-39493485D01*
X32500693Y-39490483D01*
X32500676Y-39484148D01*
X32500509Y-39422646D01*
X32500801Y-39413850D01*
X32514630Y-39212883D01*
X32517096Y-39195392D01*
X32558456Y-39002767D01*
X32563389Y-38985799D01*
X32631736Y-38801035D01*
X32639028Y-38784953D01*
X32732981Y-38611782D01*
X32742499Y-38596887D01*
X32776534Y-38551166D01*
X32832354Y-38509144D01*
X32902032Y-38503972D01*
X32963445Y-38537292D01*
G37*
%TD.AperFunction*%
%TA.AperFunction,NonConductor*%
G36*
X137454915Y-41019685D02*
G01*
X137500670Y-41072489D01*
X137511876Y-41124000D01*
X137511876Y-43876000D01*
X137492191Y-43943039D01*
X137439387Y-43988794D01*
X137387876Y-44000000D01*
X135124000Y-44000000D01*
X135056961Y-43980315D01*
X135011206Y-43927511D01*
X135000000Y-43876000D01*
X135000000Y-41124000D01*
X135019685Y-41056961D01*
X135072489Y-41011206D01*
X135124000Y-41000000D01*
X137387876Y-41000000D01*
X137454915Y-41019685D01*
G37*
%TD.AperFunction*%
%TA.AperFunction,NonConductor*%
G36*
X131943039Y-41019685D02*
G01*
X131988794Y-41072489D01*
X132000000Y-41124000D01*
X132000000Y-42025500D01*
X131980315Y-42092539D01*
X131927511Y-42138294D01*
X131882685Y-42148045D01*
X131882763Y-42149234D01*
X131878717Y-42149499D01*
X131638214Y-42181161D01*
X131403895Y-42243947D01*
X131179794Y-42336773D01*
X131179785Y-42336777D01*
X130969706Y-42458067D01*
X130777263Y-42605733D01*
X130777256Y-42605739D01*
X130605739Y-42777256D01*
X130605733Y-42777263D01*
X130458067Y-42969706D01*
X130336777Y-43179785D01*
X130336773Y-43179794D01*
X130243947Y-43403895D01*
X130181161Y-43638214D01*
X130149499Y-43878717D01*
X130149234Y-43882763D01*
X130147546Y-43882652D01*
X130129815Y-43943039D01*
X130077011Y-43988794D01*
X130025500Y-44000000D01*
X129124000Y-44000000D01*
X129056961Y-43980315D01*
X129011206Y-43927511D01*
X129000000Y-43876000D01*
X129000000Y-41124000D01*
X129019685Y-41056961D01*
X129072489Y-41011206D01*
X129124000Y-41000000D01*
X131876000Y-41000000D01*
X131943039Y-41019685D01*
G37*
%TD.AperFunction*%
%TA.AperFunction,NonConductor*%
G36*
X125943039Y-41019685D02*
G01*
X125988794Y-41072489D01*
X126000000Y-41124000D01*
X126000000Y-43876000D01*
X125980315Y-43943039D01*
X125927511Y-43988794D01*
X125876000Y-44000000D01*
X123957000Y-44000000D01*
X123889961Y-43980315D01*
X123844206Y-43927511D01*
X123833000Y-43876000D01*
X123833000Y-41901577D01*
X123802209Y-41707173D01*
X123741382Y-41519970D01*
X123652023Y-41344594D01*
X123544705Y-41196884D01*
X123521226Y-41131080D01*
X123537051Y-41063026D01*
X123587157Y-41014331D01*
X123645024Y-41000000D01*
X125876000Y-41000000D01*
X125943039Y-41019685D01*
G37*
%TD.AperFunction*%
%TA.AperFunction,NonConductor*%
G36*
X119943039Y-43270185D02*
G01*
X119988794Y-43322989D01*
X120000000Y-43374500D01*
X120000000Y-43876000D01*
X119980315Y-43943039D01*
X119927511Y-43988794D01*
X119876000Y-44000000D01*
X117124000Y-44000000D01*
X117056961Y-43980315D01*
X117011206Y-43927511D01*
X117000000Y-43876000D01*
X117000000Y-43374500D01*
X117019685Y-43307461D01*
X117072489Y-43261706D01*
X117124000Y-43250500D01*
X119876000Y-43250500D01*
X119943039Y-43270185D01*
G37*
%TD.AperFunction*%
%TA.AperFunction,NonConductor*%
G36*
X113943039Y-43270185D02*
G01*
X113988794Y-43322989D01*
X114000000Y-43374500D01*
X114000000Y-43876000D01*
X113980315Y-43943039D01*
X113927511Y-43988794D01*
X113876000Y-44000000D01*
X111124000Y-44000000D01*
X111056961Y-43980315D01*
X111011206Y-43927511D01*
X111000000Y-43876000D01*
X111000000Y-43374500D01*
X111019685Y-43307461D01*
X111072489Y-43261706D01*
X111124000Y-43250500D01*
X113876000Y-43250500D01*
X113943039Y-43270185D01*
G37*
%TD.AperFunction*%
%TA.AperFunction,NonConductor*%
G36*
X107687015Y-41019685D02*
G01*
X107732770Y-41072489D01*
X107742714Y-41141647D01*
X107720294Y-41196884D01*
X107674788Y-41259517D01*
X107612976Y-41344594D01*
X107523617Y-41519970D01*
X107462790Y-41707173D01*
X107432000Y-41901577D01*
X107432000Y-43876000D01*
X107412315Y-43943039D01*
X107359511Y-43988794D01*
X107308000Y-44000000D01*
X105124000Y-44000000D01*
X105056961Y-43980315D01*
X105011206Y-43927511D01*
X105000000Y-43876000D01*
X105000000Y-41124000D01*
X105019685Y-41056961D01*
X105072489Y-41011206D01*
X105124000Y-41000000D01*
X107619976Y-41000000D01*
X107687015Y-41019685D01*
G37*
%TD.AperFunction*%
%TA.AperFunction,NonConductor*%
G36*
X101943039Y-43270185D02*
G01*
X101988794Y-43322989D01*
X102000000Y-43374500D01*
X102000000Y-43876000D01*
X101980315Y-43943039D01*
X101927511Y-43988794D01*
X101876000Y-44000000D01*
X99124000Y-44000000D01*
X99056961Y-43980315D01*
X99011206Y-43927511D01*
X99000000Y-43876000D01*
X99000000Y-43374500D01*
X99019685Y-43307461D01*
X99072489Y-43261706D01*
X99124000Y-43250500D01*
X101876000Y-43250500D01*
X101943039Y-43270185D01*
G37*
%TD.AperFunction*%
%TA.AperFunction,NonConductor*%
G36*
X95943039Y-43270185D02*
G01*
X95988794Y-43322989D01*
X96000000Y-43374500D01*
X96000000Y-43876000D01*
X95980315Y-43943039D01*
X95927511Y-43988794D01*
X95876000Y-44000000D01*
X93124000Y-44000000D01*
X93056961Y-43980315D01*
X93011206Y-43927511D01*
X93000000Y-43876000D01*
X93000000Y-43374500D01*
X93019685Y-43307461D01*
X93072489Y-43261706D01*
X93124000Y-43250500D01*
X95876000Y-43250500D01*
X95943039Y-43270185D01*
G37*
%TD.AperFunction*%
%TA.AperFunction,NonConductor*%
G36*
X88637015Y-41019685D02*
G01*
X88682770Y-41072489D01*
X88692714Y-41141647D01*
X88670294Y-41196884D01*
X88624788Y-41259517D01*
X88562976Y-41344594D01*
X88473617Y-41519970D01*
X88412790Y-41707173D01*
X88382000Y-41901577D01*
X88382000Y-43876000D01*
X88362315Y-43943039D01*
X88309511Y-43988794D01*
X88258000Y-44000000D01*
X87124000Y-44000000D01*
X87056961Y-43980315D01*
X87011206Y-43927511D01*
X87000000Y-43876000D01*
X87000000Y-41124000D01*
X87019685Y-41056961D01*
X87072489Y-41011206D01*
X87124000Y-41000000D01*
X88569976Y-41000000D01*
X88637015Y-41019685D01*
G37*
%TD.AperFunction*%
%TA.AperFunction,NonConductor*%
G36*
X83175039Y-43270185D02*
G01*
X83220794Y-43322989D01*
X83232000Y-43374500D01*
X83232000Y-43876000D01*
X83212315Y-43943039D01*
X83159511Y-43988794D01*
X83108000Y-44000000D01*
X81124000Y-44000000D01*
X81056961Y-43980315D01*
X81011206Y-43927511D01*
X81000000Y-43876000D01*
X81000000Y-43374500D01*
X81019685Y-43307461D01*
X81072489Y-43261706D01*
X81124000Y-43250500D01*
X83108000Y-43250500D01*
X83175039Y-43270185D01*
G37*
%TD.AperFunction*%
%TA.AperFunction,NonConductor*%
G36*
X77943039Y-43270185D02*
G01*
X77988794Y-43322989D01*
X78000000Y-43374500D01*
X78000000Y-43876000D01*
X77980315Y-43943039D01*
X77927511Y-43988794D01*
X77876000Y-44000000D01*
X75124000Y-44000000D01*
X75056961Y-43980315D01*
X75011206Y-43927511D01*
X75000000Y-43876000D01*
X75000000Y-43374500D01*
X75019685Y-43307461D01*
X75072489Y-43261706D01*
X75124000Y-43250500D01*
X77876000Y-43250500D01*
X77943039Y-43270185D01*
G37*
%TD.AperFunction*%
%TA.AperFunction,NonConductor*%
G36*
X69587015Y-41019685D02*
G01*
X69632770Y-41072489D01*
X69642714Y-41141647D01*
X69620294Y-41196884D01*
X69574788Y-41259517D01*
X69512976Y-41344594D01*
X69423617Y-41519970D01*
X69362790Y-41707173D01*
X69332000Y-41901577D01*
X69332000Y-43876000D01*
X69312315Y-43943039D01*
X69259511Y-43988794D01*
X69208000Y-44000000D01*
X69124000Y-44000000D01*
X69056961Y-43980315D01*
X69011206Y-43927511D01*
X69000000Y-43876000D01*
X69000000Y-41124000D01*
X69019685Y-41056961D01*
X69072489Y-41011206D01*
X69124000Y-41000000D01*
X69519976Y-41000000D01*
X69587015Y-41019685D01*
G37*
%TD.AperFunction*%
%TA.AperFunction,NonConductor*%
G36*
X65943039Y-41019685D02*
G01*
X65988794Y-41072489D01*
X66000000Y-41124000D01*
X66000000Y-43876000D01*
X65980315Y-43943039D01*
X65927511Y-43988794D01*
X65876000Y-44000000D01*
X64624500Y-44000000D01*
X64557461Y-43980315D01*
X64511706Y-43927511D01*
X64500500Y-43876000D01*
X64500500Y-41124000D01*
X64520185Y-41056961D01*
X64572989Y-41011206D01*
X64624500Y-41000000D01*
X65876000Y-41000000D01*
X65943039Y-41019685D01*
G37*
%TD.AperFunction*%
%TA.AperFunction,NonConductor*%
G36*
X41943039Y-41019685D02*
G01*
X41988794Y-41072489D01*
X42000000Y-41124000D01*
X42000000Y-43876000D01*
X41980315Y-43943039D01*
X41927511Y-43988794D01*
X41876000Y-44000000D01*
X39974500Y-44000000D01*
X39907461Y-43980315D01*
X39861706Y-43927511D01*
X39851954Y-43882685D01*
X39850766Y-43882763D01*
X39850500Y-43878717D01*
X39850500Y-43878712D01*
X39818838Y-43638211D01*
X39756054Y-43403900D01*
X39663224Y-43179788D01*
X39541936Y-42969711D01*
X39394265Y-42777262D01*
X39394260Y-42777256D01*
X39222743Y-42605739D01*
X39222736Y-42605733D01*
X39048514Y-42472048D01*
X39007311Y-42415620D01*
X39000000Y-42373672D01*
X39000000Y-41124000D01*
X39019685Y-41056961D01*
X39072489Y-41011206D01*
X39124000Y-41000000D01*
X41876000Y-41000000D01*
X41943039Y-41019685D01*
G37*
%TD.AperFunction*%
%TA.AperFunction,NonConductor*%
G36*
X35943039Y-41019685D02*
G01*
X35988794Y-41072489D01*
X36000000Y-41124000D01*
X36000000Y-43876000D01*
X35980315Y-43943039D01*
X35927511Y-43988794D01*
X35876000Y-44000000D01*
X33124000Y-44000000D01*
X33056961Y-43980315D01*
X33011206Y-43927511D01*
X33000000Y-43876000D01*
X33000000Y-41124000D01*
X33019685Y-41056961D01*
X33072489Y-41011206D01*
X33124000Y-41000000D01*
X35876000Y-41000000D01*
X35943039Y-41019685D01*
G37*
%TD.AperFunction*%
%TA.AperFunction,NonConductor*%
G36*
X134943039Y-44019685D02*
G01*
X134988794Y-44072489D01*
X135000000Y-44124000D01*
X135000000Y-46876000D01*
X134980315Y-46943039D01*
X134927511Y-46988794D01*
X134876000Y-47000000D01*
X132124000Y-47000000D01*
X132056961Y-46980315D01*
X132011206Y-46927511D01*
X132000000Y-46876000D01*
X132000000Y-45974500D01*
X132019685Y-45907461D01*
X132072489Y-45861706D01*
X132117314Y-45851954D01*
X132117237Y-45850766D01*
X132121282Y-45850500D01*
X132121288Y-45850500D01*
X132361789Y-45818838D01*
X132596100Y-45756054D01*
X132820212Y-45663224D01*
X133030289Y-45541936D01*
X133222738Y-45394265D01*
X133394265Y-45222738D01*
X133541936Y-45030289D01*
X133663224Y-44820212D01*
X133756054Y-44596100D01*
X133818838Y-44361789D01*
X133850500Y-44121288D01*
X133850500Y-44121282D01*
X133850766Y-44117237D01*
X133852453Y-44117347D01*
X133870185Y-44056961D01*
X133922989Y-44011206D01*
X133974500Y-44000000D01*
X134876000Y-44000000D01*
X134943039Y-44019685D01*
G37*
%TD.AperFunction*%
%TA.AperFunction,NonConductor*%
G36*
X128943039Y-44019685D02*
G01*
X128988794Y-44072489D01*
X129000000Y-44124000D01*
X129000000Y-46876000D01*
X128980315Y-46943039D01*
X128927511Y-46988794D01*
X128876000Y-47000000D01*
X126124000Y-47000000D01*
X126056961Y-46980315D01*
X126011206Y-46927511D01*
X126000000Y-46876000D01*
X126000000Y-44124000D01*
X126019685Y-44056961D01*
X126072489Y-44011206D01*
X126124000Y-44000000D01*
X128876000Y-44000000D01*
X128943039Y-44019685D01*
G37*
%TD.AperFunction*%
%TA.AperFunction,NonConductor*%
G36*
X121275039Y-44019685D02*
G01*
X121320794Y-44072489D01*
X121332000Y-44124000D01*
X121332000Y-46876000D01*
X121312315Y-46943039D01*
X121259511Y-46988794D01*
X121208000Y-47000000D01*
X120124000Y-47000000D01*
X120056961Y-46980315D01*
X120011206Y-46927511D01*
X120000000Y-46876000D01*
X120000000Y-44124000D01*
X120019685Y-44056961D01*
X120072489Y-44011206D01*
X120124000Y-44000000D01*
X121208000Y-44000000D01*
X121275039Y-44019685D01*
G37*
%TD.AperFunction*%
%TA.AperFunction,NonConductor*%
G36*
X116943039Y-44019685D02*
G01*
X116988794Y-44072489D01*
X117000000Y-44124000D01*
X117000000Y-46876000D01*
X116980315Y-46943039D01*
X116927511Y-46988794D01*
X116876000Y-47000000D01*
X114124000Y-47000000D01*
X114056961Y-46980315D01*
X114011206Y-46927511D01*
X114000000Y-46876000D01*
X114000000Y-44124000D01*
X114019685Y-44056961D01*
X114072489Y-44011206D01*
X114124000Y-44000000D01*
X116876000Y-44000000D01*
X116943039Y-44019685D01*
G37*
%TD.AperFunction*%
%TA.AperFunction,NonConductor*%
G36*
X110943039Y-44019685D02*
G01*
X110988794Y-44072489D01*
X111000000Y-44124000D01*
X111000000Y-46876000D01*
X110980315Y-46943039D01*
X110927511Y-46988794D01*
X110876000Y-47000000D01*
X110057000Y-47000000D01*
X109989961Y-46980315D01*
X109944206Y-46927511D01*
X109933000Y-46876000D01*
X109933000Y-44124000D01*
X109952685Y-44056961D01*
X110005489Y-44011206D01*
X110057000Y-44000000D01*
X110876000Y-44000000D01*
X110943039Y-44019685D01*
G37*
%TD.AperFunction*%
%TA.AperFunction,NonConductor*%
G36*
X102225039Y-44019685D02*
G01*
X102270794Y-44072489D01*
X102282000Y-44124000D01*
X102282000Y-46876000D01*
X102262315Y-46943039D01*
X102209511Y-46988794D01*
X102158000Y-47000000D01*
X102124000Y-47000000D01*
X102056961Y-46980315D01*
X102011206Y-46927511D01*
X102000000Y-46876000D01*
X102000000Y-44124000D01*
X102019685Y-44056961D01*
X102072489Y-44011206D01*
X102124000Y-44000000D01*
X102158000Y-44000000D01*
X102225039Y-44019685D01*
G37*
%TD.AperFunction*%
%TA.AperFunction,NonConductor*%
G36*
X98943039Y-44019685D02*
G01*
X98988794Y-44072489D01*
X99000000Y-44124000D01*
X99000000Y-46876000D01*
X98980315Y-46943039D01*
X98927511Y-46988794D01*
X98876000Y-47000000D01*
X96124000Y-47000000D01*
X96056961Y-46980315D01*
X96011206Y-46927511D01*
X96000000Y-46876000D01*
X96000000Y-44124000D01*
X96019685Y-44056961D01*
X96072489Y-44011206D01*
X96124000Y-44000000D01*
X98876000Y-44000000D01*
X98943039Y-44019685D01*
G37*
%TD.AperFunction*%
%TA.AperFunction,NonConductor*%
G36*
X92943039Y-44019685D02*
G01*
X92988794Y-44072489D01*
X93000000Y-44124000D01*
X93000000Y-46876000D01*
X92980315Y-46943039D01*
X92927511Y-46988794D01*
X92876000Y-47000000D01*
X91007000Y-47000000D01*
X90939961Y-46980315D01*
X90894206Y-46927511D01*
X90883000Y-46876000D01*
X90883000Y-44124000D01*
X90902685Y-44056961D01*
X90955489Y-44011206D01*
X91007000Y-44000000D01*
X92876000Y-44000000D01*
X92943039Y-44019685D01*
G37*
%TD.AperFunction*%
%TA.AperFunction,NonConductor*%
G36*
X86943039Y-44019685D02*
G01*
X86988794Y-44072489D01*
X87000000Y-44124000D01*
X87000000Y-46876000D01*
X86980315Y-46943039D01*
X86927511Y-46988794D01*
X86876000Y-47000000D01*
X85857000Y-47000000D01*
X85789961Y-46980315D01*
X85744206Y-46927511D01*
X85733000Y-46876000D01*
X85733000Y-44124000D01*
X85752685Y-44056961D01*
X85805489Y-44011206D01*
X85857000Y-44000000D01*
X86876000Y-44000000D01*
X86943039Y-44019685D01*
G37*
%TD.AperFunction*%
%TA.AperFunction,NonConductor*%
G36*
X80943039Y-44019685D02*
G01*
X80988794Y-44072489D01*
X81000000Y-44124000D01*
X81000000Y-46876000D01*
X80980315Y-46943039D01*
X80927511Y-46988794D01*
X80876000Y-47000000D01*
X78124000Y-47000000D01*
X78056961Y-46980315D01*
X78011206Y-46927511D01*
X78000000Y-46876000D01*
X78000000Y-44124000D01*
X78019685Y-44056961D01*
X78072489Y-44011206D01*
X78124000Y-44000000D01*
X80876000Y-44000000D01*
X80943039Y-44019685D01*
G37*
%TD.AperFunction*%
%TA.AperFunction,NonConductor*%
G36*
X74943039Y-44019685D02*
G01*
X74988794Y-44072489D01*
X75000000Y-44124000D01*
X75000000Y-46876000D01*
X74980315Y-46943039D01*
X74927511Y-46988794D01*
X74876000Y-47000000D01*
X72124000Y-47000000D01*
X72056961Y-46980315D01*
X72011206Y-46927511D01*
X72000000Y-46876000D01*
X72000000Y-44124000D01*
X72019685Y-44056961D01*
X72072489Y-44011206D01*
X72124000Y-44000000D01*
X74876000Y-44000000D01*
X74943039Y-44019685D01*
G37*
%TD.AperFunction*%
%TA.AperFunction,NonConductor*%
G36*
X68943039Y-44019685D02*
G01*
X68988794Y-44072489D01*
X69000000Y-44124000D01*
X69000000Y-46876000D01*
X68980315Y-46943039D01*
X68927511Y-46988794D01*
X68876000Y-47000000D01*
X66124000Y-47000000D01*
X66056961Y-46980315D01*
X66011206Y-46927511D01*
X66000000Y-46876000D01*
X66000000Y-44124000D01*
X66019685Y-44056961D01*
X66072489Y-44011206D01*
X66124000Y-44000000D01*
X68876000Y-44000000D01*
X68943039Y-44019685D01*
G37*
%TD.AperFunction*%
%TA.AperFunction,NonConductor*%
G36*
X43442539Y-44019685D02*
G01*
X43488294Y-44072489D01*
X43499500Y-44124000D01*
X43499500Y-46876000D01*
X43479815Y-46943039D01*
X43427011Y-46988794D01*
X43375500Y-47000000D01*
X42124000Y-47000000D01*
X42056961Y-46980315D01*
X42011206Y-46927511D01*
X42000000Y-46876000D01*
X42000000Y-44124000D01*
X42019685Y-44056961D01*
X42072489Y-44011206D01*
X42124000Y-44000000D01*
X43375500Y-44000000D01*
X43442539Y-44019685D01*
G37*
%TD.AperFunction*%
%TA.AperFunction,NonConductor*%
G36*
X36205203Y-44533841D02*
G01*
X36242977Y-44592619D01*
X36243761Y-44595410D01*
X36243946Y-44596100D01*
X36243948Y-44596106D01*
X36336773Y-44820205D01*
X36336776Y-44820212D01*
X36458064Y-45030289D01*
X36458066Y-45030292D01*
X36458067Y-45030293D01*
X36605733Y-45222736D01*
X36605739Y-45222743D01*
X36777256Y-45394260D01*
X36777262Y-45394265D01*
X36969711Y-45541936D01*
X37179788Y-45663224D01*
X37403900Y-45756054D01*
X37638211Y-45818838D01*
X37818586Y-45842584D01*
X37878711Y-45850500D01*
X37878712Y-45850500D01*
X38121289Y-45850500D01*
X38169388Y-45844167D01*
X38361789Y-45818838D01*
X38596100Y-45756054D01*
X38820212Y-45663224D01*
X38820223Y-45663217D01*
X38821138Y-45662767D01*
X38821445Y-45662713D01*
X38823962Y-45661671D01*
X38824195Y-45662233D01*
X38889968Y-45650759D01*
X38954364Y-45677870D01*
X38993879Y-45735492D01*
X39000000Y-45773970D01*
X39000000Y-46876000D01*
X38980315Y-46943039D01*
X38927511Y-46988794D01*
X38876000Y-47000000D01*
X36124000Y-47000000D01*
X36056961Y-46980315D01*
X36011206Y-46927511D01*
X36000000Y-46876000D01*
X36000000Y-44627554D01*
X36019685Y-44560515D01*
X36072489Y-44514760D01*
X36141647Y-44504816D01*
X36205203Y-44533841D01*
G37*
%TD.AperFunction*%
%TA.AperFunction,NonConductor*%
G36*
X32943039Y-44019685D02*
G01*
X32988794Y-44072489D01*
X33000000Y-44124000D01*
X33000000Y-46876000D01*
X32980315Y-46943039D01*
X32927511Y-46988794D01*
X32876000Y-47000000D01*
X32624500Y-47000000D01*
X32557461Y-46980315D01*
X32511706Y-46927511D01*
X32500500Y-46876000D01*
X32500500Y-44124000D01*
X32520185Y-44056961D01*
X32572989Y-44011206D01*
X32624500Y-44000000D01*
X32876000Y-44000000D01*
X32943039Y-44019685D01*
G37*
%TD.AperFunction*%
%TA.AperFunction,NonConductor*%
G36*
X137454915Y-47019685D02*
G01*
X137500670Y-47072489D01*
X137511876Y-47124000D01*
X137511876Y-49876000D01*
X137492191Y-49943039D01*
X137439387Y-49988794D01*
X137387876Y-50000000D01*
X135124000Y-50000000D01*
X135056961Y-49980315D01*
X135011206Y-49927511D01*
X135000000Y-49876000D01*
X135000000Y-47124000D01*
X135019685Y-47056961D01*
X135072489Y-47011206D01*
X135124000Y-47000000D01*
X137387876Y-47000000D01*
X137454915Y-47019685D01*
G37*
%TD.AperFunction*%
%TA.AperFunction,NonConductor*%
G36*
X131943039Y-47019685D02*
G01*
X131988794Y-47072489D01*
X132000000Y-47124000D01*
X132000000Y-49876000D01*
X131980315Y-49943039D01*
X131927511Y-49988794D01*
X131876000Y-50000000D01*
X129124000Y-50000000D01*
X129056961Y-49980315D01*
X129011206Y-49927511D01*
X129000000Y-49876000D01*
X129000000Y-47124000D01*
X129019685Y-47056961D01*
X129072489Y-47011206D01*
X129124000Y-47000000D01*
X131876000Y-47000000D01*
X131943039Y-47019685D01*
G37*
%TD.AperFunction*%
%TA.AperFunction,NonConductor*%
G36*
X125943039Y-47019685D02*
G01*
X125988794Y-47072489D01*
X126000000Y-47124000D01*
X126000000Y-49876000D01*
X125980315Y-49943039D01*
X125927511Y-49988794D01*
X125876000Y-50000000D01*
X123957000Y-50000000D01*
X123889961Y-49980315D01*
X123844206Y-49927511D01*
X123833000Y-49876000D01*
X123833000Y-47124000D01*
X123852685Y-47056961D01*
X123905489Y-47011206D01*
X123957000Y-47000000D01*
X125876000Y-47000000D01*
X125943039Y-47019685D01*
G37*
%TD.AperFunction*%
%TA.AperFunction,NonConductor*%
G36*
X119943039Y-47019685D02*
G01*
X119988794Y-47072489D01*
X120000000Y-47124000D01*
X120000000Y-49876000D01*
X119980315Y-49943039D01*
X119927511Y-49988794D01*
X119876000Y-50000000D01*
X117124000Y-50000000D01*
X117056961Y-49980315D01*
X117011206Y-49927511D01*
X117000000Y-49876000D01*
X117000000Y-47124000D01*
X117019685Y-47056961D01*
X117072489Y-47011206D01*
X117124000Y-47000000D01*
X119876000Y-47000000D01*
X119943039Y-47019685D01*
G37*
%TD.AperFunction*%
%TA.AperFunction,NonConductor*%
G36*
X113943039Y-47019685D02*
G01*
X113988794Y-47072489D01*
X114000000Y-47124000D01*
X114000000Y-49876000D01*
X113980315Y-49943039D01*
X113927511Y-49988794D01*
X113876000Y-50000000D01*
X111124000Y-50000000D01*
X111056961Y-49980315D01*
X111011206Y-49927511D01*
X111000000Y-49876000D01*
X111000000Y-47124000D01*
X111019685Y-47056961D01*
X111072489Y-47011206D01*
X111124000Y-47000000D01*
X113876000Y-47000000D01*
X113943039Y-47019685D01*
G37*
%TD.AperFunction*%
%TA.AperFunction,NonConductor*%
G36*
X107375039Y-47019685D02*
G01*
X107420794Y-47072489D01*
X107432000Y-47124000D01*
X107432000Y-49876000D01*
X107412315Y-49943039D01*
X107359511Y-49988794D01*
X107308000Y-50000000D01*
X105124000Y-50000000D01*
X105056961Y-49980315D01*
X105011206Y-49927511D01*
X105000000Y-49876000D01*
X105000000Y-47124000D01*
X105019685Y-47056961D01*
X105072489Y-47011206D01*
X105124000Y-47000000D01*
X107308000Y-47000000D01*
X107375039Y-47019685D01*
G37*
%TD.AperFunction*%
%TA.AperFunction,NonConductor*%
G36*
X101943039Y-47019685D02*
G01*
X101988794Y-47072489D01*
X102000000Y-47124000D01*
X102000000Y-49876000D01*
X101980315Y-49943039D01*
X101927511Y-49988794D01*
X101876000Y-50000000D01*
X99124000Y-50000000D01*
X99056961Y-49980315D01*
X99011206Y-49927511D01*
X99000000Y-49876000D01*
X99000000Y-47124000D01*
X99019685Y-47056961D01*
X99072489Y-47011206D01*
X99124000Y-47000000D01*
X101876000Y-47000000D01*
X101943039Y-47019685D01*
G37*
%TD.AperFunction*%
%TA.AperFunction,NonConductor*%
G36*
X95943039Y-47019685D02*
G01*
X95988794Y-47072489D01*
X96000000Y-47124000D01*
X96000000Y-49876000D01*
X95980315Y-49943039D01*
X95927511Y-49988794D01*
X95876000Y-50000000D01*
X93124000Y-50000000D01*
X93056961Y-49980315D01*
X93011206Y-49927511D01*
X93000000Y-49876000D01*
X93000000Y-47124000D01*
X93019685Y-47056961D01*
X93072489Y-47011206D01*
X93124000Y-47000000D01*
X95876000Y-47000000D01*
X95943039Y-47019685D01*
G37*
%TD.AperFunction*%
%TA.AperFunction,NonConductor*%
G36*
X88325039Y-47019685D02*
G01*
X88370794Y-47072489D01*
X88382000Y-47124000D01*
X88382000Y-49876000D01*
X88362315Y-49943039D01*
X88309511Y-49988794D01*
X88258000Y-50000000D01*
X87124000Y-50000000D01*
X87056961Y-49980315D01*
X87011206Y-49927511D01*
X87000000Y-49876000D01*
X87000000Y-47124000D01*
X87019685Y-47056961D01*
X87072489Y-47011206D01*
X87124000Y-47000000D01*
X88258000Y-47000000D01*
X88325039Y-47019685D01*
G37*
%TD.AperFunction*%
%TA.AperFunction,NonConductor*%
G36*
X83175039Y-47019685D02*
G01*
X83220794Y-47072489D01*
X83232000Y-47124000D01*
X83232000Y-49876000D01*
X83212315Y-49943039D01*
X83159511Y-49988794D01*
X83108000Y-50000000D01*
X81124000Y-50000000D01*
X81056961Y-49980315D01*
X81011206Y-49927511D01*
X81000000Y-49876000D01*
X81000000Y-47124000D01*
X81019685Y-47056961D01*
X81072489Y-47011206D01*
X81124000Y-47000000D01*
X83108000Y-47000000D01*
X83175039Y-47019685D01*
G37*
%TD.AperFunction*%
%TA.AperFunction,NonConductor*%
G36*
X77943039Y-47019685D02*
G01*
X77988794Y-47072489D01*
X78000000Y-47124000D01*
X78000000Y-49876000D01*
X77980315Y-49943039D01*
X77927511Y-49988794D01*
X77876000Y-50000000D01*
X75124000Y-50000000D01*
X75056961Y-49980315D01*
X75011206Y-49927511D01*
X75000000Y-49876000D01*
X75000000Y-47124000D01*
X75019685Y-47056961D01*
X75072489Y-47011206D01*
X75124000Y-47000000D01*
X77876000Y-47000000D01*
X77943039Y-47019685D01*
G37*
%TD.AperFunction*%
%TA.AperFunction,NonConductor*%
G36*
X69275039Y-47019685D02*
G01*
X69320794Y-47072489D01*
X69332000Y-47124000D01*
X69332000Y-49876000D01*
X69312315Y-49943039D01*
X69259511Y-49988794D01*
X69208000Y-50000000D01*
X69124000Y-50000000D01*
X69056961Y-49980315D01*
X69011206Y-49927511D01*
X69000000Y-49876000D01*
X69000000Y-47124000D01*
X69019685Y-47056961D01*
X69072489Y-47011206D01*
X69124000Y-47000000D01*
X69208000Y-47000000D01*
X69275039Y-47019685D01*
G37*
%TD.AperFunction*%
%TA.AperFunction,NonConductor*%
G36*
X65943039Y-47019685D02*
G01*
X65988794Y-47072489D01*
X66000000Y-47124000D01*
X66000000Y-49876000D01*
X65980315Y-49943039D01*
X65927511Y-49988794D01*
X65876000Y-50000000D01*
X64624500Y-50000000D01*
X64557461Y-49980315D01*
X64511706Y-49927511D01*
X64500500Y-49876000D01*
X64500500Y-47124000D01*
X64520185Y-47056961D01*
X64572989Y-47011206D01*
X64624500Y-47000000D01*
X65876000Y-47000000D01*
X65943039Y-47019685D01*
G37*
%TD.AperFunction*%
%TA.AperFunction,NonConductor*%
G36*
X41943039Y-47019685D02*
G01*
X41988794Y-47072489D01*
X42000000Y-47124000D01*
X42000000Y-49876000D01*
X41980315Y-49943039D01*
X41927511Y-49988794D01*
X41876000Y-50000000D01*
X39124000Y-50000000D01*
X39056961Y-49980315D01*
X39011206Y-49927511D01*
X39000000Y-49876000D01*
X39000000Y-47124000D01*
X39019685Y-47056961D01*
X39072489Y-47011206D01*
X39124000Y-47000000D01*
X41876000Y-47000000D01*
X41943039Y-47019685D01*
G37*
%TD.AperFunction*%
%TA.AperFunction,NonConductor*%
G36*
X35943039Y-47019685D02*
G01*
X35988794Y-47072489D01*
X36000000Y-47124000D01*
X36000000Y-49876000D01*
X35980315Y-49943039D01*
X35927511Y-49988794D01*
X35876000Y-50000000D01*
X33124000Y-50000000D01*
X33056961Y-49980315D01*
X33011206Y-49927511D01*
X33000000Y-49876000D01*
X33000000Y-47124000D01*
X33019685Y-47056961D01*
X33072489Y-47011206D01*
X33124000Y-47000000D01*
X35876000Y-47000000D01*
X35943039Y-47019685D01*
G37*
%TD.AperFunction*%
%TA.AperFunction,NonConductor*%
G36*
X134943039Y-50019685D02*
G01*
X134988794Y-50072489D01*
X135000000Y-50124000D01*
X135000000Y-52876000D01*
X134980315Y-52943039D01*
X134927511Y-52988794D01*
X134876000Y-53000000D01*
X132124000Y-53000000D01*
X132056961Y-52980315D01*
X132011206Y-52927511D01*
X132000000Y-52876000D01*
X132000000Y-50124000D01*
X132019685Y-50056961D01*
X132072489Y-50011206D01*
X132124000Y-50000000D01*
X134876000Y-50000000D01*
X134943039Y-50019685D01*
G37*
%TD.AperFunction*%
%TA.AperFunction,NonConductor*%
G36*
X128943039Y-50019685D02*
G01*
X128988794Y-50072489D01*
X129000000Y-50124000D01*
X129000000Y-52876000D01*
X128980315Y-52943039D01*
X128927511Y-52988794D01*
X128876000Y-53000000D01*
X126124000Y-53000000D01*
X126056961Y-52980315D01*
X126011206Y-52927511D01*
X126000000Y-52876000D01*
X126000000Y-50124000D01*
X126019685Y-50056961D01*
X126072489Y-50011206D01*
X126124000Y-50000000D01*
X128876000Y-50000000D01*
X128943039Y-50019685D01*
G37*
%TD.AperFunction*%
%TA.AperFunction,NonConductor*%
G36*
X121275039Y-50019685D02*
G01*
X121320794Y-50072489D01*
X121332000Y-50124000D01*
X121332000Y-52876000D01*
X121312315Y-52943039D01*
X121259511Y-52988794D01*
X121208000Y-53000000D01*
X120124000Y-53000000D01*
X120056961Y-52980315D01*
X120011206Y-52927511D01*
X120000000Y-52876000D01*
X120000000Y-50124000D01*
X120019685Y-50056961D01*
X120072489Y-50011206D01*
X120124000Y-50000000D01*
X121208000Y-50000000D01*
X121275039Y-50019685D01*
G37*
%TD.AperFunction*%
%TA.AperFunction,NonConductor*%
G36*
X116943039Y-50019685D02*
G01*
X116988794Y-50072489D01*
X117000000Y-50124000D01*
X117000000Y-52876000D01*
X116980315Y-52943039D01*
X116927511Y-52988794D01*
X116876000Y-53000000D01*
X114124000Y-53000000D01*
X114056961Y-52980315D01*
X114011206Y-52927511D01*
X114000000Y-52876000D01*
X114000000Y-50124000D01*
X114019685Y-50056961D01*
X114072489Y-50011206D01*
X114124000Y-50000000D01*
X116876000Y-50000000D01*
X116943039Y-50019685D01*
G37*
%TD.AperFunction*%
%TA.AperFunction,NonConductor*%
G36*
X110943039Y-50019685D02*
G01*
X110988794Y-50072489D01*
X111000000Y-50124000D01*
X111000000Y-52876000D01*
X110980315Y-52943039D01*
X110927511Y-52988794D01*
X110876000Y-53000000D01*
X110057000Y-53000000D01*
X109989961Y-52980315D01*
X109944206Y-52927511D01*
X109933000Y-52876000D01*
X109933000Y-50124000D01*
X109952685Y-50056961D01*
X110005489Y-50011206D01*
X110057000Y-50000000D01*
X110876000Y-50000000D01*
X110943039Y-50019685D01*
G37*
%TD.AperFunction*%
%TA.AperFunction,NonConductor*%
G36*
X102225039Y-50019685D02*
G01*
X102270794Y-50072489D01*
X102282000Y-50124000D01*
X102282000Y-52876000D01*
X102262315Y-52943039D01*
X102209511Y-52988794D01*
X102158000Y-53000000D01*
X102124000Y-53000000D01*
X102056961Y-52980315D01*
X102011206Y-52927511D01*
X102000000Y-52876000D01*
X102000000Y-50124000D01*
X102019685Y-50056961D01*
X102072489Y-50011206D01*
X102124000Y-50000000D01*
X102158000Y-50000000D01*
X102225039Y-50019685D01*
G37*
%TD.AperFunction*%
%TA.AperFunction,NonConductor*%
G36*
X98943039Y-50019685D02*
G01*
X98988794Y-50072489D01*
X99000000Y-50124000D01*
X99000000Y-52876000D01*
X98980315Y-52943039D01*
X98927511Y-52988794D01*
X98876000Y-53000000D01*
X96124000Y-53000000D01*
X96056961Y-52980315D01*
X96011206Y-52927511D01*
X96000000Y-52876000D01*
X96000000Y-50124000D01*
X96019685Y-50056961D01*
X96072489Y-50011206D01*
X96124000Y-50000000D01*
X98876000Y-50000000D01*
X98943039Y-50019685D01*
G37*
%TD.AperFunction*%
%TA.AperFunction,NonConductor*%
G36*
X92943039Y-50019685D02*
G01*
X92988794Y-50072489D01*
X93000000Y-50124000D01*
X93000000Y-52876000D01*
X92980315Y-52943039D01*
X92927511Y-52988794D01*
X92876000Y-53000000D01*
X91007000Y-53000000D01*
X90939961Y-52980315D01*
X90894206Y-52927511D01*
X90883000Y-52876000D01*
X90883000Y-50124000D01*
X90902685Y-50056961D01*
X90955489Y-50011206D01*
X91007000Y-50000000D01*
X92876000Y-50000000D01*
X92943039Y-50019685D01*
G37*
%TD.AperFunction*%
%TA.AperFunction,NonConductor*%
G36*
X86943039Y-50019685D02*
G01*
X86988794Y-50072489D01*
X87000000Y-50124000D01*
X87000000Y-52876000D01*
X86980315Y-52943039D01*
X86927511Y-52988794D01*
X86876000Y-53000000D01*
X85857000Y-53000000D01*
X85789961Y-52980315D01*
X85744206Y-52927511D01*
X85733000Y-52876000D01*
X85733000Y-50124000D01*
X85752685Y-50056961D01*
X85805489Y-50011206D01*
X85857000Y-50000000D01*
X86876000Y-50000000D01*
X86943039Y-50019685D01*
G37*
%TD.AperFunction*%
%TA.AperFunction,NonConductor*%
G36*
X80943039Y-50019685D02*
G01*
X80988794Y-50072489D01*
X81000000Y-50124000D01*
X81000000Y-52876000D01*
X80980315Y-52943039D01*
X80927511Y-52988794D01*
X80876000Y-53000000D01*
X78124000Y-53000000D01*
X78056961Y-52980315D01*
X78011206Y-52927511D01*
X78000000Y-52876000D01*
X78000000Y-50124000D01*
X78019685Y-50056961D01*
X78072489Y-50011206D01*
X78124000Y-50000000D01*
X80876000Y-50000000D01*
X80943039Y-50019685D01*
G37*
%TD.AperFunction*%
%TA.AperFunction,NonConductor*%
G36*
X74943039Y-50019685D02*
G01*
X74988794Y-50072489D01*
X75000000Y-50124000D01*
X75000000Y-52876000D01*
X74980315Y-52943039D01*
X74927511Y-52988794D01*
X74876000Y-53000000D01*
X72124000Y-53000000D01*
X72056961Y-52980315D01*
X72011206Y-52927511D01*
X72000000Y-52876000D01*
X72000000Y-50124000D01*
X72019685Y-50056961D01*
X72072489Y-50011206D01*
X72124000Y-50000000D01*
X74876000Y-50000000D01*
X74943039Y-50019685D01*
G37*
%TD.AperFunction*%
%TA.AperFunction,NonConductor*%
G36*
X68943039Y-50019685D02*
G01*
X68988794Y-50072489D01*
X69000000Y-50124000D01*
X69000000Y-52876000D01*
X68980315Y-52943039D01*
X68927511Y-52988794D01*
X68876000Y-53000000D01*
X66124000Y-53000000D01*
X66056961Y-52980315D01*
X66011206Y-52927511D01*
X66000000Y-52876000D01*
X66000000Y-50124000D01*
X66019685Y-50056961D01*
X66072489Y-50011206D01*
X66124000Y-50000000D01*
X68876000Y-50000000D01*
X68943039Y-50019685D01*
G37*
%TD.AperFunction*%
%TA.AperFunction,NonConductor*%
G36*
X43442539Y-50019685D02*
G01*
X43488294Y-50072489D01*
X43499500Y-50124000D01*
X43499500Y-52876000D01*
X43479815Y-52943039D01*
X43427011Y-52988794D01*
X43375500Y-53000000D01*
X42124000Y-53000000D01*
X42056961Y-52980315D01*
X42011206Y-52927511D01*
X42000000Y-52876000D01*
X42000000Y-50124000D01*
X42019685Y-50056961D01*
X42072489Y-50011206D01*
X42124000Y-50000000D01*
X43375500Y-50000000D01*
X43442539Y-50019685D01*
G37*
%TD.AperFunction*%
%TA.AperFunction,NonConductor*%
G36*
X38943039Y-50019685D02*
G01*
X38988794Y-50072489D01*
X39000000Y-50124000D01*
X39000000Y-52876000D01*
X38980315Y-52943039D01*
X38927511Y-52988794D01*
X38876000Y-53000000D01*
X36124000Y-53000000D01*
X36056961Y-52980315D01*
X36011206Y-52927511D01*
X36000000Y-52876000D01*
X36000000Y-50124000D01*
X36019685Y-50056961D01*
X36072489Y-50011206D01*
X36124000Y-50000000D01*
X38876000Y-50000000D01*
X38943039Y-50019685D01*
G37*
%TD.AperFunction*%
%TA.AperFunction,NonConductor*%
G36*
X32943039Y-50019685D02*
G01*
X32988794Y-50072489D01*
X33000000Y-50124000D01*
X33000000Y-52876000D01*
X32980315Y-52943039D01*
X32927511Y-52988794D01*
X32876000Y-53000000D01*
X32624500Y-53000000D01*
X32557461Y-52980315D01*
X32511706Y-52927511D01*
X32500500Y-52876000D01*
X32500500Y-50124000D01*
X32520185Y-50056961D01*
X32572989Y-50011206D01*
X32624500Y-50000000D01*
X32876000Y-50000000D01*
X32943039Y-50019685D01*
G37*
%TD.AperFunction*%
%TA.AperFunction,NonConductor*%
G36*
X119943039Y-53019685D02*
G01*
X119988794Y-53072489D01*
X120000000Y-53124000D01*
X120000000Y-54525500D01*
X119980315Y-54592539D01*
X119927511Y-54638294D01*
X119876000Y-54649500D01*
X117124000Y-54649500D01*
X117056961Y-54629815D01*
X117011206Y-54577011D01*
X117000000Y-54525500D01*
X117000000Y-53124000D01*
X117019685Y-53056961D01*
X117072489Y-53011206D01*
X117124000Y-53000000D01*
X119876000Y-53000000D01*
X119943039Y-53019685D01*
G37*
%TD.AperFunction*%
%TA.AperFunction,NonConductor*%
G36*
X113943039Y-53019685D02*
G01*
X113988794Y-53072489D01*
X114000000Y-53124000D01*
X114000000Y-54525500D01*
X113980315Y-54592539D01*
X113927511Y-54638294D01*
X113876000Y-54649500D01*
X111124000Y-54649500D01*
X111056961Y-54629815D01*
X111011206Y-54577011D01*
X111000000Y-54525500D01*
X111000000Y-53124000D01*
X111019685Y-53056961D01*
X111072489Y-53011206D01*
X111124000Y-53000000D01*
X113876000Y-53000000D01*
X113943039Y-53019685D01*
G37*
%TD.AperFunction*%
%TA.AperFunction,NonConductor*%
G36*
X101943039Y-53019685D02*
G01*
X101988794Y-53072489D01*
X102000000Y-53124000D01*
X102000000Y-54525500D01*
X101980315Y-54592539D01*
X101927511Y-54638294D01*
X101876000Y-54649500D01*
X99124000Y-54649500D01*
X99056961Y-54629815D01*
X99011206Y-54577011D01*
X99000000Y-54525500D01*
X99000000Y-53124000D01*
X99019685Y-53056961D01*
X99072489Y-53011206D01*
X99124000Y-53000000D01*
X101876000Y-53000000D01*
X101943039Y-53019685D01*
G37*
%TD.AperFunction*%
%TA.AperFunction,NonConductor*%
G36*
X95943039Y-53019685D02*
G01*
X95988794Y-53072489D01*
X96000000Y-53124000D01*
X96000000Y-54525500D01*
X95980315Y-54592539D01*
X95927511Y-54638294D01*
X95876000Y-54649500D01*
X93124000Y-54649500D01*
X93056961Y-54629815D01*
X93011206Y-54577011D01*
X93000000Y-54525500D01*
X93000000Y-53124000D01*
X93019685Y-53056961D01*
X93072489Y-53011206D01*
X93124000Y-53000000D01*
X95876000Y-53000000D01*
X95943039Y-53019685D01*
G37*
%TD.AperFunction*%
%TA.AperFunction,NonConductor*%
G36*
X83175039Y-53019685D02*
G01*
X83220794Y-53072489D01*
X83232000Y-53124000D01*
X83232000Y-54525500D01*
X83212315Y-54592539D01*
X83159511Y-54638294D01*
X83108000Y-54649500D01*
X81124000Y-54649500D01*
X81056961Y-54629815D01*
X81011206Y-54577011D01*
X81000000Y-54525500D01*
X81000000Y-53124000D01*
X81019685Y-53056961D01*
X81072489Y-53011206D01*
X81124000Y-53000000D01*
X83108000Y-53000000D01*
X83175039Y-53019685D01*
G37*
%TD.AperFunction*%
%TA.AperFunction,NonConductor*%
G36*
X77943039Y-53019685D02*
G01*
X77988794Y-53072489D01*
X78000000Y-53124000D01*
X78000000Y-54525500D01*
X77980315Y-54592539D01*
X77927511Y-54638294D01*
X77876000Y-54649500D01*
X75124000Y-54649500D01*
X75056961Y-54629815D01*
X75011206Y-54577011D01*
X75000000Y-54525500D01*
X75000000Y-53124000D01*
X75019685Y-53056961D01*
X75072489Y-53011206D01*
X75124000Y-53000000D01*
X77876000Y-53000000D01*
X77943039Y-53019685D01*
G37*
%TD.AperFunction*%
%TA.AperFunction,NonConductor*%
G36*
X137454915Y-53019685D02*
G01*
X137500670Y-53072489D01*
X137511876Y-53124000D01*
X137511876Y-55876000D01*
X137492191Y-55943039D01*
X137439387Y-55988794D01*
X137387876Y-56000000D01*
X135124000Y-56000000D01*
X135056961Y-55980315D01*
X135011206Y-55927511D01*
X135000000Y-55876000D01*
X135000000Y-53124000D01*
X135019685Y-53056961D01*
X135072489Y-53011206D01*
X135124000Y-53000000D01*
X137387876Y-53000000D01*
X137454915Y-53019685D01*
G37*
%TD.AperFunction*%
%TA.AperFunction,NonConductor*%
G36*
X131943039Y-53019685D02*
G01*
X131988794Y-53072489D01*
X132000000Y-53124000D01*
X132000000Y-55876000D01*
X131980315Y-55943039D01*
X131927511Y-55988794D01*
X131876000Y-56000000D01*
X129124000Y-56000000D01*
X129056961Y-55980315D01*
X129011206Y-55927511D01*
X129000000Y-55876000D01*
X129000000Y-53124000D01*
X129019685Y-53056961D01*
X129072489Y-53011206D01*
X129124000Y-53000000D01*
X131876000Y-53000000D01*
X131943039Y-53019685D01*
G37*
%TD.AperFunction*%
%TA.AperFunction,NonConductor*%
G36*
X125943039Y-53019685D02*
G01*
X125988794Y-53072489D01*
X126000000Y-53124000D01*
X126000000Y-55876000D01*
X125980315Y-55943039D01*
X125927511Y-55988794D01*
X125876000Y-56000000D01*
X123957000Y-56000000D01*
X123889961Y-55980315D01*
X123844206Y-55927511D01*
X123833000Y-55876000D01*
X123833000Y-53124000D01*
X123852685Y-53056961D01*
X123905489Y-53011206D01*
X123957000Y-53000000D01*
X125876000Y-53000000D01*
X125943039Y-53019685D01*
G37*
%TD.AperFunction*%
%TA.AperFunction,NonConductor*%
G36*
X107375039Y-53019685D02*
G01*
X107420794Y-53072489D01*
X107432000Y-53124000D01*
X107432000Y-55876000D01*
X107412315Y-55943039D01*
X107359511Y-55988794D01*
X107308000Y-56000000D01*
X105124000Y-56000000D01*
X105056961Y-55980315D01*
X105011206Y-55927511D01*
X105000000Y-55876000D01*
X105000000Y-53124000D01*
X105019685Y-53056961D01*
X105072489Y-53011206D01*
X105124000Y-53000000D01*
X107308000Y-53000000D01*
X107375039Y-53019685D01*
G37*
%TD.AperFunction*%
%TA.AperFunction,NonConductor*%
G36*
X88325039Y-53019685D02*
G01*
X88370794Y-53072489D01*
X88382000Y-53124000D01*
X88382000Y-55876000D01*
X88362315Y-55943039D01*
X88309511Y-55988794D01*
X88258000Y-56000000D01*
X87124000Y-56000000D01*
X87056961Y-55980315D01*
X87011206Y-55927511D01*
X87000000Y-55876000D01*
X87000000Y-53124000D01*
X87019685Y-53056961D01*
X87072489Y-53011206D01*
X87124000Y-53000000D01*
X88258000Y-53000000D01*
X88325039Y-53019685D01*
G37*
%TD.AperFunction*%
%TA.AperFunction,NonConductor*%
G36*
X69275039Y-53019685D02*
G01*
X69320794Y-53072489D01*
X69332000Y-53124000D01*
X69332000Y-55876000D01*
X69312315Y-55943039D01*
X69259511Y-55988794D01*
X69208000Y-56000000D01*
X69124000Y-56000000D01*
X69056961Y-55980315D01*
X69011206Y-55927511D01*
X69000000Y-55876000D01*
X69000000Y-53124000D01*
X69019685Y-53056961D01*
X69072489Y-53011206D01*
X69124000Y-53000000D01*
X69208000Y-53000000D01*
X69275039Y-53019685D01*
G37*
%TD.AperFunction*%
%TA.AperFunction,NonConductor*%
G36*
X65943039Y-53019685D02*
G01*
X65988794Y-53072489D01*
X66000000Y-53124000D01*
X66000000Y-55876000D01*
X65980315Y-55943039D01*
X65927511Y-55988794D01*
X65876000Y-56000000D01*
X64624500Y-56000000D01*
X64557461Y-55980315D01*
X64511706Y-55927511D01*
X64500500Y-55876000D01*
X64500500Y-53124000D01*
X64520185Y-53056961D01*
X64572989Y-53011206D01*
X64624500Y-53000000D01*
X65876000Y-53000000D01*
X65943039Y-53019685D01*
G37*
%TD.AperFunction*%
%TA.AperFunction,NonConductor*%
G36*
X41943039Y-53019685D02*
G01*
X41988794Y-53072489D01*
X42000000Y-53124000D01*
X42000000Y-55876000D01*
X41980315Y-55943039D01*
X41927511Y-55988794D01*
X41876000Y-56000000D01*
X39124000Y-56000000D01*
X39056961Y-55980315D01*
X39011206Y-55927511D01*
X39000000Y-55876000D01*
X39000000Y-53124000D01*
X39019685Y-53056961D01*
X39072489Y-53011206D01*
X39124000Y-53000000D01*
X41876000Y-53000000D01*
X41943039Y-53019685D01*
G37*
%TD.AperFunction*%
%TA.AperFunction,NonConductor*%
G36*
X35943039Y-53019685D02*
G01*
X35988794Y-53072489D01*
X36000000Y-53124000D01*
X36000000Y-55876000D01*
X35980315Y-55943039D01*
X35927511Y-55988794D01*
X35876000Y-56000000D01*
X33124000Y-56000000D01*
X33056961Y-55980315D01*
X33011206Y-55927511D01*
X33000000Y-55876000D01*
X33000000Y-53124000D01*
X33019685Y-53056961D01*
X33072489Y-53011206D01*
X33124000Y-53000000D01*
X35876000Y-53000000D01*
X35943039Y-53019685D01*
G37*
%TD.AperFunction*%
%TA.AperFunction,NonConductor*%
G36*
X43442539Y-56019685D02*
G01*
X43488294Y-56072489D01*
X43499500Y-56124000D01*
X43499500Y-58764903D01*
X43479815Y-58831942D01*
X43427011Y-58877697D01*
X43375500Y-58888903D01*
X42124000Y-58888903D01*
X42056961Y-58869218D01*
X42011206Y-58816414D01*
X42000000Y-58764903D01*
X42000000Y-56124000D01*
X42019685Y-56056961D01*
X42072489Y-56011206D01*
X42124000Y-56000000D01*
X43375500Y-56000000D01*
X43442539Y-56019685D01*
G37*
%TD.AperFunction*%
%TA.AperFunction,NonConductor*%
G36*
X134943039Y-56019685D02*
G01*
X134988794Y-56072489D01*
X135000000Y-56124000D01*
X135000000Y-58876000D01*
X134980315Y-58943039D01*
X134927511Y-58988794D01*
X134876000Y-59000000D01*
X132124000Y-59000000D01*
X132056961Y-58980315D01*
X132011206Y-58927511D01*
X132000000Y-58876000D01*
X132000000Y-56124000D01*
X132019685Y-56056961D01*
X132072489Y-56011206D01*
X132124000Y-56000000D01*
X134876000Y-56000000D01*
X134943039Y-56019685D01*
G37*
%TD.AperFunction*%
%TA.AperFunction,NonConductor*%
G36*
X128943039Y-56019685D02*
G01*
X128988794Y-56072489D01*
X129000000Y-56124000D01*
X129000000Y-58876000D01*
X128980315Y-58943039D01*
X128927511Y-58988794D01*
X128876000Y-59000000D01*
X126124000Y-59000000D01*
X126056961Y-58980315D01*
X126011206Y-58927511D01*
X126000000Y-58876000D01*
X126000000Y-56124000D01*
X126019685Y-56056961D01*
X126072489Y-56011206D01*
X126124000Y-56000000D01*
X128876000Y-56000000D01*
X128943039Y-56019685D01*
G37*
%TD.AperFunction*%
%TA.AperFunction,NonConductor*%
G36*
X122925895Y-57131628D02*
G01*
X122979347Y-57176624D01*
X122999987Y-57243376D01*
X123000000Y-57245147D01*
X123000000Y-58876000D01*
X122980315Y-58943039D01*
X122927511Y-58988794D01*
X122876000Y-59000000D01*
X120124000Y-59000000D01*
X120056961Y-58980315D01*
X120011206Y-58927511D01*
X120000000Y-58876000D01*
X120000000Y-57274500D01*
X120019685Y-57207461D01*
X120072489Y-57161706D01*
X120124000Y-57150500D01*
X122680921Y-57150500D01*
X122763521Y-57137416D01*
X122856603Y-57122674D01*
X122925895Y-57131628D01*
G37*
%TD.AperFunction*%
%TA.AperFunction,NonConductor*%
G36*
X116943039Y-57170185D02*
G01*
X116988794Y-57222989D01*
X117000000Y-57274500D01*
X117000000Y-58876000D01*
X116980315Y-58943039D01*
X116927511Y-58988794D01*
X116876000Y-59000000D01*
X114124000Y-59000000D01*
X114056961Y-58980315D01*
X114011206Y-58927511D01*
X114000000Y-58876000D01*
X114000000Y-57274500D01*
X114019685Y-57207461D01*
X114072489Y-57161706D01*
X114124000Y-57150500D01*
X116876000Y-57150500D01*
X116943039Y-57170185D01*
G37*
%TD.AperFunction*%
%TA.AperFunction,NonConductor*%
G36*
X108180296Y-57047583D02*
G01*
X108202475Y-57058884D01*
X108345448Y-57105339D01*
X108389673Y-57119709D01*
X108584078Y-57150500D01*
X108584083Y-57150500D01*
X110876000Y-57150500D01*
X110943039Y-57170185D01*
X110988794Y-57222989D01*
X111000000Y-57274500D01*
X111000000Y-58876000D01*
X110980315Y-58943039D01*
X110927511Y-58988794D01*
X110876000Y-59000000D01*
X108124000Y-59000000D01*
X108056961Y-58980315D01*
X108011206Y-58927511D01*
X108000000Y-58876000D01*
X108000000Y-57158067D01*
X108019685Y-57091028D01*
X108072489Y-57045273D01*
X108141647Y-57035329D01*
X108180296Y-57047583D01*
G37*
%TD.AperFunction*%
%TA.AperFunction,NonConductor*%
G36*
X104912630Y-56085437D02*
G01*
X104970863Y-56124046D01*
X104998977Y-56188010D01*
X105000000Y-56203903D01*
X105000000Y-58876000D01*
X104980315Y-58943039D01*
X104927511Y-58988794D01*
X104876000Y-59000000D01*
X102124000Y-59000000D01*
X102056961Y-58980315D01*
X102011206Y-58927511D01*
X102000000Y-58876000D01*
X102000000Y-57274500D01*
X102019685Y-57207461D01*
X102072489Y-57161706D01*
X102124000Y-57150500D01*
X103630922Y-57150500D01*
X103825326Y-57119709D01*
X104012525Y-57058884D01*
X104187905Y-56969524D01*
X104347146Y-56853828D01*
X104486328Y-56714646D01*
X104602024Y-56555405D01*
X104691384Y-56380025D01*
X104752209Y-56192826D01*
X104753527Y-56184506D01*
X104783456Y-56121371D01*
X104842767Y-56084439D01*
X104912630Y-56085437D01*
G37*
%TD.AperFunction*%
%TA.AperFunction,NonConductor*%
G36*
X98943039Y-57170185D02*
G01*
X98988794Y-57222989D01*
X99000000Y-57274500D01*
X99000000Y-58876000D01*
X98980315Y-58943039D01*
X98927511Y-58988794D01*
X98876000Y-59000000D01*
X96124000Y-59000000D01*
X96056961Y-58980315D01*
X96011206Y-58927511D01*
X96000000Y-58876000D01*
X96000000Y-57274500D01*
X96019685Y-57207461D01*
X96072489Y-57161706D01*
X96124000Y-57150500D01*
X98876000Y-57150500D01*
X98943039Y-57170185D01*
G37*
%TD.AperFunction*%
%TA.AperFunction,NonConductor*%
G36*
X92943039Y-57170185D02*
G01*
X92988794Y-57222989D01*
X93000000Y-57274500D01*
X93000000Y-58876000D01*
X92980315Y-58943039D01*
X92927511Y-58988794D01*
X92876000Y-59000000D01*
X90124000Y-59000000D01*
X90056961Y-58980315D01*
X90011206Y-58927511D01*
X90000000Y-58876000D01*
X90000000Y-57274500D01*
X90019685Y-57207461D01*
X90072489Y-57161706D01*
X90124000Y-57150500D01*
X92876000Y-57150500D01*
X92943039Y-57170185D01*
G37*
%TD.AperFunction*%
%TA.AperFunction,NonConductor*%
G36*
X86943039Y-56019685D02*
G01*
X86988794Y-56072489D01*
X87000000Y-56124000D01*
X87000000Y-58876000D01*
X86980315Y-58943039D01*
X86927511Y-58988794D01*
X86876000Y-59000000D01*
X84124000Y-59000000D01*
X84056961Y-58980315D01*
X84011206Y-58927511D01*
X84000000Y-58876000D01*
X84000000Y-57274500D01*
X84019685Y-57207461D01*
X84072489Y-57161706D01*
X84124000Y-57150500D01*
X84580922Y-57150500D01*
X84775326Y-57119709D01*
X84962525Y-57058884D01*
X85137905Y-56969524D01*
X85297146Y-56853828D01*
X85436328Y-56714646D01*
X85552024Y-56555405D01*
X85641384Y-56380025D01*
X85702209Y-56192826D01*
X85709589Y-56146225D01*
X85716182Y-56104603D01*
X85746111Y-56041468D01*
X85805422Y-56004536D01*
X85838655Y-56000000D01*
X86876000Y-56000000D01*
X86943039Y-56019685D01*
G37*
%TD.AperFunction*%
%TA.AperFunction,NonConductor*%
G36*
X80943039Y-57170185D02*
G01*
X80988794Y-57222989D01*
X81000000Y-57274500D01*
X81000000Y-58876000D01*
X80980315Y-58943039D01*
X80927511Y-58988794D01*
X80876000Y-59000000D01*
X78124000Y-59000000D01*
X78056961Y-58980315D01*
X78011206Y-58927511D01*
X78000000Y-58876000D01*
X78000000Y-57274500D01*
X78019685Y-57207461D01*
X78072489Y-57161706D01*
X78124000Y-57150500D01*
X80876000Y-57150500D01*
X80943039Y-57170185D01*
G37*
%TD.AperFunction*%
%TA.AperFunction,NonConductor*%
G36*
X74943039Y-57170185D02*
G01*
X74988794Y-57222989D01*
X75000000Y-57274500D01*
X75000000Y-58876000D01*
X74980315Y-58943039D01*
X74927511Y-58988794D01*
X74876000Y-59000000D01*
X72124000Y-59000000D01*
X72056961Y-58980315D01*
X72011206Y-58927511D01*
X72000000Y-58876000D01*
X72000000Y-57274500D01*
X72019685Y-57207461D01*
X72072489Y-57161706D01*
X72124000Y-57150500D01*
X74876000Y-57150500D01*
X74943039Y-57170185D01*
G37*
%TD.AperFunction*%
%TA.AperFunction,NonConductor*%
G36*
X68943039Y-56019685D02*
G01*
X68988794Y-56072489D01*
X69000000Y-56124000D01*
X69000000Y-58876000D01*
X68980315Y-58943039D01*
X68927511Y-58988794D01*
X68876000Y-59000000D01*
X66124000Y-59000000D01*
X66056961Y-58980315D01*
X66011206Y-58927511D01*
X66000000Y-58876000D01*
X66000000Y-56124000D01*
X66019685Y-56056961D01*
X66072489Y-56011206D01*
X66124000Y-56000000D01*
X68876000Y-56000000D01*
X68943039Y-56019685D01*
G37*
%TD.AperFunction*%
%TA.AperFunction,NonConductor*%
G36*
X38943039Y-56019685D02*
G01*
X38988794Y-56072489D01*
X39000000Y-56124000D01*
X39000000Y-58876000D01*
X38980315Y-58943039D01*
X38927511Y-58988794D01*
X38876000Y-59000000D01*
X36124000Y-59000000D01*
X36056961Y-58980315D01*
X36011206Y-58927511D01*
X36000000Y-58876000D01*
X36000000Y-56124000D01*
X36019685Y-56056961D01*
X36072489Y-56011206D01*
X36124000Y-56000000D01*
X38876000Y-56000000D01*
X38943039Y-56019685D01*
G37*
%TD.AperFunction*%
%TA.AperFunction,NonConductor*%
G36*
X32943039Y-56019685D02*
G01*
X32988794Y-56072489D01*
X33000000Y-56124000D01*
X33000000Y-58876000D01*
X32980315Y-58943039D01*
X32927511Y-58988794D01*
X32876000Y-59000000D01*
X32624500Y-59000000D01*
X32557461Y-58980315D01*
X32511706Y-58927511D01*
X32500500Y-58876000D01*
X32500500Y-56124000D01*
X32520185Y-56056961D01*
X32572989Y-56011206D01*
X32624500Y-56000000D01*
X32876000Y-56000000D01*
X32943039Y-56019685D01*
G37*
%TD.AperFunction*%
%TA.AperFunction,NonConductor*%
G36*
X119943039Y-59019685D02*
G01*
X119988794Y-59072489D01*
X120000000Y-59124000D01*
X120000000Y-59675500D01*
X119980315Y-59742539D01*
X119927511Y-59788294D01*
X119876000Y-59799500D01*
X117124000Y-59799500D01*
X117056961Y-59779815D01*
X117011206Y-59727011D01*
X117000000Y-59675500D01*
X117000000Y-59124000D01*
X117019685Y-59056961D01*
X117072489Y-59011206D01*
X117124000Y-59000000D01*
X119876000Y-59000000D01*
X119943039Y-59019685D01*
G37*
%TD.AperFunction*%
%TA.AperFunction,NonConductor*%
G36*
X113943039Y-59019685D02*
G01*
X113988794Y-59072489D01*
X114000000Y-59124000D01*
X114000000Y-59675500D01*
X113980315Y-59742539D01*
X113927511Y-59788294D01*
X113876000Y-59799500D01*
X111124000Y-59799500D01*
X111056961Y-59779815D01*
X111011206Y-59727011D01*
X111000000Y-59675500D01*
X111000000Y-59124000D01*
X111019685Y-59056961D01*
X111072489Y-59011206D01*
X111124000Y-59000000D01*
X113876000Y-59000000D01*
X113943039Y-59019685D01*
G37*
%TD.AperFunction*%
%TA.AperFunction,NonConductor*%
G36*
X101943039Y-59019685D02*
G01*
X101988794Y-59072489D01*
X102000000Y-59124000D01*
X102000000Y-59675500D01*
X101980315Y-59742539D01*
X101927511Y-59788294D01*
X101876000Y-59799500D01*
X99124000Y-59799500D01*
X99056961Y-59779815D01*
X99011206Y-59727011D01*
X99000000Y-59675500D01*
X99000000Y-59124000D01*
X99019685Y-59056961D01*
X99072489Y-59011206D01*
X99124000Y-59000000D01*
X101876000Y-59000000D01*
X101943039Y-59019685D01*
G37*
%TD.AperFunction*%
%TA.AperFunction,NonConductor*%
G36*
X95943039Y-59019685D02*
G01*
X95988794Y-59072489D01*
X96000000Y-59124000D01*
X96000000Y-59675500D01*
X95980315Y-59742539D01*
X95927511Y-59788294D01*
X95876000Y-59799500D01*
X93124000Y-59799500D01*
X93056961Y-59779815D01*
X93011206Y-59727011D01*
X93000000Y-59675500D01*
X93000000Y-59124000D01*
X93019685Y-59056961D01*
X93072489Y-59011206D01*
X93124000Y-59000000D01*
X95876000Y-59000000D01*
X95943039Y-59019685D01*
G37*
%TD.AperFunction*%
%TA.AperFunction,NonConductor*%
G36*
X83943039Y-59019685D02*
G01*
X83988794Y-59072489D01*
X84000000Y-59124000D01*
X84000000Y-59675500D01*
X83980315Y-59742539D01*
X83927511Y-59788294D01*
X83876000Y-59799500D01*
X81124000Y-59799500D01*
X81056961Y-59779815D01*
X81011206Y-59727011D01*
X81000000Y-59675500D01*
X81000000Y-59124000D01*
X81019685Y-59056961D01*
X81072489Y-59011206D01*
X81124000Y-59000000D01*
X83876000Y-59000000D01*
X83943039Y-59019685D01*
G37*
%TD.AperFunction*%
%TA.AperFunction,NonConductor*%
G36*
X77943039Y-59019685D02*
G01*
X77988794Y-59072489D01*
X78000000Y-59124000D01*
X78000000Y-59675500D01*
X77980315Y-59742539D01*
X77927511Y-59788294D01*
X77876000Y-59799500D01*
X75124000Y-59799500D01*
X75056961Y-59779815D01*
X75011206Y-59727011D01*
X75000000Y-59675500D01*
X75000000Y-59124000D01*
X75019685Y-59056961D01*
X75072489Y-59011206D01*
X75124000Y-59000000D01*
X77876000Y-59000000D01*
X77943039Y-59019685D01*
G37*
%TD.AperFunction*%
%TA.AperFunction,NonConductor*%
G36*
X137454915Y-59019685D02*
G01*
X137500670Y-59072489D01*
X137511876Y-59124000D01*
X137511876Y-61876000D01*
X137492191Y-61943039D01*
X137439387Y-61988794D01*
X137387876Y-62000000D01*
X135124000Y-62000000D01*
X135056961Y-61980315D01*
X135011206Y-61927511D01*
X135000000Y-61876000D01*
X135000000Y-59124000D01*
X135019685Y-59056961D01*
X135072489Y-59011206D01*
X135124000Y-59000000D01*
X137387876Y-59000000D01*
X137454915Y-59019685D01*
G37*
%TD.AperFunction*%
%TA.AperFunction,NonConductor*%
G36*
X131943039Y-59019685D02*
G01*
X131988794Y-59072489D01*
X132000000Y-59124000D01*
X132000000Y-61876000D01*
X131980315Y-61943039D01*
X131927511Y-61988794D01*
X131876000Y-62000000D01*
X129124000Y-62000000D01*
X129056961Y-61980315D01*
X129011206Y-61927511D01*
X129000000Y-61876000D01*
X129000000Y-59124000D01*
X129019685Y-59056961D01*
X129072489Y-59011206D01*
X129124000Y-59000000D01*
X131876000Y-59000000D01*
X131943039Y-59019685D01*
G37*
%TD.AperFunction*%
%TA.AperFunction,NonConductor*%
G36*
X125943039Y-59019685D02*
G01*
X125988794Y-59072489D01*
X126000000Y-59124000D01*
X126000000Y-61876000D01*
X125980315Y-61943039D01*
X125927511Y-61988794D01*
X125876000Y-62000000D01*
X123957000Y-62000000D01*
X123889961Y-61980315D01*
X123844206Y-61927511D01*
X123833000Y-61876000D01*
X123833000Y-60951577D01*
X123802209Y-60757173D01*
X123741382Y-60569970D01*
X123652023Y-60394594D01*
X123536328Y-60235354D01*
X123397146Y-60096172D01*
X123237905Y-59980476D01*
X123152539Y-59936980D01*
X123067705Y-59893755D01*
X123016909Y-59845780D01*
X123000000Y-59783270D01*
X123000000Y-59124000D01*
X123019685Y-59056961D01*
X123072489Y-59011206D01*
X123124000Y-59000000D01*
X125876000Y-59000000D01*
X125943039Y-59019685D01*
G37*
%TD.AperFunction*%
%TA.AperFunction,NonConductor*%
G36*
X107943039Y-59019685D02*
G01*
X107988794Y-59072489D01*
X108000000Y-59124000D01*
X108000000Y-59936980D01*
X107980315Y-60004019D01*
X107948887Y-60037297D01*
X107867854Y-60096171D01*
X107728674Y-60235351D01*
X107728674Y-60235352D01*
X107728672Y-60235354D01*
X107678985Y-60303741D01*
X107612976Y-60394594D01*
X107523617Y-60569970D01*
X107462790Y-60757173D01*
X107432000Y-60951577D01*
X107432000Y-61876000D01*
X107412315Y-61943039D01*
X107359511Y-61988794D01*
X107308000Y-62000000D01*
X105124000Y-62000000D01*
X105056961Y-61980315D01*
X105011206Y-61927511D01*
X105000000Y-61876000D01*
X105000000Y-59124000D01*
X105019685Y-59056961D01*
X105072489Y-59011206D01*
X105124000Y-59000000D01*
X107876000Y-59000000D01*
X107943039Y-59019685D01*
G37*
%TD.AperFunction*%
%TA.AperFunction,NonConductor*%
G36*
X89943039Y-59019685D02*
G01*
X89988794Y-59072489D01*
X90000000Y-59124000D01*
X90000000Y-59675500D01*
X89980315Y-59742539D01*
X89927511Y-59788294D01*
X89876000Y-59799500D01*
X89534078Y-59799500D01*
X89339673Y-59830290D01*
X89152470Y-59891117D01*
X88977094Y-59980476D01*
X88898888Y-60037297D01*
X88817854Y-60096172D01*
X88817852Y-60096174D01*
X88817851Y-60096174D01*
X88678674Y-60235351D01*
X88678674Y-60235352D01*
X88678672Y-60235354D01*
X88628985Y-60303741D01*
X88562976Y-60394594D01*
X88473617Y-60569970D01*
X88412790Y-60757173D01*
X88382000Y-60951577D01*
X88382000Y-61876000D01*
X88362315Y-61943039D01*
X88309511Y-61988794D01*
X88258000Y-62000000D01*
X87124000Y-62000000D01*
X87056961Y-61980315D01*
X87011206Y-61927511D01*
X87000000Y-61876000D01*
X87000000Y-59124000D01*
X87019685Y-59056961D01*
X87072489Y-59011206D01*
X87124000Y-59000000D01*
X89876000Y-59000000D01*
X89943039Y-59019685D01*
G37*
%TD.AperFunction*%
%TA.AperFunction,NonConductor*%
G36*
X71943039Y-59019685D02*
G01*
X71988794Y-59072489D01*
X72000000Y-59124000D01*
X72000000Y-59675500D01*
X71980315Y-59742539D01*
X71927511Y-59788294D01*
X71876000Y-59799500D01*
X70484078Y-59799500D01*
X70289673Y-59830290D01*
X70102470Y-59891117D01*
X69927094Y-59980476D01*
X69848888Y-60037297D01*
X69767854Y-60096172D01*
X69767852Y-60096174D01*
X69767851Y-60096174D01*
X69628674Y-60235351D01*
X69628674Y-60235352D01*
X69628672Y-60235354D01*
X69578985Y-60303741D01*
X69512976Y-60394594D01*
X69423617Y-60569970D01*
X69362790Y-60757173D01*
X69332000Y-60951577D01*
X69332000Y-61876000D01*
X69312315Y-61943039D01*
X69259511Y-61988794D01*
X69208000Y-62000000D01*
X69124000Y-62000000D01*
X69056961Y-61980315D01*
X69011206Y-61927511D01*
X69000000Y-61876000D01*
X69000000Y-59124000D01*
X69019685Y-59056961D01*
X69072489Y-59011206D01*
X69124000Y-59000000D01*
X71876000Y-59000000D01*
X71943039Y-59019685D01*
G37*
%TD.AperFunction*%
%TA.AperFunction,NonConductor*%
G36*
X65943039Y-59019685D02*
G01*
X65988794Y-59072489D01*
X66000000Y-59124000D01*
X66000000Y-61876000D01*
X65980315Y-61943039D01*
X65927511Y-61988794D01*
X65876000Y-62000000D01*
X64624500Y-62000000D01*
X64557461Y-61980315D01*
X64511706Y-61927511D01*
X64500500Y-61876000D01*
X64500500Y-59124000D01*
X64520185Y-59056961D01*
X64572989Y-59011206D01*
X64624500Y-59000000D01*
X65876000Y-59000000D01*
X65943039Y-59019685D01*
G37*
%TD.AperFunction*%
%TA.AperFunction,NonConductor*%
G36*
X41498526Y-59019685D02*
G01*
X41544281Y-59072489D01*
X41555487Y-59124000D01*
X41555487Y-61876000D01*
X41535802Y-61943039D01*
X41482998Y-61988794D01*
X41431487Y-62000000D01*
X39124000Y-62000000D01*
X39056961Y-61980315D01*
X39011206Y-61927511D01*
X39000000Y-61876000D01*
X39000000Y-59124000D01*
X39019685Y-59056961D01*
X39072489Y-59011206D01*
X39124000Y-59000000D01*
X41431487Y-59000000D01*
X41498526Y-59019685D01*
G37*
%TD.AperFunction*%
%TA.AperFunction,NonConductor*%
G36*
X35943039Y-59019685D02*
G01*
X35988794Y-59072489D01*
X36000000Y-59124000D01*
X36000000Y-61876000D01*
X35980315Y-61943039D01*
X35927511Y-61988794D01*
X35876000Y-62000000D01*
X33124000Y-62000000D01*
X33056961Y-61980315D01*
X33011206Y-61927511D01*
X33000000Y-61876000D01*
X33000000Y-59124000D01*
X33019685Y-59056961D01*
X33072489Y-59011206D01*
X33124000Y-59000000D01*
X35876000Y-59000000D01*
X35943039Y-59019685D01*
G37*
%TD.AperFunction*%
%TA.AperFunction,NonConductor*%
G36*
X43442539Y-61908588D02*
G01*
X43488294Y-61961392D01*
X43499500Y-62012903D01*
X43499500Y-64764903D01*
X43479815Y-64831942D01*
X43427011Y-64877697D01*
X43375500Y-64888903D01*
X42124000Y-64888903D01*
X42056961Y-64869218D01*
X42011206Y-64816414D01*
X42000000Y-64764903D01*
X42000000Y-62012903D01*
X42019685Y-61945864D01*
X42072489Y-61900109D01*
X42124000Y-61888903D01*
X43375500Y-61888903D01*
X43442539Y-61908588D01*
G37*
%TD.AperFunction*%
%TA.AperFunction,NonConductor*%
G36*
X134943039Y-62019685D02*
G01*
X134988794Y-62072489D01*
X135000000Y-62124000D01*
X135000000Y-64876000D01*
X134980315Y-64943039D01*
X134927511Y-64988794D01*
X134876000Y-65000000D01*
X132124000Y-65000000D01*
X132056961Y-64980315D01*
X132011206Y-64927511D01*
X132000000Y-64876000D01*
X132000000Y-62124000D01*
X132019685Y-62056961D01*
X132072489Y-62011206D01*
X132124000Y-62000000D01*
X134876000Y-62000000D01*
X134943039Y-62019685D01*
G37*
%TD.AperFunction*%
%TA.AperFunction,NonConductor*%
G36*
X128943039Y-62019685D02*
G01*
X128988794Y-62072489D01*
X129000000Y-62124000D01*
X129000000Y-64876000D01*
X128980315Y-64943039D01*
X128927511Y-64988794D01*
X128876000Y-65000000D01*
X126124000Y-65000000D01*
X126056961Y-64980315D01*
X126011206Y-64927511D01*
X126000000Y-64876000D01*
X126000000Y-62124000D01*
X126019685Y-62056961D01*
X126072489Y-62011206D01*
X126124000Y-62000000D01*
X128876000Y-62000000D01*
X128943039Y-62019685D01*
G37*
%TD.AperFunction*%
%TA.AperFunction,NonConductor*%
G36*
X121275039Y-62320185D02*
G01*
X121320794Y-62372989D01*
X121332000Y-62424500D01*
X121332000Y-64876000D01*
X121312315Y-64943039D01*
X121259511Y-64988794D01*
X121208000Y-65000000D01*
X120124000Y-65000000D01*
X120056961Y-64980315D01*
X120011206Y-64927511D01*
X120000000Y-64876000D01*
X120000000Y-62424500D01*
X120019685Y-62357461D01*
X120072489Y-62311706D01*
X120124000Y-62300500D01*
X121208000Y-62300500D01*
X121275039Y-62320185D01*
G37*
%TD.AperFunction*%
%TA.AperFunction,NonConductor*%
G36*
X116943039Y-62320185D02*
G01*
X116988794Y-62372989D01*
X117000000Y-62424500D01*
X117000000Y-64876000D01*
X116980315Y-64943039D01*
X116927511Y-64988794D01*
X116876000Y-65000000D01*
X114124000Y-65000000D01*
X114056961Y-64980315D01*
X114011206Y-64927511D01*
X114000000Y-64876000D01*
X114000000Y-62424500D01*
X114019685Y-62357461D01*
X114072489Y-62311706D01*
X114124000Y-62300500D01*
X116876000Y-62300500D01*
X116943039Y-62320185D01*
G37*
%TD.AperFunction*%
%TA.AperFunction,NonConductor*%
G36*
X110943039Y-62320185D02*
G01*
X110988794Y-62372989D01*
X111000000Y-62424500D01*
X111000000Y-64876000D01*
X110980315Y-64943039D01*
X110927511Y-64988794D01*
X110876000Y-65000000D01*
X110057000Y-65000000D01*
X109989961Y-64980315D01*
X109944206Y-64927511D01*
X109933000Y-64876000D01*
X109933000Y-62424500D01*
X109952685Y-62357461D01*
X110005489Y-62311706D01*
X110057000Y-62300500D01*
X110876000Y-62300500D01*
X110943039Y-62320185D01*
G37*
%TD.AperFunction*%
%TA.AperFunction,NonConductor*%
G36*
X102225039Y-62320185D02*
G01*
X102270794Y-62372989D01*
X102282000Y-62424500D01*
X102282000Y-64876000D01*
X102262315Y-64943039D01*
X102209511Y-64988794D01*
X102158000Y-65000000D01*
X102124000Y-65000000D01*
X102056961Y-64980315D01*
X102011206Y-64927511D01*
X102000000Y-64876000D01*
X102000000Y-62424500D01*
X102019685Y-62357461D01*
X102072489Y-62311706D01*
X102124000Y-62300500D01*
X102158000Y-62300500D01*
X102225039Y-62320185D01*
G37*
%TD.AperFunction*%
%TA.AperFunction,NonConductor*%
G36*
X98943039Y-62320185D02*
G01*
X98988794Y-62372989D01*
X99000000Y-62424500D01*
X99000000Y-64876000D01*
X98980315Y-64943039D01*
X98927511Y-64988794D01*
X98876000Y-65000000D01*
X96124000Y-65000000D01*
X96056961Y-64980315D01*
X96011206Y-64927511D01*
X96000000Y-64876000D01*
X96000000Y-62424500D01*
X96019685Y-62357461D01*
X96072489Y-62311706D01*
X96124000Y-62300500D01*
X98876000Y-62300500D01*
X98943039Y-62320185D01*
G37*
%TD.AperFunction*%
%TA.AperFunction,NonConductor*%
G36*
X92943039Y-62320185D02*
G01*
X92988794Y-62372989D01*
X93000000Y-62424500D01*
X93000000Y-64876000D01*
X92980315Y-64943039D01*
X92927511Y-64988794D01*
X92876000Y-65000000D01*
X91007000Y-65000000D01*
X90939961Y-64980315D01*
X90894206Y-64927511D01*
X90883000Y-64876000D01*
X90883000Y-62424500D01*
X90902685Y-62357461D01*
X90955489Y-62311706D01*
X91007000Y-62300500D01*
X92876000Y-62300500D01*
X92943039Y-62320185D01*
G37*
%TD.AperFunction*%
%TA.AperFunction,NonConductor*%
G36*
X86943039Y-62019685D02*
G01*
X86988794Y-62072489D01*
X87000000Y-62124000D01*
X87000000Y-64876000D01*
X86980315Y-64943039D01*
X86927511Y-64988794D01*
X86876000Y-65000000D01*
X85857000Y-65000000D01*
X85789961Y-64980315D01*
X85744206Y-64927511D01*
X85733000Y-64876000D01*
X85733000Y-62124000D01*
X85752685Y-62056961D01*
X85805489Y-62011206D01*
X85857000Y-62000000D01*
X86876000Y-62000000D01*
X86943039Y-62019685D01*
G37*
%TD.AperFunction*%
%TA.AperFunction,NonConductor*%
G36*
X80943039Y-62320185D02*
G01*
X80988794Y-62372989D01*
X81000000Y-62424500D01*
X81000000Y-64876000D01*
X80980315Y-64943039D01*
X80927511Y-64988794D01*
X80876000Y-65000000D01*
X78124000Y-65000000D01*
X78056961Y-64980315D01*
X78011206Y-64927511D01*
X78000000Y-64876000D01*
X78000000Y-62424500D01*
X78019685Y-62357461D01*
X78072489Y-62311706D01*
X78124000Y-62300500D01*
X80876000Y-62300500D01*
X80943039Y-62320185D01*
G37*
%TD.AperFunction*%
%TA.AperFunction,NonConductor*%
G36*
X74943039Y-62320185D02*
G01*
X74988794Y-62372989D01*
X75000000Y-62424500D01*
X75000000Y-64876000D01*
X74980315Y-64943039D01*
X74927511Y-64988794D01*
X74876000Y-65000000D01*
X72124000Y-65000000D01*
X72056961Y-64980315D01*
X72011206Y-64927511D01*
X72000000Y-64876000D01*
X72000000Y-62424500D01*
X72019685Y-62357461D01*
X72072489Y-62311706D01*
X72124000Y-62300500D01*
X74876000Y-62300500D01*
X74943039Y-62320185D01*
G37*
%TD.AperFunction*%
%TA.AperFunction,NonConductor*%
G36*
X68943039Y-62019685D02*
G01*
X68988794Y-62072489D01*
X69000000Y-62124000D01*
X69000000Y-64876000D01*
X68980315Y-64943039D01*
X68927511Y-64988794D01*
X68876000Y-65000000D01*
X66124000Y-65000000D01*
X66056961Y-64980315D01*
X66011206Y-64927511D01*
X66000000Y-64876000D01*
X66000000Y-62124000D01*
X66019685Y-62056961D01*
X66072489Y-62011206D01*
X66124000Y-62000000D01*
X68876000Y-62000000D01*
X68943039Y-62019685D01*
G37*
%TD.AperFunction*%
%TA.AperFunction,NonConductor*%
G36*
X38943039Y-62019685D02*
G01*
X38988794Y-62072489D01*
X39000000Y-62124000D01*
X39000000Y-64876000D01*
X38980315Y-64943039D01*
X38927511Y-64988794D01*
X38876000Y-65000000D01*
X36124000Y-65000000D01*
X36056961Y-64980315D01*
X36011206Y-64927511D01*
X36000000Y-64876000D01*
X36000000Y-62124000D01*
X36019685Y-62056961D01*
X36072489Y-62011206D01*
X36124000Y-62000000D01*
X38876000Y-62000000D01*
X38943039Y-62019685D01*
G37*
%TD.AperFunction*%
%TA.AperFunction,NonConductor*%
G36*
X32943039Y-62019685D02*
G01*
X32988794Y-62072489D01*
X33000000Y-62124000D01*
X33000000Y-64876000D01*
X32980315Y-64943039D01*
X32927511Y-64988794D01*
X32876000Y-65000000D01*
X32624500Y-65000000D01*
X32557461Y-64980315D01*
X32511706Y-64927511D01*
X32500500Y-64876000D01*
X32500500Y-62124000D01*
X32520185Y-62056961D01*
X32572989Y-62011206D01*
X32624500Y-62000000D01*
X32876000Y-62000000D01*
X32943039Y-62019685D01*
G37*
%TD.AperFunction*%
%TA.AperFunction,NonConductor*%
G36*
X137454915Y-65019685D02*
G01*
X137500670Y-65072489D01*
X137511876Y-65124000D01*
X137511876Y-67876000D01*
X137492191Y-67943039D01*
X137439387Y-67988794D01*
X137387876Y-68000000D01*
X135124000Y-68000000D01*
X135056961Y-67980315D01*
X135011206Y-67927511D01*
X135000000Y-67876000D01*
X135000000Y-65124000D01*
X135019685Y-65056961D01*
X135072489Y-65011206D01*
X135124000Y-65000000D01*
X137387876Y-65000000D01*
X137454915Y-65019685D01*
G37*
%TD.AperFunction*%
%TA.AperFunction,NonConductor*%
G36*
X131943039Y-65019685D02*
G01*
X131988794Y-65072489D01*
X132000000Y-65124000D01*
X132000000Y-67876000D01*
X131980315Y-67943039D01*
X131927511Y-67988794D01*
X131876000Y-68000000D01*
X129124000Y-68000000D01*
X129056961Y-67980315D01*
X129011206Y-67927511D01*
X129000000Y-67876000D01*
X129000000Y-65124000D01*
X129019685Y-65056961D01*
X129072489Y-65011206D01*
X129124000Y-65000000D01*
X131876000Y-65000000D01*
X131943039Y-65019685D01*
G37*
%TD.AperFunction*%
%TA.AperFunction,NonConductor*%
G36*
X125943039Y-65019685D02*
G01*
X125988794Y-65072489D01*
X126000000Y-65124000D01*
X126000000Y-67876000D01*
X125980315Y-67943039D01*
X125927511Y-67988794D01*
X125876000Y-68000000D01*
X123957000Y-68000000D01*
X123889961Y-67980315D01*
X123844206Y-67927511D01*
X123833000Y-67876000D01*
X123833000Y-65124000D01*
X123852685Y-65056961D01*
X123905489Y-65011206D01*
X123957000Y-65000000D01*
X125876000Y-65000000D01*
X125943039Y-65019685D01*
G37*
%TD.AperFunction*%
%TA.AperFunction,NonConductor*%
G36*
X119943039Y-65019685D02*
G01*
X119988794Y-65072489D01*
X120000000Y-65124000D01*
X120000000Y-67876000D01*
X119980315Y-67943039D01*
X119927511Y-67988794D01*
X119876000Y-68000000D01*
X117124000Y-68000000D01*
X117056961Y-67980315D01*
X117011206Y-67927511D01*
X117000000Y-67876000D01*
X117000000Y-65124000D01*
X117019685Y-65056961D01*
X117072489Y-65011206D01*
X117124000Y-65000000D01*
X119876000Y-65000000D01*
X119943039Y-65019685D01*
G37*
%TD.AperFunction*%
%TA.AperFunction,NonConductor*%
G36*
X113943039Y-65019685D02*
G01*
X113988794Y-65072489D01*
X114000000Y-65124000D01*
X114000000Y-67876000D01*
X113980315Y-67943039D01*
X113927511Y-67988794D01*
X113876000Y-68000000D01*
X111124000Y-68000000D01*
X111056961Y-67980315D01*
X111011206Y-67927511D01*
X111000000Y-67876000D01*
X111000000Y-65124000D01*
X111019685Y-65056961D01*
X111072489Y-65011206D01*
X111124000Y-65000000D01*
X113876000Y-65000000D01*
X113943039Y-65019685D01*
G37*
%TD.AperFunction*%
%TA.AperFunction,NonConductor*%
G36*
X107375039Y-65019685D02*
G01*
X107420794Y-65072489D01*
X107432000Y-65124000D01*
X107432000Y-67876000D01*
X107412315Y-67943039D01*
X107359511Y-67988794D01*
X107308000Y-68000000D01*
X105124000Y-68000000D01*
X105056961Y-67980315D01*
X105011206Y-67927511D01*
X105000000Y-67876000D01*
X105000000Y-65124000D01*
X105019685Y-65056961D01*
X105072489Y-65011206D01*
X105124000Y-65000000D01*
X107308000Y-65000000D01*
X107375039Y-65019685D01*
G37*
%TD.AperFunction*%
%TA.AperFunction,NonConductor*%
G36*
X101943039Y-65019685D02*
G01*
X101988794Y-65072489D01*
X102000000Y-65124000D01*
X102000000Y-67876000D01*
X101980315Y-67943039D01*
X101927511Y-67988794D01*
X101876000Y-68000000D01*
X99124000Y-68000000D01*
X99056961Y-67980315D01*
X99011206Y-67927511D01*
X99000000Y-67876000D01*
X99000000Y-65124000D01*
X99019685Y-65056961D01*
X99072489Y-65011206D01*
X99124000Y-65000000D01*
X101876000Y-65000000D01*
X101943039Y-65019685D01*
G37*
%TD.AperFunction*%
%TA.AperFunction,NonConductor*%
G36*
X95943039Y-65019685D02*
G01*
X95988794Y-65072489D01*
X96000000Y-65124000D01*
X96000000Y-67876000D01*
X95980315Y-67943039D01*
X95927511Y-67988794D01*
X95876000Y-68000000D01*
X93124000Y-68000000D01*
X93056961Y-67980315D01*
X93011206Y-67927511D01*
X93000000Y-67876000D01*
X93000000Y-65124000D01*
X93019685Y-65056961D01*
X93072489Y-65011206D01*
X93124000Y-65000000D01*
X95876000Y-65000000D01*
X95943039Y-65019685D01*
G37*
%TD.AperFunction*%
%TA.AperFunction,NonConductor*%
G36*
X88325039Y-65019685D02*
G01*
X88370794Y-65072489D01*
X88382000Y-65124000D01*
X88382000Y-67876000D01*
X88362315Y-67943039D01*
X88309511Y-67988794D01*
X88258000Y-68000000D01*
X87124000Y-68000000D01*
X87056961Y-67980315D01*
X87011206Y-67927511D01*
X87000000Y-67876000D01*
X87000000Y-65124000D01*
X87019685Y-65056961D01*
X87072489Y-65011206D01*
X87124000Y-65000000D01*
X88258000Y-65000000D01*
X88325039Y-65019685D01*
G37*
%TD.AperFunction*%
%TA.AperFunction,NonConductor*%
G36*
X83175039Y-65019685D02*
G01*
X83220794Y-65072489D01*
X83232000Y-65124000D01*
X83232000Y-67876000D01*
X83212315Y-67943039D01*
X83159511Y-67988794D01*
X83108000Y-68000000D01*
X81124000Y-68000000D01*
X81056961Y-67980315D01*
X81011206Y-67927511D01*
X81000000Y-67876000D01*
X81000000Y-65124000D01*
X81019685Y-65056961D01*
X81072489Y-65011206D01*
X81124000Y-65000000D01*
X83108000Y-65000000D01*
X83175039Y-65019685D01*
G37*
%TD.AperFunction*%
%TA.AperFunction,NonConductor*%
G36*
X77943039Y-65019685D02*
G01*
X77988794Y-65072489D01*
X78000000Y-65124000D01*
X78000000Y-67876000D01*
X77980315Y-67943039D01*
X77927511Y-67988794D01*
X77876000Y-68000000D01*
X75124000Y-68000000D01*
X75056961Y-67980315D01*
X75011206Y-67927511D01*
X75000000Y-67876000D01*
X75000000Y-65124000D01*
X75019685Y-65056961D01*
X75072489Y-65011206D01*
X75124000Y-65000000D01*
X77876000Y-65000000D01*
X77943039Y-65019685D01*
G37*
%TD.AperFunction*%
%TA.AperFunction,NonConductor*%
G36*
X69275039Y-65019685D02*
G01*
X69320794Y-65072489D01*
X69332000Y-65124000D01*
X69332000Y-67876000D01*
X69312315Y-67943039D01*
X69259511Y-67988794D01*
X69208000Y-68000000D01*
X69124000Y-68000000D01*
X69056961Y-67980315D01*
X69011206Y-67927511D01*
X69000000Y-67876000D01*
X69000000Y-65124000D01*
X69019685Y-65056961D01*
X69072489Y-65011206D01*
X69124000Y-65000000D01*
X69208000Y-65000000D01*
X69275039Y-65019685D01*
G37*
%TD.AperFunction*%
%TA.AperFunction,NonConductor*%
G36*
X65943039Y-65019685D02*
G01*
X65988794Y-65072489D01*
X66000000Y-65124000D01*
X66000000Y-67876000D01*
X65980315Y-67943039D01*
X65927511Y-67988794D01*
X65876000Y-68000000D01*
X64624500Y-68000000D01*
X64557461Y-67980315D01*
X64511706Y-67927511D01*
X64500500Y-67876000D01*
X64500500Y-65124000D01*
X64520185Y-65056961D01*
X64572989Y-65011206D01*
X64624500Y-65000000D01*
X65876000Y-65000000D01*
X65943039Y-65019685D01*
G37*
%TD.AperFunction*%
%TA.AperFunction,NonConductor*%
G36*
X41498526Y-65019685D02*
G01*
X41544281Y-65072489D01*
X41555487Y-65124000D01*
X41555487Y-67876000D01*
X41535802Y-67943039D01*
X41482998Y-67988794D01*
X41431487Y-68000000D01*
X39124000Y-68000000D01*
X39056961Y-67980315D01*
X39011206Y-67927511D01*
X39000000Y-67876000D01*
X39000000Y-65124000D01*
X39019685Y-65056961D01*
X39072489Y-65011206D01*
X39124000Y-65000000D01*
X41431487Y-65000000D01*
X41498526Y-65019685D01*
G37*
%TD.AperFunction*%
%TA.AperFunction,NonConductor*%
G36*
X35943039Y-65019685D02*
G01*
X35988794Y-65072489D01*
X36000000Y-65124000D01*
X36000000Y-67876000D01*
X35980315Y-67943039D01*
X35927511Y-67988794D01*
X35876000Y-68000000D01*
X33124000Y-68000000D01*
X33056961Y-67980315D01*
X33011206Y-67927511D01*
X33000000Y-67876000D01*
X33000000Y-65124000D01*
X33019685Y-65056961D01*
X33072489Y-65011206D01*
X33124000Y-65000000D01*
X35876000Y-65000000D01*
X35943039Y-65019685D01*
G37*
%TD.AperFunction*%
%TA.AperFunction,NonConductor*%
G36*
X134943039Y-68019685D02*
G01*
X134988794Y-68072489D01*
X135000000Y-68124000D01*
X135000000Y-70876000D01*
X134980315Y-70943039D01*
X134927511Y-70988794D01*
X134876000Y-71000000D01*
X132124000Y-71000000D01*
X132056961Y-70980315D01*
X132011206Y-70927511D01*
X132000000Y-70876000D01*
X132000000Y-68124000D01*
X132019685Y-68056961D01*
X132072489Y-68011206D01*
X132124000Y-68000000D01*
X134876000Y-68000000D01*
X134943039Y-68019685D01*
G37*
%TD.AperFunction*%
%TA.AperFunction,NonConductor*%
G36*
X128943039Y-68019685D02*
G01*
X128988794Y-68072489D01*
X129000000Y-68124000D01*
X129000000Y-70876000D01*
X128980315Y-70943039D01*
X128927511Y-70988794D01*
X128876000Y-71000000D01*
X126124000Y-71000000D01*
X126056961Y-70980315D01*
X126011206Y-70927511D01*
X126000000Y-70876000D01*
X126000000Y-68124000D01*
X126019685Y-68056961D01*
X126072489Y-68011206D01*
X126124000Y-68000000D01*
X128876000Y-68000000D01*
X128943039Y-68019685D01*
G37*
%TD.AperFunction*%
%TA.AperFunction,NonConductor*%
G36*
X121275039Y-68019685D02*
G01*
X121320794Y-68072489D01*
X121332000Y-68124000D01*
X121332000Y-70876000D01*
X121312315Y-70943039D01*
X121259511Y-70988794D01*
X121208000Y-71000000D01*
X120124000Y-71000000D01*
X120056961Y-70980315D01*
X120011206Y-70927511D01*
X120000000Y-70876000D01*
X120000000Y-68124000D01*
X120019685Y-68056961D01*
X120072489Y-68011206D01*
X120124000Y-68000000D01*
X121208000Y-68000000D01*
X121275039Y-68019685D01*
G37*
%TD.AperFunction*%
%TA.AperFunction,NonConductor*%
G36*
X116943039Y-68019685D02*
G01*
X116988794Y-68072489D01*
X117000000Y-68124000D01*
X117000000Y-70876000D01*
X116980315Y-70943039D01*
X116927511Y-70988794D01*
X116876000Y-71000000D01*
X114124000Y-71000000D01*
X114056961Y-70980315D01*
X114011206Y-70927511D01*
X114000000Y-70876000D01*
X114000000Y-68124000D01*
X114019685Y-68056961D01*
X114072489Y-68011206D01*
X114124000Y-68000000D01*
X116876000Y-68000000D01*
X116943039Y-68019685D01*
G37*
%TD.AperFunction*%
%TA.AperFunction,NonConductor*%
G36*
X110943039Y-68019685D02*
G01*
X110988794Y-68072489D01*
X111000000Y-68124000D01*
X111000000Y-70876000D01*
X110980315Y-70943039D01*
X110927511Y-70988794D01*
X110876000Y-71000000D01*
X110057000Y-71000000D01*
X109989961Y-70980315D01*
X109944206Y-70927511D01*
X109933000Y-70876000D01*
X109933000Y-68124000D01*
X109952685Y-68056961D01*
X110005489Y-68011206D01*
X110057000Y-68000000D01*
X110876000Y-68000000D01*
X110943039Y-68019685D01*
G37*
%TD.AperFunction*%
%TA.AperFunction,NonConductor*%
G36*
X102225039Y-68019685D02*
G01*
X102270794Y-68072489D01*
X102282000Y-68124000D01*
X102282000Y-70876000D01*
X102262315Y-70943039D01*
X102209511Y-70988794D01*
X102158000Y-71000000D01*
X102124000Y-71000000D01*
X102056961Y-70980315D01*
X102011206Y-70927511D01*
X102000000Y-70876000D01*
X102000000Y-68124000D01*
X102019685Y-68056961D01*
X102072489Y-68011206D01*
X102124000Y-68000000D01*
X102158000Y-68000000D01*
X102225039Y-68019685D01*
G37*
%TD.AperFunction*%
%TA.AperFunction,NonConductor*%
G36*
X98943039Y-68019685D02*
G01*
X98988794Y-68072489D01*
X99000000Y-68124000D01*
X99000000Y-70876000D01*
X98980315Y-70943039D01*
X98927511Y-70988794D01*
X98876000Y-71000000D01*
X96124000Y-71000000D01*
X96056961Y-70980315D01*
X96011206Y-70927511D01*
X96000000Y-70876000D01*
X96000000Y-68124000D01*
X96019685Y-68056961D01*
X96072489Y-68011206D01*
X96124000Y-68000000D01*
X98876000Y-68000000D01*
X98943039Y-68019685D01*
G37*
%TD.AperFunction*%
%TA.AperFunction,NonConductor*%
G36*
X92943039Y-68019685D02*
G01*
X92988794Y-68072489D01*
X93000000Y-68124000D01*
X93000000Y-70876000D01*
X92980315Y-70943039D01*
X92927511Y-70988794D01*
X92876000Y-71000000D01*
X91007000Y-71000000D01*
X90939961Y-70980315D01*
X90894206Y-70927511D01*
X90883000Y-70876000D01*
X90883000Y-68124000D01*
X90902685Y-68056961D01*
X90955489Y-68011206D01*
X91007000Y-68000000D01*
X92876000Y-68000000D01*
X92943039Y-68019685D01*
G37*
%TD.AperFunction*%
%TA.AperFunction,NonConductor*%
G36*
X86943039Y-68019685D02*
G01*
X86988794Y-68072489D01*
X87000000Y-68124000D01*
X87000000Y-70876000D01*
X86980315Y-70943039D01*
X86927511Y-70988794D01*
X86876000Y-71000000D01*
X85857000Y-71000000D01*
X85789961Y-70980315D01*
X85744206Y-70927511D01*
X85733000Y-70876000D01*
X85733000Y-68124000D01*
X85752685Y-68056961D01*
X85805489Y-68011206D01*
X85857000Y-68000000D01*
X86876000Y-68000000D01*
X86943039Y-68019685D01*
G37*
%TD.AperFunction*%
%TA.AperFunction,NonConductor*%
G36*
X80943039Y-68019685D02*
G01*
X80988794Y-68072489D01*
X81000000Y-68124000D01*
X81000000Y-70876000D01*
X80980315Y-70943039D01*
X80927511Y-70988794D01*
X80876000Y-71000000D01*
X78124000Y-71000000D01*
X78056961Y-70980315D01*
X78011206Y-70927511D01*
X78000000Y-70876000D01*
X78000000Y-68124000D01*
X78019685Y-68056961D01*
X78072489Y-68011206D01*
X78124000Y-68000000D01*
X80876000Y-68000000D01*
X80943039Y-68019685D01*
G37*
%TD.AperFunction*%
%TA.AperFunction,NonConductor*%
G36*
X74943039Y-68019685D02*
G01*
X74988794Y-68072489D01*
X75000000Y-68124000D01*
X75000000Y-70876000D01*
X74980315Y-70943039D01*
X74927511Y-70988794D01*
X74876000Y-71000000D01*
X72124000Y-71000000D01*
X72056961Y-70980315D01*
X72011206Y-70927511D01*
X72000000Y-70876000D01*
X72000000Y-68124000D01*
X72019685Y-68056961D01*
X72072489Y-68011206D01*
X72124000Y-68000000D01*
X74876000Y-68000000D01*
X74943039Y-68019685D01*
G37*
%TD.AperFunction*%
%TA.AperFunction,NonConductor*%
G36*
X68943039Y-68019685D02*
G01*
X68988794Y-68072489D01*
X69000000Y-68124000D01*
X69000000Y-70876000D01*
X68980315Y-70943039D01*
X68927511Y-70988794D01*
X68876000Y-71000000D01*
X66124000Y-71000000D01*
X66056961Y-70980315D01*
X66011206Y-70927511D01*
X66000000Y-70876000D01*
X66000000Y-68124000D01*
X66019685Y-68056961D01*
X66072489Y-68011206D01*
X66124000Y-68000000D01*
X68876000Y-68000000D01*
X68943039Y-68019685D01*
G37*
%TD.AperFunction*%
%TA.AperFunction,NonConductor*%
G36*
X43442539Y-67908588D02*
G01*
X43488294Y-67961392D01*
X43499500Y-68012903D01*
X43499500Y-70876000D01*
X43479815Y-70943039D01*
X43427011Y-70988794D01*
X43375500Y-71000000D01*
X42124000Y-71000000D01*
X42056961Y-70980315D01*
X42011206Y-70927511D01*
X42000000Y-70876000D01*
X42000000Y-68012903D01*
X42019685Y-67945864D01*
X42072489Y-67900109D01*
X42124000Y-67888903D01*
X43375500Y-67888903D01*
X43442539Y-67908588D01*
G37*
%TD.AperFunction*%
%TA.AperFunction,NonConductor*%
G36*
X38943039Y-68019685D02*
G01*
X38988794Y-68072489D01*
X39000000Y-68124000D01*
X39000000Y-70876000D01*
X38980315Y-70943039D01*
X38927511Y-70988794D01*
X38876000Y-71000000D01*
X36124000Y-71000000D01*
X36056961Y-70980315D01*
X36011206Y-70927511D01*
X36000000Y-70876000D01*
X36000000Y-68124000D01*
X36019685Y-68056961D01*
X36072489Y-68011206D01*
X36124000Y-68000000D01*
X38876000Y-68000000D01*
X38943039Y-68019685D01*
G37*
%TD.AperFunction*%
%TA.AperFunction,NonConductor*%
G36*
X32943039Y-68019685D02*
G01*
X32988794Y-68072489D01*
X33000000Y-68124000D01*
X33000000Y-70876000D01*
X32980315Y-70943039D01*
X32927511Y-70988794D01*
X32876000Y-71000000D01*
X32624500Y-71000000D01*
X32557461Y-70980315D01*
X32511706Y-70927511D01*
X32500500Y-70876000D01*
X32500500Y-68124000D01*
X32520185Y-68056961D01*
X32572989Y-68011206D01*
X32624500Y-68000000D01*
X32876000Y-68000000D01*
X32943039Y-68019685D01*
G37*
%TD.AperFunction*%
%TA.AperFunction,NonConductor*%
G36*
X119943039Y-71019685D02*
G01*
X119988794Y-71072489D01*
X120000000Y-71124000D01*
X120000000Y-73575500D01*
X119980315Y-73642539D01*
X119927511Y-73688294D01*
X119876000Y-73699500D01*
X117124000Y-73699500D01*
X117056961Y-73679815D01*
X117011206Y-73627011D01*
X117000000Y-73575500D01*
X117000000Y-71124000D01*
X117019685Y-71056961D01*
X117072489Y-71011206D01*
X117124000Y-71000000D01*
X119876000Y-71000000D01*
X119943039Y-71019685D01*
G37*
%TD.AperFunction*%
%TA.AperFunction,NonConductor*%
G36*
X113943039Y-71019685D02*
G01*
X113988794Y-71072489D01*
X114000000Y-71124000D01*
X114000000Y-73575500D01*
X113980315Y-73642539D01*
X113927511Y-73688294D01*
X113876000Y-73699500D01*
X111124000Y-73699500D01*
X111056961Y-73679815D01*
X111011206Y-73627011D01*
X111000000Y-73575500D01*
X111000000Y-71124000D01*
X111019685Y-71056961D01*
X111072489Y-71011206D01*
X111124000Y-71000000D01*
X113876000Y-71000000D01*
X113943039Y-71019685D01*
G37*
%TD.AperFunction*%
%TA.AperFunction,NonConductor*%
G36*
X101943039Y-71019685D02*
G01*
X101988794Y-71072489D01*
X102000000Y-71124000D01*
X102000000Y-73575500D01*
X101980315Y-73642539D01*
X101927511Y-73688294D01*
X101876000Y-73699500D01*
X99124000Y-73699500D01*
X99056961Y-73679815D01*
X99011206Y-73627011D01*
X99000000Y-73575500D01*
X99000000Y-71124000D01*
X99019685Y-71056961D01*
X99072489Y-71011206D01*
X99124000Y-71000000D01*
X101876000Y-71000000D01*
X101943039Y-71019685D01*
G37*
%TD.AperFunction*%
%TA.AperFunction,NonConductor*%
G36*
X95943039Y-71019685D02*
G01*
X95988794Y-71072489D01*
X96000000Y-71124000D01*
X96000000Y-73575500D01*
X95980315Y-73642539D01*
X95927511Y-73688294D01*
X95876000Y-73699500D01*
X93124000Y-73699500D01*
X93056961Y-73679815D01*
X93011206Y-73627011D01*
X93000000Y-73575500D01*
X93000000Y-71124000D01*
X93019685Y-71056961D01*
X93072489Y-71011206D01*
X93124000Y-71000000D01*
X95876000Y-71000000D01*
X95943039Y-71019685D01*
G37*
%TD.AperFunction*%
%TA.AperFunction,NonConductor*%
G36*
X83175039Y-71019685D02*
G01*
X83220794Y-71072489D01*
X83232000Y-71124000D01*
X83232000Y-73575500D01*
X83212315Y-73642539D01*
X83159511Y-73688294D01*
X83108000Y-73699500D01*
X81124000Y-73699500D01*
X81056961Y-73679815D01*
X81011206Y-73627011D01*
X81000000Y-73575500D01*
X81000000Y-71124000D01*
X81019685Y-71056961D01*
X81072489Y-71011206D01*
X81124000Y-71000000D01*
X83108000Y-71000000D01*
X83175039Y-71019685D01*
G37*
%TD.AperFunction*%
%TA.AperFunction,NonConductor*%
G36*
X77943039Y-71019685D02*
G01*
X77988794Y-71072489D01*
X78000000Y-71124000D01*
X78000000Y-73575500D01*
X77980315Y-73642539D01*
X77927511Y-73688294D01*
X77876000Y-73699500D01*
X75124000Y-73699500D01*
X75056961Y-73679815D01*
X75011206Y-73627011D01*
X75000000Y-73575500D01*
X75000000Y-71124000D01*
X75019685Y-71056961D01*
X75072489Y-71011206D01*
X75124000Y-71000000D01*
X77876000Y-71000000D01*
X77943039Y-71019685D01*
G37*
%TD.AperFunction*%
%TA.AperFunction,NonConductor*%
G36*
X137454915Y-71019685D02*
G01*
X137500670Y-71072489D01*
X137511876Y-71124000D01*
X137511876Y-73876000D01*
X137492191Y-73943039D01*
X137439387Y-73988794D01*
X137387876Y-74000000D01*
X135124000Y-74000000D01*
X135056961Y-73980315D01*
X135011206Y-73927511D01*
X135000000Y-73876000D01*
X135000000Y-71124000D01*
X135019685Y-71056961D01*
X135072489Y-71011206D01*
X135124000Y-71000000D01*
X137387876Y-71000000D01*
X137454915Y-71019685D01*
G37*
%TD.AperFunction*%
%TA.AperFunction,NonConductor*%
G36*
X131943039Y-71019685D02*
G01*
X131988794Y-71072489D01*
X132000000Y-71124000D01*
X132000000Y-73876000D01*
X131980315Y-73943039D01*
X131927511Y-73988794D01*
X131876000Y-74000000D01*
X129124000Y-74000000D01*
X129056961Y-73980315D01*
X129011206Y-73927511D01*
X129000000Y-73876000D01*
X129000000Y-71124000D01*
X129019685Y-71056961D01*
X129072489Y-71011206D01*
X129124000Y-71000000D01*
X131876000Y-71000000D01*
X131943039Y-71019685D01*
G37*
%TD.AperFunction*%
%TA.AperFunction,NonConductor*%
G36*
X125943039Y-71019685D02*
G01*
X125988794Y-71072489D01*
X126000000Y-71124000D01*
X126000000Y-73876000D01*
X125980315Y-73943039D01*
X125927511Y-73988794D01*
X125876000Y-74000000D01*
X123957000Y-74000000D01*
X123889961Y-73980315D01*
X123844206Y-73927511D01*
X123833000Y-73876000D01*
X123833000Y-71124000D01*
X123852685Y-71056961D01*
X123905489Y-71011206D01*
X123957000Y-71000000D01*
X125876000Y-71000000D01*
X125943039Y-71019685D01*
G37*
%TD.AperFunction*%
%TA.AperFunction,NonConductor*%
G36*
X107375039Y-71019685D02*
G01*
X107420794Y-71072489D01*
X107432000Y-71124000D01*
X107432000Y-73876000D01*
X107412315Y-73943039D01*
X107359511Y-73988794D01*
X107308000Y-74000000D01*
X105124000Y-74000000D01*
X105056961Y-73980315D01*
X105011206Y-73927511D01*
X105000000Y-73876000D01*
X105000000Y-71124000D01*
X105019685Y-71056961D01*
X105072489Y-71011206D01*
X105124000Y-71000000D01*
X107308000Y-71000000D01*
X107375039Y-71019685D01*
G37*
%TD.AperFunction*%
%TA.AperFunction,NonConductor*%
G36*
X88325039Y-71019685D02*
G01*
X88370794Y-71072489D01*
X88382000Y-71124000D01*
X88382000Y-73876000D01*
X88362315Y-73943039D01*
X88309511Y-73988794D01*
X88258000Y-74000000D01*
X87124000Y-74000000D01*
X87056961Y-73980315D01*
X87011206Y-73927511D01*
X87000000Y-73876000D01*
X87000000Y-71124000D01*
X87019685Y-71056961D01*
X87072489Y-71011206D01*
X87124000Y-71000000D01*
X88258000Y-71000000D01*
X88325039Y-71019685D01*
G37*
%TD.AperFunction*%
%TA.AperFunction,NonConductor*%
G36*
X69275039Y-71019685D02*
G01*
X69320794Y-71072489D01*
X69332000Y-71124000D01*
X69332000Y-73876000D01*
X69312315Y-73943039D01*
X69259511Y-73988794D01*
X69208000Y-74000000D01*
X69124000Y-74000000D01*
X69056961Y-73980315D01*
X69011206Y-73927511D01*
X69000000Y-73876000D01*
X69000000Y-71124000D01*
X69019685Y-71056961D01*
X69072489Y-71011206D01*
X69124000Y-71000000D01*
X69208000Y-71000000D01*
X69275039Y-71019685D01*
G37*
%TD.AperFunction*%
%TA.AperFunction,NonConductor*%
G36*
X65943039Y-71019685D02*
G01*
X65988794Y-71072489D01*
X66000000Y-71124000D01*
X66000000Y-73876000D01*
X65980315Y-73943039D01*
X65927511Y-73988794D01*
X65876000Y-74000000D01*
X63147290Y-74000000D01*
X63080251Y-73980315D01*
X63034496Y-73927511D01*
X63024552Y-73858353D01*
X63053577Y-73794797D01*
X63085866Y-73768283D01*
X63278964Y-73658171D01*
X63278969Y-73658167D01*
X63278988Y-73658157D01*
X63523207Y-73480672D01*
X63746425Y-73277406D01*
X63945934Y-73050823D01*
X64119314Y-72803674D01*
X64264461Y-72538955D01*
X64379615Y-72259879D01*
X64463378Y-71969832D01*
X64514734Y-71672333D01*
X64522244Y-71548844D01*
X64533060Y-71370998D01*
X64533060Y-71370989D01*
X64521137Y-71130131D01*
X64537483Y-71062200D01*
X64587960Y-71013890D01*
X64644985Y-71000000D01*
X65876000Y-71000000D01*
X65943039Y-71019685D01*
G37*
%TD.AperFunction*%
%TA.AperFunction,NonConductor*%
G36*
X41943039Y-71019685D02*
G01*
X41988794Y-71072489D01*
X42000000Y-71124000D01*
X42000000Y-73876000D01*
X41980315Y-73943039D01*
X41927511Y-73988794D01*
X41876000Y-74000000D01*
X39124000Y-74000000D01*
X39056961Y-73980315D01*
X39011206Y-73927511D01*
X39000000Y-73876000D01*
X39000000Y-71124000D01*
X39019685Y-71056961D01*
X39072489Y-71011206D01*
X39124000Y-71000000D01*
X41876000Y-71000000D01*
X41943039Y-71019685D01*
G37*
%TD.AperFunction*%
%TA.AperFunction,NonConductor*%
G36*
X35943039Y-71019685D02*
G01*
X35988794Y-71072489D01*
X36000000Y-71124000D01*
X36000000Y-73876000D01*
X35980315Y-73943039D01*
X35927511Y-73988794D01*
X35876000Y-74000000D01*
X33124000Y-74000000D01*
X33056961Y-73980315D01*
X33011206Y-73927511D01*
X33000000Y-73876000D01*
X33000000Y-71124000D01*
X33019685Y-71056961D01*
X33072489Y-71011206D01*
X33124000Y-71000000D01*
X35876000Y-71000000D01*
X35943039Y-71019685D01*
G37*
%TD.AperFunction*%
%TA.AperFunction,NonConductor*%
G36*
X134943039Y-74019685D02*
G01*
X134988794Y-74072489D01*
X135000000Y-74124000D01*
X135000000Y-76876000D01*
X134980315Y-76943039D01*
X134927511Y-76988794D01*
X134876000Y-77000000D01*
X132124000Y-77000000D01*
X132056961Y-76980315D01*
X132011206Y-76927511D01*
X132000000Y-76876000D01*
X132000000Y-74124000D01*
X132019685Y-74056961D01*
X132072489Y-74011206D01*
X132124000Y-74000000D01*
X134876000Y-74000000D01*
X134943039Y-74019685D01*
G37*
%TD.AperFunction*%
%TA.AperFunction,NonConductor*%
G36*
X128943039Y-74019685D02*
G01*
X128988794Y-74072489D01*
X129000000Y-74124000D01*
X129000000Y-76876000D01*
X128980315Y-76943039D01*
X128927511Y-76988794D01*
X128876000Y-77000000D01*
X126124000Y-77000000D01*
X126056961Y-76980315D01*
X126011206Y-76927511D01*
X126000000Y-76876000D01*
X126000000Y-74124000D01*
X126019685Y-74056961D01*
X126072489Y-74011206D01*
X126124000Y-74000000D01*
X128876000Y-74000000D01*
X128943039Y-74019685D01*
G37*
%TD.AperFunction*%
%TA.AperFunction,NonConductor*%
G36*
X122925895Y-76181628D02*
G01*
X122979347Y-76226624D01*
X122999987Y-76293376D01*
X123000000Y-76295147D01*
X123000000Y-76876000D01*
X122980315Y-76943039D01*
X122927511Y-76988794D01*
X122876000Y-77000000D01*
X120124000Y-77000000D01*
X120056961Y-76980315D01*
X120011206Y-76927511D01*
X120000000Y-76876000D01*
X120000000Y-76324500D01*
X120019685Y-76257461D01*
X120072489Y-76211706D01*
X120124000Y-76200500D01*
X122680921Y-76200500D01*
X122763521Y-76187416D01*
X122856603Y-76172674D01*
X122925895Y-76181628D01*
G37*
%TD.AperFunction*%
%TA.AperFunction,NonConductor*%
G36*
X116943039Y-76220185D02*
G01*
X116988794Y-76272989D01*
X117000000Y-76324500D01*
X117000000Y-76876000D01*
X116980315Y-76943039D01*
X116927511Y-76988794D01*
X116876000Y-77000000D01*
X114124000Y-77000000D01*
X114056961Y-76980315D01*
X114011206Y-76927511D01*
X114000000Y-76876000D01*
X114000000Y-76324500D01*
X114019685Y-76257461D01*
X114072489Y-76211706D01*
X114124000Y-76200500D01*
X116876000Y-76200500D01*
X116943039Y-76220185D01*
G37*
%TD.AperFunction*%
%TA.AperFunction,NonConductor*%
G36*
X108180296Y-76097583D02*
G01*
X108202475Y-76108884D01*
X108345448Y-76155339D01*
X108389673Y-76169709D01*
X108584078Y-76200500D01*
X108584083Y-76200500D01*
X110876000Y-76200500D01*
X110943039Y-76220185D01*
X110988794Y-76272989D01*
X111000000Y-76324500D01*
X111000000Y-76876000D01*
X110980315Y-76943039D01*
X110927511Y-76988794D01*
X110876000Y-77000000D01*
X108124000Y-77000000D01*
X108056961Y-76980315D01*
X108011206Y-76927511D01*
X108000000Y-76876000D01*
X108000000Y-76208067D01*
X108019685Y-76141028D01*
X108072489Y-76095273D01*
X108141647Y-76085329D01*
X108180296Y-76097583D01*
G37*
%TD.AperFunction*%
%TA.AperFunction,NonConductor*%
G36*
X104912630Y-75135437D02*
G01*
X104970863Y-75174046D01*
X104998977Y-75238010D01*
X105000000Y-75253903D01*
X105000000Y-76876000D01*
X104980315Y-76943039D01*
X104927511Y-76988794D01*
X104876000Y-77000000D01*
X102124000Y-77000000D01*
X102056961Y-76980315D01*
X102011206Y-76927511D01*
X102000000Y-76876000D01*
X102000000Y-76324500D01*
X102019685Y-76257461D01*
X102072489Y-76211706D01*
X102124000Y-76200500D01*
X103630922Y-76200500D01*
X103825326Y-76169709D01*
X104012525Y-76108884D01*
X104187905Y-76019524D01*
X104347146Y-75903828D01*
X104486328Y-75764646D01*
X104602024Y-75605405D01*
X104691384Y-75430025D01*
X104752209Y-75242826D01*
X104753527Y-75234506D01*
X104783456Y-75171371D01*
X104842767Y-75134439D01*
X104912630Y-75135437D01*
G37*
%TD.AperFunction*%
%TA.AperFunction,NonConductor*%
G36*
X98943039Y-76220185D02*
G01*
X98988794Y-76272989D01*
X99000000Y-76324500D01*
X99000000Y-76876000D01*
X98980315Y-76943039D01*
X98927511Y-76988794D01*
X98876000Y-77000000D01*
X96124000Y-77000000D01*
X96056961Y-76980315D01*
X96011206Y-76927511D01*
X96000000Y-76876000D01*
X96000000Y-76324500D01*
X96019685Y-76257461D01*
X96072489Y-76211706D01*
X96124000Y-76200500D01*
X98876000Y-76200500D01*
X98943039Y-76220185D01*
G37*
%TD.AperFunction*%
%TA.AperFunction,NonConductor*%
G36*
X92943039Y-76220185D02*
G01*
X92988794Y-76272989D01*
X93000000Y-76324500D01*
X93000000Y-76876000D01*
X92980315Y-76943039D01*
X92927511Y-76988794D01*
X92876000Y-77000000D01*
X90124000Y-77000000D01*
X90056961Y-76980315D01*
X90011206Y-76927511D01*
X90000000Y-76876000D01*
X90000000Y-76324500D01*
X90019685Y-76257461D01*
X90072489Y-76211706D01*
X90124000Y-76200500D01*
X92876000Y-76200500D01*
X92943039Y-76220185D01*
G37*
%TD.AperFunction*%
%TA.AperFunction,NonConductor*%
G36*
X86943039Y-74019685D02*
G01*
X86988794Y-74072489D01*
X87000000Y-74124000D01*
X87000000Y-76876000D01*
X86980315Y-76943039D01*
X86927511Y-76988794D01*
X86876000Y-77000000D01*
X84124000Y-77000000D01*
X84056961Y-76980315D01*
X84011206Y-76927511D01*
X84000000Y-76876000D01*
X84000000Y-76324500D01*
X84019685Y-76257461D01*
X84072489Y-76211706D01*
X84124000Y-76200500D01*
X84580922Y-76200500D01*
X84775326Y-76169709D01*
X84962525Y-76108884D01*
X85137905Y-76019524D01*
X85297146Y-75903828D01*
X85436328Y-75764646D01*
X85552024Y-75605405D01*
X85641384Y-75430025D01*
X85702209Y-75242826D01*
X85713103Y-75174046D01*
X85733000Y-75048422D01*
X85733000Y-74124000D01*
X85752685Y-74056961D01*
X85805489Y-74011206D01*
X85857000Y-74000000D01*
X86876000Y-74000000D01*
X86943039Y-74019685D01*
G37*
%TD.AperFunction*%
%TA.AperFunction,NonConductor*%
G36*
X80943039Y-76220185D02*
G01*
X80988794Y-76272989D01*
X81000000Y-76324500D01*
X81000000Y-76876000D01*
X80980315Y-76943039D01*
X80927511Y-76988794D01*
X80876000Y-77000000D01*
X78124000Y-77000000D01*
X78056961Y-76980315D01*
X78011206Y-76927511D01*
X78000000Y-76876000D01*
X78000000Y-76324500D01*
X78019685Y-76257461D01*
X78072489Y-76211706D01*
X78124000Y-76200500D01*
X80876000Y-76200500D01*
X80943039Y-76220185D01*
G37*
%TD.AperFunction*%
%TA.AperFunction,NonConductor*%
G36*
X74943039Y-76220185D02*
G01*
X74988794Y-76272989D01*
X75000000Y-76324500D01*
X75000000Y-76876000D01*
X74980315Y-76943039D01*
X74927511Y-76988794D01*
X74876000Y-77000000D01*
X72124000Y-77000000D01*
X72056961Y-76980315D01*
X72011206Y-76927511D01*
X72000000Y-76876000D01*
X72000000Y-76324500D01*
X72019685Y-76257461D01*
X72072489Y-76211706D01*
X72124000Y-76200500D01*
X74876000Y-76200500D01*
X74943039Y-76220185D01*
G37*
%TD.AperFunction*%
%TA.AperFunction,NonConductor*%
G36*
X68943039Y-74019685D02*
G01*
X68988794Y-74072489D01*
X69000000Y-74124000D01*
X69000000Y-76876000D01*
X68980315Y-76943039D01*
X68927511Y-76988794D01*
X68876000Y-77000000D01*
X66124000Y-77000000D01*
X66056961Y-76980315D01*
X66011206Y-76927511D01*
X66000000Y-76876000D01*
X66000000Y-74124000D01*
X66019685Y-74056961D01*
X66072489Y-74011206D01*
X66124000Y-74000000D01*
X68876000Y-74000000D01*
X68943039Y-74019685D01*
G37*
%TD.AperFunction*%
%TA.AperFunction,NonConductor*%
G36*
X62943039Y-74019685D02*
G01*
X62988794Y-74072489D01*
X63000000Y-74124000D01*
X63000000Y-76876000D01*
X62980315Y-76943039D01*
X62927511Y-76988794D01*
X62876000Y-77000000D01*
X60124000Y-77000000D01*
X60056961Y-76980315D01*
X60011206Y-76927511D01*
X60000000Y-76876000D01*
X60000000Y-74214371D01*
X60019685Y-74147332D01*
X60072489Y-74101577D01*
X60124056Y-74090371D01*
X61708793Y-74091102D01*
X61712790Y-74091168D01*
X61853416Y-74095780D01*
X62062823Y-74079529D01*
X62154402Y-74072423D01*
X62154406Y-74072422D01*
X62154411Y-74072422D01*
X62451011Y-74016103D01*
X62485681Y-74005460D01*
X62522071Y-74000000D01*
X62876000Y-74000000D01*
X62943039Y-74019685D01*
G37*
%TD.AperFunction*%
%TA.AperFunction,NonConductor*%
G36*
X56876059Y-74088871D02*
G01*
X56943088Y-74108587D01*
X56988818Y-74161412D01*
X57000000Y-74212871D01*
X57000000Y-76876000D01*
X56980315Y-76943039D01*
X56927511Y-76988794D01*
X56876000Y-77000000D01*
X54124000Y-77000000D01*
X54056961Y-76980315D01*
X54011206Y-76927511D01*
X54000000Y-76876000D01*
X54000000Y-74211601D01*
X54019685Y-74144562D01*
X54072489Y-74098807D01*
X54124055Y-74087601D01*
X56876059Y-74088871D01*
G37*
%TD.AperFunction*%
%TA.AperFunction,NonConductor*%
G36*
X50876059Y-74086101D02*
G01*
X50943088Y-74105817D01*
X50988818Y-74158642D01*
X51000000Y-74210101D01*
X51000000Y-76876000D01*
X50980315Y-76943039D01*
X50927511Y-76988794D01*
X50876000Y-77000000D01*
X48124000Y-77000000D01*
X48056961Y-76980315D01*
X48011206Y-76927511D01*
X48000000Y-76876000D01*
X48000000Y-74208831D01*
X48019685Y-74141792D01*
X48072489Y-74096037D01*
X48124055Y-74084831D01*
X50876059Y-74086101D01*
G37*
%TD.AperFunction*%
%TA.AperFunction,NonConductor*%
G36*
X44943039Y-74019685D02*
G01*
X44988794Y-74072489D01*
X45000000Y-74124000D01*
X45000000Y-76876000D01*
X44980315Y-76943039D01*
X44927511Y-76988794D01*
X44876000Y-77000000D01*
X42124000Y-77000000D01*
X42056961Y-76980315D01*
X42011206Y-76927511D01*
X42000000Y-76876000D01*
X42000000Y-74124000D01*
X42019685Y-74056961D01*
X42072489Y-74011206D01*
X42124000Y-74000000D01*
X44876000Y-74000000D01*
X44943039Y-74019685D01*
G37*
%TD.AperFunction*%
%TA.AperFunction,NonConductor*%
G36*
X38943039Y-74019685D02*
G01*
X38988794Y-74072489D01*
X39000000Y-74124000D01*
X39000000Y-76876000D01*
X38980315Y-76943039D01*
X38927511Y-76988794D01*
X38876000Y-77000000D01*
X36124000Y-77000000D01*
X36056961Y-76980315D01*
X36011206Y-76927511D01*
X36000000Y-76876000D01*
X36000000Y-74124000D01*
X36019685Y-74056961D01*
X36072489Y-74011206D01*
X36124000Y-74000000D01*
X38876000Y-74000000D01*
X38943039Y-74019685D01*
G37*
%TD.AperFunction*%
%TA.AperFunction,NonConductor*%
G36*
X32943039Y-74019685D02*
G01*
X32988794Y-74072489D01*
X33000000Y-74124000D01*
X33000000Y-76876000D01*
X32980315Y-76943039D01*
X32927511Y-76988794D01*
X32876000Y-77000000D01*
X32624500Y-77000000D01*
X32557461Y-76980315D01*
X32511706Y-76927511D01*
X32500500Y-76876000D01*
X32500500Y-74124000D01*
X32520185Y-74056961D01*
X32572989Y-74011206D01*
X32624500Y-74000000D01*
X32876000Y-74000000D01*
X32943039Y-74019685D01*
G37*
%TD.AperFunction*%
%TA.AperFunction,NonConductor*%
G36*
X119943039Y-77019685D02*
G01*
X119988794Y-77072489D01*
X120000000Y-77124000D01*
X120000000Y-78725500D01*
X119980315Y-78792539D01*
X119927511Y-78838294D01*
X119876000Y-78849500D01*
X117124000Y-78849500D01*
X117056961Y-78829815D01*
X117011206Y-78777011D01*
X117000000Y-78725500D01*
X117000000Y-77124000D01*
X117019685Y-77056961D01*
X117072489Y-77011206D01*
X117124000Y-77000000D01*
X119876000Y-77000000D01*
X119943039Y-77019685D01*
G37*
%TD.AperFunction*%
%TA.AperFunction,NonConductor*%
G36*
X113943039Y-77019685D02*
G01*
X113988794Y-77072489D01*
X114000000Y-77124000D01*
X114000000Y-78725500D01*
X113980315Y-78792539D01*
X113927511Y-78838294D01*
X113876000Y-78849500D01*
X111124000Y-78849500D01*
X111056961Y-78829815D01*
X111011206Y-78777011D01*
X111000000Y-78725500D01*
X111000000Y-77124000D01*
X111019685Y-77056961D01*
X111072489Y-77011206D01*
X111124000Y-77000000D01*
X113876000Y-77000000D01*
X113943039Y-77019685D01*
G37*
%TD.AperFunction*%
%TA.AperFunction,NonConductor*%
G36*
X101943039Y-77019685D02*
G01*
X101988794Y-77072489D01*
X102000000Y-77124000D01*
X102000000Y-78725500D01*
X101980315Y-78792539D01*
X101927511Y-78838294D01*
X101876000Y-78849500D01*
X99124000Y-78849500D01*
X99056961Y-78829815D01*
X99011206Y-78777011D01*
X99000000Y-78725500D01*
X99000000Y-77124000D01*
X99019685Y-77056961D01*
X99072489Y-77011206D01*
X99124000Y-77000000D01*
X101876000Y-77000000D01*
X101943039Y-77019685D01*
G37*
%TD.AperFunction*%
%TA.AperFunction,NonConductor*%
G36*
X95943039Y-77019685D02*
G01*
X95988794Y-77072489D01*
X96000000Y-77124000D01*
X96000000Y-78725500D01*
X95980315Y-78792539D01*
X95927511Y-78838294D01*
X95876000Y-78849500D01*
X93124000Y-78849500D01*
X93056961Y-78829815D01*
X93011206Y-78777011D01*
X93000000Y-78725500D01*
X93000000Y-77124000D01*
X93019685Y-77056961D01*
X93072489Y-77011206D01*
X93124000Y-77000000D01*
X95876000Y-77000000D01*
X95943039Y-77019685D01*
G37*
%TD.AperFunction*%
%TA.AperFunction,NonConductor*%
G36*
X83943039Y-77019685D02*
G01*
X83988794Y-77072489D01*
X84000000Y-77124000D01*
X84000000Y-78725500D01*
X83980315Y-78792539D01*
X83927511Y-78838294D01*
X83876000Y-78849500D01*
X81124000Y-78849500D01*
X81056961Y-78829815D01*
X81011206Y-78777011D01*
X81000000Y-78725500D01*
X81000000Y-77124000D01*
X81019685Y-77056961D01*
X81072489Y-77011206D01*
X81124000Y-77000000D01*
X83876000Y-77000000D01*
X83943039Y-77019685D01*
G37*
%TD.AperFunction*%
%TA.AperFunction,NonConductor*%
G36*
X77943039Y-77019685D02*
G01*
X77988794Y-77072489D01*
X78000000Y-77124000D01*
X78000000Y-78725500D01*
X77980315Y-78792539D01*
X77927511Y-78838294D01*
X77876000Y-78849500D01*
X75124000Y-78849500D01*
X75056961Y-78829815D01*
X75011206Y-78777011D01*
X75000000Y-78725500D01*
X75000000Y-77124000D01*
X75019685Y-77056961D01*
X75072489Y-77011206D01*
X75124000Y-77000000D01*
X77876000Y-77000000D01*
X77943039Y-77019685D01*
G37*
%TD.AperFunction*%
%TA.AperFunction,NonConductor*%
G36*
X137454915Y-77019685D02*
G01*
X137500670Y-77072489D01*
X137511876Y-77124000D01*
X137511876Y-79876000D01*
X137492191Y-79943039D01*
X137439387Y-79988794D01*
X137387876Y-80000000D01*
X135124000Y-80000000D01*
X135056961Y-79980315D01*
X135011206Y-79927511D01*
X135000000Y-79876000D01*
X135000000Y-77124000D01*
X135019685Y-77056961D01*
X135072489Y-77011206D01*
X135124000Y-77000000D01*
X137387876Y-77000000D01*
X137454915Y-77019685D01*
G37*
%TD.AperFunction*%
%TA.AperFunction,NonConductor*%
G36*
X131943039Y-77019685D02*
G01*
X131988794Y-77072489D01*
X132000000Y-77124000D01*
X132000000Y-79876000D01*
X131980315Y-79943039D01*
X131927511Y-79988794D01*
X131876000Y-80000000D01*
X129124000Y-80000000D01*
X129056961Y-79980315D01*
X129011206Y-79927511D01*
X129000000Y-79876000D01*
X129000000Y-77124000D01*
X129019685Y-77056961D01*
X129072489Y-77011206D01*
X129124000Y-77000000D01*
X131876000Y-77000000D01*
X131943039Y-77019685D01*
G37*
%TD.AperFunction*%
%TA.AperFunction,NonConductor*%
G36*
X125943039Y-77019685D02*
G01*
X125988794Y-77072489D01*
X126000000Y-77124000D01*
X126000000Y-79876000D01*
X125980315Y-79943039D01*
X125927511Y-79988794D01*
X125876000Y-80000000D01*
X123944045Y-80000000D01*
X123877006Y-79980315D01*
X123831251Y-79927511D01*
X123821572Y-79895397D01*
X123807599Y-79807174D01*
X123807599Y-79807173D01*
X123746772Y-79619970D01*
X123657413Y-79444594D01*
X123541718Y-79285354D01*
X123402536Y-79146172D01*
X123243295Y-79030476D01*
X123067705Y-78941008D01*
X123016909Y-78893033D01*
X123000000Y-78830523D01*
X123000000Y-77124000D01*
X123019685Y-77056961D01*
X123072489Y-77011206D01*
X123124000Y-77000000D01*
X125876000Y-77000000D01*
X125943039Y-77019685D01*
G37*
%TD.AperFunction*%
%TA.AperFunction,NonConductor*%
G36*
X107943039Y-77019685D02*
G01*
X107988794Y-77072489D01*
X108000000Y-77124000D01*
X108000000Y-78990896D01*
X107980315Y-79057935D01*
X107948887Y-79091213D01*
X107873244Y-79146171D01*
X107734064Y-79285351D01*
X107734064Y-79285352D01*
X107734062Y-79285354D01*
X107684375Y-79353741D01*
X107618366Y-79444594D01*
X107529007Y-79619970D01*
X107468180Y-79807173D01*
X107468180Y-79807174D01*
X107454208Y-79895397D01*
X107424279Y-79958532D01*
X107364968Y-79995464D01*
X107331735Y-80000000D01*
X105124000Y-80000000D01*
X105056961Y-79980315D01*
X105011206Y-79927511D01*
X105000000Y-79876000D01*
X105000000Y-77124000D01*
X105019685Y-77056961D01*
X105072489Y-77011206D01*
X105124000Y-77000000D01*
X107876000Y-77000000D01*
X107943039Y-77019685D01*
G37*
%TD.AperFunction*%
%TA.AperFunction,NonConductor*%
G36*
X89943039Y-77019685D02*
G01*
X89988794Y-77072489D01*
X90000000Y-77124000D01*
X90000000Y-78725500D01*
X89980315Y-78792539D01*
X89927511Y-78838294D01*
X89876000Y-78849500D01*
X89542049Y-78849500D01*
X89347644Y-78880290D01*
X89160441Y-78941117D01*
X88985065Y-79030476D01*
X88952582Y-79054077D01*
X88825825Y-79146172D01*
X88825823Y-79146174D01*
X88825822Y-79146174D01*
X88686645Y-79285351D01*
X88686645Y-79285352D01*
X88686643Y-79285354D01*
X88636956Y-79353741D01*
X88570947Y-79444594D01*
X88481588Y-79619970D01*
X88420761Y-79807173D01*
X88420761Y-79807174D01*
X88406789Y-79895397D01*
X88376860Y-79958532D01*
X88317549Y-79995464D01*
X88284316Y-80000000D01*
X87124000Y-80000000D01*
X87056961Y-79980315D01*
X87011206Y-79927511D01*
X87000000Y-79876000D01*
X87000000Y-77124000D01*
X87019685Y-77056961D01*
X87072489Y-77011206D01*
X87124000Y-77000000D01*
X89876000Y-77000000D01*
X89943039Y-77019685D01*
G37*
%TD.AperFunction*%
%TA.AperFunction,NonConductor*%
G36*
X71943039Y-77019685D02*
G01*
X71988794Y-77072489D01*
X72000000Y-77124000D01*
X72000000Y-78725500D01*
X71980315Y-78792539D01*
X71927511Y-78838294D01*
X71876000Y-78849500D01*
X70484078Y-78849500D01*
X70289673Y-78880290D01*
X70102470Y-78941117D01*
X69927094Y-79030476D01*
X69894611Y-79054077D01*
X69767854Y-79146172D01*
X69767852Y-79146174D01*
X69767851Y-79146174D01*
X69628674Y-79285351D01*
X69628674Y-79285352D01*
X69628672Y-79285354D01*
X69578985Y-79353741D01*
X69512976Y-79444594D01*
X69423617Y-79619970D01*
X69362790Y-79807173D01*
X69362790Y-79807174D01*
X69348818Y-79895397D01*
X69318889Y-79958532D01*
X69259578Y-79995464D01*
X69226345Y-80000000D01*
X69124000Y-80000000D01*
X69056961Y-79980315D01*
X69011206Y-79927511D01*
X69000000Y-79876000D01*
X69000000Y-77124000D01*
X69019685Y-77056961D01*
X69072489Y-77011206D01*
X69124000Y-77000000D01*
X71876000Y-77000000D01*
X71943039Y-77019685D01*
G37*
%TD.AperFunction*%
%TA.AperFunction,NonConductor*%
G36*
X65943039Y-77019685D02*
G01*
X65988794Y-77072489D01*
X66000000Y-77124000D01*
X66000000Y-79876000D01*
X65980315Y-79943039D01*
X65927511Y-79988794D01*
X65876000Y-80000000D01*
X63124000Y-80000000D01*
X63056961Y-79980315D01*
X63011206Y-79927511D01*
X63000000Y-79876000D01*
X63000000Y-77124000D01*
X63019685Y-77056961D01*
X63072489Y-77011206D01*
X63124000Y-77000000D01*
X65876000Y-77000000D01*
X65943039Y-77019685D01*
G37*
%TD.AperFunction*%
%TA.AperFunction,NonConductor*%
G36*
X59943039Y-77019685D02*
G01*
X59988794Y-77072489D01*
X60000000Y-77124000D01*
X60000000Y-79876000D01*
X59980315Y-79943039D01*
X59927511Y-79988794D01*
X59876000Y-80000000D01*
X57124000Y-80000000D01*
X57056961Y-79980315D01*
X57011206Y-79927511D01*
X57000000Y-79876000D01*
X57000000Y-77124000D01*
X57019685Y-77056961D01*
X57072489Y-77011206D01*
X57124000Y-77000000D01*
X59876000Y-77000000D01*
X59943039Y-77019685D01*
G37*
%TD.AperFunction*%
%TA.AperFunction,NonConductor*%
G36*
X53943039Y-77019685D02*
G01*
X53988794Y-77072489D01*
X54000000Y-77124000D01*
X54000000Y-79876000D01*
X53980315Y-79943039D01*
X53927511Y-79988794D01*
X53876000Y-80000000D01*
X51124000Y-80000000D01*
X51056961Y-79980315D01*
X51011206Y-79927511D01*
X51000000Y-79876000D01*
X51000000Y-77124000D01*
X51019685Y-77056961D01*
X51072489Y-77011206D01*
X51124000Y-77000000D01*
X53876000Y-77000000D01*
X53943039Y-77019685D01*
G37*
%TD.AperFunction*%
%TA.AperFunction,NonConductor*%
G36*
X47943039Y-77019685D02*
G01*
X47988794Y-77072489D01*
X48000000Y-77124000D01*
X48000000Y-79876000D01*
X47980315Y-79943039D01*
X47927511Y-79988794D01*
X47876000Y-80000000D01*
X45124000Y-80000000D01*
X45056961Y-79980315D01*
X45011206Y-79927511D01*
X45000000Y-79876000D01*
X45000000Y-77124000D01*
X45019685Y-77056961D01*
X45072489Y-77011206D01*
X45124000Y-77000000D01*
X47876000Y-77000000D01*
X47943039Y-77019685D01*
G37*
%TD.AperFunction*%
%TA.AperFunction,NonConductor*%
G36*
X41943039Y-77019685D02*
G01*
X41988794Y-77072489D01*
X42000000Y-77124000D01*
X42000000Y-79876000D01*
X41980315Y-79943039D01*
X41927511Y-79988794D01*
X41876000Y-80000000D01*
X39124000Y-80000000D01*
X39056961Y-79980315D01*
X39011206Y-79927511D01*
X39000000Y-79876000D01*
X39000000Y-77124000D01*
X39019685Y-77056961D01*
X39072489Y-77011206D01*
X39124000Y-77000000D01*
X41876000Y-77000000D01*
X41943039Y-77019685D01*
G37*
%TD.AperFunction*%
%TA.AperFunction,NonConductor*%
G36*
X35943039Y-77019685D02*
G01*
X35988794Y-77072489D01*
X36000000Y-77124000D01*
X36000000Y-79876000D01*
X35980315Y-79943039D01*
X35927511Y-79988794D01*
X35876000Y-80000000D01*
X33124000Y-80000000D01*
X33056961Y-79980315D01*
X33011206Y-79927511D01*
X33000000Y-79876000D01*
X33000000Y-77124000D01*
X33019685Y-77056961D01*
X33072489Y-77011206D01*
X33124000Y-77000000D01*
X35876000Y-77000000D01*
X35943039Y-77019685D01*
G37*
%TD.AperFunction*%
%TA.AperFunction,NonConductor*%
G36*
X134943039Y-80019685D02*
G01*
X134988794Y-80072489D01*
X135000000Y-80124000D01*
X135000000Y-82876000D01*
X134980315Y-82943039D01*
X134927511Y-82988794D01*
X134876000Y-83000000D01*
X132124000Y-83000000D01*
X132056961Y-82980315D01*
X132011206Y-82927511D01*
X132000000Y-82876000D01*
X132000000Y-80124000D01*
X132019685Y-80056961D01*
X132072489Y-80011206D01*
X132124000Y-80000000D01*
X134876000Y-80000000D01*
X134943039Y-80019685D01*
G37*
%TD.AperFunction*%
%TA.AperFunction,NonConductor*%
G36*
X128943039Y-80019685D02*
G01*
X128988794Y-80072489D01*
X129000000Y-80124000D01*
X129000000Y-82876000D01*
X128980315Y-82943039D01*
X128927511Y-82988794D01*
X128876000Y-83000000D01*
X126124000Y-83000000D01*
X126056961Y-82980315D01*
X126011206Y-82927511D01*
X126000000Y-82876000D01*
X126000000Y-80124000D01*
X126019685Y-80056961D01*
X126072489Y-80011206D01*
X126124000Y-80000000D01*
X128876000Y-80000000D01*
X128943039Y-80019685D01*
G37*
%TD.AperFunction*%
%TA.AperFunction,NonConductor*%
G36*
X121280429Y-81370185D02*
G01*
X121326184Y-81422989D01*
X121337390Y-81474500D01*
X121337390Y-82876000D01*
X121317705Y-82943039D01*
X121264901Y-82988794D01*
X121213390Y-83000000D01*
X120124000Y-83000000D01*
X120056961Y-82980315D01*
X120011206Y-82927511D01*
X120000000Y-82876000D01*
X120000000Y-81474500D01*
X120019685Y-81407461D01*
X120072489Y-81361706D01*
X120124000Y-81350500D01*
X121213390Y-81350500D01*
X121280429Y-81370185D01*
G37*
%TD.AperFunction*%
%TA.AperFunction,NonConductor*%
G36*
X116943039Y-81370185D02*
G01*
X116988794Y-81422989D01*
X117000000Y-81474500D01*
X117000000Y-82876000D01*
X116980315Y-82943039D01*
X116927511Y-82988794D01*
X116876000Y-83000000D01*
X114124000Y-83000000D01*
X114056961Y-82980315D01*
X114011206Y-82927511D01*
X114000000Y-82876000D01*
X114000000Y-81474500D01*
X114019685Y-81407461D01*
X114072489Y-81361706D01*
X114124000Y-81350500D01*
X116876000Y-81350500D01*
X116943039Y-81370185D01*
G37*
%TD.AperFunction*%
%TA.AperFunction,NonConductor*%
G36*
X110943039Y-81370185D02*
G01*
X110988794Y-81422989D01*
X111000000Y-81474500D01*
X111000000Y-82876000D01*
X110980315Y-82943039D01*
X110927511Y-82988794D01*
X110876000Y-83000000D01*
X110062390Y-83000000D01*
X109995351Y-82980315D01*
X109949596Y-82927511D01*
X109938390Y-82876000D01*
X109938390Y-81474500D01*
X109958075Y-81407461D01*
X110010879Y-81361706D01*
X110062390Y-81350500D01*
X110876000Y-81350500D01*
X110943039Y-81370185D01*
G37*
%TD.AperFunction*%
%TA.AperFunction,NonConductor*%
G36*
X102233010Y-81370185D02*
G01*
X102278765Y-81422989D01*
X102289971Y-81474500D01*
X102289971Y-82876000D01*
X102270286Y-82943039D01*
X102217482Y-82988794D01*
X102165971Y-83000000D01*
X102124000Y-83000000D01*
X102056961Y-82980315D01*
X102011206Y-82927511D01*
X102000000Y-82876000D01*
X102000000Y-81474500D01*
X102019685Y-81407461D01*
X102072489Y-81361706D01*
X102124000Y-81350500D01*
X102165971Y-81350500D01*
X102233010Y-81370185D01*
G37*
%TD.AperFunction*%
%TA.AperFunction,NonConductor*%
G36*
X98943039Y-81370185D02*
G01*
X98988794Y-81422989D01*
X99000000Y-81474500D01*
X99000000Y-82876000D01*
X98980315Y-82943039D01*
X98927511Y-82988794D01*
X98876000Y-83000000D01*
X96124000Y-83000000D01*
X96056961Y-82980315D01*
X96011206Y-82927511D01*
X96000000Y-82876000D01*
X96000000Y-81474500D01*
X96019685Y-81407461D01*
X96072489Y-81361706D01*
X96124000Y-81350500D01*
X98876000Y-81350500D01*
X98943039Y-81370185D01*
G37*
%TD.AperFunction*%
%TA.AperFunction,NonConductor*%
G36*
X92943039Y-81370185D02*
G01*
X92988794Y-81422989D01*
X93000000Y-81474500D01*
X93000000Y-82876000D01*
X92980315Y-82943039D01*
X92927511Y-82988794D01*
X92876000Y-83000000D01*
X91014971Y-83000000D01*
X90947932Y-82980315D01*
X90902177Y-82927511D01*
X90890971Y-82876000D01*
X90890971Y-81474500D01*
X90910656Y-81407461D01*
X90963460Y-81361706D01*
X91014971Y-81350500D01*
X92876000Y-81350500D01*
X92943039Y-81370185D01*
G37*
%TD.AperFunction*%
%TA.AperFunction,NonConductor*%
G36*
X86943039Y-80019685D02*
G01*
X86988794Y-80072489D01*
X87000000Y-80124000D01*
X87000000Y-82876000D01*
X86980315Y-82943039D01*
X86927511Y-82988794D01*
X86876000Y-83000000D01*
X85857000Y-83000000D01*
X85789961Y-82980315D01*
X85744206Y-82927511D01*
X85733000Y-82876000D01*
X85733000Y-80124000D01*
X85752685Y-80056961D01*
X85805489Y-80011206D01*
X85857000Y-80000000D01*
X86876000Y-80000000D01*
X86943039Y-80019685D01*
G37*
%TD.AperFunction*%
%TA.AperFunction,NonConductor*%
G36*
X80943039Y-81370185D02*
G01*
X80988794Y-81422989D01*
X81000000Y-81474500D01*
X81000000Y-82876000D01*
X80980315Y-82943039D01*
X80927511Y-82988794D01*
X80876000Y-83000000D01*
X78124000Y-83000000D01*
X78056961Y-82980315D01*
X78011206Y-82927511D01*
X78000000Y-82876000D01*
X78000000Y-81474500D01*
X78019685Y-81407461D01*
X78072489Y-81361706D01*
X78124000Y-81350500D01*
X80876000Y-81350500D01*
X80943039Y-81370185D01*
G37*
%TD.AperFunction*%
%TA.AperFunction,NonConductor*%
G36*
X74943039Y-81370185D02*
G01*
X74988794Y-81422989D01*
X75000000Y-81474500D01*
X75000000Y-82876000D01*
X74980315Y-82943039D01*
X74927511Y-82988794D01*
X74876000Y-83000000D01*
X72124000Y-83000000D01*
X72056961Y-82980315D01*
X72011206Y-82927511D01*
X72000000Y-82876000D01*
X72000000Y-81474500D01*
X72019685Y-81407461D01*
X72072489Y-81361706D01*
X72124000Y-81350500D01*
X74876000Y-81350500D01*
X74943039Y-81370185D01*
G37*
%TD.AperFunction*%
%TA.AperFunction,NonConductor*%
G36*
X68943039Y-80019685D02*
G01*
X68988794Y-80072489D01*
X69000000Y-80124000D01*
X69000000Y-82876000D01*
X68980315Y-82943039D01*
X68927511Y-82988794D01*
X68876000Y-83000000D01*
X66124000Y-83000000D01*
X66056961Y-82980315D01*
X66011206Y-82927511D01*
X66000000Y-82876000D01*
X66000000Y-80124000D01*
X66019685Y-80056961D01*
X66072489Y-80011206D01*
X66124000Y-80000000D01*
X68876000Y-80000000D01*
X68943039Y-80019685D01*
G37*
%TD.AperFunction*%
%TA.AperFunction,NonConductor*%
G36*
X62943039Y-80019685D02*
G01*
X62988794Y-80072489D01*
X63000000Y-80124000D01*
X63000000Y-82876000D01*
X62980315Y-82943039D01*
X62927511Y-82988794D01*
X62876000Y-83000000D01*
X60124000Y-83000000D01*
X60056961Y-82980315D01*
X60011206Y-82927511D01*
X60000000Y-82876000D01*
X60000000Y-80124000D01*
X60019685Y-80056961D01*
X60072489Y-80011206D01*
X60124000Y-80000000D01*
X62876000Y-80000000D01*
X62943039Y-80019685D01*
G37*
%TD.AperFunction*%
%TA.AperFunction,NonConductor*%
G36*
X56943039Y-80019685D02*
G01*
X56988794Y-80072489D01*
X57000000Y-80124000D01*
X57000000Y-82876000D01*
X56980315Y-82943039D01*
X56927511Y-82988794D01*
X56876000Y-83000000D01*
X54124000Y-83000000D01*
X54056961Y-82980315D01*
X54011206Y-82927511D01*
X54000000Y-82876000D01*
X54000000Y-80124000D01*
X54019685Y-80056961D01*
X54072489Y-80011206D01*
X54124000Y-80000000D01*
X56876000Y-80000000D01*
X56943039Y-80019685D01*
G37*
%TD.AperFunction*%
%TA.AperFunction,NonConductor*%
G36*
X50943039Y-80019685D02*
G01*
X50988794Y-80072489D01*
X51000000Y-80124000D01*
X51000000Y-82876000D01*
X50980315Y-82943039D01*
X50927511Y-82988794D01*
X50876000Y-83000000D01*
X48124000Y-83000000D01*
X48056961Y-82980315D01*
X48011206Y-82927511D01*
X48000000Y-82876000D01*
X48000000Y-80124000D01*
X48019685Y-80056961D01*
X48072489Y-80011206D01*
X48124000Y-80000000D01*
X50876000Y-80000000D01*
X50943039Y-80019685D01*
G37*
%TD.AperFunction*%
%TA.AperFunction,NonConductor*%
G36*
X44943039Y-80019685D02*
G01*
X44988794Y-80072489D01*
X45000000Y-80124000D01*
X45000000Y-82876000D01*
X44980315Y-82943039D01*
X44927511Y-82988794D01*
X44876000Y-83000000D01*
X42124000Y-83000000D01*
X42056961Y-82980315D01*
X42011206Y-82927511D01*
X42000000Y-82876000D01*
X42000000Y-80124000D01*
X42019685Y-80056961D01*
X42072489Y-80011206D01*
X42124000Y-80000000D01*
X44876000Y-80000000D01*
X44943039Y-80019685D01*
G37*
%TD.AperFunction*%
%TA.AperFunction,NonConductor*%
G36*
X38943039Y-80019685D02*
G01*
X38988794Y-80072489D01*
X39000000Y-80124000D01*
X39000000Y-82876000D01*
X38980315Y-82943039D01*
X38927511Y-82988794D01*
X38876000Y-83000000D01*
X36124000Y-83000000D01*
X36056961Y-82980315D01*
X36011206Y-82927511D01*
X36000000Y-82876000D01*
X36000000Y-80124000D01*
X36019685Y-80056961D01*
X36072489Y-80011206D01*
X36124000Y-80000000D01*
X38876000Y-80000000D01*
X38943039Y-80019685D01*
G37*
%TD.AperFunction*%
%TA.AperFunction,NonConductor*%
G36*
X32943039Y-80019685D02*
G01*
X32988794Y-80072489D01*
X33000000Y-80124000D01*
X33000000Y-82876000D01*
X32980315Y-82943039D01*
X32927511Y-82988794D01*
X32876000Y-83000000D01*
X32624500Y-83000000D01*
X32557461Y-82980315D01*
X32511706Y-82927511D01*
X32500500Y-82876000D01*
X32500500Y-80124000D01*
X32520185Y-80056961D01*
X32572989Y-80011206D01*
X32624500Y-80000000D01*
X32876000Y-80000000D01*
X32943039Y-80019685D01*
G37*
%TD.AperFunction*%
%TA.AperFunction,NonConductor*%
G36*
X137454915Y-83019685D02*
G01*
X137500670Y-83072489D01*
X137511876Y-83124000D01*
X137511876Y-85876000D01*
X137492191Y-85943039D01*
X137439387Y-85988794D01*
X137387876Y-86000000D01*
X135124000Y-86000000D01*
X135056961Y-85980315D01*
X135011206Y-85927511D01*
X135000000Y-85876000D01*
X135000000Y-83124000D01*
X135019685Y-83056961D01*
X135072489Y-83011206D01*
X135124000Y-83000000D01*
X137387876Y-83000000D01*
X137454915Y-83019685D01*
G37*
%TD.AperFunction*%
%TA.AperFunction,NonConductor*%
G36*
X131943039Y-83019685D02*
G01*
X131988794Y-83072489D01*
X132000000Y-83124000D01*
X132000000Y-85876000D01*
X131980315Y-85943039D01*
X131927511Y-85988794D01*
X131876000Y-86000000D01*
X129124000Y-86000000D01*
X129056961Y-85980315D01*
X129011206Y-85927511D01*
X129000000Y-85876000D01*
X129000000Y-83124000D01*
X129019685Y-83056961D01*
X129072489Y-83011206D01*
X129124000Y-83000000D01*
X131876000Y-83000000D01*
X131943039Y-83019685D01*
G37*
%TD.AperFunction*%
%TA.AperFunction,NonConductor*%
G36*
X125943039Y-83019685D02*
G01*
X125988794Y-83072489D01*
X126000000Y-83124000D01*
X126000000Y-85876000D01*
X125980315Y-85943039D01*
X125927511Y-85988794D01*
X125876000Y-86000000D01*
X123962390Y-86000000D01*
X123895351Y-85980315D01*
X123849596Y-85927511D01*
X123838390Y-85876000D01*
X123838390Y-83124000D01*
X123858075Y-83056961D01*
X123910879Y-83011206D01*
X123962390Y-83000000D01*
X125876000Y-83000000D01*
X125943039Y-83019685D01*
G37*
%TD.AperFunction*%
%TA.AperFunction,NonConductor*%
G36*
X119943039Y-83019685D02*
G01*
X119988794Y-83072489D01*
X120000000Y-83124000D01*
X120000000Y-85876000D01*
X119980315Y-85943039D01*
X119927511Y-85988794D01*
X119876000Y-86000000D01*
X117124000Y-86000000D01*
X117056961Y-85980315D01*
X117011206Y-85927511D01*
X117000000Y-85876000D01*
X117000000Y-83124000D01*
X117019685Y-83056961D01*
X117072489Y-83011206D01*
X117124000Y-83000000D01*
X119876000Y-83000000D01*
X119943039Y-83019685D01*
G37*
%TD.AperFunction*%
%TA.AperFunction,NonConductor*%
G36*
X113943039Y-83019685D02*
G01*
X113988794Y-83072489D01*
X114000000Y-83124000D01*
X114000000Y-85876000D01*
X113980315Y-85943039D01*
X113927511Y-85988794D01*
X113876000Y-86000000D01*
X111124000Y-86000000D01*
X111056961Y-85980315D01*
X111011206Y-85927511D01*
X111000000Y-85876000D01*
X111000000Y-83124000D01*
X111019685Y-83056961D01*
X111072489Y-83011206D01*
X111124000Y-83000000D01*
X113876000Y-83000000D01*
X113943039Y-83019685D01*
G37*
%TD.AperFunction*%
%TA.AperFunction,NonConductor*%
G36*
X107380429Y-83019685D02*
G01*
X107426184Y-83072489D01*
X107437390Y-83124000D01*
X107437390Y-85876000D01*
X107417705Y-85943039D01*
X107364901Y-85988794D01*
X107313390Y-86000000D01*
X105124000Y-86000000D01*
X105056961Y-85980315D01*
X105011206Y-85927511D01*
X105000000Y-85876000D01*
X105000000Y-83124000D01*
X105019685Y-83056961D01*
X105072489Y-83011206D01*
X105124000Y-83000000D01*
X107313390Y-83000000D01*
X107380429Y-83019685D01*
G37*
%TD.AperFunction*%
%TA.AperFunction,NonConductor*%
G36*
X101943039Y-83019685D02*
G01*
X101988794Y-83072489D01*
X102000000Y-83124000D01*
X102000000Y-85876000D01*
X101980315Y-85943039D01*
X101927511Y-85988794D01*
X101876000Y-86000000D01*
X99124000Y-86000000D01*
X99056961Y-85980315D01*
X99011206Y-85927511D01*
X99000000Y-85876000D01*
X99000000Y-83124000D01*
X99019685Y-83056961D01*
X99072489Y-83011206D01*
X99124000Y-83000000D01*
X101876000Y-83000000D01*
X101943039Y-83019685D01*
G37*
%TD.AperFunction*%
%TA.AperFunction,NonConductor*%
G36*
X95943039Y-83019685D02*
G01*
X95988794Y-83072489D01*
X96000000Y-83124000D01*
X96000000Y-85876000D01*
X95980315Y-85943039D01*
X95927511Y-85988794D01*
X95876000Y-86000000D01*
X93124000Y-86000000D01*
X93056961Y-85980315D01*
X93011206Y-85927511D01*
X93000000Y-85876000D01*
X93000000Y-83124000D01*
X93019685Y-83056961D01*
X93072489Y-83011206D01*
X93124000Y-83000000D01*
X95876000Y-83000000D01*
X95943039Y-83019685D01*
G37*
%TD.AperFunction*%
%TA.AperFunction,NonConductor*%
G36*
X88333010Y-83019685D02*
G01*
X88378765Y-83072489D01*
X88389971Y-83124000D01*
X88389971Y-85876000D01*
X88370286Y-85943039D01*
X88317482Y-85988794D01*
X88265971Y-86000000D01*
X87124000Y-86000000D01*
X87056961Y-85980315D01*
X87011206Y-85927511D01*
X87000000Y-85876000D01*
X87000000Y-83124000D01*
X87019685Y-83056961D01*
X87072489Y-83011206D01*
X87124000Y-83000000D01*
X88265971Y-83000000D01*
X88333010Y-83019685D01*
G37*
%TD.AperFunction*%
%TA.AperFunction,NonConductor*%
G36*
X83175039Y-83019685D02*
G01*
X83220794Y-83072489D01*
X83232000Y-83124000D01*
X83232000Y-85876000D01*
X83212315Y-85943039D01*
X83159511Y-85988794D01*
X83108000Y-86000000D01*
X81124000Y-86000000D01*
X81056961Y-85980315D01*
X81011206Y-85927511D01*
X81000000Y-85876000D01*
X81000000Y-83124000D01*
X81019685Y-83056961D01*
X81072489Y-83011206D01*
X81124000Y-83000000D01*
X83108000Y-83000000D01*
X83175039Y-83019685D01*
G37*
%TD.AperFunction*%
%TA.AperFunction,NonConductor*%
G36*
X77943039Y-83019685D02*
G01*
X77988794Y-83072489D01*
X78000000Y-83124000D01*
X78000000Y-85876000D01*
X77980315Y-85943039D01*
X77927511Y-85988794D01*
X77876000Y-86000000D01*
X75124000Y-86000000D01*
X75056961Y-85980315D01*
X75011206Y-85927511D01*
X75000000Y-85876000D01*
X75000000Y-83124000D01*
X75019685Y-83056961D01*
X75072489Y-83011206D01*
X75124000Y-83000000D01*
X77876000Y-83000000D01*
X77943039Y-83019685D01*
G37*
%TD.AperFunction*%
%TA.AperFunction,NonConductor*%
G36*
X69275039Y-83019685D02*
G01*
X69320794Y-83072489D01*
X69332000Y-83124000D01*
X69332000Y-85876000D01*
X69312315Y-85943039D01*
X69259511Y-85988794D01*
X69208000Y-86000000D01*
X69124000Y-86000000D01*
X69056961Y-85980315D01*
X69011206Y-85927511D01*
X69000000Y-85876000D01*
X69000000Y-83124000D01*
X69019685Y-83056961D01*
X69072489Y-83011206D01*
X69124000Y-83000000D01*
X69208000Y-83000000D01*
X69275039Y-83019685D01*
G37*
%TD.AperFunction*%
%TA.AperFunction,NonConductor*%
G36*
X65943039Y-83019685D02*
G01*
X65988794Y-83072489D01*
X66000000Y-83124000D01*
X66000000Y-85876000D01*
X65980315Y-85943039D01*
X65927511Y-85988794D01*
X65876000Y-86000000D01*
X63124000Y-86000000D01*
X63056961Y-85980315D01*
X63011206Y-85927511D01*
X63000000Y-85876000D01*
X63000000Y-83124000D01*
X63019685Y-83056961D01*
X63072489Y-83011206D01*
X63124000Y-83000000D01*
X65876000Y-83000000D01*
X65943039Y-83019685D01*
G37*
%TD.AperFunction*%
%TA.AperFunction,NonConductor*%
G36*
X59943039Y-83019685D02*
G01*
X59988794Y-83072489D01*
X60000000Y-83124000D01*
X60000000Y-85876000D01*
X59980315Y-85943039D01*
X59927511Y-85988794D01*
X59876000Y-86000000D01*
X57124000Y-86000000D01*
X57056961Y-85980315D01*
X57011206Y-85927511D01*
X57000000Y-85876000D01*
X57000000Y-83124000D01*
X57019685Y-83056961D01*
X57072489Y-83011206D01*
X57124000Y-83000000D01*
X59876000Y-83000000D01*
X59943039Y-83019685D01*
G37*
%TD.AperFunction*%
%TA.AperFunction,NonConductor*%
G36*
X53943039Y-83019685D02*
G01*
X53988794Y-83072489D01*
X54000000Y-83124000D01*
X54000000Y-85876000D01*
X53980315Y-85943039D01*
X53927511Y-85988794D01*
X53876000Y-86000000D01*
X51124000Y-86000000D01*
X51056961Y-85980315D01*
X51011206Y-85927511D01*
X51000000Y-85876000D01*
X51000000Y-83124000D01*
X51019685Y-83056961D01*
X51072489Y-83011206D01*
X51124000Y-83000000D01*
X53876000Y-83000000D01*
X53943039Y-83019685D01*
G37*
%TD.AperFunction*%
%TA.AperFunction,NonConductor*%
G36*
X47943039Y-83019685D02*
G01*
X47988794Y-83072489D01*
X48000000Y-83124000D01*
X48000000Y-85876000D01*
X47980315Y-85943039D01*
X47927511Y-85988794D01*
X47876000Y-86000000D01*
X45124000Y-86000000D01*
X45056961Y-85980315D01*
X45011206Y-85927511D01*
X45000000Y-85876000D01*
X45000000Y-83124000D01*
X45019685Y-83056961D01*
X45072489Y-83011206D01*
X45124000Y-83000000D01*
X47876000Y-83000000D01*
X47943039Y-83019685D01*
G37*
%TD.AperFunction*%
%TA.AperFunction,NonConductor*%
G36*
X41943039Y-83019685D02*
G01*
X41988794Y-83072489D01*
X42000000Y-83124000D01*
X42000000Y-85876000D01*
X41980315Y-85943039D01*
X41927511Y-85988794D01*
X41876000Y-86000000D01*
X39124000Y-86000000D01*
X39056961Y-85980315D01*
X39011206Y-85927511D01*
X39000000Y-85876000D01*
X39000000Y-83124000D01*
X39019685Y-83056961D01*
X39072489Y-83011206D01*
X39124000Y-83000000D01*
X41876000Y-83000000D01*
X41943039Y-83019685D01*
G37*
%TD.AperFunction*%
%TA.AperFunction,NonConductor*%
G36*
X35943039Y-83019685D02*
G01*
X35988794Y-83072489D01*
X36000000Y-83124000D01*
X36000000Y-85876000D01*
X35980315Y-85943039D01*
X35927511Y-85988794D01*
X35876000Y-86000000D01*
X33124000Y-86000000D01*
X33056961Y-85980315D01*
X33011206Y-85927511D01*
X33000000Y-85876000D01*
X33000000Y-83124000D01*
X33019685Y-83056961D01*
X33072489Y-83011206D01*
X33124000Y-83000000D01*
X35876000Y-83000000D01*
X35943039Y-83019685D01*
G37*
%TD.AperFunction*%
%TA.AperFunction,NonConductor*%
G36*
X134943039Y-86019685D02*
G01*
X134988794Y-86072489D01*
X135000000Y-86124000D01*
X135000000Y-88876000D01*
X134980315Y-88943039D01*
X134927511Y-88988794D01*
X134876000Y-89000000D01*
X132124000Y-89000000D01*
X132056961Y-88980315D01*
X132011206Y-88927511D01*
X132000000Y-88876000D01*
X132000000Y-86124000D01*
X132019685Y-86056961D01*
X132072489Y-86011206D01*
X132124000Y-86000000D01*
X134876000Y-86000000D01*
X134943039Y-86019685D01*
G37*
%TD.AperFunction*%
%TA.AperFunction,NonConductor*%
G36*
X128943039Y-86019685D02*
G01*
X128988794Y-86072489D01*
X129000000Y-86124000D01*
X129000000Y-88876000D01*
X128980315Y-88943039D01*
X128927511Y-88988794D01*
X128876000Y-89000000D01*
X126124000Y-89000000D01*
X126056961Y-88980315D01*
X126011206Y-88927511D01*
X126000000Y-88876000D01*
X126000000Y-86124000D01*
X126019685Y-86056961D01*
X126072489Y-86011206D01*
X126124000Y-86000000D01*
X128876000Y-86000000D01*
X128943039Y-86019685D01*
G37*
%TD.AperFunction*%
%TA.AperFunction,NonConductor*%
G36*
X121280429Y-86019685D02*
G01*
X121326184Y-86072489D01*
X121337390Y-86124000D01*
X121337390Y-88876000D01*
X121317705Y-88943039D01*
X121264901Y-88988794D01*
X121213390Y-89000000D01*
X120124000Y-89000000D01*
X120056961Y-88980315D01*
X120011206Y-88927511D01*
X120000000Y-88876000D01*
X120000000Y-86124000D01*
X120019685Y-86056961D01*
X120072489Y-86011206D01*
X120124000Y-86000000D01*
X121213390Y-86000000D01*
X121280429Y-86019685D01*
G37*
%TD.AperFunction*%
%TA.AperFunction,NonConductor*%
G36*
X116943039Y-86019685D02*
G01*
X116988794Y-86072489D01*
X117000000Y-86124000D01*
X117000000Y-88876000D01*
X116980315Y-88943039D01*
X116927511Y-88988794D01*
X116876000Y-89000000D01*
X114124000Y-89000000D01*
X114056961Y-88980315D01*
X114011206Y-88927511D01*
X114000000Y-88876000D01*
X114000000Y-86124000D01*
X114019685Y-86056961D01*
X114072489Y-86011206D01*
X114124000Y-86000000D01*
X116876000Y-86000000D01*
X116943039Y-86019685D01*
G37*
%TD.AperFunction*%
%TA.AperFunction,NonConductor*%
G36*
X110943039Y-86019685D02*
G01*
X110988794Y-86072489D01*
X111000000Y-86124000D01*
X111000000Y-88876000D01*
X110980315Y-88943039D01*
X110927511Y-88988794D01*
X110876000Y-89000000D01*
X110062390Y-89000000D01*
X109995351Y-88980315D01*
X109949596Y-88927511D01*
X109938390Y-88876000D01*
X109938390Y-86124000D01*
X109958075Y-86056961D01*
X110010879Y-86011206D01*
X110062390Y-86000000D01*
X110876000Y-86000000D01*
X110943039Y-86019685D01*
G37*
%TD.AperFunction*%
%TA.AperFunction,NonConductor*%
G36*
X102233010Y-86019685D02*
G01*
X102278765Y-86072489D01*
X102289971Y-86124000D01*
X102289971Y-88876000D01*
X102270286Y-88943039D01*
X102217482Y-88988794D01*
X102165971Y-89000000D01*
X102124000Y-89000000D01*
X102056961Y-88980315D01*
X102011206Y-88927511D01*
X102000000Y-88876000D01*
X102000000Y-86124000D01*
X102019685Y-86056961D01*
X102072489Y-86011206D01*
X102124000Y-86000000D01*
X102165971Y-86000000D01*
X102233010Y-86019685D01*
G37*
%TD.AperFunction*%
%TA.AperFunction,NonConductor*%
G36*
X98943039Y-86019685D02*
G01*
X98988794Y-86072489D01*
X99000000Y-86124000D01*
X99000000Y-88876000D01*
X98980315Y-88943039D01*
X98927511Y-88988794D01*
X98876000Y-89000000D01*
X96124000Y-89000000D01*
X96056961Y-88980315D01*
X96011206Y-88927511D01*
X96000000Y-88876000D01*
X96000000Y-86124000D01*
X96019685Y-86056961D01*
X96072489Y-86011206D01*
X96124000Y-86000000D01*
X98876000Y-86000000D01*
X98943039Y-86019685D01*
G37*
%TD.AperFunction*%
%TA.AperFunction,NonConductor*%
G36*
X92943039Y-86019685D02*
G01*
X92988794Y-86072489D01*
X93000000Y-86124000D01*
X93000000Y-88876000D01*
X92980315Y-88943039D01*
X92927511Y-88988794D01*
X92876000Y-89000000D01*
X91014971Y-89000000D01*
X90947932Y-88980315D01*
X90902177Y-88927511D01*
X90890971Y-88876000D01*
X90890971Y-86124000D01*
X90910656Y-86056961D01*
X90963460Y-86011206D01*
X91014971Y-86000000D01*
X92876000Y-86000000D01*
X92943039Y-86019685D01*
G37*
%TD.AperFunction*%
%TA.AperFunction,NonConductor*%
G36*
X86943039Y-86019685D02*
G01*
X86988794Y-86072489D01*
X87000000Y-86124000D01*
X87000000Y-88876000D01*
X86980315Y-88943039D01*
X86927511Y-88988794D01*
X86876000Y-89000000D01*
X85857000Y-89000000D01*
X85789961Y-88980315D01*
X85744206Y-88927511D01*
X85733000Y-88876000D01*
X85733000Y-86124000D01*
X85752685Y-86056961D01*
X85805489Y-86011206D01*
X85857000Y-86000000D01*
X86876000Y-86000000D01*
X86943039Y-86019685D01*
G37*
%TD.AperFunction*%
%TA.AperFunction,NonConductor*%
G36*
X80943039Y-86019685D02*
G01*
X80988794Y-86072489D01*
X81000000Y-86124000D01*
X81000000Y-88876000D01*
X80980315Y-88943039D01*
X80927511Y-88988794D01*
X80876000Y-89000000D01*
X78124000Y-89000000D01*
X78056961Y-88980315D01*
X78011206Y-88927511D01*
X78000000Y-88876000D01*
X78000000Y-86124000D01*
X78019685Y-86056961D01*
X78072489Y-86011206D01*
X78124000Y-86000000D01*
X80876000Y-86000000D01*
X80943039Y-86019685D01*
G37*
%TD.AperFunction*%
%TA.AperFunction,NonConductor*%
G36*
X74943039Y-86019685D02*
G01*
X74988794Y-86072489D01*
X75000000Y-86124000D01*
X75000000Y-88876000D01*
X74980315Y-88943039D01*
X74927511Y-88988794D01*
X74876000Y-89000000D01*
X72124000Y-89000000D01*
X72056961Y-88980315D01*
X72011206Y-88927511D01*
X72000000Y-88876000D01*
X72000000Y-86124000D01*
X72019685Y-86056961D01*
X72072489Y-86011206D01*
X72124000Y-86000000D01*
X74876000Y-86000000D01*
X74943039Y-86019685D01*
G37*
%TD.AperFunction*%
%TA.AperFunction,NonConductor*%
G36*
X68943039Y-86019685D02*
G01*
X68988794Y-86072489D01*
X69000000Y-86124000D01*
X69000000Y-88876000D01*
X68980315Y-88943039D01*
X68927511Y-88988794D01*
X68876000Y-89000000D01*
X66124000Y-89000000D01*
X66056961Y-88980315D01*
X66011206Y-88927511D01*
X66000000Y-88876000D01*
X66000000Y-86124000D01*
X66019685Y-86056961D01*
X66072489Y-86011206D01*
X66124000Y-86000000D01*
X68876000Y-86000000D01*
X68943039Y-86019685D01*
G37*
%TD.AperFunction*%
%TA.AperFunction,NonConductor*%
G36*
X62943039Y-86019685D02*
G01*
X62988794Y-86072489D01*
X63000000Y-86124000D01*
X63000000Y-88876000D01*
X62980315Y-88943039D01*
X62927511Y-88988794D01*
X62876000Y-89000000D01*
X60124000Y-89000000D01*
X60056961Y-88980315D01*
X60011206Y-88927511D01*
X60000000Y-88876000D01*
X60000000Y-86124000D01*
X60019685Y-86056961D01*
X60072489Y-86011206D01*
X60124000Y-86000000D01*
X62876000Y-86000000D01*
X62943039Y-86019685D01*
G37*
%TD.AperFunction*%
%TA.AperFunction,NonConductor*%
G36*
X56943039Y-86019685D02*
G01*
X56988794Y-86072489D01*
X57000000Y-86124000D01*
X57000000Y-88876000D01*
X56980315Y-88943039D01*
X56927511Y-88988794D01*
X56876000Y-89000000D01*
X54124000Y-89000000D01*
X54056961Y-88980315D01*
X54011206Y-88927511D01*
X54000000Y-88876000D01*
X54000000Y-86124000D01*
X54019685Y-86056961D01*
X54072489Y-86011206D01*
X54124000Y-86000000D01*
X56876000Y-86000000D01*
X56943039Y-86019685D01*
G37*
%TD.AperFunction*%
%TA.AperFunction,NonConductor*%
G36*
X50943039Y-86019685D02*
G01*
X50988794Y-86072489D01*
X51000000Y-86124000D01*
X51000000Y-88876000D01*
X50980315Y-88943039D01*
X50927511Y-88988794D01*
X50876000Y-89000000D01*
X48124000Y-89000000D01*
X48056961Y-88980315D01*
X48011206Y-88927511D01*
X48000000Y-88876000D01*
X48000000Y-86124000D01*
X48019685Y-86056961D01*
X48072489Y-86011206D01*
X48124000Y-86000000D01*
X50876000Y-86000000D01*
X50943039Y-86019685D01*
G37*
%TD.AperFunction*%
%TA.AperFunction,NonConductor*%
G36*
X44943039Y-86019685D02*
G01*
X44988794Y-86072489D01*
X45000000Y-86124000D01*
X45000000Y-88876000D01*
X44980315Y-88943039D01*
X44927511Y-88988794D01*
X44876000Y-89000000D01*
X42124000Y-89000000D01*
X42056961Y-88980315D01*
X42011206Y-88927511D01*
X42000000Y-88876000D01*
X42000000Y-86124000D01*
X42019685Y-86056961D01*
X42072489Y-86011206D01*
X42124000Y-86000000D01*
X44876000Y-86000000D01*
X44943039Y-86019685D01*
G37*
%TD.AperFunction*%
%TA.AperFunction,NonConductor*%
G36*
X38943039Y-86019685D02*
G01*
X38988794Y-86072489D01*
X39000000Y-86124000D01*
X39000000Y-88876000D01*
X38980315Y-88943039D01*
X38927511Y-88988794D01*
X38876000Y-89000000D01*
X36124000Y-89000000D01*
X36056961Y-88980315D01*
X36011206Y-88927511D01*
X36000000Y-88876000D01*
X36000000Y-86124000D01*
X36019685Y-86056961D01*
X36072489Y-86011206D01*
X36124000Y-86000000D01*
X38876000Y-86000000D01*
X38943039Y-86019685D01*
G37*
%TD.AperFunction*%
%TA.AperFunction,NonConductor*%
G36*
X32943039Y-86019685D02*
G01*
X32988794Y-86072489D01*
X33000000Y-86124000D01*
X33000000Y-88876000D01*
X32980315Y-88943039D01*
X32927511Y-88988794D01*
X32876000Y-89000000D01*
X32624500Y-89000000D01*
X32557461Y-88980315D01*
X32511706Y-88927511D01*
X32500500Y-88876000D01*
X32500500Y-86124000D01*
X32520185Y-86056961D01*
X32572989Y-86011206D01*
X32624500Y-86000000D01*
X32876000Y-86000000D01*
X32943039Y-86019685D01*
G37*
%TD.AperFunction*%
%TA.AperFunction,NonConductor*%
G36*
X137454915Y-89019685D02*
G01*
X137500670Y-89072489D01*
X137511876Y-89124000D01*
X137511876Y-91876000D01*
X137492191Y-91943039D01*
X137439387Y-91988794D01*
X137387876Y-92000000D01*
X135124000Y-92000000D01*
X135056961Y-91980315D01*
X135011206Y-91927511D01*
X135000000Y-91876000D01*
X135000000Y-89124000D01*
X135019685Y-89056961D01*
X135072489Y-89011206D01*
X135124000Y-89000000D01*
X137387876Y-89000000D01*
X137454915Y-89019685D01*
G37*
%TD.AperFunction*%
%TA.AperFunction,NonConductor*%
G36*
X131943039Y-89019685D02*
G01*
X131988794Y-89072489D01*
X132000000Y-89124000D01*
X132000000Y-90025500D01*
X131980315Y-90092539D01*
X131927511Y-90138294D01*
X131882685Y-90148045D01*
X131882763Y-90149234D01*
X131878717Y-90149499D01*
X131638214Y-90181161D01*
X131403895Y-90243947D01*
X131179794Y-90336773D01*
X131179785Y-90336777D01*
X130969706Y-90458067D01*
X130777263Y-90605733D01*
X130777256Y-90605739D01*
X130605739Y-90777256D01*
X130605733Y-90777263D01*
X130458067Y-90969706D01*
X130336777Y-91179785D01*
X130336773Y-91179794D01*
X130243947Y-91403895D01*
X130181161Y-91638214D01*
X130149499Y-91878717D01*
X130149234Y-91882763D01*
X130147546Y-91882652D01*
X130129815Y-91943039D01*
X130077011Y-91988794D01*
X130025500Y-92000000D01*
X129124000Y-92000000D01*
X129056961Y-91980315D01*
X129011206Y-91927511D01*
X129000000Y-91876000D01*
X129000000Y-89124000D01*
X129019685Y-89056961D01*
X129072489Y-89011206D01*
X129124000Y-89000000D01*
X131876000Y-89000000D01*
X131943039Y-89019685D01*
G37*
%TD.AperFunction*%
%TA.AperFunction,NonConductor*%
G36*
X125943039Y-89019685D02*
G01*
X125988794Y-89072489D01*
X126000000Y-89124000D01*
X126000000Y-91876000D01*
X125980315Y-91943039D01*
X125927511Y-91988794D01*
X125876000Y-92000000D01*
X123962390Y-92000000D01*
X123895351Y-91980315D01*
X123849596Y-91927511D01*
X123838390Y-91876000D01*
X123838390Y-89124000D01*
X123858075Y-89056961D01*
X123910879Y-89011206D01*
X123962390Y-89000000D01*
X125876000Y-89000000D01*
X125943039Y-89019685D01*
G37*
%TD.AperFunction*%
%TA.AperFunction,NonConductor*%
G36*
X119943039Y-89019685D02*
G01*
X119988794Y-89072489D01*
X120000000Y-89124000D01*
X120000000Y-91876000D01*
X119980315Y-91943039D01*
X119927511Y-91988794D01*
X119876000Y-92000000D01*
X117124000Y-92000000D01*
X117056961Y-91980315D01*
X117011206Y-91927511D01*
X117000000Y-91876000D01*
X117000000Y-89124000D01*
X117019685Y-89056961D01*
X117072489Y-89011206D01*
X117124000Y-89000000D01*
X119876000Y-89000000D01*
X119943039Y-89019685D01*
G37*
%TD.AperFunction*%
%TA.AperFunction,NonConductor*%
G36*
X113943039Y-89019685D02*
G01*
X113988794Y-89072489D01*
X114000000Y-89124000D01*
X114000000Y-91876000D01*
X113980315Y-91943039D01*
X113927511Y-91988794D01*
X113876000Y-92000000D01*
X111124000Y-92000000D01*
X111056961Y-91980315D01*
X111011206Y-91927511D01*
X111000000Y-91876000D01*
X111000000Y-89124000D01*
X111019685Y-89056961D01*
X111072489Y-89011206D01*
X111124000Y-89000000D01*
X113876000Y-89000000D01*
X113943039Y-89019685D01*
G37*
%TD.AperFunction*%
%TA.AperFunction,NonConductor*%
G36*
X107380429Y-89019685D02*
G01*
X107426184Y-89072489D01*
X107437390Y-89124000D01*
X107437390Y-91876000D01*
X107417705Y-91943039D01*
X107364901Y-91988794D01*
X107313390Y-92000000D01*
X105124000Y-92000000D01*
X105056961Y-91980315D01*
X105011206Y-91927511D01*
X105000000Y-91876000D01*
X105000000Y-89124000D01*
X105019685Y-89056961D01*
X105072489Y-89011206D01*
X105124000Y-89000000D01*
X107313390Y-89000000D01*
X107380429Y-89019685D01*
G37*
%TD.AperFunction*%
%TA.AperFunction,NonConductor*%
G36*
X101943039Y-89019685D02*
G01*
X101988794Y-89072489D01*
X102000000Y-89124000D01*
X102000000Y-91876000D01*
X101980315Y-91943039D01*
X101927511Y-91988794D01*
X101876000Y-92000000D01*
X99124000Y-92000000D01*
X99056961Y-91980315D01*
X99011206Y-91927511D01*
X99000000Y-91876000D01*
X99000000Y-89124000D01*
X99019685Y-89056961D01*
X99072489Y-89011206D01*
X99124000Y-89000000D01*
X101876000Y-89000000D01*
X101943039Y-89019685D01*
G37*
%TD.AperFunction*%
%TA.AperFunction,NonConductor*%
G36*
X95943039Y-89019685D02*
G01*
X95988794Y-89072489D01*
X96000000Y-89124000D01*
X96000000Y-91876000D01*
X95980315Y-91943039D01*
X95927511Y-91988794D01*
X95876000Y-92000000D01*
X93124000Y-92000000D01*
X93056961Y-91980315D01*
X93011206Y-91927511D01*
X93000000Y-91876000D01*
X93000000Y-89124000D01*
X93019685Y-89056961D01*
X93072489Y-89011206D01*
X93124000Y-89000000D01*
X95876000Y-89000000D01*
X95943039Y-89019685D01*
G37*
%TD.AperFunction*%
%TA.AperFunction,NonConductor*%
G36*
X88333010Y-89019685D02*
G01*
X88378765Y-89072489D01*
X88389971Y-89124000D01*
X88389971Y-91876000D01*
X88370286Y-91943039D01*
X88317482Y-91988794D01*
X88265971Y-92000000D01*
X87124000Y-92000000D01*
X87056961Y-91980315D01*
X87011206Y-91927511D01*
X87000000Y-91876000D01*
X87000000Y-89124000D01*
X87019685Y-89056961D01*
X87072489Y-89011206D01*
X87124000Y-89000000D01*
X88265971Y-89000000D01*
X88333010Y-89019685D01*
G37*
%TD.AperFunction*%
%TA.AperFunction,NonConductor*%
G36*
X83175039Y-89019685D02*
G01*
X83220794Y-89072489D01*
X83232000Y-89124000D01*
X83232000Y-91876000D01*
X83212315Y-91943039D01*
X83159511Y-91988794D01*
X83108000Y-92000000D01*
X81124000Y-92000000D01*
X81056961Y-91980315D01*
X81011206Y-91927511D01*
X81000000Y-91876000D01*
X81000000Y-89124000D01*
X81019685Y-89056961D01*
X81072489Y-89011206D01*
X81124000Y-89000000D01*
X83108000Y-89000000D01*
X83175039Y-89019685D01*
G37*
%TD.AperFunction*%
%TA.AperFunction,NonConductor*%
G36*
X77943039Y-89019685D02*
G01*
X77988794Y-89072489D01*
X78000000Y-89124000D01*
X78000000Y-91876000D01*
X77980315Y-91943039D01*
X77927511Y-91988794D01*
X77876000Y-92000000D01*
X75124000Y-92000000D01*
X75056961Y-91980315D01*
X75011206Y-91927511D01*
X75000000Y-91876000D01*
X75000000Y-89124000D01*
X75019685Y-89056961D01*
X75072489Y-89011206D01*
X75124000Y-89000000D01*
X77876000Y-89000000D01*
X77943039Y-89019685D01*
G37*
%TD.AperFunction*%
%TA.AperFunction,NonConductor*%
G36*
X69275039Y-89019685D02*
G01*
X69320794Y-89072489D01*
X69332000Y-89124000D01*
X69332000Y-91876000D01*
X69312315Y-91943039D01*
X69259511Y-91988794D01*
X69208000Y-92000000D01*
X69124000Y-92000000D01*
X69056961Y-91980315D01*
X69011206Y-91927511D01*
X69000000Y-91876000D01*
X69000000Y-89124000D01*
X69019685Y-89056961D01*
X69072489Y-89011206D01*
X69124000Y-89000000D01*
X69208000Y-89000000D01*
X69275039Y-89019685D01*
G37*
%TD.AperFunction*%
%TA.AperFunction,NonConductor*%
G36*
X65943039Y-89019685D02*
G01*
X65988794Y-89072489D01*
X66000000Y-89124000D01*
X66000000Y-91876000D01*
X65980315Y-91943039D01*
X65927511Y-91988794D01*
X65876000Y-92000000D01*
X63124000Y-92000000D01*
X63056961Y-91980315D01*
X63011206Y-91927511D01*
X63000000Y-91876000D01*
X63000000Y-89124000D01*
X63019685Y-89056961D01*
X63072489Y-89011206D01*
X63124000Y-89000000D01*
X65876000Y-89000000D01*
X65943039Y-89019685D01*
G37*
%TD.AperFunction*%
%TA.AperFunction,NonConductor*%
G36*
X59943039Y-89019685D02*
G01*
X59988794Y-89072489D01*
X60000000Y-89124000D01*
X60000000Y-91876000D01*
X59980315Y-91943039D01*
X59927511Y-91988794D01*
X59876000Y-92000000D01*
X57124000Y-92000000D01*
X57056961Y-91980315D01*
X57011206Y-91927511D01*
X57000000Y-91876000D01*
X57000000Y-89124000D01*
X57019685Y-89056961D01*
X57072489Y-89011206D01*
X57124000Y-89000000D01*
X59876000Y-89000000D01*
X59943039Y-89019685D01*
G37*
%TD.AperFunction*%
%TA.AperFunction,NonConductor*%
G36*
X53943039Y-89019685D02*
G01*
X53988794Y-89072489D01*
X54000000Y-89124000D01*
X54000000Y-91876000D01*
X53980315Y-91943039D01*
X53927511Y-91988794D01*
X53876000Y-92000000D01*
X51124000Y-92000000D01*
X51056961Y-91980315D01*
X51011206Y-91927511D01*
X51000000Y-91876000D01*
X51000000Y-89124000D01*
X51019685Y-89056961D01*
X51072489Y-89011206D01*
X51124000Y-89000000D01*
X53876000Y-89000000D01*
X53943039Y-89019685D01*
G37*
%TD.AperFunction*%
%TA.AperFunction,NonConductor*%
G36*
X47943039Y-89019685D02*
G01*
X47988794Y-89072489D01*
X48000000Y-89124000D01*
X48000000Y-91876000D01*
X47980315Y-91943039D01*
X47927511Y-91988794D01*
X47876000Y-92000000D01*
X45124000Y-92000000D01*
X45056961Y-91980315D01*
X45011206Y-91927511D01*
X45000000Y-91876000D01*
X45000000Y-89124000D01*
X45019685Y-89056961D01*
X45072489Y-89011206D01*
X45124000Y-89000000D01*
X47876000Y-89000000D01*
X47943039Y-89019685D01*
G37*
%TD.AperFunction*%
%TA.AperFunction,NonConductor*%
G36*
X41943039Y-89019685D02*
G01*
X41988794Y-89072489D01*
X42000000Y-89124000D01*
X42000000Y-91876000D01*
X41980315Y-91943039D01*
X41927511Y-91988794D01*
X41876000Y-92000000D01*
X39974500Y-92000000D01*
X39907461Y-91980315D01*
X39861706Y-91927511D01*
X39851954Y-91882685D01*
X39850766Y-91882763D01*
X39850500Y-91878717D01*
X39850500Y-91878712D01*
X39818838Y-91638211D01*
X39756054Y-91403900D01*
X39663224Y-91179788D01*
X39541936Y-90969711D01*
X39394265Y-90777262D01*
X39394260Y-90777256D01*
X39222743Y-90605739D01*
X39222736Y-90605733D01*
X39048514Y-90472048D01*
X39007311Y-90415620D01*
X39000000Y-90373672D01*
X39000000Y-89124000D01*
X39019685Y-89056961D01*
X39072489Y-89011206D01*
X39124000Y-89000000D01*
X41876000Y-89000000D01*
X41943039Y-89019685D01*
G37*
%TD.AperFunction*%
%TA.AperFunction,NonConductor*%
G36*
X35943039Y-89019685D02*
G01*
X35988794Y-89072489D01*
X36000000Y-89124000D01*
X36000000Y-91876000D01*
X35980315Y-91943039D01*
X35927511Y-91988794D01*
X35876000Y-92000000D01*
X33124000Y-92000000D01*
X33056961Y-91980315D01*
X33011206Y-91927511D01*
X33000000Y-91876000D01*
X33000000Y-89124000D01*
X33019685Y-89056961D01*
X33072489Y-89011206D01*
X33124000Y-89000000D01*
X35876000Y-89000000D01*
X35943039Y-89019685D01*
G37*
%TD.AperFunction*%
%TA.AperFunction,NonConductor*%
G36*
X121280429Y-92019685D02*
G01*
X121326184Y-92072489D01*
X121337390Y-92124000D01*
X121337390Y-92625500D01*
X121317705Y-92692539D01*
X121264901Y-92738294D01*
X121213390Y-92749500D01*
X120124000Y-92749500D01*
X120056961Y-92729815D01*
X120011206Y-92677011D01*
X120000000Y-92625500D01*
X120000000Y-92124000D01*
X120019685Y-92056961D01*
X120072489Y-92011206D01*
X120124000Y-92000000D01*
X121213390Y-92000000D01*
X121280429Y-92019685D01*
G37*
%TD.AperFunction*%
%TA.AperFunction,NonConductor*%
G36*
X116943039Y-92019685D02*
G01*
X116988794Y-92072489D01*
X117000000Y-92124000D01*
X117000000Y-92625500D01*
X116980315Y-92692539D01*
X116927511Y-92738294D01*
X116876000Y-92749500D01*
X114124000Y-92749500D01*
X114056961Y-92729815D01*
X114011206Y-92677011D01*
X114000000Y-92625500D01*
X114000000Y-92124000D01*
X114019685Y-92056961D01*
X114072489Y-92011206D01*
X114124000Y-92000000D01*
X116876000Y-92000000D01*
X116943039Y-92019685D01*
G37*
%TD.AperFunction*%
%TA.AperFunction,NonConductor*%
G36*
X110943039Y-92019685D02*
G01*
X110988794Y-92072489D01*
X111000000Y-92124000D01*
X111000000Y-92625500D01*
X110980315Y-92692539D01*
X110927511Y-92738294D01*
X110876000Y-92749500D01*
X110062390Y-92749500D01*
X109995351Y-92729815D01*
X109949596Y-92677011D01*
X109938390Y-92625500D01*
X109938390Y-92124000D01*
X109958075Y-92056961D01*
X110010879Y-92011206D01*
X110062390Y-92000000D01*
X110876000Y-92000000D01*
X110943039Y-92019685D01*
G37*
%TD.AperFunction*%
%TA.AperFunction,NonConductor*%
G36*
X102233010Y-92019685D02*
G01*
X102278765Y-92072489D01*
X102289971Y-92124000D01*
X102289971Y-92625500D01*
X102270286Y-92692539D01*
X102217482Y-92738294D01*
X102165971Y-92749500D01*
X102124000Y-92749500D01*
X102056961Y-92729815D01*
X102011206Y-92677011D01*
X102000000Y-92625500D01*
X102000000Y-92124000D01*
X102019685Y-92056961D01*
X102072489Y-92011206D01*
X102124000Y-92000000D01*
X102165971Y-92000000D01*
X102233010Y-92019685D01*
G37*
%TD.AperFunction*%
%TA.AperFunction,NonConductor*%
G36*
X98943039Y-92019685D02*
G01*
X98988794Y-92072489D01*
X99000000Y-92124000D01*
X99000000Y-92625500D01*
X98980315Y-92692539D01*
X98927511Y-92738294D01*
X98876000Y-92749500D01*
X96124000Y-92749500D01*
X96056961Y-92729815D01*
X96011206Y-92677011D01*
X96000000Y-92625500D01*
X96000000Y-92124000D01*
X96019685Y-92056961D01*
X96072489Y-92011206D01*
X96124000Y-92000000D01*
X98876000Y-92000000D01*
X98943039Y-92019685D01*
G37*
%TD.AperFunction*%
%TA.AperFunction,NonConductor*%
G36*
X92943039Y-92019685D02*
G01*
X92988794Y-92072489D01*
X93000000Y-92124000D01*
X93000000Y-92625500D01*
X92980315Y-92692539D01*
X92927511Y-92738294D01*
X92876000Y-92749500D01*
X91014971Y-92749500D01*
X90947932Y-92729815D01*
X90902177Y-92677011D01*
X90890971Y-92625500D01*
X90890971Y-92124000D01*
X90910656Y-92056961D01*
X90963460Y-92011206D01*
X91014971Y-92000000D01*
X92876000Y-92000000D01*
X92943039Y-92019685D01*
G37*
%TD.AperFunction*%
%TA.AperFunction,NonConductor*%
G36*
X80943039Y-92019685D02*
G01*
X80988794Y-92072489D01*
X81000000Y-92124000D01*
X81000000Y-92625500D01*
X80980315Y-92692539D01*
X80927511Y-92738294D01*
X80876000Y-92749500D01*
X78124000Y-92749500D01*
X78056961Y-92729815D01*
X78011206Y-92677011D01*
X78000000Y-92625500D01*
X78000000Y-92124000D01*
X78019685Y-92056961D01*
X78072489Y-92011206D01*
X78124000Y-92000000D01*
X80876000Y-92000000D01*
X80943039Y-92019685D01*
G37*
%TD.AperFunction*%
%TA.AperFunction,NonConductor*%
G36*
X74943039Y-92019685D02*
G01*
X74988794Y-92072489D01*
X75000000Y-92124000D01*
X75000000Y-92625500D01*
X74980315Y-92692539D01*
X74927511Y-92738294D01*
X74876000Y-92749500D01*
X72124000Y-92749500D01*
X72056961Y-92729815D01*
X72011206Y-92677011D01*
X72000000Y-92625500D01*
X72000000Y-92124000D01*
X72019685Y-92056961D01*
X72072489Y-92011206D01*
X72124000Y-92000000D01*
X74876000Y-92000000D01*
X74943039Y-92019685D01*
G37*
%TD.AperFunction*%
%TA.AperFunction,NonConductor*%
G36*
X134943039Y-92019685D02*
G01*
X134988794Y-92072489D01*
X135000000Y-92124000D01*
X135000000Y-94876000D01*
X134980315Y-94943039D01*
X134927511Y-94988794D01*
X134876000Y-95000000D01*
X132124000Y-95000000D01*
X132056961Y-94980315D01*
X132011206Y-94927511D01*
X132000000Y-94876000D01*
X132000000Y-93974500D01*
X132019685Y-93907461D01*
X132072489Y-93861706D01*
X132117314Y-93851954D01*
X132117237Y-93850766D01*
X132121282Y-93850500D01*
X132121288Y-93850500D01*
X132361789Y-93818838D01*
X132596100Y-93756054D01*
X132820212Y-93663224D01*
X133030289Y-93541936D01*
X133222738Y-93394265D01*
X133394265Y-93222738D01*
X133541936Y-93030289D01*
X133663224Y-92820212D01*
X133756054Y-92596100D01*
X133818838Y-92361789D01*
X133850500Y-92121288D01*
X133850500Y-92121282D01*
X133850766Y-92117237D01*
X133852453Y-92117347D01*
X133870185Y-92056961D01*
X133922989Y-92011206D01*
X133974500Y-92000000D01*
X134876000Y-92000000D01*
X134943039Y-92019685D01*
G37*
%TD.AperFunction*%
%TA.AperFunction,NonConductor*%
G36*
X128943039Y-92019685D02*
G01*
X128988794Y-92072489D01*
X129000000Y-92124000D01*
X129000000Y-94876000D01*
X128980315Y-94943039D01*
X128927511Y-94988794D01*
X128876000Y-95000000D01*
X126124000Y-95000000D01*
X126056961Y-94980315D01*
X126011206Y-94927511D01*
X126000000Y-94876000D01*
X126000000Y-92124000D01*
X126019685Y-92056961D01*
X126072489Y-92011206D01*
X126124000Y-92000000D01*
X128876000Y-92000000D01*
X128943039Y-92019685D01*
G37*
%TD.AperFunction*%
%TA.AperFunction,NonConductor*%
G36*
X104930712Y-94226365D02*
G01*
X104982188Y-94273609D01*
X105000000Y-94337642D01*
X105000000Y-94876000D01*
X104980315Y-94943039D01*
X104927511Y-94988794D01*
X104876000Y-95000000D01*
X104602995Y-95000000D01*
X104535956Y-94980315D01*
X104490201Y-94927511D01*
X104480257Y-94858353D01*
X104502676Y-94803115D01*
X104609995Y-94655405D01*
X104699355Y-94480025D01*
X104758069Y-94299323D01*
X104797507Y-94241648D01*
X104861866Y-94214450D01*
X104930712Y-94226365D01*
G37*
%TD.AperFunction*%
%TA.AperFunction,NonConductor*%
G36*
X86943039Y-92019685D02*
G01*
X86988794Y-92072489D01*
X87000000Y-92124000D01*
X87000000Y-94876000D01*
X86980315Y-94943039D01*
X86927511Y-94988794D01*
X86876000Y-95000000D01*
X85545024Y-95000000D01*
X85477985Y-94980315D01*
X85432230Y-94927511D01*
X85422286Y-94858353D01*
X85444705Y-94803115D01*
X85552024Y-94655405D01*
X85641384Y-94480025D01*
X85702209Y-94292826D01*
X85710315Y-94241648D01*
X85733000Y-94098422D01*
X85733000Y-92124000D01*
X85752685Y-92056961D01*
X85805489Y-92011206D01*
X85857000Y-92000000D01*
X86876000Y-92000000D01*
X86943039Y-92019685D01*
G37*
%TD.AperFunction*%
%TA.AperFunction,NonConductor*%
G36*
X68943039Y-92019685D02*
G01*
X68988794Y-92072489D01*
X69000000Y-92124000D01*
X69000000Y-94876000D01*
X68980315Y-94943039D01*
X68927511Y-94988794D01*
X68876000Y-95000000D01*
X66124000Y-95000000D01*
X66056961Y-94980315D01*
X66011206Y-94927511D01*
X66000000Y-94876000D01*
X66000000Y-92124000D01*
X66019685Y-92056961D01*
X66072489Y-92011206D01*
X66124000Y-92000000D01*
X68876000Y-92000000D01*
X68943039Y-92019685D01*
G37*
%TD.AperFunction*%
%TA.AperFunction,NonConductor*%
G36*
X62943039Y-92019685D02*
G01*
X62988794Y-92072489D01*
X63000000Y-92124000D01*
X63000000Y-94876000D01*
X62980315Y-94943039D01*
X62927511Y-94988794D01*
X62876000Y-95000000D01*
X60124000Y-95000000D01*
X60056961Y-94980315D01*
X60011206Y-94927511D01*
X60000000Y-94876000D01*
X60000000Y-92124000D01*
X60019685Y-92056961D01*
X60072489Y-92011206D01*
X60124000Y-92000000D01*
X62876000Y-92000000D01*
X62943039Y-92019685D01*
G37*
%TD.AperFunction*%
%TA.AperFunction,NonConductor*%
G36*
X56943039Y-92019685D02*
G01*
X56988794Y-92072489D01*
X57000000Y-92124000D01*
X57000000Y-94876000D01*
X56980315Y-94943039D01*
X56927511Y-94988794D01*
X56876000Y-95000000D01*
X54124000Y-95000000D01*
X54056961Y-94980315D01*
X54011206Y-94927511D01*
X54000000Y-94876000D01*
X54000000Y-92124000D01*
X54019685Y-92056961D01*
X54072489Y-92011206D01*
X54124000Y-92000000D01*
X56876000Y-92000000D01*
X56943039Y-92019685D01*
G37*
%TD.AperFunction*%
%TA.AperFunction,NonConductor*%
G36*
X50943039Y-92019685D02*
G01*
X50988794Y-92072489D01*
X51000000Y-92124000D01*
X51000000Y-94876000D01*
X50980315Y-94943039D01*
X50927511Y-94988794D01*
X50876000Y-95000000D01*
X48124000Y-95000000D01*
X48056961Y-94980315D01*
X48011206Y-94927511D01*
X48000000Y-94876000D01*
X48000000Y-92124000D01*
X48019685Y-92056961D01*
X48072489Y-92011206D01*
X48124000Y-92000000D01*
X50876000Y-92000000D01*
X50943039Y-92019685D01*
G37*
%TD.AperFunction*%
%TA.AperFunction,NonConductor*%
G36*
X44943039Y-92019685D02*
G01*
X44988794Y-92072489D01*
X45000000Y-92124000D01*
X45000000Y-94876000D01*
X44980315Y-94943039D01*
X44927511Y-94988794D01*
X44876000Y-95000000D01*
X42124000Y-95000000D01*
X42056961Y-94980315D01*
X42011206Y-94927511D01*
X42000000Y-94876000D01*
X42000000Y-92124000D01*
X42019685Y-92056961D01*
X42072489Y-92011206D01*
X42124000Y-92000000D01*
X44876000Y-92000000D01*
X44943039Y-92019685D01*
G37*
%TD.AperFunction*%
%TA.AperFunction,NonConductor*%
G36*
X36205203Y-92533841D02*
G01*
X36242977Y-92592619D01*
X36243761Y-92595410D01*
X36243946Y-92596100D01*
X36243948Y-92596106D01*
X36307486Y-92749500D01*
X36336776Y-92820212D01*
X36458064Y-93030289D01*
X36458066Y-93030292D01*
X36458067Y-93030293D01*
X36605733Y-93222736D01*
X36605739Y-93222743D01*
X36777256Y-93394260D01*
X36777262Y-93394265D01*
X36969711Y-93541936D01*
X37179788Y-93663224D01*
X37403900Y-93756054D01*
X37638211Y-93818838D01*
X37818586Y-93842584D01*
X37878711Y-93850500D01*
X37878712Y-93850500D01*
X38121289Y-93850500D01*
X38169388Y-93844167D01*
X38361789Y-93818838D01*
X38596100Y-93756054D01*
X38820212Y-93663224D01*
X38820223Y-93663217D01*
X38821138Y-93662767D01*
X38821445Y-93662713D01*
X38823962Y-93661671D01*
X38824195Y-93662233D01*
X38889968Y-93650759D01*
X38954364Y-93677870D01*
X38993879Y-93735492D01*
X39000000Y-93773970D01*
X39000000Y-94876000D01*
X38980315Y-94943039D01*
X38927511Y-94988794D01*
X38876000Y-95000000D01*
X36124000Y-95000000D01*
X36056961Y-94980315D01*
X36011206Y-94927511D01*
X36000000Y-94876000D01*
X36000000Y-92627554D01*
X36019685Y-92560515D01*
X36072489Y-92514760D01*
X36141647Y-92504816D01*
X36205203Y-92533841D01*
G37*
%TD.AperFunction*%
%TA.AperFunction,NonConductor*%
G36*
X32943039Y-92019685D02*
G01*
X32988794Y-92072489D01*
X33000000Y-92124000D01*
X33000000Y-94876000D01*
X32980315Y-94943039D01*
X32927511Y-94988794D01*
X32876000Y-95000000D01*
X32624500Y-95000000D01*
X32557461Y-94980315D01*
X32511706Y-94927511D01*
X32500500Y-94876000D01*
X32500500Y-92124000D01*
X32520185Y-92056961D01*
X32572989Y-92011206D01*
X32624500Y-92000000D01*
X32876000Y-92000000D01*
X32943039Y-92019685D01*
G37*
%TD.AperFunction*%
%TA.AperFunction,NonConductor*%
G36*
X137454915Y-95019685D02*
G01*
X137500670Y-95072489D01*
X137511876Y-95124000D01*
X137511876Y-96512268D01*
X137511875Y-96512286D01*
X137511875Y-96581348D01*
X137511559Y-96590192D01*
X137497249Y-96790322D01*
X137494732Y-96807834D01*
X137453025Y-96999571D01*
X137448040Y-97016547D01*
X137379478Y-97200376D01*
X137372129Y-97216470D01*
X137278096Y-97388683D01*
X137268531Y-97403567D01*
X137150948Y-97560642D01*
X137139362Y-97574013D01*
X137000621Y-97712755D01*
X136987250Y-97724341D01*
X136830173Y-97841928D01*
X136815291Y-97851491D01*
X136676071Y-97927511D01*
X136643088Y-97945521D01*
X136626996Y-97952870D01*
X136558126Y-97978557D01*
X136521595Y-97992182D01*
X136478263Y-98000000D01*
X135124000Y-98000000D01*
X135056961Y-97980315D01*
X135011206Y-97927511D01*
X135000000Y-97876000D01*
X135000000Y-95124000D01*
X135019685Y-95056961D01*
X135072489Y-95011206D01*
X135124000Y-95000000D01*
X137387876Y-95000000D01*
X137454915Y-95019685D01*
G37*
%TD.AperFunction*%
%TA.AperFunction,NonConductor*%
G36*
X131943039Y-95019685D02*
G01*
X131988794Y-95072489D01*
X132000000Y-95124000D01*
X132000000Y-97876000D01*
X131980315Y-97943039D01*
X131927511Y-97988794D01*
X131876000Y-98000000D01*
X129124000Y-98000000D01*
X129056961Y-97980315D01*
X129011206Y-97927511D01*
X129000000Y-97876000D01*
X129000000Y-95124000D01*
X129019685Y-95056961D01*
X129072489Y-95011206D01*
X129124000Y-95000000D01*
X131876000Y-95000000D01*
X131943039Y-95019685D01*
G37*
%TD.AperFunction*%
%TA.AperFunction,NonConductor*%
G36*
X125943039Y-95019685D02*
G01*
X125988794Y-95072489D01*
X126000000Y-95124000D01*
X126000000Y-97876000D01*
X125980315Y-97943039D01*
X125927511Y-97988794D01*
X125876000Y-98000000D01*
X123124000Y-98000000D01*
X123056961Y-97980315D01*
X123011206Y-97927511D01*
X123000000Y-97876000D01*
X123000000Y-95269476D01*
X123019685Y-95202437D01*
X123067705Y-95158991D01*
X123067919Y-95158882D01*
X123243295Y-95069524D01*
X123275780Y-95045922D01*
X123306392Y-95023682D01*
X123372198Y-95000202D01*
X123379277Y-95000000D01*
X125876000Y-95000000D01*
X125943039Y-95019685D01*
G37*
%TD.AperFunction*%
%TA.AperFunction,NonConductor*%
G36*
X119943039Y-95270185D02*
G01*
X119988794Y-95322989D01*
X120000000Y-95374500D01*
X120000000Y-97876000D01*
X119980315Y-97943039D01*
X119927511Y-97988794D01*
X119876000Y-98000000D01*
X117124000Y-98000000D01*
X117056961Y-97980315D01*
X117011206Y-97927511D01*
X117000000Y-97876000D01*
X117000000Y-95374500D01*
X117019685Y-95307461D01*
X117072489Y-95261706D01*
X117124000Y-95250500D01*
X119876000Y-95250500D01*
X119943039Y-95270185D01*
G37*
%TD.AperFunction*%
%TA.AperFunction,NonConductor*%
G36*
X113943039Y-95270185D02*
G01*
X113988794Y-95322989D01*
X114000000Y-95374500D01*
X114000000Y-97876000D01*
X113980315Y-97943039D01*
X113927511Y-97988794D01*
X113876000Y-98000000D01*
X111124000Y-98000000D01*
X111056961Y-97980315D01*
X111011206Y-97927511D01*
X111000000Y-97876000D01*
X111000000Y-95374500D01*
X111019685Y-95307461D01*
X111072489Y-95261706D01*
X111124000Y-95250500D01*
X113876000Y-95250500D01*
X113943039Y-95270185D01*
G37*
%TD.AperFunction*%
%TA.AperFunction,NonConductor*%
G36*
X107943039Y-95019685D02*
G01*
X107988794Y-95072489D01*
X108000000Y-95124000D01*
X108000000Y-97876000D01*
X107980315Y-97943039D01*
X107927511Y-97988794D01*
X107876000Y-98000000D01*
X105124000Y-98000000D01*
X105056961Y-97980315D01*
X105011206Y-97927511D01*
X105000000Y-97876000D01*
X105000000Y-95124000D01*
X105019685Y-95056961D01*
X105072489Y-95011206D01*
X105124000Y-95000000D01*
X107876000Y-95000000D01*
X107943039Y-95019685D01*
G37*
%TD.AperFunction*%
%TA.AperFunction,NonConductor*%
G36*
X101943039Y-95270185D02*
G01*
X101988794Y-95322989D01*
X102000000Y-95374500D01*
X102000000Y-97876000D01*
X101980315Y-97943039D01*
X101927511Y-97988794D01*
X101876000Y-98000000D01*
X99124000Y-98000000D01*
X99056961Y-97980315D01*
X99011206Y-97927511D01*
X99000000Y-97876000D01*
X99000000Y-95374500D01*
X99019685Y-95307461D01*
X99072489Y-95261706D01*
X99124000Y-95250500D01*
X101876000Y-95250500D01*
X101943039Y-95270185D01*
G37*
%TD.AperFunction*%
%TA.AperFunction,NonConductor*%
G36*
X95943039Y-95270185D02*
G01*
X95988794Y-95322989D01*
X96000000Y-95374500D01*
X96000000Y-97876000D01*
X95980315Y-97943039D01*
X95927511Y-97988794D01*
X95876000Y-98000000D01*
X93124000Y-98000000D01*
X93056961Y-97980315D01*
X93011206Y-97927511D01*
X93000000Y-97876000D01*
X93000000Y-95374500D01*
X93019685Y-95307461D01*
X93072489Y-95261706D01*
X93124000Y-95250500D01*
X95876000Y-95250500D01*
X95943039Y-95270185D01*
G37*
%TD.AperFunction*%
%TA.AperFunction,NonConductor*%
G36*
X88916123Y-95019685D02*
G01*
X88921969Y-95023682D01*
X88979281Y-95065321D01*
X88985066Y-95069524D01*
X89091982Y-95124000D01*
X89160441Y-95158882D01*
X89160443Y-95158882D01*
X89160446Y-95158884D01*
X89228361Y-95180951D01*
X89347644Y-95219709D01*
X89542049Y-95250500D01*
X89542054Y-95250500D01*
X89876000Y-95250500D01*
X89943039Y-95270185D01*
X89988794Y-95322989D01*
X90000000Y-95374500D01*
X90000000Y-97876000D01*
X89980315Y-97943039D01*
X89927511Y-97988794D01*
X89876000Y-98000000D01*
X87124000Y-98000000D01*
X87056961Y-97980315D01*
X87011206Y-97927511D01*
X87000000Y-97876000D01*
X87000000Y-95124000D01*
X87019685Y-95056961D01*
X87072489Y-95011206D01*
X87124000Y-95000000D01*
X88849084Y-95000000D01*
X88916123Y-95019685D01*
G37*
%TD.AperFunction*%
%TA.AperFunction,NonConductor*%
G36*
X83943039Y-95270185D02*
G01*
X83988794Y-95322989D01*
X84000000Y-95374500D01*
X84000000Y-97876000D01*
X83980315Y-97943039D01*
X83927511Y-97988794D01*
X83876000Y-98000000D01*
X81124000Y-98000000D01*
X81056961Y-97980315D01*
X81011206Y-97927511D01*
X81000000Y-97876000D01*
X81000000Y-95374500D01*
X81019685Y-95307461D01*
X81072489Y-95261706D01*
X81124000Y-95250500D01*
X83876000Y-95250500D01*
X83943039Y-95270185D01*
G37*
%TD.AperFunction*%
%TA.AperFunction,NonConductor*%
G36*
X77943039Y-95270185D02*
G01*
X77988794Y-95322989D01*
X78000000Y-95374500D01*
X78000000Y-97876000D01*
X77980315Y-97943039D01*
X77927511Y-97988794D01*
X77876000Y-98000000D01*
X75124000Y-98000000D01*
X75056961Y-97980315D01*
X75011206Y-97927511D01*
X75000000Y-97876000D01*
X75000000Y-95374500D01*
X75019685Y-95307461D01*
X75072489Y-95261706D01*
X75124000Y-95250500D01*
X77876000Y-95250500D01*
X77943039Y-95270185D01*
G37*
%TD.AperFunction*%
%TA.AperFunction,NonConductor*%
G36*
X69858152Y-95019685D02*
G01*
X69863998Y-95023682D01*
X69921310Y-95065321D01*
X69927095Y-95069524D01*
X70034011Y-95124000D01*
X70102470Y-95158882D01*
X70102472Y-95158882D01*
X70102475Y-95158884D01*
X70170390Y-95180951D01*
X70289673Y-95219709D01*
X70484078Y-95250500D01*
X70484083Y-95250500D01*
X71876000Y-95250500D01*
X71943039Y-95270185D01*
X71988794Y-95322989D01*
X72000000Y-95374500D01*
X72000000Y-97876000D01*
X71980315Y-97943039D01*
X71927511Y-97988794D01*
X71876000Y-98000000D01*
X69124000Y-98000000D01*
X69056961Y-97980315D01*
X69011206Y-97927511D01*
X69000000Y-97876000D01*
X69000000Y-95124000D01*
X69019685Y-95056961D01*
X69072489Y-95011206D01*
X69124000Y-95000000D01*
X69791113Y-95000000D01*
X69858152Y-95019685D01*
G37*
%TD.AperFunction*%
%TA.AperFunction,NonConductor*%
G36*
X65943039Y-95019685D02*
G01*
X65988794Y-95072489D01*
X66000000Y-95124000D01*
X66000000Y-97876000D01*
X65980315Y-97943039D01*
X65927511Y-97988794D01*
X65876000Y-98000000D01*
X63124000Y-98000000D01*
X63056961Y-97980315D01*
X63011206Y-97927511D01*
X63000000Y-97876000D01*
X63000000Y-95124000D01*
X63019685Y-95056961D01*
X63072489Y-95011206D01*
X63124000Y-95000000D01*
X65876000Y-95000000D01*
X65943039Y-95019685D01*
G37*
%TD.AperFunction*%
%TA.AperFunction,NonConductor*%
G36*
X59943039Y-95019685D02*
G01*
X59988794Y-95072489D01*
X60000000Y-95124000D01*
X60000000Y-97876000D01*
X59980315Y-97943039D01*
X59927511Y-97988794D01*
X59876000Y-98000000D01*
X57124000Y-98000000D01*
X57056961Y-97980315D01*
X57011206Y-97927511D01*
X57000000Y-97876000D01*
X57000000Y-95124000D01*
X57019685Y-95056961D01*
X57072489Y-95011206D01*
X57124000Y-95000000D01*
X59876000Y-95000000D01*
X59943039Y-95019685D01*
G37*
%TD.AperFunction*%
%TA.AperFunction,NonConductor*%
G36*
X53943039Y-95019685D02*
G01*
X53988794Y-95072489D01*
X54000000Y-95124000D01*
X54000000Y-97876000D01*
X53980315Y-97943039D01*
X53927511Y-97988794D01*
X53876000Y-98000000D01*
X51124000Y-98000000D01*
X51056961Y-97980315D01*
X51011206Y-97927511D01*
X51000000Y-97876000D01*
X51000000Y-95124000D01*
X51019685Y-95056961D01*
X51072489Y-95011206D01*
X51124000Y-95000000D01*
X53876000Y-95000000D01*
X53943039Y-95019685D01*
G37*
%TD.AperFunction*%
%TA.AperFunction,NonConductor*%
G36*
X47943039Y-95019685D02*
G01*
X47988794Y-95072489D01*
X48000000Y-95124000D01*
X48000000Y-97876000D01*
X47980315Y-97943039D01*
X47927511Y-97988794D01*
X47876000Y-98000000D01*
X45124000Y-98000000D01*
X45056961Y-97980315D01*
X45011206Y-97927511D01*
X45000000Y-97876000D01*
X45000000Y-95124000D01*
X45019685Y-95056961D01*
X45072489Y-95011206D01*
X45124000Y-95000000D01*
X47876000Y-95000000D01*
X47943039Y-95019685D01*
G37*
%TD.AperFunction*%
%TA.AperFunction,NonConductor*%
G36*
X41943039Y-95019685D02*
G01*
X41988794Y-95072489D01*
X42000000Y-95124000D01*
X42000000Y-97876000D01*
X41980315Y-97943039D01*
X41927511Y-97988794D01*
X41876000Y-98000000D01*
X39124000Y-98000000D01*
X39056961Y-97980315D01*
X39011206Y-97927511D01*
X39000000Y-97876000D01*
X39000000Y-95124000D01*
X39019685Y-95056961D01*
X39072489Y-95011206D01*
X39124000Y-95000000D01*
X41876000Y-95000000D01*
X41943039Y-95019685D01*
G37*
%TD.AperFunction*%
%TA.AperFunction,NonConductor*%
G36*
X35943039Y-95019685D02*
G01*
X35988794Y-95072489D01*
X36000000Y-95124000D01*
X36000000Y-97876000D01*
X35980315Y-97943039D01*
X35927511Y-97988794D01*
X35876000Y-98000000D01*
X33531430Y-98000000D01*
X33488015Y-97992151D01*
X33385245Y-97953738D01*
X33369164Y-97946380D01*
X33196845Y-97852130D01*
X33181970Y-97842556D01*
X33049620Y-97743335D01*
X33007788Y-97687372D01*
X33000000Y-97644120D01*
X33000000Y-95124000D01*
X33019685Y-95056961D01*
X33072489Y-95011206D01*
X33124000Y-95000000D01*
X35876000Y-95000000D01*
X35943039Y-95019685D01*
G37*
%TD.AperFunction*%
M02*
